<svg xmlns="http://www.w3.org/2000/svg" xmlns:xlink="http://www.w3.org/1999/xlink" width="360" height="360" viewBox="0 0 360 360">
  <defs>
    <clipPath id="clip-path">
      <path id="Path_15485" data-name="Path 15485" d="M11.993,707.264a7,7,0,1,0,7-7,7,7,0,0,0-7,7" transform="translate(-11.993 -700.264)" fill="#7fa2ea"/>
    </clipPath>
    <clipPath id="clip-path-2">
      <circle id="Ellipse_4929" data-name="Ellipse 4929" cx="30" cy="30" r="30" fill="#fff"/>
    </clipPath>
    <clipPath id="clip-path-3">
      <path id="Path_15485-2" data-name="Path 15485" d="M11.993,707.264a7,7,0,1,0,7-7,7,7,0,0,0-7,7" transform="translate(-11.993 -700.264)" fill="none"/>
    </clipPath>
    <clipPath id="clip-path-4">
      <path id="Path_284685" data-name="Path 284685" d="M11.993,720.264a20,20,0,1,0,20-20,20,20,0,0,0-20,20" transform="translate(-11.993 -700.264)" fill="none"/>
    </clipPath>
  </defs>
  <g id="Group_89808" data-name="Group 89808" transform="translate(-300 -318)">
    <rect id="Rectangle_11740" data-name="Rectangle 11740" width="360" height="360" transform="translate(300 318)" fill="#fff"/>
    <g id="Layer_2" data-name="Layer 2" transform="translate(-370 -27.7)">
      <g id="image" transform="translate(760 345.7)">
        <g id="Group_54013" data-name="Group 54013">
          <path id="Path_283826" data-name="Path 283826" d="M785.55,345.7h128.9A25.313,25.313,0,0,1,940,370.8V680.6a25.281,25.281,0,0,1-25.55,25.1H785.55A25.239,25.239,0,0,1,760,680.646V370.8A25.313,25.313,0,0,1,785.55,345.7Z" transform="translate(-760 -345.7)" fill="#dde5fa"/>
        </g>
        <g id="Group_54014" data-name="Group 54014" transform="translate(10 40)">
          <path id="Rectangle_9117" data-name="Rectangle 9117" d="M792.667,452.367h148a6.018,6.018,0,0,1,6,6v248a6.018,6.018,0,0,1-6,6h-148a6.018,6.018,0,0,1-6-6v-248A6.018,6.018,0,0,1,792.667,452.367Z" transform="translate(-786.667 -452.367)" fill="#fff"/>
        </g>
        <g id="Group_54020" data-name="Group 54020" transform="translate(75.022 315.043)">
          <g id="Group_54015" data-name="Group 54015">
            <path id="Path_283827" data-name="Path 283827" d="M975.059,1215.683a14.98,14.98,0,0,1-15-15h0a15,15,0,1,1,15,15Zm0-23a8.024,8.024,0,0,0-8,8h0a8,8,0,1,0,8-8Z" transform="translate(-960.059 -1185.683)" fill="#7fa2ea"/>
          </g>
        </g>
        <path id="Path_291622" data-name="Path 291622" d="M982.66,396.367h-32a4.012,4.012,0,0,1-4-4h0a4.012,4.012,0,0,1,4-4h32a4.012,4.012,0,0,1,4,4h0A4.012,4.012,0,0,1,982.66,396.367Z" transform="translate(-876.663 -372.367)" fill="#7fa2ea"/>
      </g>
    </g>
    <g id="Group_54305" data-name="Group 54305" transform="translate(533 462)">
      <g id="Group_7318" data-name="Group 7318" transform="translate(7 5)" clip-path="url(#clip-path)">
        <path id="Path_15465" data-name="Path 15465" d="M25.992,707.263a7,7,0,1,1-7-7,7,7,0,0,1,7,7" transform="translate(-11.992 -700.263)" fill="#7fa2ea"/>
      </g>
    </g>
    <path id="Path_291623" data-name="Path 291623" d="M148.983,57.633H29.11c-9.759,0-17.67,10.136-17.67,22.637V113a18.058,18.058,0,0,1-4.788,12.66h0a10.041,10.041,0,0,0,8.148.583c3.209,5.684,8.414,9.393,14.31,9.393H148.983c9.757,0,17.668-10.133,17.668-22.637V80.27C166.651,67.769,158.74,57.633,148.983,57.633Z" transform="translate(415.349 439.367)" fill="#faabac"/>
    <g id="Group_89807" data-name="Group 89807" transform="translate(-14.5 -4.5)">
      <line id="Line_648" data-name="Line 648" x2="124" transform="translate(457.5 520.5)" fill="none" stroke="#fff" stroke-linecap="round" stroke-width="3"/>
      <line id="Line_649" data-name="Line 649" x2="53.5" transform="translate(457.5 540.5)" fill="none" stroke="#fff" stroke-linecap="round" stroke-width="3"/>
      <line id="Line_650" data-name="Line 650" x2="57.5" transform="translate(524.5 540.5)" fill="none" stroke="#fff" stroke-linecap="round" stroke-width="3"/>
      <line id="Line_651" data-name="Line 651" x2="82" transform="translate(457.5 560.5)" fill="none" stroke="#fff" stroke-linecap="round" stroke-width="3"/>
      <line id="Line_652" data-name="Line 652" x2="29" transform="translate(553 560.5)" fill="none" stroke="#fff" stroke-linecap="round" stroke-width="3"/>
    </g>
    <path id="Path_291624" data-name="Path 291624" d="M114.256,57.633H234.129c9.759,0,17.668,9.356,17.668,20.9v30.209a15.98,15.98,0,0,0,4.791,11.686h0a10.8,10.8,0,0,1-8.148.539c-3.209,5.247-8.415,8.671-14.31,8.671H114.256c-9.757,0-17.668-9.354-17.668-20.9V78.528C96.588,66.989,104.5,57.633,114.256,57.633Z" transform="translate(279.412 351.367)" fill="#7fa2ea"/>
    <g id="Group_89806" data-name="Group 89806" transform="translate(13.5 4.5)">
      <line id="Line_653" data-name="Line 653" x2="120" transform="translate(382.5 420.5)" fill="none" stroke="#fff" stroke-linecap="round" stroke-width="3"/>
      <line id="Line_654" data-name="Line 654" x2="83.5" transform="translate(382.5 439.7)" fill="none" stroke="#fff" stroke-linecap="round" stroke-width="3"/>
      <line id="Line_655" data-name="Line 655" x2="24" transform="translate(478.5 439.7)" fill="none" stroke="#fff" stroke-linecap="round" stroke-width="3"/>
      <line id="Line_656" data-name="Line 656" x2="63" transform="translate(382.5 460.5)" fill="none" stroke="#fff" stroke-linecap="round" stroke-width="3"/>
      <line id="Line_657" data-name="Line 657" x2="44" transform="translate(458.5 460.5)" fill="none" stroke="#fff" stroke-linecap="round" stroke-width="3"/>
    </g>
    <g id="Component_15" data-name="Component 15" transform="translate(605.287 384.431) rotate(45)">
      <g id="Ellipse_4927" data-name="Ellipse 4927" fill="#fafafa" stroke="#ff7b74" stroke-width="2">
        <circle cx="20" cy="20" r="20" stroke="none"/>
        <circle cx="20" cy="20" r="19" fill="none"/>
      </g>
      <path id="Path_291802" data-name="Path 291802" d="M340.175,268.285c-4-2.423-10.248-8.714-9.992-14.3.264-5.773,7.052-8.231,9.992-2.216,2.941-6.016,9.728-3.558,9.992,2.216C350.423,259.571,344.174,265.862,340.175,268.285Z" transform="translate(-320.156 -236.647)" fill="#ff7b74"/>
    </g>
    <g id="Component_16" data-name="Component 16" transform="translate(300.878 487.426) rotate(-45)">
      <g id="Ellipse_4928" data-name="Ellipse 4928" fill="#fff" stroke="#ffc35d" stroke-width="2">
        <circle cx="30" cy="30" r="30" stroke="none"/>
        <circle cx="30" cy="30" r="29" fill="none"/>
      </g>
      <g id="Mask_Group_58618" data-name="Mask Group 58618" clip-path="url(#clip-path-2)">
        <g id="Group_60032" data-name="Group 60032" transform="translate(-2.5 14.827)">
          <path id="Path_285644" data-name="Path 285644" d="M256.953,381.839c-.184,1.294-6.672,8.415-8.554,9.465s-10.1,5.93-10.1,5.93a9.285,9.285,0,0,1-3.737,1.092c-1.619.079-8.044-1.715-8.044-1.715s-4.988-1.529-7.125-1.431a23.072,23.072,0,0,0-7.432,2.469A61.651,61.651,0,0,0,207.1,401.5l-2.4-4.475-2.727-4.678,4.51-2.382,5.249-2.649,3.046-2.947c3.129-2.265,4.572-2.138,6.12-2.2a13.259,13.259,0,0,1,3.711.325h.022a4.331,4.331,0,0,1,.816.158c.522.144,1.033.358,1.519.5.017.007.033.009.05.015.1.033.194.065.291.1s.182.057.273.083c.159.049.315.1.467.146.168.054.333.112.5.173l.268.074,5.565,1.552,1.167.327.857.24.575.159,1.16.228c.442.1,1.075.326,1.5.4.079.037.585.141.673.17.667.216,2.11.665,2.335,1.51a.569.569,0,0,1,.015.064s0,.008,0,.01a.828.828,0,0,1,.015.109c0,.031,0,.063,0,.094-.066,1.121-1.491,1.371-2.1,1.426a19.489,19.489,0,0,1-3.761-.122c-.571-.056-1.162-.115-1.777-.152a24.4,24.4,0,0,0-4.961.2c-.382.054-.761.135-1.126.216a8.653,8.653,0,0,1-1.85.265.369.369,0,0,0-.088-.017.3.3,0,0,0-.114.012.379.379,0,0,0-.294.347.373.373,0,0,0,.242.375.343.343,0,0,0,.086.022.2.2,0,0,0,.034,0,.487.487,0,0,0,.073,0h0a.3.3,0,0,0,.076-.02,9.347,9.347,0,0,0,1.983-.28c.351-.076.718-.155,1.076-.208a23.647,23.647,0,0,1,4.813-.193c.6.036,1.184.094,1.75.15a20.041,20.041,0,0,0,3.9.122c1.658-.15,2.689-.935,2.759-2.1a1.485,1.485,0,0,0-.1-.63,2.445,2.445,0,0,0-1.146-1.17c2.128-.773,7.161-5.007,8.313-5.7.525-.317.984-.651,1.471-.895h0a3.147,3.147,0,0,1,2.612-.147C255.436,380.4,257.139,380.545,256.953,381.839Z" transform="translate(-201.967 -369.45)" fill="#ffc35d"/>
          <path id="Path_285645" data-name="Path 285645" d="M451.519,301.463a6.208,6.208,0,0,1-.133.888,6.288,6.288,0,0,1-1.423,2.836,24.3,24.3,0,0,1-3.781,2.959c-.927.581-3.731,1.976-5.162,1.976a1.689,1.689,0,0,1-.431-.048c-.98-.248-1.934-1.492-2.824-2.742-.107-.149-.2-.279-.27-.373a20.532,20.532,0,0,1-1.386-2.138c-.222-.39-.4-.736-.522-.984-.07-.147-.143-.294-.212-.439a5.724,5.724,0,0,1-.674-4.54,4.658,4.658,0,0,1,4.321-3.733,4.739,4.739,0,0,1,1.113.14,6.329,6.329,0,0,1,3.625,2.618,6.928,6.928,0,0,1,2.786-.744c.053,0,.106,0,.159,0a5.115,5.115,0,0,1,3.455,1.131A4.2,4.2,0,0,1,451.519,301.463Z" transform="translate(-405.837 -295.126)" fill="#ff7b74"/>
        </g>
      </g>
    </g>
    <g id="Group_7318-2" data-name="Group 7318" transform="translate(404.014 559.014)" clip-path="url(#clip-path-3)">
      <path id="Path_15465-2" data-name="Path 15465" d="M25.992,707.263a7,7,0,1,1-7-7,7,7,0,0,1,7,7" transform="translate(-11.992 -700.263)" fill="#f4d0d0"/>
    </g>
    <g id="Group_54308" data-name="Group 54308" transform="translate(345.304 535)" clip-path="url(#clip-path-4)">
      <path id="Path_284653" data-name="Path 284653" d="M51.992,720.263a20,20,0,1,1-20-20,20,20,0,0,1,20,20" transform="translate(-11.992 -700.263)" fill="#f4d0d0"/>
      <g id="Group_54307" data-name="Group 54307" transform="translate(3.125 9.352)">
        <path id="Path_284654" data-name="Path 284654" d="M2440.537,615.212c-.36-1.771-1.046-4.061-2.539-5.223-1.171-.913-2.664-.879-4.07-1.132a15.58,15.58,0,0,1,.558-1.8c.1-.257-.313-.368-.412-.111a14.774,14.774,0,0,0-.566,1.818,4.758,4.758,0,0,1-1.183-.429c-.245-.129-.459.24-.214.369a4.95,4.95,0,0,0,1.3.472,13.959,13.959,0,0,0-.262,1.788,13.365,13.365,0,0,0,0,2.157c.1,1.2.493,2.466-.626,3.319a20.741,20.741,0,0,1-2.805,1.672c-1.71.922-3.82,1.518-5.33,2.749-.708.574-1.57,1.788-.931,2.689a.816.816,0,0,0,.078.1,1.024,1.024,0,0,0,.231.2,1.734,1.734,0,0,0,1.05.21,18.754,18.754,0,0,0,3.083-.669q1.646-.38,3.285-.781c1.12-.279,2.23-.562,3.34-.866a14.978,14.978,0,0,0,5.154-2.042C2441.073,618.655,2440.846,616.747,2440.537,615.212Z" transform="translate(-2400.837 -554.987)" fill="#f7e1d4"/>
        <path id="Path_284655" data-name="Path 284655" d="M2401.875,482.206c-.39-.553-1.33-.446-1.9-.433a13.91,13.91,0,0,0-3.409.54,16.925,16.925,0,0,0-13.366-2.067.176.176,0,0,0-.086.043c-.7-.583-1.244-1.329-1.986-1.882-.462-.347-1.089-.776-1.6-.326-.708.613-.6,1.908-.57,2.732a20.763,20.763,0,0,0,.218,2.384c-1.157,3.512-3.085,6.817-1.627,10.406a17.361,17.361,0,0,0,2.367,3.876c4.055,5.316,11.973,3.548,16.619.1a9.858,9.858,0,0,0,3.761-4.893,6.472,6.472,0,0,0,.249-1.286,9.208,9.208,0,0,0-.386-3.426c-.082-.279-.171-.557-.266-.832.588-.952,1.106-1.938,1.6-2.942C2401.775,483.651,2402.312,482.819,2401.875,482.206Z" transform="translate(-2373.2 -477.887)" fill="#f7e1d4"/>
        <path id="Path_284656" data-name="Path 284656" d="M2430.892,546.75c-.012.1-.029.2-.046.3a17.939,17.939,0,0,1-1.7,4.7,18.847,18.847,0,0,1-1.355,2.384,12.712,12.712,0,0,1-4.378,4.1c-.073.043-.142.081-.214.12a17.892,17.892,0,0,1-8.354,1.981,10.416,10.416,0,0,1-1.822,1.857,23.409,23.409,0,0,1-4.353,1.587,35.889,35.889,0,0,1-9.854,1.994,6.285,6.285,0,0,1-.9-.026,2.558,2.558,0,0,1-.485-.094,1.55,1.55,0,0,1-.887-.553,1.447,1.447,0,0,1-.146-.257,1.209,1.209,0,0,1-.068-.193,1.925,1.925,0,0,1,.921-1.909c.193-.146.4-.287.6-.42a30.038,30.038,0,0,1,3.8-1.964c1.423-.673,2.882-1.265,4.365-1.8a9.956,9.956,0,0,1-2.1-3.276c-.48-.978-.905-1.981-1.291-3a23.372,23.372,0,0,1-2.8-1.608,29.649,29.649,0,0,1-2.551-1.9,58.859,58.859,0,0,1-4.429-4.113,15.3,15.3,0,0,1-1.39-1.569c.193.261-.781,2.813-.88,3.238-.219.909-.437,1.823-.66,2.732-.63,2.594-1.295,5.18-2.114,7.723-.321,1-.669,2-1.05,2.985-.923,2.4-2.419,5.887-5.125,6.724a3.328,3.328,0,0,1-.467.111,3.8,3.8,0,0,1-.807.077,1.891,1.891,0,0,1-.858-.184,1.131,1.131,0,0,1-.343-.262,1.55,1.55,0,0,1-.343-.75c-.231-1.214.712-2.5,1.167-3.547a17.288,17.288,0,0,0,.857-5.266q.272-2.747.6-5.481.373-3.1.81-6.183c-.652,1.544-1.3,3.087-2.067,4.576q-1.962,3.853-3.962,7.685c-1.183,2.277-4.319,7.05-7.513,5.587a2.489,2.489,0,0,1-.394-.21,2.454,2.454,0,0,1-.271-.18,1.189,1.189,0,0,1-.5-.755,1.062,1.062,0,0,1,.013-.506,1.4,1.4,0,0,1,.214-.489c.446-.673,1.218-1.055,1.681-1.737a8.871,8.871,0,0,0,.991-2.311c2.076-6.505,4.087-13.032,6.124-19.55a64.279,64.279,0,0,1,1.2-11.5c.416-2.1,1.046-4.25.7-6.4a7.917,7.917,0,0,0-.738-2.29,8.655,8.655,0,0,0-1.968-2.564c-.206-.185.1-.489.3-.3a8.486,8.486,0,0,1,1.942,2.535c.983-2.629,3.517-4.426,5.807-5.888a15.45,15.45,0,0,1,4.31-1.994c1.673-.446,5.5.03,5.442-2.513a.215.215,0,0,1,.42-.06,7.666,7.666,0,0,0,.884,2.072,9.982,9.982,0,0,0,2.534,2.7,16.253,16.253,0,0,0,2.437,1.514c1.239.639,2.518,1.209,3.791,1.788,1.175.532,2.32,1.119,3.448,1.741v0c1.2.656,2.367,1.355,3.533,2.062.609.369,1.213.742,1.818,1.115a71.189,71.189,0,0,1,7.749,5.425v0c4.2,3.439,7.8,7.539,9.6,12.578a21.114,21.114,0,0,1,1.033,4.194A19.063,19.063,0,0,1,2430.892,546.75Z" transform="translate(-2367.501 -494.694)" fill="#f7e1d4"/>
        <path id="Path_284657" data-name="Path 284657" d="M2537.178,549.212a73.556,73.556,0,0,0-1.728-10.815c-.244-1.205-.484-2.449-.7-3.765-.472-2.856-.138-6.934-.172-9.825-.017-1.428-.725-2.753-2.367-2.354-1.917.463-2.294,2.856-2.544,4.481a31.376,31.376,0,0,0-.077,8.062c.069.626.146,1.252.241,1.878.695,4.782,2,9.46,2.688,14.246a35.529,35.529,0,0,1,.429,4.829,6.869,6.869,0,0,1-1.707,4.64c-1.758,2.148-4.1,3.933-7.012,3.709a8.4,8.4,0,0,1-1.847-.343,5.513,5.513,0,0,1-3.328-2.727,15.839,15.839,0,0,1-1.484-4.374c-.24-1.154-.4-2.328-.571-3.49-.119-.871-.505-6.651-2.263-5.725-.812.429-.927,1.934-.974,2.719a28.937,28.937,0,0,0,.013,2.989c-2.209,3.148-1.252,7.436.742,10.6a1.186,1.186,0,0,0,.064.107,10.645,10.645,0,0,0,4.473,4.172,9.482,9.482,0,0,0,1.852.575,18.547,18.547,0,0,0,4.28.313,12.273,12.273,0,0,0,10.777-6.1C2538.289,558.5,2537.483,554.268,2537.178,549.212Z" transform="translate(-2454.223 -504.497)" fill="#f7e1d4"/>
        <path id="Path_284658" data-name="Path 284658" d="M2392.851,499.442a.73.73,0,0,0-.12-.306c-.369-.508-.854-.016-1,.374a2.011,2.011,0,0,0-.025,1.573c.3.466.773.076.961-.255A1.777,1.777,0,0,0,2392.851,499.442Z" transform="translate(-2381.885 -490.465)" fill="#4a3024"/>
        <path id="Path_284659" data-name="Path 284659" d="M2415.426,502.98a.724.724,0,0,0-.122-.306c-.368-.508-.853-.017-1,.374a2.008,2.008,0,0,0-.025,1.573c.3.466.773.076.961-.255A1.774,1.774,0,0,0,2415.426,502.98Z" transform="translate(-2395.386 -492.581)" fill="#4a3024"/>
        <g id="Group_54306" data-name="Group 54306" transform="translate(11.78 11.615)">
          <path id="Path_284660" data-name="Path 284660" d="M2400.195,510.324c-.217.266-.525.678-.917.613-.491-.082-.545-.652-.466-1.054.061-.314.211-.612.287-.926a6.286,6.286,0,0,1,.444-1.117c.131-.271-.382-.358-.567.053-.274.611-.343,1.315-.628,1.922-.125.263-.246.6-.533.7s-.364-.019-.494-.287a1.028,1.028,0,0,1-.086-.634c.041-.27-.372-.386-.414-.114-.09.6.354,1.993,1.216,1.517a1.152,1.152,0,0,0,.371-.363,1.115,1.115,0,0,0,.547.652c.622.3,1.18-.216,1.543-.661C2400.67,510.415,2400.369,510.11,2400.195,510.324Z" transform="translate(-2396.808 -507.278)" fill="#e0c3b1"/>
          <path id="Path_284661" data-name="Path 284661" d="M2401.966,507.657c-.188-.471-1.027-.619-1.464-.721a4.6,4.6,0,0,0-1.43-.149c-.473.012-.22.827-.113,1.048.174.363.372.911.767,1.088.452.2.782-.029,1.188-.245.263-.141,1.144-.583,1.073-.95A.34.34,0,0,0,2401.966,507.657Z" transform="translate(-2397.996 -506.783)" fill="#f5855c"/>
        </g>
        <path id="Path_284662" data-name="Path 284662" d="M2479.876,542.472v0a71.178,71.178,0,0,0-7.75-5.425q-.905-.559-1.817-1.115a10.362,10.362,0,0,0-2.569,3.6,3.647,3.647,0,0,0,.176,3.611,23.143,23.143,0,0,0,1.783,1.51,5.268,5.268,0,0,1,1.265,2.7c.657,3.1,3.933,3.311,6.239,1.746C2479.4,547.6,2480.73,545.011,2479.876,542.472Z" transform="translate(-2427.217 -512.599)" fill="#e67d3c"/>
        <path id="Path_284663" data-name="Path 284663" d="M2469.212,568.743c-.047-.133-.1-.266-.155-.394a3.006,3.006,0,0,0-1.046-1.343,3.8,3.8,0,0,0-1.33-.455,1.656,1.656,0,0,0-1.029.026c-.768.377-.862,1.818-.814,2.539a1.848,1.848,0,0,0,.536,1.252,3.583,3.583,0,0,0,.875.5,5.288,5.288,0,0,1,1.234.871c.3.283.622.626,1.034.617a.889.889,0,0,0,.7-.446,1.962,1.962,0,0,0,.249-.823A5.291,5.291,0,0,0,2469.212,568.743Z" transform="translate(-2425.708 -530.873)" fill="#e67d3c"/>
        <path id="Path_284664" data-name="Path 284664" d="M2410.046,611.519a1.809,1.809,0,0,0-.459,2.337,4.734,4.734,0,0,1,.9,2.316,4.372,4.372,0,0,0,.111,1.651,2.652,2.652,0,0,0,2.222,1.7c.819-2.543,1.484-5.129,2.114-7.723C2413.348,610.945,2411.358,610.417,2410.046,611.519Z" transform="translate(-2392.53 -557.435)" fill="#e67d3c"/>
        <path id="Path_284665" data-name="Path 284665" d="M2424.061,486.176c-.391-.553-1.33-.446-1.9-.433a13.911,13.911,0,0,0-3.41.54,16.75,16.75,0,0,0-3.7-1.758,3.593,3.593,0,0,0-.9,1.7,2.627,2.627,0,0,0,1.131,2.363c.417.373.875.7,1.252,1.115a2.605,2.605,0,0,1,.489.677c.167.373.09.776.236,1.141.4.995,2.4.63,3.221.609a12.375,12.375,0,0,0,1.865-.18c-.081-.279-.171-.557-.266-.832.587-.952,1.106-1.938,1.6-2.942C2423.962,487.621,2424.5,486.789,2424.061,486.176Z" transform="translate(-2395.386 -481.857)" fill="#e67d3c"/>
        <path id="Path_284666" data-name="Path 284666" d="M2431.817,521.541c-1.274-.579-2.551-1.149-3.791-1.788a16.221,16.221,0,0,1-2.435-1.514,8.068,8.068,0,0,0-2.325,1.454,13.778,13.778,0,0,0-1.929,2.44,14.037,14.037,0,0,1-3.157,2.817,10.436,10.436,0,0,0-3.349,5.558c-.456,1.668-.013,3.122,1.629,3.744.523.2,1.068.274,1.364.832.129.24.176.519.284.768a3.163,3.163,0,0,0,.475.772,3.466,3.466,0,0,0,2.2,1.128,4.323,4.323,0,0,0,4.129-2.2,8.569,8.569,0,0,0,.978-2.813,6.03,6.03,0,0,1,2.093-3.47c1.878-1.573,4.339-2.29,6.136-3.975a3.307,3.307,0,0,0,1.146-2v0C2434.137,522.66,2432.992,522.073,2431.817,521.541Z" transform="translate(-2395.707 -502.02)" fill="#e67d3c"/>
        <path id="Path_284667" data-name="Path 284667" d="M2514.9,600.477a5.515,5.515,0,0,1-3.328-2.727,15.852,15.852,0,0,1-1.483-4.374c.017-.1.034-.2.046-.3a19.07,19.07,0,0,0-.1-5.411A21.13,21.13,0,0,0,2509,583.47a9.207,9.207,0,0,0-1.72.043,6.744,6.744,0,0,0-2.916,1.312,13.457,13.457,0,0,0-2.886,2.4,5.231,5.231,0,0,0-1.059,5.631,26.361,26.361,0,0,1,1.814,3.542c.462,1.617.051,3.079-.151,4.691a6.926,6.926,0,0,0,.571,3.474,12.714,12.714,0,0,0,4.378-4.1c.017.035.043.073.064.107a10.649,10.649,0,0,0,4.472,4.172,9.512,9.512,0,0,0,1.853.574c.038-.42.013-.862.009-1.329A5.4,5.4,0,0,1,2514.9,600.477Z" transform="translate(-2446.742 -541.019)" fill="#e67d3c"/>
        <path id="Path_284668" data-name="Path 284668" d="M2559.834,534.632c-.472-2.856-.138-6.934-.172-9.825-.017-1.428-.724-2.753-2.367-2.354-1.916.463-2.294,2.856-2.543,4.481a31.332,31.332,0,0,0-.077,8.062c.068.626.146,1.252.24,1.878a8.745,8.745,0,0,1,1.839.871,5.474,5.474,0,0,0,2.183,1.012,2.759,2.759,0,0,0,1.6-.36C2560.293,537.192,2560.053,535.948,2559.834,534.632Z" transform="translate(-2479.311 -504.497)" fill="#e67d3c"/>
        <path id="Path_284669" data-name="Path 284669" d="M2385.489,482.5a5.45,5.45,0,0,0-.632-.877c-.259-.271-.625-.253-.739.152a2.591,2.591,0,0,0,.058.965c.042.323.021,1.46.521,1.321.361-.1,1.169-.334,1.14-.831A1.792,1.792,0,0,0,2385.489,482.5Z" transform="translate(-2377.419 -480.013)" fill="#ff9872"/>
        <path id="Path_284670" data-name="Path 284670" d="M2431.056,490.442c-.047,0-.1,0-.142,0a3.86,3.86,0,0,0-1.655.476c-.685.379-.356,1.187.079,1.653a.663.663,0,0,0,.6.259.741.741,0,0,0,.287-.172,5.066,5.066,0,0,0,1.122-1.36c.129-.229.231-.545.046-.733A.489.489,0,0,0,2431.056,490.442Z" transform="translate(-2404.201 -485.395)" fill="#ff9872"/>
        <path id="Path_284671" data-name="Path 284671" d="M2407.041,526.143a14.15,14.15,0,0,1-11.8,2.709c-.269-.059-.384.354-.114.414a14.612,14.612,0,0,0,12.218-2.819C2407.561,526.275,2407.256,525.974,2407.041,526.143Z" transform="translate(-2383.93 -506.717)" fill="#e0c3b1"/>
        <path id="Path_284672" data-name="Path 284672" d="M2404.808,576.088c.01-.276-.419-.276-.429,0-.059,1.719.678,3.269.386,5.01-.274,1.635-.647,3.259-.972,4.884-.055.269.359.385.413.114.349-1.741.784-3.49,1.031-5.248C2405.468,579.207,2404.752,577.715,2404.808,576.088Z" transform="translate(-2389.203 -536.494)" fill="#e0c3b1"/>
        <path id="Path_284673" data-name="Path 284673" d="M2456.108,597.551a8.771,8.771,0,0,0-6.814,5.8c-.968,3.024-1,7.228,1.489,9.585a47.33,47.33,0,0,0-6.847,3.423.215.215,0,0,0,.216.371,46.709,46.709,0,0,1,7.072-3.517c.135-.053.231-.244.1-.358-2.625-2.214-2.564-6.407-1.612-9.389.975-3.047,3.487-4.8,6.515-5.5C2456.491,597.9,2456.378,597.489,2456.108,597.551Z" transform="translate(-2413.153 -549.449)" fill="#e0c3b1"/>
        <path id="Path_284674" data-name="Path 284674" d="M2369.189,642.1a6.871,6.871,0,0,0-1.664.763,1.061,1.061,0,0,1,.013-.506,7.218,7.218,0,0,1,1.535-.67A.214.214,0,0,1,2369.189,642.1Z" transform="translate(-2367.501 -575.842)" fill="#4a3024"/>
        <path id="Path_284675" data-name="Path 284675" d="M2370.883,645.172a4.246,4.246,0,0,0-1.016.69,2.479,2.479,0,0,1-.394-.21,4.388,4.388,0,0,1,1.2-.849C2370.917,644.682,2371.132,645.051,2370.883,645.172Z" transform="translate(-2368.68 -577.699)" fill="#4a3024"/>
        <path id="Path_284676" data-name="Path 284676" d="M2397.571,652.743c-.275.433-.532.879-.763,1.334a1.133,1.133,0,0,1-.343-.262c.227-.438.472-.866.737-1.286C2397.352,652.293,2397.721,652.512,2397.571,652.743Z" transform="translate(-2384.823 -582.273)" fill="#4a3024"/>
        <path id="Path_284677" data-name="Path 284677" d="M2402.271,652.535q-.173.72-.347,1.441a3.358,3.358,0,0,1-.467.111c.133-.557.271-1.11.4-1.668C2401.924,652.149,2402.34,652.265,2402.271,652.535Z" transform="translate(-2387.809 -582.176)" fill="#4a3024"/>
        <path id="Path_284678" data-name="Path 284678" d="M2425.509,645.539a6.075,6.075,0,0,0-1.4,1.239,1,1,0,0,1-.231-.2.771.771,0,0,1-.078-.1,6.622,6.622,0,0,1,1.492-1.308C2425.526,645.02,2425.741,645.393,2425.509,645.539Z" transform="translate(-2401.17 -577.912)" fill="#4a3024"/>
        <path id="Path_284679" data-name="Path 284679" d="M2441.141,648.857a2.83,2.83,0,0,0-1.69,1.437,1.492,1.492,0,0,1-.146-.257,1.166,1.166,0,0,1-.068-.193,3.037,3.037,0,0,1,1.788-1.4C2441.3,648.381,2441.411,648.8,2441.141,648.857Z" transform="translate(-2410.403 -579.887)" fill="#4a3024"/>
        <path id="Path_284680" data-name="Path 284680" d="M2443.737,651.172a9.6,9.6,0,0,0-1.274,1.158,2.57,2.57,0,0,1-.485-.094,10.163,10.163,0,0,1,1.54-1.432C2443.737,650.636,2443.951,651.009,2443.737,651.172Z" transform="translate(-2412.043 -581.277)" fill="#4a3024"/>
        <path id="Path_284681" data-name="Path 284681" d="M2387.773,508.163a29.456,29.456,0,0,0-5.169-.393.215.215,0,0,0,0,.429,28.778,28.778,0,0,1,5.055.378C2387.929,508.621,2388.045,508.208,2387.773,508.163Z" transform="translate(-2376.409 -495.757)" fill="#fff"/>
        <path id="Path_284682" data-name="Path 284682" d="M2386.69,511.248c-1.563.068-2.932.852-4.44,1.177-.27.059-.155.472.114.414,1.467-.317,2.807-1.1,4.326-1.162C2386.965,511.664,2386.967,511.236,2386.69,511.248Z" transform="translate(-2376.23 -497.839)" fill="#fff"/>
        <path id="Path_284683" data-name="Path 284683" d="M2413.343,517.656a50.7,50.7,0,0,1-4.572-3.832c-.2-.189-.505.113-.3.3a52.028,52.028,0,0,0,4.66,3.9C2413.349,518.19,2413.563,517.819,2413.343,517.656Z" transform="translate(-2391.962 -499.343)" fill="#fff"/>
        <path id="Path_284684" data-name="Path 284684" d="M2416.325,512.481c-2.085-.177-4.071-.87-6.132-1.19-.27-.042-.386.371-.114.414,2.1.326,4.122,1.024,6.246,1.2C2416.6,512.934,2416.6,512.5,2416.325,512.481Z" transform="translate(-2392.872 -497.863)" fill="#fff"/>
      </g>
    </g>
    <g id="Group_54305-2" data-name="Group 54305" transform="translate(578 441)">
      <g id="Group_7318-3" data-name="Group 7318" transform="translate(0 0)" clip-path="url(#clip-path-4)">
        <path id="Path_15465-3" data-name="Path 15465" d="M51.992,720.263a20,20,0,1,1-20-20,20,20,0,0,1,20,20" transform="translate(-11.992 -700.263)" fill="#ffe0ba"/>
        <g id="Group_54171" data-name="Group 54171" transform="translate(1.049 4.722)">
          <g id="Group_54164" data-name="Group 54164" transform="translate(0 0)">
            <g id="Group_54163" data-name="Group 54163">
              <rect id="Rectangle_9181" data-name="Rectangle 9181" width="22.5" height="11.25" rx="5.625" transform="translate(7.7 26.53)" fill="#de6d4a"/>
              <path id="Path_284394" data-name="Path 284394" d="M2998.177,138.587l-.011-.008.01.01.012.008Zm22.3.6-.009.013a.057.057,0,0,0,.012-.012l.009-.012Zm-10.689,4.029-.01-.008.008.012.016.008Zm16.116-28.2a1.225,1.225,0,0,1-.093-.482c0-.023-.016-.05-.026-.075a.659.659,0,0,0-.09-.4c-.076-.131-.12-.283-.2-.417-.055-.1-.162-.151-.193-.264-.008-.032-.041-.058-.058-.09a.8.8,0,0,0-.359-.321l-.015-.008a1.426,1.426,0,0,0-.462-.13c-.01,0-.017-.033-.023-.05h-.04c-.01.008-.019.025-.028.027-.191.023-.383.048-.574.068a3.415,3.415,0,0,0-.709.095c-.188.058-.386.088-.579.133a.207.207,0,0,0-.063.037.453.453,0,0,0-.3.09.475.475,0,0,1-.21.095c-.073.012-.083.116-.168.088l-.378.313a1.373,1.373,0,0,1-.473.314.242.242,0,0,0-.073.056,1.7,1.7,0,0,0-.437.276c-.2.13-.38.278-.57.417a.674.674,0,0,0-.06.053,6.722,6.722,0,0,1-.606.562,2.537,2.537,0,0,0-.24.284,1.165,1.165,0,0,1-.083.083l-.036.038c-.182.145-.361.284-.538.429a.755.755,0,0,0-.1.131.514.514,0,0,0-.226.193,1.973,1.973,0,0,1-.49.485.118.118,0,0,0,.012.03s-.007.005-.012.01c-.173.136-.3.319-.479.437-.238.163-.382.416-.622.568a.105.105,0,0,0-.041.04c-.132.271-.4.406-.606.593a5.066,5.066,0,0,0-.771.786c-.064.09-.136.175-.209.258a.267.267,0,0,1-.021.022c-.03.025-.063.027-.106-.018a2.4,2.4,0,0,0-.7-.45c-.125-.071-.258-.131-.374-.213a1.008,1.008,0,0,0-.558-.183.337.337,0,0,1-.122-.025.517.517,0,0,0-.343-.02h-.042c-.052-.032-.1-.013-.154-.007a1.034,1.034,0,0,1-.167-.032,1.936,1.936,0,0,0-.537.013.892.892,0,0,1-.4,0,2.311,2.311,0,0,0-.526-.018,2.729,2.729,0,0,0-.349.025.541.541,0,0,0-.142.063l-.138.058c-.046.02-.093.04-.139.061a.452.452,0,0,0-.321.022.763.763,0,0,1-.282.057c-.051-.055-.106.012-.158,0a.974.974,0,0,1-.26,0c-.085,0-.172.053-.26,0h-.08c-.027-.027-.05-.052-.076-.076a.206.206,0,0,0-.043,0c-.1-.047-.193-.1-.293-.14a.552.552,0,0,0-.305-.06.368.368,0,0,0-.276-.043c-.084.022-.172-.017-.262.042a.666.666,0,0,1-.258.042.118.118,0,0,0-.17,0c-.083.083-.193.015-.276.068-.148-.07-.281.015-.411.055a2.934,2.934,0,0,0-.693.337,2.521,2.521,0,0,1-.321.145,1.615,1.615,0,0,0-.641.313.163.163,0,0,1-.047.037.681.681,0,0,0-.194.085c-.083.052-.16.11-.244.155a.3.3,0,0,0-.156.163c-.179.03-.254.189-.369.3-.021.018-.216.181-.241.2a.617.617,0,0,0-.088.073.891.891,0,0,0-.06.072.061.061,0,0,1-.025,0c-.019-.01-.037-.02-.055-.032-.187-.1-.374-.209-.562-.312a.377.377,0,0,0-.117-.018c-.08-.027-.162-.055-.242-.085l-.632-.233c-.036-.015-.07-.032-.1-.043a.973.973,0,0,1-.2-.058c-.195-.115-.416-.179-.609-.289-.237-.133-.5-.209-.734-.344a.366.366,0,0,1-.072-.063.707.707,0,0,0-.155-.081c-.045-.012-.072-.05-.135-.048a.456.456,0,0,1-.241-.115,2.208,2.208,0,0,0-.454-.261c-.017-.007-.045,0-.05-.017-.058-.121-.195-.13-.288-.2s-.21-.133-.314-.2a2.832,2.832,0,0,1-.492-.268.762.762,0,0,1-.272-.185c-.07-.088-.2-.07-.258-.173a1.97,1.97,0,0,1-.455-.254c-.053-.028-.106-.053-.158-.08a.338.338,0,0,1,0-.04c-.115-.066-.228-.133-.343-.2-.073-.045-.145-.091-.217-.14-.157-.1-.314-.2-.47-.306-.108-.073-.215-.151-.321-.226-.143,0-.209-.125-.321-.163-.091-.051-.179-.1-.267-.148a.274.274,0,0,0-.091-.013c-.015-.025-.028-.05-.042-.076a.16.16,0,0,0-.039,0l-.318-.158c-.094-.118-.241-.121-.367-.17s-.219-.09-.329-.135a2.742,2.742,0,0,0-.9-.269,2.276,2.276,0,0,1-.223-.053,2.021,2.021,0,0,0-.783.158.908.908,0,0,0-.234.15,1.415,1.415,0,0,0-.187.2,1.194,1.194,0,0,0-.171.283c0,.03.015.066,0,.081a.5.5,0,0,0-.123.278.2.2,0,0,1,.015.028s-.006.005-.012.01c-.043.246-.081.49-.123.735,0,.023-.025.043-.038.065v.16a.069.069,0,0,1,0,.12v.12a.126.126,0,0,1,.012.027s-.008.008-.012.013V118l.038,0a1.273,1.273,0,0,0,.159.555c0,.033,0,.078.015.095.062.057.055.128.065.2a1.315,1.315,0,0,0,.08.3.179.179,0,0,1,.025.125c-.006.028,0,.08.022.088.1.045.09.151.118.228a.787.787,0,0,0,.153.313c.03.03.03.086.041.131a7.49,7.49,0,0,0,.4.8.2.2,0,0,1,.015.028s-.008.007-.013.01a1.535,1.535,0,0,0,.195.307,1.408,1.408,0,0,1,.108.226q.242.441.494.876c.027.048.112.081.114.123.01.166.154.229.232.342a.14.14,0,0,1,.027.045.659.659,0,0,0,.171.3c.065.078.117.171.175.256.128.185.26.362.374.55.032.05.033.12.075.176.083.115.153.241.228.362.093.15.188.3.278.45.058.1.106.2.163.3.132.238.266.474.4.71a.268.268,0,0,0,.12.2l.013.028s-.007.005-.011.01c.064.11.131.214.2.321.007.013.011.02.015.028s-.008.007-.014.01c.052.108.1.213.158.317s.079.189.119.283c.007.013.01.02.013.028s-.007.005-.012.01c.132.243.264.482.4.721.008.017.027.027.04.04.025.053.053.1.078.156.055.083.106.163.16.241a.363.363,0,0,0,0,.04c.04.066.08.131.118.2a.727.727,0,0,1,.176.239c.053.095.145.173.146.293.156.115.229.3.381.421.1.08.2.165.3.246.026.025.052.053.078.078s.031.045.047.065.023.038.037.056l.366.352c.027.025.033.1.094.035a.769.769,0,0,0,.076.115c.053.058.118.1.088.2a.719.719,0,0,1-.059.2.972.972,0,0,0-.149.447.575.575,0,0,1-.092.354.231.231,0,0,0-.025.11c-.028.18-.06.357-.081.539a.924.924,0,0,0,0,.288,1.319,1.319,0,0,1-.057.554.581.581,0,0,0,0,.078.222.222,0,0,1,.015.028s-.008.007-.013.01c-.051.046.027.1-.02.161-.029.035,0,.111-.006.166a1.185,1.185,0,0,1-.049.123.651.651,0,0,0-.007.11.239.239,0,0,1,.015.028s-.007,0-.011.01c0,.038.02.076.024.115s-.083.013-.047.075a.159.159,0,0,1,.031.088c0,.038-.04.071-.043.11a1.177,1.177,0,0,0,0,.233.846.846,0,0,1-.03.379.572.572,0,0,0-.028.336c.008.027-.018.066-.032.1.005.1.015.194.013.291,0,.023-.032.047-.051.07a1.514,1.514,0,0,1-.025.459c0,.017.014.04.022.06a.351.351,0,0,0,0,.042c-.006.02-.028.045-.023.061a.744.744,0,0,1,.033.347,1.248,1.248,0,0,0,.032.269l.013.028s0,0-.01.008c-.032.11.015.219-.021.324.085.175.04.376.126.557a4.991,4.991,0,0,1,.21.635c.01.03.028.055.04.083a.351.351,0,0,0,.128.254c-.058.118.112.118.11.208.1.035.064.161.145.211l.018.007c.038.065.078.13.118.194.013.03.026.056.04.083v.04c.025.025.058.042.067.07.076.276.367.364.51.583.032.048.14.04.183.087s.05.113.117.136a.255.255,0,0,0,.023-.05c0,.015.012.033.016.05.021.01.047.01.057.023a3.021,3.021,0,0,0,.673.585c.045.035.1.055.144.088s.1.04.133.09a.387.387,0,0,0,.14.09c.081.042.164.081.249.116a.316.316,0,0,0,.1,0,.7.7,0,0,0-.013.08c0,.007.02.022.031.022.128,0,.188.121.288.174s.186.115.283.163.216.1.324.143a2.406,2.406,0,0,1,.415.184,4.037,4.037,0,0,0,.431.183c.177.1.39.095.573.181a1.886,1.886,0,0,0,.5.07.665.665,0,0,0,.243.038.417.417,0,0,1,.227.047.711.711,0,0,0,.16.013c.186.017.374.02.557.053.3.053.606.07.9.146.172.043.346.07.52.1a.43.43,0,0,0,.132-.03,1.538,1.538,0,0,0,.186.052c.229.025.46.043.689.065a1.361,1.361,0,0,0,.424.062.293.293,0,0,1,.223.042.156.156,0,0,0,.075.02c.112.01.223.022.334.027a7.19,7.19,0,0,0,.846.037c.166-.01.332,0,.5-.017.118-.008.213,0,.276.111h.12a.432.432,0,0,1,.1-.041c.167-.017.336-.018.5-.043a4.27,4.27,0,0,1,.6-.02,1.589,1.589,0,0,0,.228-.045,2.143,2.143,0,0,1,.251-.035,4.527,4.527,0,0,0,.864-.086,3.6,3.6,0,0,1,.442-.088c.023-.01.046-.032.068-.028.214.03.424-.047.637-.028.016,0,.034-.013.052-.022.026-.042.052-.038.079,0,.116-.047.254.01.36-.076h.04c.04-.018.082-.033.12-.055a.088.088,0,0,1,.119.012c.117-.03.231-.058.346-.091a1.681,1.681,0,0,0,.171-.066c.1-.025.188-.052.281-.078h.04c.074-.035.141-.071.212-.1,0,0,.018.015.028.023a2.789,2.789,0,0,1,.627-.166,1.581,1.581,0,0,0,.568-.191h.04a1.6,1.6,0,0,1,.474-.211,6.148,6.148,0,0,0,.722-.269c.068-.025.131-.052.2-.08a.424.424,0,0,1,.187-.14.773.773,0,0,1,.213-.126,1.865,1.865,0,0,0,.416-.188c.068-.035.123-.1.209-.095a.061.061,0,0,0,.037-.015c.143-.159.355-.224.5-.374a.247.247,0,0,1,.06-.053,2.739,2.739,0,0,0,.668-.593c.08-.081.194-.115.265-.218a3.48,3.48,0,0,1,.3-.346c.017-.02.043-.038.05-.062.061-.2.24-.321.362-.482a1.689,1.689,0,0,0,.389-.613.165.165,0,0,1,.036-.07,6.048,6.048,0,0,0,.457-.785.791.791,0,0,0,.108-.249.276.276,0,0,1,.082-.161c.006-.007-.015-.037-.025-.057a2.416,2.416,0,0,1,.085-.241c.131-.276.191-.578.3-.863a1.716,1.716,0,0,0,.07-.454c.008-.1.073-.209.015-.319.088-.1-.016-.214.012-.319a.19.19,0,0,1-.014-.028s.006-.007.012-.01a1.419,1.419,0,0,0-.038-.489c0-.037,0-.075,0-.111a.135.135,0,0,1-.013-.028s.007-.007.01-.01a.582.582,0,0,0-.058-.339.254.254,0,0,1-.017-.116,1.329,1.329,0,0,0-.063-.437,1.016,1.016,0,0,1-.041-.3.415.415,0,0,0-.017-.115c-.1-.206-.088-.442-.173-.653a4.28,4.28,0,0,1-.166-.582c-.021-.1-.12-.165-.133-.269a3.114,3.114,0,0,0-.168-.457.161.161,0,0,1-.015-.028s0-.007.011-.01c-.019-.055-.038-.106-.058-.16l-.154-.379c-.009-.022-.035-.048-.03-.065a1.58,1.58,0,0,1,.153-.391,1.923,1.923,0,0,0,.292-.8.293.293,0,0,0,.073-.08c.072-.17.136-.344.2-.515.04-.123.081-.243.123-.362.073-.231.146-.46.218-.691.023-.075.041-.15.061-.224a.152.152,0,0,1-.01-.027s0-.007.007-.01a1.564,1.564,0,0,0,.114-.633.241.241,0,0,1,.029-.145c.007-.008-.041-.045-.043-.07s.039-.066.03-.076c-.065-.08.017-.133.031-.2-.007-.013-.011-.02-.015-.028s.006,0,.012-.01c.013-.273.033-.544.03-.814a1.783,1.783,0,0,1,.217-.728c.015-.035.045-.067,0-.095.04-.093.08-.184.117-.278a.309.309,0,0,1-.011-.03s0,0,.011-.008c.016-.083.029-.163.043-.244.026-.025.071-.053.071-.078a.963.963,0,0,1,.163-.43.461.461,0,0,0,.041-.108.473.473,0,0,1,.1-.269c.028-.031.017-.1.023-.151.045-.173.123-.332.174-.5.035-.123.072-.246.1-.371.015-.043.028-.081.042-.121s.063-.08,0-.12c.041-.093.079-.184.116-.279.069-.13.137-.254.2-.384a1.084,1.084,0,0,0,.046-.108c.063-.155.128-.307.188-.464a.83.83,0,0,0,.081-.259.934.934,0,0,1,.123-.382c.012-.013.03-.028.03-.04a.823.823,0,0,1,.075-.422c.037-.09.123-.194.049-.309.083-.061.071-.165.1-.249.051-.145.084-.3.131-.442.021-.068.064-.13.082-.2s.031-.163.049-.236.062-.145.077-.228c.029-.145.088-.283.13-.424.059-.2.113-.409.165-.613.031-.131.06-.263.095-.392a3.575,3.575,0,0,0,.068-.4,2.724,2.724,0,0,1,.033-.347.16.16,0,0,1,.031-.047v-.04a.092.092,0,0,1-.008-.027s0-.008.008-.013v-.08c-.016-.007-.033-.012-.048-.018.015-.02.032-.042.048-.061Zm-19.68,4.019-.01.017,0-.018Zm3.84,24.213-.013-.01a.035.035,0,0,1,.017-.007s.007.007.013.01A.141.141,0,0,1,3010.061,143.245Z" transform="translate(-2990.557 -112.779)" fill="#de6d4a"/>
              <path id="Path_284395" data-name="Path 284395" d="M3388.13,154.929l-.04,0Z" transform="translate(-3359.885 -151.936)" fill="#de6d4a"/>
              <path id="Path_284396" data-name="Path 284396" d="M3387.9,155.006a.074.074,0,0,1-.015-.023s.008-.008.011-.012A.282.282,0,0,0,3387.9,155.006Z" transform="translate(-3359.691 -151.978)" fill="#de6d4a"/>
              <path id="Path_284397" data-name="Path 284397" d="M3043.976,161.149h0Z" transform="translate(-3040.145 -157.717)" fill="#de6d4a"/>
              <path id="Path_284398" data-name="Path 284398" d="M2994.338,161.108l-.01.013.013-.011Z" transform="translate(-2994.061 -157.679)" fill="#de6d4a"/>
              <path id="Path_284399" data-name="Path 284399" d="M2992.817,166.16c0,.015,0,.03,0,.044C2992.818,166.19,2992.817,166.175,2992.817,166.16Z" transform="translate(-2992.657 -162.373)" fill="#de6d4a"/>
              <path id="Path_284400" data-name="Path 284400" d="M3054.718,166.474c-.005.008-.012.015-.018.023A.034.034,0,0,1,3054.718,166.474Z" transform="translate(-3050.15 -162.664)" fill="#de6d4a"/>
              <path id="Path_284401" data-name="Path 284401" d="M3368.644,172.917v.04c-.034-.012-.034-.027,0-.038C3368.642,172.919,3368.642,172.917,3368.644,172.917Z" transform="translate(-3341.795 -168.65)" fill="#de6d4a"/>
              <path id="Path_284402" data-name="Path 284402" d="M3073.778,178.914a.086.086,0,0,1-.008.017A.048.048,0,0,1,3073.778,178.914Z" transform="translate(-3067.866 -174.222)" fill="#de6d4a"/>
              <path id="Path_284403" data-name="Path 284403" d="M3076.037,180.53c0,.005,0,.012,0,.013a.042.042,0,0,1-.015.007Z" transform="translate(-3069.955 -175.723)" fill="#de6d4a"/>
              <path id="Path_284404" data-name="Path 284404" d="M3298.679,198.482h-.044C3298.649,198.447,3298.663,198.447,3298.679,198.482Z" transform="translate(-3276.777 -192.377)" fill="#de6d4a"/>
              <path id="Path_284405" data-name="Path 284405" d="M3266.392,199.134l-.019-.017s.009,0,.011,0a.038.038,0,0,1,.006.014Z" transform="translate(-3246.804 -192.991)" fill="#de6d4a"/>
              <path id="Path_284406" data-name="Path 284406" d="M3241.891,200.72h-.043C3241.861,200.681,3241.876,200.688,3241.891,200.72Z" transform="translate(-3224.019 -194.456)" fill="#de6d4a"/>
              <path id="Path_284407" data-name="Path 284407" d="M3244.139,202.194h0Z" transform="translate(-3226.105 -195.85)" fill="#de6d4a"/>
              <path id="Path_284408" data-name="Path 284408" d="M3251.743,201.914a.058.058,0,0,1-.02-.018Z" transform="translate(-3233.194 -195.573)" fill="#de6d4a"/>
              <path id="Path_284409" data-name="Path 284409" d="M3318.9,204.819l.008-.012-.006.013Z" transform="translate(-3295.601 -198.278)" fill="#de6d4a"/>
              <path id="Path_284410" data-name="Path 284410" d="M3186.6,211.622l-.015-.007.013.01Z" transform="translate(-3172.681 -204.603)" fill="#de6d4a"/>
              <path id="Path_284411" data-name="Path 284411" d="M3183.15,213.166l-.02-.019s.011,0,.012,0a.039.039,0,0,1,.006.017Z" transform="translate(-3169.467 -206.026)" fill="#de6d4a"/>
              <path id="Path_284412" data-name="Path 284412" d="M2999.365,154.262l-.015-.009.013.01Z" transform="translate(-2998.727 -151.31)" fill="#de6d4a"/>
              <path id="Path_284413" data-name="Path 284413" d="M3006.141,226.321v.044a.153.153,0,0,1-.013-.031S3006.136,226.326,3006.141,226.321Z" transform="translate(-3005.023 -218.265)" fill="#de6d4a"/>
              <path id="Path_284414" data-name="Path 284414" d="M3050.73,300.537c0,.015,0,.03,0,.044C3050.73,300.567,3050.73,300.552,3050.73,300.537Z" transform="translate(-3046.46 -287.216)" fill="#de6d4a"/>
              <path id="Path_284415" data-name="Path 284415" d="M3053.541,305.6c0,.015,0,.029,0,.044C3053.54,305.627,3053.54,305.613,3053.541,305.6Z" transform="translate(-3049.071 -291.918)" fill="#de6d4a"/>
              <path id="Path_284416" data-name="Path 284416" d="M3057.171,314.594v.044C3057.14,314.623,3057.14,314.609,3057.171,314.594Z" transform="translate(-3052.423 -300.275)" fill="#de6d4a"/>
              <path id="Path_284417" data-name="Path 284417" d="M3066.861,331.462c0,.014,0,.028,0,.042a.171.171,0,0,1-.012-.03S3066.856,331.466,3066.861,331.462Z" transform="translate(-3061.435 -315.947)" fill="#de6d4a"/>
              <path id="Path_284418" data-name="Path 284418" d="M3068.487,334.849l-.015.018s0-.008,0-.01a.052.052,0,0,1,.013-.006Z" transform="translate(-3062.944 -319.093)" fill="#de6d4a"/>
              <path id="Path_284419" data-name="Path 284419" d="M3082.514,351.73l-.019.019s0-.01,0-.012a.053.053,0,0,1,.016-.007Z" transform="translate(-3075.972 -334.776)" fill="#de6d4a"/>
              <path id="Path_284420" data-name="Path 284420" d="M3084.863,354.52l-.01.013.013-.01Z" transform="translate(-3078.163 -337.368)" fill="#de6d4a"/>
              <path id="Path_284421" data-name="Path 284421" d="M3087.106,400.619v.044a.154.154,0,0,1-.013-.031S3087.1,400.624,3087.106,400.619Z" transform="translate(-3080.244 -380.197)" fill="#de6d4a"/>
              <path id="Path_284422" data-name="Path 284422" d="M3085.817,409.053v.044Q3085.766,409.075,3085.817,409.053Z" transform="translate(-3079.035 -388.032)" fill="#de6d4a"/>
              <path id="Path_284423" data-name="Path 284423" d="M3084.227,429.666l-.018-.016s.008,0,.01,0a.112.112,0,0,1,.006.014Z" transform="translate(-3077.565 -407.168)" fill="#de6d4a"/>
              <path id="Path_284424" data-name="Path 284424" d="M3083.722,434.834l-.014-.008.01.01Z" transform="translate(-3077.1 -411.977)" fill="#de6d4a"/>
              <path id="Path_284425" data-name="Path 284425" d="M3084.126,452.347v.044Q3084.074,452.369,3084.126,452.347Z" transform="translate(-3077.464 -428.255)" fill="#de6d4a"/>
              <path id="Path_284426" data-name="Path 284426" d="M3097.392,488.9v0Z" transform="translate(-3089.812 -462.211)" fill="#de6d4a"/>
              <path id="Path_284427" data-name="Path 284427" d="M3109.717,501.835h.043C3109.746,501.874,3109.732,501.867,3109.717,501.835Z" transform="translate(-3101.263 -474.232)" fill="#de6d4a"/>
              <path id="Path_284428" data-name="Path 284428" d="M3221.968,539.514l-.018.016.016-.017Z" transform="translate(-3205.533 -509.235)" fill="#de6d4a"/>
              <path id="Path_284429" data-name="Path 284429" d="M3323.808,535.572a.11.11,0,0,1-.029.027s-.017-.008-.025-.012a.059.059,0,0,1,.018-.009c.012,0,.026,0,.04,0Z" transform="translate(-3300.113 -505.575)" fill="#de6d4a"/>
              <path id="Path_284430" data-name="Path 284430" d="M3314.379,537.259h.083C3314.435,537.293,3314.407,537.31,3314.379,537.259Z" transform="translate(-3291.404 -507.142)" fill="#de6d4a"/>
              <path id="Path_284431" data-name="Path 284431" d="M3303.722,538.4l.049.011-.013.021-.036-.031Z" transform="translate(-3281.503 -508.201)" fill="#de6d4a"/>
              <path id="Path_284432" data-name="Path 284432" d="M3463.953,231.962l.021.018s-.011,0-.013,0a.078.078,0,0,1-.006-.017Z" transform="translate(-3430.365 -223.504)" fill="#de6d4a"/>
              <path id="Path_284433" data-name="Path 284433" d="M3462.277,237.594l.02.018s-.01,0-.012,0a.1.1,0,0,1-.007-.015Z" transform="translate(-3428.809 -228.738)" fill="#de6d4a"/>
              <path id="Path_284434" data-name="Path 284434" d="M3461.695,239.263l.015.019-.019-.016Z" transform="translate(-3428.264 -230.289)" fill="#de6d4a"/>
              <path id="Path_284435" data-name="Path 284435" d="M3451.577,269.657c0-.015,0-.029,0-.044C3451.576,269.628,3451.576,269.642,3451.577,269.657Z" transform="translate(-3418.867 -258.486)" fill="#de6d4a"/>
              <path id="Path_284436" data-name="Path 284436" d="M3446.515,297.209v-.044Q3446.567,297.187,3446.515,297.209Z" transform="translate(-3414.165 -284.083)" fill="#de6d4a"/>
              <path id="Path_284437" data-name="Path 284437" d="M3444.27,313.516v-.044C3444.3,313.487,3444.3,313.5,3444.27,313.516Z" transform="translate(-3412.079 -299.233)" fill="#de6d4a"/>
              <path id="Path_284438" data-name="Path 284438" d="M3438.637,332.032l.015.008-.012-.011Z" transform="translate(-3406.845 -316.473)" fill="#de6d4a"/>
              <path id="Path_284439" data-name="Path 284439" d="M3431.9,365.8v0Z" transform="translate(-3400.585 -347.81)" fill="#de6d4a"/>
              <path id="Path_284440" data-name="Path 284440" d="M3443.706,412.472v-.044a.186.186,0,0,1,.012.031S3443.71,412.468,3443.706,412.472Z" transform="translate(-3411.555 -391.168)" fill="#de6d4a"/>
              <path id="Path_284441" data-name="Path 284441" d="M3444.267,421.466v0Z" transform="translate(-3412.076 -399.524)" fill="#de6d4a"/>
              <path id="Path_284442" data-name="Path 284442" d="M3356.546,526.011h.043C3356.575,526.046,3356.56,526.045,3356.546,526.011Z" transform="translate(-3330.579 -496.692)" fill="#de6d4a"/>
              <path id="Path_284443" data-name="Path 284443" d="M3339.453,531.089l-.02.019s0-.011,0-.013a.067.067,0,0,1,.016-.007Z" transform="translate(-3314.681 -501.41)" fill="#de6d4a"/>
              <path id="Path_284444" data-name="Path 284444" d="M3335.744,532.2h.045C3335.774,532.23,3335.758,532.23,3335.744,532.2Z" transform="translate(-3311.253 -502.438)" fill="#de6d4a"/>
              <path id="Path_284445" data-name="Path 284445" d="M3320.562,536.133h0Z" transform="translate(-3297.147 -506.096)" fill="#de6d4a"/>
            </g>
          </g>
          <g id="Group_54166" data-name="Group 54166" transform="translate(0.451 0)">
            <g id="Group_54165" data-name="Group 54165" transform="translate(0)">
              <path id="Path_284446" data-name="Path 284446" d="M3073.77,178.931a.048.048,0,0,1,.008-.017A.086.086,0,0,1,3073.77,178.931Z" transform="translate(-3068.317 -174.222)" fill="#c24c29"/>
              <path id="Path_284447" data-name="Path 284447" d="M3076.034,180.543a.042.042,0,0,1-.015.007l.018-.02C3076.037,180.535,3076.037,180.542,3076.034,180.543Z" transform="translate(-3070.406 -175.723)" fill="#c24c29"/>
              <path id="Path_284448" data-name="Path 284448" d="M3008.845,155.428a.3.3,0,0,0,.055-.037c-.187-.1-.374-.209-.562-.312a.37.37,0,0,0-.117-.018c-.08-.027-.162-.055-.242-.085l-.632-.233c-.037-.015-.07-.032-.1-.043a.973.973,0,0,1-.2-.058c-.194-.115-.415-.179-.608-.289-.238-.133-.5-.209-.735-.344a.374.374,0,0,1-.072-.063.688.688,0,0,0-.154-.082c-.045-.012-.072-.05-.135-.048a.453.453,0,0,1-.241-.115,2.186,2.186,0,0,0-.454-.261c-.017-.007-.044,0-.05-.017-.058-.121-.194-.13-.287-.2a3.7,3.7,0,0,0-.314-.2,2.773,2.773,0,0,1-.492-.268.759.759,0,0,1-.272-.185c-.07-.088-.205-.07-.258-.173a1.969,1.969,0,0,1-.456-.254c-.053-.028-.106-.053-.157-.08a.207.207,0,0,1,0-.04c-.114-.066-.227-.133-.342-.2-.073-.045-.145-.091-.218-.14-.156-.1-.314-.2-.47-.306-.108-.073-.214-.151-.321-.226.005-.008.012-.015.017-.023s-.015.012-.023.017c-.136.012-.2-.118-.314-.156-.091-.051-.179-.1-.267-.148a.282.282,0,0,0-.092-.013c-.015-.025-.028-.05-.041-.077a.168.168,0,0,0-.04,0c-.1-.053-.213-.1-.317-.158-.094-.118-.241-.121-.367-.17s-.22-.09-.33-.135a2.738,2.738,0,0,0-.9-.269,2.264,2.264,0,0,1-.223-.053,2.019,2.019,0,0,0-.783.158.9.9,0,0,0-.234.15,1.335,1.335,0,0,0-.188.2c.023,0,.02.065.054.061s.09.045.137.065a.17.17,0,0,0,.058,0c.014-.037.026-.035.042,0,.013.012.023.023.037.037a.806.806,0,0,1,.2.11c.137.081.288.141.433.209.161.091.315.183.472.269.008.005.025,0,.037,0a.38.38,0,0,1,.124.035,6.473,6.473,0,0,0,.753.421c.012.007.028.025.028.037-.006.077.062.085.1.095a.78.78,0,0,1,.2.1c.064.048.131.09.188.14.138.125.306.211.442.337.055.051.094.145.2.088.008,0,.033.043.053.045.1.013.1.151.184.155.183,0,.256.2.421.231.1.138.272.168.4.261.218.153.454.283.681.424.034.02.092.048.089.068-.011.1.093.048.111.095.027.07.091.088.149.116a.273.273,0,0,1,.1.067,1.441,1.441,0,0,0,.353.352,1.14,1.14,0,0,1,.144.153.947.947,0,0,0,.223.213,2.111,2.111,0,0,1,.366.3c.146.115.273.253.414.372.086.075.2.121.275.2s.2.113.236.238c.006.025.052.038.076.058.045.038.1.07.13.12a.574.574,0,0,0,.266.238l.026.03a.086.086,0,0,0-.021.012c.064.053.129.1.194.156s.133.108.2.161l.123.078c.013-.04.025-.032.039,0v.043a.58.58,0,0,0,.28.239.114.114,0,0,0,.118.08c0,.078.056.111.106.151.136.106.284.2.412.314.048.045.176.083.085.206a.124.124,0,0,0,.031.175.19.19,0,0,0,.214.047.541.541,0,0,0,.319-.429.258.258,0,0,1,.034-.085c.037-.05.076-.093.115-.141s.049-.118.079-.176.072-.121.1-.185.086-.113.122-.181a1.227,1.227,0,0,1,.311-.412c.07-.057.135-.121.205-.176s.167-.121.252-.181c.02-.013.063-.023.063-.028-.024-.115.1-.128.141-.194a1.422,1.422,0,0,1,.194-.184c.006-.007,0-.023,0-.037C3008.806,155.456,3008.808,155.443,3008.845,155.428Zm-10.956-4.473c-.005,0,0-.007,0-.012A.089.089,0,0,1,2997.889,150.955Zm7.617,5.585s0-.005,0-.01S3005.51,156.538,3005.506,156.54Z" transform="translate(-2996.907 -147.323)" fill="#c24c29"/>
              <path id="Path_284449" data-name="Path 284449" d="M3340.441,112.959a1.426,1.426,0,0,0-.462-.13c-.01,0-.017-.033-.023-.05h-.04c-.01.008-.018.025-.028.027-.191.023-.382.048-.573.068a3.428,3.428,0,0,0-.71.095c-.187.058-.385.088-.578.133a.209.209,0,0,0-.063.037.454.454,0,0,0-.3.09.47.47,0,0,1-.21.095c-.073.012-.083.116-.167.088l-.379.313a1.371,1.371,0,0,1-.472.314.236.236,0,0,0-.073.056,1.689,1.689,0,0,0-.437.276c-.2.13-.38.278-.57.417a.674.674,0,0,0-.06.053,6.593,6.593,0,0,1-.606.562,2.483,2.483,0,0,0-.239.284c-.025.03-.055.055-.083.083s-.025.025-.037.038a.282.282,0,0,1,0-.035s-.011.01-.011.012a.151.151,0,0,0,.013.025c-.18.143-.36.283-.535.427a.76.76,0,0,0-.1.131.519.519,0,0,0-.226.193,1.965,1.965,0,0,1-.49.485c-.033.013-.033.028,0,.041-.17.135-.3.318-.476.436-.238.163-.382.416-.622.568a.108.108,0,0,0-.041.04c-.131.271-.4.406-.607.593a5.059,5.059,0,0,0-.77.786c-.064.09-.136.175-.209.258a.206.206,0,0,1-.021.022.523.523,0,0,0,.125.111c.11.076.248.108.33.226a1.64,1.64,0,0,0,.169.281c.14.158.314.283.452.445a1.349,1.349,0,0,1,.271.381.561.561,0,0,0,.308.332c.062.081.165.035.239.076a.248.248,0,0,0,.075-.043c.012-.015-.005-.066,0-.068.126-.04.151-.171.231-.251a.364.364,0,0,0,.11-.161c.008-.072.107-.075.086-.166-.006-.03.09-.08.128-.13a6.181,6.181,0,0,1,.447-.53,1.147,1.147,0,0,0,.115-.1c.026-.035.026-.1.06-.123a2.171,2.171,0,0,0,.424-.52c.136-.176.264-.361.4-.535.077-.095.169-.176.251-.269a2.971,2.971,0,0,0,.424-.563c.083-.16.252-.266.32-.442,0-.01.017-.022.025-.022.114,0,.155-.11.239-.15a1.393,1.393,0,0,0,.434-.447,2.794,2.794,0,0,1,.294-.3c.153-.138.308-.276.449-.425.178-.185.331-.4.515-.57.115-.11.208-.254.376-.3a.1.1,0,0,0,.053-.055c.027-.085.107-.113.162-.168.083-.083.164-.168.246-.253a1.068,1.068,0,0,1,.238-.236c.113-.058.139-.178.246-.244.192-.116.337-.3.531-.427a.135.135,0,0,0,.052-.058.351.351,0,0,1,.2-.176c.057-.04.117-.08.171-.121.115-.083.246-.145.359-.224a2.327,2.327,0,0,1,.351-.251c.03-.015.049-.05.075-.078s.026-.032.042,0c.066-.053.133-.1.2-.156v-.1A.06.06,0,0,0,3340.441,112.959Zm-8.427,8.592,0-.012.012.007Zm.482-.475,0-.01h.01Zm1.678-2.118-.008-.007.01,0Z" transform="translate(-3306.578 -112.779)" fill="#c24c29"/>
              <path id="Path_284450" data-name="Path 284450" d="M3148.286,509.895l.041-.041c0,.014,0,.027,0,.041Z" transform="translate(-3137.545 -481.682)" fill="#c24c29"/>
              <path id="Path_284451" data-name="Path 284451" d="M3149.41,509.884c0-.014,0-.028,0-.041a.135.135,0,0,0,.039,0,.138.138,0,0,0,0,.038Z" transform="translate(-3138.59 -481.671)" fill="#c24c29"/>
              <path id="Path_284452" data-name="Path 284452" d="M3387.806,464.721a.226.226,0,0,1,.174-.139c.116-.024.156.068.214.125.042.041-.011.181-.068.214a.129.129,0,0,0-.007-.014s-.006,0-.009-.006l.02.016a2.216,2.216,0,0,1-.449.6.192.192,0,0,1-.27,0c.03-.012.03-.027,0-.041-.083-.045-.088-.1-.045-.19s.187-.145.192-.278c.135.048.058-.119.135-.131l.014.013-.018-.009.124-.163.026.019Z" transform="translate(-3359.635 -439.618)" fill="#c24c29"/>
              <path id="Path_284453" data-name="Path 284453" d="M3408.965,436.518c-.059.157-.116.314-.175.47a.054.054,0,0,1-.025.029c-.138.055-.174.19-.238.3a.124.124,0,0,0,0-.015.03.03,0,0,0-.011-.005l.018.017a.212.212,0,0,1-.073.024.883.883,0,0,1-.129-.025.021.021,0,0,0,0-.017c-.036-.049-.1-.1-.1-.146a.526.526,0,0,1,.08-.218c.047-.09.106-.174.16-.262s.121-.188.173-.287a.172.172,0,0,1,.172-.1c.042,0,.081.049.122.075.006.039.106.051.037.119-.032.012-.032.027,0,.041Z" transform="translate(-3379.038 -413.332)" fill="#c24c29"/>
              <path id="Path_284454" data-name="Path 284454" d="M3413.02,372.055a.25.25,0,0,0-.014.243.467.467,0,0,1-.02.381.182.182,0,0,0-.009.057c-.049.025-.091.087-.161.059a1.265,1.265,0,0,1-.131-.069c.065-.094-.089-.156-.037-.254.012-.021-.019-.065-.03-.1a1.047,1.047,0,0,0-.024-.247.655.655,0,0,1,.032-.308c.012-.089.211-.186.281-.141a.408.408,0,0,1,.129.15c.015.026-.009.073-.017.11,0,.009-.01.018-.015.027,0-.01.007-.02.012-.03.072.04.012.081,0,.122Z" transform="translate(-3383.091 -353.297)" fill="#c24c29"/>
              <path id="Path_284455" data-name="Path 284455" d="M3396.394,422.091a.788.788,0,0,0,.076-.11.12.12,0,0,1,.145-.066c.167.02.206.071.171.234a.491.491,0,0,1-.187.354c-.061.038-.025.1-.045.14a.861.861,0,0,1-.156.191.2.2,0,0,1-.23.033.214.214,0,0,1-.083-.27c.029-.051.086-.089.1-.142a1.33,1.33,0,0,1,.208-.367Z" transform="translate(-3367.743 -399.98)" fill="#c24c29"/>
              <path id="Path_284456" data-name="Path 284456" d="M3101.414,443.175c.009-.009.021-.028.025-.027.1.04.213.064.253.186-.027.012-.027.027,0,.042a1.387,1.387,0,0,1,.067.37c.007.129.047.256.063.385a.244.244,0,0,1-.04.124c-.015.027-.037.03-.056-.006,0-.011-.041-.01-.061-.008-.043,0-.086.009-.129.014.045-.1-.091-.128-.084-.215.015-.176-.092-.329-.1-.5,0-.068.063-.164-.039-.218.043-.042.009-.139.1-.145l.026.016Z" transform="translate(-3093.905 -419.709)" fill="#c24c29"/>
              <path id="Path_284457" data-name="Path 284457" d="M3111.643,473.8a.5.5,0,0,1-.309-.244,3.9,3.9,0,0,1-.282-.4.906.906,0,0,1-.059-.278s.007-.011.014-.013c.028-.013.067-.017.082-.039.029-.043.024-.047.042-.044a.457.457,0,0,1,.111.022.181.181,0,0,1,.075.066c.141.218.278.438.418.657a.117.117,0,0,1-.014.174A.626.626,0,0,0,3111.643,473.8Z" transform="translate(-3102.899 -447.241)" fill="#c24c29"/>
              <path id="Path_284458" data-name="Path 284458" d="M3105.555,403.516c.078-.1.032-.191.027-.288a.837.837,0,0,1-.008-.208.462.462,0,0,0-.044-.223c-.034-.095-.145-.042-.207-.085a.589.589,0,0,0-.062.063c.038.013.038.027,0,.038a.508.508,0,0,0-.058.362,1.28,1.28,0,0,1,0,.233.391.391,0,0,0,.1.362c.136.033.227.007.256-.095C3105.57,403.627,3105.53,403.549,3105.555,403.516Zm-.2.2v-.012l.012.007Z" transform="translate(-3097.512 -382.142)" fill="#c24c29"/>
              <path id="Path_284459" data-name="Path 284459" d="M3419.026,408.674a.645.645,0,0,1,.05-.141c.014-.022-.022-.186.083-.044l.066-.056c.09-.051.091.034.116.082-.03.012-.03.026,0,.041a.694.694,0,0,1-.058.49,2.586,2.586,0,0,0-.1.335.342.342,0,0,1-.165.185.088.088,0,0,1-.124-.048.56.56,0,0,1,.024-.356.407.407,0,0,0,.051-.264c-.015-.053.036-.122.057-.184.029-.012.04-.027,0-.041Z" transform="translate(-3388.936 -387.441)" fill="#c24c29"/>
              <path id="Path_284460" data-name="Path 284460" d="M3138.815,500.038l.28.16c-.005.01-.01.02-.017.03l.019-.028.12.161c.058.089.021.165-.042.237,0-.03-.008-.062-.013-.094l-.068.056a.527.527,0,0,1-.32-.118c-.032-.028-.082-.037-.116-.065a2.233,2.233,0,0,1-.276-.244.173.173,0,0,1-.015-.167.23.23,0,0,1,.187-.071,1.209,1.209,0,0,1,.265.147l-.018.027A.281.281,0,0,0,3138.815,500.038Z" transform="translate(-3128.317 -472.425)" fill="#c24c29"/>
              <path id="Path_284461" data-name="Path 284461" d="M3119.237,452.5c.044-.016.042.1.1.035.022-.022.043-.019.056.018.065.2.172.375.225.579.033.128-.046.193-.086.283,0,.01-.039.018-.045.012a.26.26,0,0,1-.045-.061c-.018.046-.045.038-.07.008s-.034-.057-.057-.079c-.14-.133-.146-.328-.224-.49a.407.407,0,0,1,0-.2c0-.017.042-.03.064-.046l.082-.061Z" transform="translate(-3110.413 -428.391)" fill="#c24c29"/>
              <path id="Path_284462" data-name="Path 284462" d="M3000.468,159.036l-.04-.04a.163.163,0,0,0,.041,0,.145.145,0,0,0,0,.04Z" transform="translate(-3000.178 -155.717)" fill="#c24c29"/>
              <path id="Path_284463" data-name="Path 284463" d="M3001.029,159.559l-.019.032-.019-.032a.171.171,0,0,0,.041,0Z" transform="translate(-3000.702 -156.24)" fill="#c24c29"/>
              <path id="Path_284464" data-name="Path 284464" d="M3034.487,177.551l-.015.031.018-.028Z" transform="translate(-3031.806 -172.955)" fill="#c24c29"/>
              <path id="Path_284465" data-name="Path 284465" d="M3165.126,227.021v.038a.157.157,0,0,0,0-.041Z" transform="translate(-3153.191 -218.913)" fill="#c24c29"/>
              <path id="Path_284466" data-name="Path 284466" d="M3104.031,230.585s-.007.009-.011.008-.007-.007-.01-.011.008-.009.012-.008S3104.028,230.581,3104.031,230.585Z" transform="translate(-3096.411 -222.216)" fill="#c24c29"/>
              <path id="Path_284467" data-name="Path 284467" d="M3112.019,237.783c-.032-.013-.033-.025,0-.038a.122.122,0,0,0,0,.041Z" transform="translate(-3103.829 -228.879)" fill="#c24c29"/>
              <path id="Path_284468" data-name="Path 284468" d="M3356.856,237.712l.03.015-.027-.018Z" transform="translate(-3331.317 -228.845)" fill="#c24c29"/>
              <path id="Path_284469" data-name="Path 284469" d="M3114.973,240.513l-.01.018.013-.014Z" transform="translate(-3106.587 -231.45)" fill="#c24c29"/>
              <path id="Path_284470" data-name="Path 284470" d="M3119.669,243.933l-.039-.041a.131.131,0,0,0,.039,0,.268.268,0,0,0,0,.041Z" transform="translate(-3110.922 -234.59)" fill="#c24c29"/>
              <path id="Path_284471" data-name="Path 284471" d="M3144.329,252.334l.021.019s-.011,0-.013,0a.086.086,0,0,1-.006-.017Z" transform="translate(-3133.87 -242.43)" fill="#c24c29"/>
              <path id="Path_284472" data-name="Path 284472" d="M3418.355,372.253l.006.014h-.014Z" transform="translate(-3388.446 -353.843)" fill="#c24c29"/>
              <path id="Path_284473" data-name="Path 284473" d="M3418.72,377.161l.03.018-.029-.019Z" transform="translate(-3388.792 -358.401)" fill="#c24c29"/>
              <path id="Path_284474" data-name="Path 284474" d="M3412.839,381.642l-.019.023s0-.01,0-.013a.076.076,0,0,1,.018-.007Z" transform="translate(-3383.311 -362.566)" fill="#c24c29"/>
              <path id="Path_284475" data-name="Path 284475" d="M3418.141,386.708l.03.015-.027-.018Z" transform="translate(-3388.255 -367.27)" fill="#c24c29"/>
              <path id="Path_284476" data-name="Path 284476" d="M3105.724,403.649l-.032-.019.031-.018a.18.18,0,0,0,0,.041Z" transform="translate(-3097.974 -382.977)" fill="#c24c29"/>
              <path id="Path_284477" data-name="Path 284477" d="M3423.43,408.457l-.03-.014.027.017Z" transform="translate(-3393.14 -387.466)" fill="#c24c29"/>
              <path id="Path_284478" data-name="Path 284478" d="M3426.026,409.406l.015-.031-.018.028Z" transform="translate(-3395.577 -388.332)" fill="#c24c29"/>
              <path id="Path_284479" data-name="Path 284479" d="M3425.46,409.76h.042a.24.24,0,0,0-.042.037.218.218,0,0,0,0-.041Z" transform="translate(-3395.054 -388.686)" fill="#c24c29"/>
              <path id="Path_284480" data-name="Path 284480" d="M3420.587,412.085l-.032-.019.032-.019a.152.152,0,0,0,0,.041Z" transform="translate(-3390.498 -390.814)" fill="#c24c29"/>
              <path id="Path_284481" data-name="Path 284481" d="M3106.408,417.625l-.019.022s0-.011,0-.013a.067.067,0,0,1,.018-.006Z" transform="translate(-3098.621 -395.996)" fill="#c24c29"/>
              <path id="Path_284482" data-name="Path 284482" d="M3471.068,119.082l-.02.032-.02-.032a.24.24,0,0,0,.041,0Z" transform="translate(-3437.39 -118.635)" fill="#c24c29"/>
              <path id="Path_284483" data-name="Path 284483" d="M3400.2,424.007h-.043a.08.08,0,0,0,.022-.028l.02.032Z" transform="translate(-3371.545 -401.899)" fill="#c24c29"/>
              <path id="Path_284484" data-name="Path 284484" d="M3399.956,424.376c0,.01-.01.021-.015.031.007-.009.012-.018.018-.028Z" transform="translate(-3371.346 -402.268)" fill="#c24c29"/>
              <path id="Path_284485" data-name="Path 284485" d="M3457.493,128.634l.02.015s-.007,0-.008,0l-.008-.013Z" transform="translate(-3424.814 -127.506)" fill="#c24c29"/>
              <path id="Path_284486" data-name="Path 284486" d="M3418.146,436.955l.016-.031-.019.028Z" transform="translate(-3388.256 -413.926)" fill="#c24c29"/>
              <path id="Path_284487" data-name="Path 284487" d="M3418.706,438.992c.034.013.034.026,0,.038a.158.158,0,0,0,0-.041Z" transform="translate(-3388.78 -415.844)" fill="#c24c29"/>
              <path id="Path_284488" data-name="Path 284488" d="M3106.659,445.739c.031.013.03.026,0,.039a.222.222,0,0,0,0-.042Z" transform="translate(-3098.872 -422.113)" fill="#c24c29"/>
              <path id="Path_284489" data-name="Path 284489" d="M3409.516,450.811l-.015.027a.285.285,0,0,1,.018-.025Z" transform="translate(-3380.228 -426.828)" fill="#c24c29"/>
              <path id="Path_284490" data-name="Path 284490" d="M3120.919,452.294l-.03-.015.027.018Z" transform="translate(-3112.093 -428.191)" fill="#c24c29"/>
              <path id="Path_284491" data-name="Path 284491" d="M3387.977,477.3l-.031-.019.031-.019a.219.219,0,0,0,0,.041Z" transform="translate(-3360.202 -451.402)" fill="#c24c29"/>
              <path id="Path_284492" data-name="Path 284492" d="M3150.51,506.243l.017-.021s0,.009,0,.011a.1.1,0,0,1-.016.007Z" transform="translate(-3139.61 -478.307)" fill="#c24c29"/>
              <path id="Path_284493" data-name="Path 284493" d="M3148.87,509.309l-.044,0c0-.015,0-.029,0-.044a.232.232,0,0,0,.036.044Z" transform="translate(-3138.047 -481.137)" fill="#c24c29"/>
            </g>
          </g>
          <path id="Path_284494" data-name="Path 284494" d="M3358.409,151.265a1.655,1.655,0,0,1-.149-.18c-.074-.123-.135-.253-.207-.378a1.7,1.7,0,0,0-.259-.41c-.1-.091-.143-.233-.28-.286-.031-.012-.046-.062-.072-.091-.047-.052-.1-.1-.147-.151-.023-.023-.067-.056-.061-.072.034-.109-.094-.107-.117-.179a1.069,1.069,0,0,0-.106-.205.25.25,0,0,0-.039-.042.06.06,0,0,0,.017-.007s0-.008,0-.013-.013.013-.02.02a1.147,1.147,0,0,0-.342-.4c-.11-.092-.235-.167-.337-.265a1.626,1.626,0,0,1-.2-.288l.02-.021-.021.019c-.1-.073-.039-.192-.076-.285a.319.319,0,0,1,.084-.359c.09-.087.093-.211.169-.308s.188-.2.27-.313c.012-.016.021-.033.031-.05.1-.011.142-.106.175-.169a3.823,3.823,0,0,1,.3-.423.658.658,0,0,0,.046-.086c.035-.015.032-.028,0-.04.055-.053.136-.086.125-.185a.094.094,0,0,1,.032-.068c.155-.123.2-.319.323-.464.047-.134.167-.235.166-.391,0-.026.032-.053.053-.078a1,1,0,0,0,.077-.086c.042-.065.052-.163.166-.145-.011-.106.078-.122.142-.162.022-.014.054-.025.062-.046a.77.77,0,0,1,.327-.347.291.291,0,0,0,.083-.084,2.794,2.794,0,0,1,.521-.554,3.664,3.664,0,0,1,.349-.339,1.05,1.05,0,0,1,.333-.194c.015-.005.022-.031.033-.047.048-.039.093-.076.14-.111a.547.547,0,0,0,.1-.068,2.087,2.087,0,0,1,.43-.363c0-.1.132-.042.162-.132.017-.051.1-.081.156-.119s.128-.09.194-.133.125-.075.186-.114l.607-.392c.088-.056.177-.109.265-.163.029-.021.056-.039.082-.059a.613.613,0,0,1,.472-.129c.025,0,.057-.034.086-.052h.159c.032.022.06.056.1.065.221.052.3.218.367.411a.77.77,0,0,1,.046.243,1.851,1.851,0,0,1,.034.243c0,.037.035.077.055.115v.08q-.081.06,0,.12v.08a.824.824,0,0,0-.082.315,2.768,2.768,0,0,1-.062.525,3.377,3.377,0,0,0-.1.522,1.173,1.173,0,0,1-.077.234.057.057,0,0,0-.008-.016s-.008,0-.013,0l.021.02c-.04.142-.079.284-.119.426-.055.191-.106.382-.167.571-.018.058-.066.106-.091.164-.042.1-.126.186-.1.308-.117.059-.081.2-.156.286a1.815,1.815,0,0,0-.224.385c-.036.118-.135.183-.172.291a2.013,2.013,0,0,1-.125.316,2.242,2.242,0,0,0-.218.62c-.013.061-.072.111-.091.172a1.845,1.845,0,0,0-.125.425,1.323,1.323,0,0,1-.136.353c-.006.012-.019.02-.022.032-.027.11,0,.239-.093.326s-.047.213-.136.293c-.022.02-.008.076-.017.114a.9.9,0,0,1-.04.1.059.059,0,0,0-.008-.016s-.008,0-.013,0l.021.021c-.026.058-.054.115-.078.174a3.792,3.792,0,0,0-.205.621c0,.016-.023.028-.036.042a.056.056,0,0,0-.007-.016.032.032,0,0,0-.013,0l.02.021a.343.343,0,0,1-.006.117c-.064.151-.137.3-.2.45-.026.061-.046.126-.069.19l-.021-.019.02.021a1.894,1.894,0,0,1-.343.721c-.049.071-.025.164-.1.237a.265.265,0,0,0-.087.243c.007.031-.042.076-.068.114-.031.013-.034.026,0,.039-.036.085-.077.166-.109.251s-.12.11-.114.2c0,.007-.04.022-.063.024a.361.361,0,0,1-.351-.119.071.071,0,0,0,.017-.008s0-.008,0-.013l-.02.02c-.088-.035.043-.134-.058-.181-.048-.022-.063-.111-.1-.167a3.958,3.958,0,0,0-.256-.479,2.842,2.842,0,0,0-.186-.226c-.032-.032.011-.12-.079-.1-.037-.133-.165-.184-.24-.28a.057.057,0,0,0,.016-.008s0-.008,0-.013Z" transform="translate(-3330.067 -139.232)" fill="#ffa2a8"/>
          <path id="Path_284495" data-name="Path 284495" d="M3026.705,181.162a2.429,2.429,0,0,1,.52.469,1.635,1.635,0,0,0,.4.327l-.02.021.021-.019a1.382,1.382,0,0,0,.236.226.273.273,0,0,1,.162.191c.014.08.045,0,.057.005.126.09.25.183.372.277.01.009.006.037.009.057l-.02.021.021-.019a1.2,1.2,0,0,1,.2.081c.121.076.233.165.351.247s.244.112.325.228a.192.192,0,0,0,.04,0c.055.037.108.077.161.117a1.152,1.152,0,0,1,.34.252c.123.111.259.207.386.315.068.058.128.127.192.19.016.037.028.032.04,0l.159.2a.2.2,0,0,1,0,.04c-.038.017-.032.029,0,.04a.147.147,0,0,1,.057.167c-.021.1-.038.2-.056.3,0,.019,0,.05-.009.057-.146.1-.094.294-.214.406-.033.032-.038.1-.056.145-.012.03-.014.071-.036.089-.16.134-.173.336-.234.513a1.985,1.985,0,0,1-.1.309,2.083,2.083,0,0,0-.1.288,1.619,1.619,0,0,1-.08.268c-.049.091-.082.191-.122.287-.036.015-.032.028,0,.04a.567.567,0,0,0-.144.31c0,.07-.1.119-.12.211a1.184,1.184,0,0,1-.1.242.6.6,0,0,0-.069.157,2.079,2.079,0,0,1-.2.755c-.033.013-.033.026,0,.04-.06.134-.114.27-.182.4a.947.947,0,0,1-.137.16.047.047,0,0,0-.007-.016s-.008,0-.013,0l.02.02a.279.279,0,0,1-.34-.024,1.591,1.591,0,0,1-.246-.224c-.036-.045-.1-.066-.144-.107-.183-.169-.3-.391-.494-.561a2.279,2.279,0,0,1-.314-.472c-.132-.2-.262-.4-.4-.6-.022-.033-.083-.036-.113-.067s-.035-.08-.06-.114a.21.21,0,0,1-.064-.133c0-.076-.13-.095-.118-.192l-.338-.377a8.5,8.5,0,0,1-.638-.957,2.726,2.726,0,0,1-.47-.712c-.091-.19-.271-.317-.331-.522-.152-.035-.148-.238-.3-.274-.071-.017.027-.093-.05-.123-.042-.017-.061-.1-.087-.148-.014-.028-.013-.072-.034-.087a.841.841,0,0,1-.226-.383c-.016-.037-.058-.062-.081-.1a1.05,1.05,0,0,1-.125-.228c-.029-.09-.115-.131-.148-.213-.012-.03-.047-.061-.042-.087.025-.155-.1-.26-.133-.4-.012-.053-.083-.112-.126-.17a3.86,3.86,0,0,1-.356-.7c-.082-.171-.109-.361-.187-.533a1.146,1.146,0,0,1-.132-.34c-.005-.035,0-.08-.065-.075-.015,0-.057-.07-.049-.1.028-.1-.051-.138-.09-.2a1.442,1.442,0,0,1-.071-.686c.006-.066,0-.113-.049-.152v-.04q.048-.02,0-.04v-.04c.031-.013.033-.027,0-.04v-.04c.006,0,.016-.006.016-.011a1.048,1.048,0,0,1,.223-.467c.1-.132.27-.121.406-.174.049-.019.128.035.193.054a4.062,4.062,0,0,1,.752.379.943.943,0,0,1,.362.289c.008.011.02.03.024.028.17-.045.215.14.339.18-.033.014-.037.026,0,.039a.14.14,0,0,0,.04,0c.07.037.136.077.2.118a.062.062,0,0,0-.016.007s0,.008,0,.013l.02-.02c.2.132.41.248.607.385a1.836,1.836,0,0,1,.147.131c.055.048.152.026.182.131.012.04.111.051.163.087s.1.108.163.143a.631.631,0,0,1,.294.28c.022.048.078-.067.087.027,0,.037.055.069.082.105s.045.069.071.1c.006.007.025,0,.039,0Z" transform="translate(-3020.062 -173.995)" fill="#ffa2a8"/>
          <path id="Path_284496" data-name="Path 284496" d="M3159.852,214.319c-.041-.12,0-.259-.081-.372-.009-.012.006-.038.008-.058a.742.742,0,0,0,0-.208,1.938,1.938,0,0,1-.1-.459c0-.013-.017-.042-.025-.042-.107,0-.081-.078-.093-.14s-.042-.108-.055-.163c0,0,0-.007,0-.01a.365.365,0,0,1,.019-.07c-.085-.072.03-.256-.152-.274a.056.056,0,0,1,0-.038.827.827,0,0,0-.068-.455c-.035-.12-.146-.2-.167-.326-.006-.04-.031-.053-.062-.01-.005,0-.053-.025-.053-.033.026-.168-.118-.191-.211-.259a.538.538,0,0,1-.1-.08c-.027-.028-.04-.068-.067-.1-.07-.076-.146-.15-.216-.228a1.382,1.382,0,0,1-.18-.228c-.046-.085-.228-.06-.173-.219,0,0-.022-.015-.032-.02a2.916,2.916,0,0,0-.31-.165c-.115-.047-.16-.175-.276-.216-.052-.018-.066-.106-.145-.078-.045-.083-.178-.086-.182-.206,0-.012-.019-.028-.034-.037a4.2,4.2,0,0,1-.476-.324.485.485,0,0,1-.126-.1,1.281,1.281,0,0,1-.052-.163c-.028-.06-.138,0-.153-.1-.007-.042-.111-.043-.063-.125,0-.007-.02-.036-.036-.048a.555.555,0,0,1-.174-.155c-.076-.1-.207-.163-.255-.293a.077.077,0,0,0-.039-.045.149.149,0,0,1-.12-.156.82.82,0,0,1,.013-.11l-.079.04-.022.022s0-.012,0-.013a.063.063,0,0,1,.017-.008c.008-.06.029-.125-.059-.15-.063-.018-.037-.05-.012-.085.012-.015,0-.043.007-.065-.027.013-.054.028-.082.042a.169.169,0,0,1-.013-.045c0-.148-.022-.288-.183-.356a.423.423,0,0,1,.022-.06c0-.056.008-.121-.08-.12l-.021.022c0-.005,0-.012,0-.013s.01,0,.017-.008v-.12c-.047-.09-.088-.184-.142-.271-.03-.048-.113-.075-.034-.146.005,0-.01-.04-.015-.04-.11,0-.08-.078-.092-.138a1.075,1.075,0,0,0-.038-.123l-.021.022c0-.005,0-.012,0-.013a.074.074,0,0,1,.017-.008c0-.1.064-.221-.1-.264-.006,0-.093-.088,0-.133.02-.012.06-.023.008-.037-.126-.035-.123-.113-.086-.211a.567.567,0,0,0-.021-.193l-.022.022s0-.012.005-.013.01,0,.017-.008a.193.193,0,0,1-.027-.186c.039-.075,0-.123-.053-.169l-.08-.083c.012-.02.037-.042.037-.061a1.15,1.15,0,0,0-.106-.465.249.249,0,0,1-.034-.1.823.823,0,0,0-.085-.362c-.023-.045-.042-.128-.018-.151.1-.1-.007-.17-.019-.251a.556.556,0,0,0-.055-.121c-.017-.007-.025-.013-.025-.02s.008-.013.025-.02a.246.246,0,0,0,0-.279l-.022.022c0-.005,0-.012,0-.013a.069.069,0,0,1,.017-.008c-.009-.017-.028-.037-.025-.052a.266.266,0,0,0-.043-.243l.028-.025-.1-.141c.067-.048-.041-.111.016-.161a.888.888,0,0,1-.106-.387c0-.017-.021-.047-.03-.047-.062.01-.062-.032-.06-.072,0-.058.01-.118,0-.175s-.018-.14-.03-.209c-.007-.047-.037-.1-.022-.14a.326.326,0,0,0-.04-.294.06.06,0,0,1,0-.022c0-.02.01-.047.012-.068q-.025-.01-.025-.02c0-.007.008-.013.025-.02.04-.067.048-.113-.056-.091-.007,0-.017-.018-.023-.028s-.025-.013-.025-.02.008-.013.025-.02l.04-.04c-.028-.088-.02-.194-.118-.248.007-.055-.061-.09-.061-.141a.074.074,0,0,1,.02-.05c-.017-.007-.026-.013-.026-.02s.009-.013.026-.02c0-.06-.043-.086-.079-.125s.009-.095.015-.145c0,0-.011-.007-.017-.01l-.021.022s0-.012,0-.013a.107.107,0,0,1,.017-.008.48.48,0,0,1-.036-.228.058.058,0,0,0,0-.018c-.046.02-.093.04-.139.061a.454.454,0,0,0-.321.022.757.757,0,0,1-.281.057c-.052-.055-.106.012-.158,0l-.021-.018.019.022a1.119,1.119,0,0,1-.258,0c-.087.005-.173.053-.261,0h-.038a1.247,1.247,0,0,1-.1.259,1.045,1.045,0,0,0-.009.158c-.008.042-.054.1-.043.116.067.068-.046.071-.037.126a.529.529,0,0,1,.009.1c0,.048,0,.1,0,.145q.025.01.025.02c0,.007-.008.013-.025.02a.349.349,0,0,0-.06.239c.008.052.116.136-.042.141,0,0-.01.04,0,.05.09.108-.007.216-.006.324,0,.088-.1.173-.016.276.01.012-.008.048-.019.073s-.033.047-.026.058c.061.116-.015.221-.028.331-.01.091-.083.176-.02.276.012.02-.006.06-.013.091-.017.073-.056.143-.017.226a.035.035,0,0,1,0,.013.445.445,0,0,1-.034.095c.017.007.025.013.025.02s-.008.013-.025.02v.12l.02.022c-.005,0-.011,0-.013-.005a.03.03,0,0,1-.007-.017h-.039c0,.058.059.133-.046.163.009.063-.076.1-.066.133.022.075-.018.131-.02.191a.4.4,0,0,1-.093.286.046.046,0,0,0-.012.037c.044.146-.039.263-.087.389a.357.357,0,0,0-.034.151.2.2,0,0,1-.082.166l.021.022s-.01,0-.014-.005a.061.061,0,0,1-.007-.017c-.1,0-.076.093-.066.123a.178.178,0,0,1-.075.216.354.354,0,0,0-.058.1c.017.007.025.013.025.02s-.008.013-.025.02a.333.333,0,0,1-.125.268c-.034.025-.048.063.005.091l.02-.02a.046.046,0,0,1,0,.013.067.067,0,0,1-.016.007v.04c.022.013.035.027.035.04s-.013.027-.035.04c-.007.017-.013.025-.021.025s-.013-.008-.02-.025a.784.784,0,0,0-.038.14c-.005.063-.017.116-.081.14s-.059.091-.065.148c0,.028.005.065-.009.086a.958.958,0,0,0-.171.414c0,.032-.04.061-.061.093-.081.12-.216.2-.23.367,0,.028-.034.075-.053.076-.113.013-.043.086-.048.131.007.007.014.015.021.022s-.01,0-.013-.005a.028.028,0,0,1-.007-.017.378.378,0,0,0-.2.3.108.108,0,0,1-.089.108c-.04.012-.031.05.007.07l.02-.02a.047.047,0,0,1,0,.013.072.072,0,0,1-.017.007c-.04.068-.081.136-.116.206-.019.04-.026.085-.042.126-.021.058-.114-.045-.119.051a1.221,1.221,0,0,0,.009.126s-.011,0-.016.01a2.479,2.479,0,0,0-.514.492c-.006.008-.03.018-.035.015-.112-.1-.112.047-.146.076a.774.774,0,0,0-.187.251c-.043.1-.128.138-.2.193a1.461,1.461,0,0,0-.145.128l.021.022s-.01,0-.014-.005a.048.048,0,0,1-.007-.017l-.159.08c-.008.017-.014.025-.021.025s-.014-.008-.02-.025c-.126.1-.252.206-.38.306-.015,0-.04-.018-.058-.027a.183.183,0,0,0-.16.12l.06.025a.51.51,0,0,1-.037.036c-.008-.02-.015-.04-.023-.061-.063.061-.092.143-.209.163a.679.679,0,0,0-.283.2,1.253,1.253,0,0,1-.261.2.3.3,0,0,0-.11.11c-.023.037-.02.088-.04.128-.038.075-.068-.058-.11-.008-.017.018-.045.028-.059.05s0,.053-.054.063a.156.156,0,0,0-.135.111c-.015.052-.1.076-.136.13a2.4,2.4,0,0,0-.261.485.221.221,0,0,1-.037.083.5.5,0,0,0-.111.248c-.019.07-.016.165-.11.2-.055.115-.044.259-.162.346a.063.063,0,0,0-.017.052c.04.071-.017.125-.031.186-.042.181-.147.354-.085.552a.086.086,0,0,1-.018.072.679.679,0,0,0-.1.361c-.025.15-.015.306-.03.459a.86.86,0,0,0,0,.444.206.206,0,0,1,0,.08,1.355,1.355,0,0,0,.076.65c.073.163.038.356.121.52.033.066-.026.176.1.2,0,0,0,.01,0,.015,0,.1.1.113.148.173.021.013.033.027.033.04s-.012.027-.033.04a.333.333,0,0,0,.058.048c.059.028.043.07.022.111a1.181,1.181,0,0,1,.259.477c.017-.066.026-.1.04-.156.025.035.051.053.054.075a.507.507,0,0,0,.217.316.48.48,0,0,1,.125.118c.079.13.106.156.22.191a.128.128,0,0,1,.077.065.51.51,0,0,1,.017.136c.069-.04.128-.078.149.033a.212.212,0,0,0,.041.061c.006-.017.013-.025.02-.025s.013.008.02.025l.2.2c0-.017.007-.035.011-.051l.02.013c-.009.013-.021.025-.031.038-.016.086.075.041.1.081.087.136.262.165.365.283a.212.212,0,0,0,.1.058c.076.017.149.025.153.128,0,.008.067.008.094.027a.478.478,0,0,1,.078.09c.008-.008.018-.018.026-.028l-.021-.02s.012,0,.013.005a.122.122,0,0,1,.008.015c.025.017.073.033.073.048-.007.1.149.013.133.118a.271.271,0,0,1,.051.005.655.655,0,0,0,.2.063c.085,0,.126.025.146.1a.1.1,0,0,0,.032-.012c.064-.058.044.032.072.042s.068.045.1.051.09-.032.1-.023c.086.143.246.161.375.231l.274.051.021-.02s0,.012,0,.013a.069.069,0,0,1-.017.007c.01.017.017.042.032.048a.122.122,0,0,0,.152-.025.112.112,0,0,0,.122.1c.1,0,.194.023.293.035.005-.017.013-.025.019-.025s.014.008.021.025c.012,0,.023-.015.035-.015.073,0,.137.085.216.028a.062.062,0,0,1,.022.03c.012.058.025.075.06.012a.048.048,0,0,1,.079-.022c.057.038.137.106.175.088.086-.038.122.075.191.04.082.09.138-.075.216-.022a.057.057,0,0,0,.019.008.561.561,0,0,1,.167-.033.607.607,0,0,1,.155.073c.009.005.024-.012.036-.012.1.007.2.015.3.023.007-.017.014-.025.021-.025s.014.008.02.025h.319c.006-.017.013-.025.02-.025s.013.008.02.025c.051-.015.139-.055.149-.041.053.075.119.022.163.018a.808.808,0,0,1,.489.038.136.136,0,0,0,.036-.015c.007-.017.014-.025.02-.025s.013.008.02.025c.025-.007.056,0,.074-.02.1-.08.206-.113.315-.012.034.032.059.008.073-.027.01-.018.02-.055.025-.055.124.023.241-.055.366-.02a.291.291,0,0,0,.136.008c.071-.018.137-.058.2.013.006.007.042,0,.045-.008.048-.1.117-.076.2-.047.1.037.209-.081.316,0,0,0,.012,0,.016,0,.138-.065.291-.083.43-.15l-.022-.02s.011,0,.013.005,0,.01.009.015c.03-.012.066-.042.088-.033.1.037.176-.093.271-.018.134-.062.266-.125.4-.188.007-.017.014-.025.021-.025s.013.008.02.025l.16-.08c.033-.086.121.038.136-.025.021-.088.107-.047.143-.095.006-.017.013-.025.02-.025s.014.008.021.025c.062-.013.123-.028.183-.043.183-.045.311-.194.485-.254.015,0,.033-.032.03-.043-.017-.062.038-.077.064-.075a.16.16,0,0,0,.144-.078.123.123,0,0,1,.094-.055.125.125,0,0,1,.077.03c.1-.012.129-.176.261-.14,0,0,.012-.01.012-.015-.005-.118.107-.121.17-.165.086-.058.114-.184.235-.2l.08-.08c0-.083.06-.106.118-.14.042-.023.109-.025.1-.1s.113.033.1-.065c-.012-.077.048-.116.091-.166a.469.469,0,0,0,.117-.156c.022-.086.111-.063.154-.125a2.835,2.835,0,0,0,.311-.6c.042-.108.088-.216.122-.327a1.908,1.908,0,0,0,.064-.286c.005-.035,0-.058.043-.068.072-.015.007-.063.017-.093s.026-.086.042-.126.05-.078.04-.091c-.053-.07-.007-.133,0-.2s.064-.123.023-.195c.089-.053.047-.143.058-.216a1.009,1.009,0,0,1,.089-.5.119.119,0,0,0-.056-.008.033.033,0,0,1-.019.013s0-.012.005-.013a.033.033,0,0,1,.013-.007c0-.068,0-.13.06-.179S3159.878,214.4,3159.852,214.319Zm-5.465-8.947a.119.119,0,0,1-.026-.013s.008-.012.012-.012l.028.013S3154.39,205.372,3154.386,205.372Zm.012-.133c.005,0,.012,0,.013,0a.136.136,0,0,1,.008.017Z" transform="translate(-3134.015 -193.985)" fill="#fff1f1"/>
          <g id="Group_54168" data-name="Group 54168" transform="translate(12.19 13.869)">
            <g id="Group_54167" data-name="Group 54167" transform="translate(0)">
              <path id="Path_284497" data-name="Path 284497" d="M3175.063,314.593l-.087-.033c0-.021-.005-.041-.008-.062-.071-.252-.2-.258-.411-.124-.188.121-.374.246-.561.369,0,.009,0,.017.007.026l-.026-.006-.614.283a.07.07,0,0,1-.11,0,2.5,2.5,0,0,1-.772.239c-.026,0-.056.018-.077.009a3.535,3.535,0,0,0-.667-.076c-.042-.009-.089,0-.13-.01-.157-.038-.316-.076-.471-.122-.067-.02-.127-.061-.193-.086a2.264,2.264,0,0,1-.91-.653,1.347,1.347,0,0,0-.319-.317.365.365,0,0,1-.174-.2.143.143,0,0,0-.007-.018l-.046,0a.36.36,0,0,1,.017-.033l-.058-.058-.027.012c0-.009.009-.018.013-.027-.094-.169-.19-.337-.279-.507-.076-.144-.05-.233.1-.262a.519.519,0,0,0,.287-.18c.074-.074.164-.133.228-.213a1.032,1.032,0,0,0,.249-.332c0-.012.009-.031.019-.033a.474.474,0,0,0,.294-.26l.064.038c.007-.07.016-.138.105-.154.022,0,.061-.027.062-.042.006-.129.145-.135.2-.218s.1-.167.143-.251c0-.021,0-.043,0-.064l0-.014c0-.022,0-.043,0-.065l.067,0c.041-.069.1-.134.065-.224a1.032,1.032,0,0,0,.068-.115c.007-.018,0-.045,0-.068-.033-.024-.035-.048,0-.072l0-.014c-.007-.01-.013-.019-.019-.029l.041.006c.079-.148.015-.3.018-.454v-.065c.009-.068.04-.136-.006-.2a.108.108,0,0,1-.016-.076.415.415,0,0,0-.1-.378c-.042-.055.018-.056.058-.047a.213.213,0,0,1-.134-.184c-.06-.024-.058-.048,0-.072v-.017l.015-.008c-.051.019-.084.016-.08-.051,0,0-.019-.01-.028-.016l-.03.006.006-.03a.02.02,0,0,1,.013-.03c-.024-.007-.06,0-.071-.019a1.339,1.339,0,0,0-.31-.287,1.593,1.593,0,0,0-.606-.262,2.492,2.492,0,0,0-.832-.137,2.737,2.737,0,0,1-.353,0c-.021,0-.041-.036-.062-.056h-.04c.012.048-.014.09-.056.078a.417.417,0,0,0-.26.041,1.452,1.452,0,0,1-.152.023c-.094.02-.185.045-.277.069l-.066,0a.022.022,0,0,1-.025-.014c-.027.014-.053.038-.079.039a.533.533,0,0,0-.307.1h-.067a.661.661,0,0,1-.292.133l.007.032-.032-.006a2.4,2.4,0,0,0-.542.311c-.18.141-.356.28-.351.54-.13.176-.052.371-.054.56a2.6,2.6,0,0,0,.09.529.344.344,0,0,0,.135.186l.046,0-.017.033a.925.925,0,0,0,.184.384c.037.083.071.168.112.249a.206.206,0,0,0,.081.083.3.3,0,0,1,.186.185.023.023,0,0,0,.009.017,3.787,3.787,0,0,0,.462.306c.08-.045.116.028.159.066a2.151,2.151,0,0,0,.388.328c.021.011.033.038.048.059a.821.821,0,0,0,.4.291c.121.048.245.092.367.138a1.2,1.2,0,0,0-.057.378c0,.07-.051.144-.081.217-.113.191-.226.382-.343.572a.423.423,0,0,1-.081.086c-.145.132-.291.264-.436.4h-.074l-.022.063.014.009-.014-.009c-.19.122-.375.249-.559.379a4.592,4.592,0,0,1-.55.292l.01.025-.025-.009a1.872,1.872,0,0,1-.415.109,1.149,1.149,0,0,0-.313.11.708.708,0,0,1-.44,0,1.076,1.076,0,0,0-.408-.038.459.459,0,0,1-.236-.048.754.754,0,0,0-.243-.094,1.1,1.1,0,0,1-.316-.13c-.222-.107-.442-.218-.662-.33-.016-.008-.021-.04-.031-.062a.458.458,0,0,1-.256-.152c-.056-.055-.088-.146-.191-.145a.488.488,0,0,1-.014-.086l-.042.02c0-.018.006-.036.009-.054l-.132-.091-.022-.022c-.039-.033-.11-.035-.106-.11a.4.4,0,0,0-.241.04v.08a.037.037,0,0,1,.025-.015l.041-.012-.011.042,0,.093c.015.03.008.039-.023.024a.032.032,0,0,1-.029-.012v.08c.09.038.093.046.058.134.03.194.1.378.131.572l.023.022c.049.024.066.056.033.108a.267.267,0,0,0-.018.068l.062,0a.352.352,0,0,1,.048.1,1.128,1.128,0,0,0,.243.5c.113.165.221.332.347.487.045.055.073.127.159.134.01,0,.017.028.026.043a5.105,5.105,0,0,0,.516.705c.123.153.254.3.381.444a.234.234,0,0,1,.026.07.283.283,0,0,1,.076.03c.088.081.161.2.264.242s.2.118.3.167c.036.021.072.042.106.064s.081.055.12.083h.064c.184.057.316.222.518.241a.1.1,0,0,1,.053.026,1.1,1.1,0,0,0,.494.221c.194.053.392.1.587.149l.055.009a.771.771,0,0,1,.281.03,2.432,2.432,0,0,0,.284.021c.012,0,.02.046.031.071a2,2,0,0,1,.605-.01.4.4,0,0,1,.313.09h.08c.019-.021.037-.059.056-.059a3.648,3.648,0,0,0,.691-.124c.1-.021.216-.015.324-.027.09-.01.18-.029.269-.044h.071l.087.032-.02-.042.054.008.05-.037.042,0c0,.01-.009.02-.013.03a2.53,2.53,0,0,1,.637-.167,1.157,1.157,0,0,0,.43-.159,2.285,2.285,0,0,1,.388-.177c.074-.033.153-.059.223-.1a1.707,1.707,0,0,0,.21-.145c.08-.064.156-.134.232-.2.156-.141.309-.283.465-.423a.155.155,0,0,1,.056-.02l-.014-.046.046.013c.112-.127.227-.251.335-.38a4.64,4.64,0,0,0,.327-.418c.037-.057.121-.113.081-.206a.8.8,0,0,0,.175-.123c.1-.121.19-.253.283-.381.14-.194.28-.388.417-.584.033-.046.109-.039.113-.125,0-.058.063-.112.1-.168a1.766,1.766,0,0,0,.1-.167.378.378,0,0,0,.035-.149c0-.128.121-.231.066-.367l.109-.025Z" transform="translate(-3162.376 -308.25)" fill="#3e3636"/>
            </g>
            <path id="Path_284498" data-name="Path 284498" d="M3162.376,398.772a.094.094,0,0,1,.02.025.039.039,0,0,0-.02.015Z" transform="translate(-3162.376 -392.349)" fill="#3e3636"/>
            <path id="Path_284499" data-name="Path 284499" d="M3165.741,393.029l.01-.007-.008.008Z" transform="translate(-3165.502 -387.007)" fill="#3e3636"/>
            <path id="Path_284500" data-name="Path 284500" d="M3237.6,310.966l-.008-.008.009.007Z" transform="translate(-3232.258 -310.766)" fill="#3e3636"/>
            <path id="Path_284501" data-name="Path 284501" d="M3176.424,402.055l.007-.008-.009.007Z" transform="translate(-3175.425 -395.392)" fill="#3e3636"/>
            <path id="Path_284502" data-name="Path 284502" d="M3316.166,403.636h0Z" transform="translate(-3305.214 -396.868)" fill="#3e3636"/>
            <path id="Path_284503" data-name="Path 284503" d="M3283.251,320.5l.01-.007-.009.009Z" transform="translate(-3274.676 -319.62)" fill="#3e3636"/>
            <path id="Path_284504" data-name="Path 284504" d="M3284.957,324.546l.008.01-.009-.008Z" transform="translate(-3276.259 -323.39)" fill="#3e3636"/>
            <path id="Path_284505" data-name="Path 284505" d="M3275.25,360.52l-.01.008.012-.006Z" transform="translate(-3267.232 -356.811)" fill="#3e3636"/>
            <path id="Path_284506" data-name="Path 284506" d="M3340.16,396.792l.007-.014Z" transform="translate(-3327.546 -390.497)" fill="#3e3636"/>
            <path id="Path_284507" data-name="Path 284507" d="M3281.566,318.809l.009-.007-.008.009Z" transform="translate(-3273.11 -318.053)" fill="#3e3636"/>
            <path id="Path_284508" data-name="Path 284508" d="M3165.976,410.751l.012,0c0,.01,0,.021-.005.031Z" transform="translate(-3165.72 -403.477)" fill="#3e3636"/>
            <path id="Path_284509" data-name="Path 284509" d="M3190.939,445.444l-.01.007.007-.009Z" transform="translate(-3188.904 -435.708)" fill="#3e3636"/>
            <path id="Path_284510" data-name="Path 284510" d="M3203.625,454.011h0Z" transform="translate(-3200.698 -443.669)" fill="#3e3636"/>
            <path id="Path_284511" data-name="Path 284511" d="M3227.815,462.91l.021-.008-.008.009Z" transform="translate(-3223.172 -451.929)" fill="#3e3636"/>
            <path id="Path_284512" data-name="Path 284512" d="M3236.479,464.553l-.008.006.008-.008Z" transform="translate(-3231.214 -453.462)" fill="#3e3636"/>
          </g>
          <g id="Group_54169" data-name="Group 54169" transform="translate(15.748 19.676)">
            <path id="Path_284513" data-name="Path 284513" d="M3296.289,454.277l.041,0v.04l-.038-.041Z" transform="translate(-3290.345 -449.721)" fill="#ffa2a8"/>
            <path id="Path_284514" data-name="Path 284514" d="M3216.94,391.347c.047.035.1.1.139.1.068-.009.1.051.131.051.144,0,.242.15.393.11.067.056.189.026.216.142a.075.075,0,0,0-.016.007s0,.008,0,.012l.019-.021c.034.024.083.04.1.072a1.685,1.685,0,0,1,.193.705c0,.008.019.016.03.023a.684.684,0,0,1,.119.478.063.063,0,0,0-.018.007s0,.008,0,.013l.02-.021c.076.053.016.107,0,.161a.057.057,0,0,0-.018.006s0,.009,0,.014.014-.015.02-.022c.1.059.034.165.068.246a2.218,2.218,0,0,1,.086.358.3.3,0,0,1,0,.168c-.026.089.035.178.025.277a3.164,3.164,0,0,0,.017.429c-.039,0-.08,0-.05.062a.343.343,0,0,1,.011.1l-.054.012.015.022.039-.035a.372.372,0,0,1,.022.062c-.078.046,0,.162-.088.2l.064.1c-.012.017-.036.037-.038.057a1.927,1.927,0,0,0,0,.314.765.765,0,0,1-.024.395c-.032.072.012.125,0,.184a1.542,1.542,0,0,1-.049.19c-.069.25-.125.5-.182.754a.537.537,0,0,1-.092.142.333.333,0,0,0-.07.112.516.516,0,0,1-.184.4c-.042.059-.087.121-.132.183-.022.031-.038.072-.067.091a.335.335,0,0,0-.185.228c0,.008-.035.011-.053.017a.135.135,0,0,0-.006-.017s-.009,0-.013,0l.021.02c-.119.1-.241.19-.355.292a2.82,2.82,0,0,1-.256.16.6.6,0,0,1-.294.133.9.9,0,0,0-.188.076c-.017.006-.042-.014-.063-.023,0-.009.011-.018.017-.028l-.017.028a.316.316,0,0,1-.191.057c-.225.018-.449.051-.674.068a.55.55,0,0,1-.174-.046.086.086,0,0,0,.018-.007s0-.008,0-.012l-.019.021a.566.566,0,0,1-.321.038.05.05,0,0,0,.017-.007s0-.009,0-.014l-.021.021c-.006,0-.013-.008-.018-.008-.056.007-.125.04-.164.018a.245.245,0,0,0-.174-.036c-.061.01-.107-.043-.18-.035-.056.006-.123-.064-.185-.1l-.119-.079c-.012-.033-.027-.033-.041,0-.035-.037-.118,0-.127-.085,0-.011-.069-.006-.093-.026-.063-.052-.12-.113-.178-.171a.069.069,0,0,0,.016-.007s0-.008,0-.012l-.018.021-.042,0a1.268,1.268,0,0,1-.2-.227c-.062-.118-.174-.185-.243-.291a.077.077,0,0,0,.018-.007s0-.008,0-.013l-.019.021c-.006,0-.014-.006-.017-.011-.056-.131-.111-.262-.166-.393-.069-.167-.114-.342-.184-.51a1.382,1.382,0,0,1-.049-.316c-.02-.121-.041-.243-.066-.363a1.02,1.02,0,0,1-.012-.146c-.005-.08.038-.182-.053-.246l.067-.052a.137.137,0,0,0,.006.018s.008,0,.013,0l-.022-.019a.22.22,0,0,1-.039-.241l.018-.028c-.005.01-.012.019-.017.029-.067-.058-.033-.136-.034-.2,0-.277,0-.554,0-.831a.271.271,0,0,1,.033-.084l.025.017-.028-.014c0-.066,0-.132.009-.2.025-.218.05-.436.082-.653.015-.1.047-.206.071-.308.034-.012.034-.027,0-.041.018-.235.032-.472.047-.71.005-.082.013-.163.018-.245,0-.036-.011-.088.007-.106.036-.035.1-.075.136-.068.067.012.1.005.118-.06,0-.008.049,0,.076,0,.022.046.057.04.088.008a.921.921,0,0,0,.07-.088l.03.016-.028-.018a2.459,2.459,0,0,0,.494-.3,2.188,2.188,0,0,1,.219-.131.372.372,0,0,0,.086-.069,1.414,1.414,0,0,1,.24-.158.274.274,0,0,0,.1-.075,5.046,5.046,0,0,1,.373-.39,3.983,3.983,0,0,0,.322-.416,1.918,1.918,0,0,1,.152-.22c.043-.043.036.022.045.046-.011.006-.028.011-.029.018a.151.151,0,0,0,.008.045.118.118,0,0,0,.018-.029.15.15,0,0,0,0-.036c.028-.053.055-.106.082-.159l.079-.078.03.016-.028-.018c.061-.064.054-.057.1,0s.127.092.178.149.077.135.124.2.125.093.139.152.162.021.108.13c.109,0,.109.163.234.153.034,0,.074.066.111.1,0,.009-.01.017-.016.026l.015-.027a.391.391,0,0,0,.375.215c.018,0,.042.043.063.066a.277.277,0,0,0-.02.07c0,.012.025.024.04.036.007-.023.015-.045.023-.068Zm-1.556,7.537.016-.025a.259.259,0,0,1-.015.027.069.069,0,0,0-.017.007s0,.008,0,.013Zm-1.277-.2.018-.026a.255.255,0,0,0-.015.028.056.056,0,0,0-.018.007s0,.008,0,.013Zm2.117,0c-.01.006-.027.012-.027.019a.115.115,0,0,0,.007.043.151.151,0,0,0,.016-.03.122.122,0,0,0,0-.035.051.051,0,0,0,.017-.006s0-.008.005-.012Zm-1.41-7.44-.011-.007v.012Zm2.832.479-.01-.006v.01Zm-4.715.885.007-.011h-.012Zm-.007.11.01.006v-.01Zm5.075.512-.008.01H3218Zm-5.234.246.009.007v-.01Zm.054.76-.009-.007,0,.011Zm-.136.2.012.008v-.013Zm-.072.728.008-.012h-.013Zm5.507.5-.007.011h.011Zm.2,0-.006.01.011,0Zm-.234,1.086-.008-.006C3218.073,396.756,3218.083,396.752,3218.083,396.752Zm-5.143.758-.013-.008v.013Zm.18,0,.012.008,0-.013Zm-.021.361-.012-.008,0,.013Zm4.459-.008-.006.009C3217.564,397.872,3217.56,397.861,3217.56,397.861Zm-.472.367-.01-.007,0,.012Zm-3.589.12-.011-.007v.012Zm3.1.157.008.006,0-.01Zm.279.04.009.006v-.01Zm-.194.089.006-.01h-.01Zm-2.441.031.011.008v-.012Zm.008.127.007-.009C3214.243,398.782,3214.247,398.792,3214.247,398.792Zm2.083-.006-.011-.007v.012Zm-2,.048.007-.012-.013,0Zm1.678-.018-.008.012h.013Zm-.479.04-.008.012h.014Zm.157.056.006-.009C3215.679,398.9,3215.683,398.912,3215.683,398.912Zm.167-.006-.009-.006v.01Z" transform="translate(-3212.511 -390.102)" fill="#ffa2a8"/>
            <path id="Path_284515" data-name="Path 284515" d="M3220.953,418.752c0-.018.006-.036.01-.054l.02.011c-.012.013-.022.027-.033.04Z" transform="translate(-3220.351 -416.669)" fill="#ffa2a8"/>
            <path id="Path_284516" data-name="Path 284516" d="M3264.517,398.726l.013.014a.25.25,0,0,1-.033.014s-.009-.009-.013-.013Z" transform="translate(-3260.797 -398.114)" fill="#ffa2a8"/>
            <path id="Path_284517" data-name="Path 284517" d="M3270.573,403.4c-.006.012-.01.023-.014.034,0,0-.013-.01-.013-.014a.284.284,0,0,1,.013-.033Z" transform="translate(-3266.429 -402.443)" fill="#ffa2a8"/>
            <path id="Path_284518" data-name="Path 284518" d="M3252.767,391.636l-.021-.018s.01,0,.013,0a.122.122,0,0,1,.005.016Z" transform="translate(-3249.892 -391.511)" fill="#ffa2a8"/>
            <path id="Path_284519" data-name="Path 284519" d="M3274.36,407.041l.04.041a.311.311,0,0,0-.037-.043Z" transform="translate(-3269.972 -405.836)" fill="#ffa2a8"/>
            <path id="Path_284520" data-name="Path 284520" d="M3291.793,424.228l.017-.022s0,.009,0,.012a.122.122,0,0,1-.016.008Z" transform="translate(-3286.166 -421.786)" fill="#ffa2a8"/>
            <path id="Path_284521" data-name="Path 284521" d="M3215.052,436.349c-.032-.013-.032-.026,0-.038a.181.181,0,0,0,0,.041Z" transform="translate(-3214.85 -433.033)" fill="#ffa2a8"/>
            <path id="Path_284522" data-name="Path 284522" d="M3295.724,461.583l.02.017s-.009,0-.01,0a.043.043,0,0,1-.007-.015Z" transform="translate(-3289.821 -456.509)" fill="#ffa2a8"/>
            <path id="Path_284523" data-name="Path 284523" d="M3286.73,497.569l.021.018s-.01,0-.011,0a.039.039,0,0,1-.007-.016Z" transform="translate(-3281.464 -489.941)" fill="#ffa2a8"/>
            <path id="Path_284524" data-name="Path 284524" d="M3226.347,508.246l-.017.021s0-.009,0-.011a.068.068,0,0,1,.015-.007Z" transform="translate(-3225.349 -499.864)" fill="#ffa2a8"/>
            <path id="Path_284525" data-name="Path 284525" d="M3232.822,512.187c-.013.038-.025.027-.038,0a.192.192,0,0,0,.04,0Z" transform="translate(-3231.346 -503.525)" fill="#ffa2a8"/>
            <path id="Path_284526" data-name="Path 284526" d="M3234.788,513.306l-.017.02a.027.027,0,0,1,.005-.01.047.047,0,0,1,.015-.007Z" transform="translate(-3233.192 -504.565)" fill="#ffa2a8"/>
          </g>
          <g id="Group_54170" data-name="Group 54170" transform="translate(12.326 13.052)">
            <path id="Path_284527" data-name="Path 284527" d="M3246.277,388.2c-.018-.057-.062-.122-.049-.171.018-.066,0-.13.014-.188a1.923,1.923,0,0,1,.078-.387,1.057,1.057,0,0,0,.035-.514.16.16,0,0,0-.017-.036c.1-.026.024-.108.053-.163a2.267,2.267,0,0,0,.086-.307,1.191,1.191,0,0,0,.037-.41,3.023,3.023,0,0,1,.068-.705,1.408,1.408,0,0,0-.012-.516.331.331,0,0,1,.028-.264.245.245,0,0,0,.028-.156,4.866,4.866,0,0,1,.029-.534c0-.15,0-.3-.008-.451,0-.006-.009-.015-.007-.018.126-.189-.021-.405.063-.6.029-.068-.018-.164-.013-.246.009-.144.02-.15.152-.18a.142.142,0,0,1,.055,0c.053.01.041.1.126.09.051,0,.023.083.031.13a2.324,2.324,0,0,1,.041.7c-.031.217,0,.432-.028.646,0,.018-.013.037-.01.054a2.872,2.872,0,0,1,0,.79.179.179,0,0,0,.015.057c-.034.012-.034.026,0,.041a2.118,2.118,0,0,0,0,.216c0,.057-.051.122.019.171a.446.446,0,0,0-.052.293c0,.1-.054.2-.022.3-.1.142-.043.308-.067.461s-.058.28-.091.419a1.357,1.357,0,0,0-.062.223c0,.064-.048.139.018.2-.059.1-.026.221-.067.324a1.112,1.112,0,0,0-.09.45c0,.1-.093.189-.076.3a.052.052,0,0,1-.085.043l-.025.065h-.08l-.121-.122Z" transform="translate(-3240.411 -376.27)" fill="#3e3636"/>
            <path id="Path_284528" data-name="Path 284528" d="M3317.613,296.742c.018.019.031.05.051.056.139.041.181.182.281.264.02.016.022.059.025.09a1.251,1.251,0,0,1-.307.907c-.011.015-.028.035-.044.036-.085.006-.141.072-.215.1-.044.015-.1,0-.147.009a.307.307,0,0,1-.3-.111.7.7,0,0,1-.164-.361,1.223,1.223,0,0,1,.206-.766c.025-.054.11-.08.167-.118s.11-.069.165-.1h.16c.027.049.053.051.079,0Z" transform="translate(-3305.965 -296.742)" fill="#3e3636"/>
            <path id="Path_284529" data-name="Path 284529" d="M3164.324,317.583l-.042,0v-.04l.042,0a.189.189,0,0,0,0,.04Z" transform="translate(-3164.283 -316.069)" fill="#3e3636"/>
            <path id="Path_284530" data-name="Path 284530" d="M3165.5,305.881c-.021.024-.041.068-.063.07a.81.81,0,0,1-.3,0,.464.464,0,0,1-.2-.178,1.243,1.243,0,0,1-.108-.246.065.065,0,0,0,.023-.009l-.027-.032a.386.386,0,0,0,.039-.125.941.941,0,0,1,.4-.717.405.405,0,0,1,.338-.06.836.836,0,0,1,.3.188l-.019.027.015-.031a.583.583,0,0,1,.117.332.408.408,0,0,1-.04.2,1.225,1.225,0,0,1-.183.371c.036.064-.034.06-.057.075-.074.053-.157.1-.236.142a.044.044,0,0,0-.007-.017s-.007,0-.012,0Z" transform="translate(-3164.783 -304.008)" fill="#3e3636"/>
            <path id="Path_284531" data-name="Path 284531" d="M3258.16,417.038l.029.012-.029.026a.155.155,0,0,0,0-.041Z" transform="translate(-3251.5 -408.5)" fill="#3e3636"/>
            <path id="Path_284532" data-name="Path 284532" d="M3246.707,464.827l-.016.033.02-.029Z" transform="translate(-3240.845 -452.901)" fill="#3e3636"/>
          </g>
        </g>
      </g>
    </g>
  </g>
</svg>
