<svg xmlns="http://www.w3.org/2000/svg" xmlns:xlink="http://www.w3.org/1999/xlink" width="380" height="360" viewBox="0 0 380 360">
  <defs>
    <clipPath id="clip-path">
      <rect id="Rectangle_9390" data-name="Rectangle 9390" width="180" height="120" rx="12" transform="translate(-34 -0.271)" fill="#ccd6f8"/>
    </clipPath>
    <clipPath id="clip-path-2">
      <path id="Path_15485" data-name="Path 15485" d="M11.993,712.264a12,12,0,1,0,12-12,12,12,0,0,0-12,12" transform="translate(-11.993 -700.264)" fill="none"/>
    </clipPath>
    <clipPath id="clip-path-5">
      <circle id="Ellipse_956" data-name="Ellipse 956" cx="12" cy="12" r="12" transform="translate(-0.271)" fill="none"/>
    </clipPath>
    <clipPath id="clip-path-6">
      <path id="Path_15485-4" data-name="Path 15485" d="M11.993,712.1a11.841,11.841,0,1,0,11.841-11.841A11.841,11.841,0,0,0,11.993,712.1" transform="translate(-11.993 -700.264)" fill="none"/>
    </clipPath>
  </defs>
  <g id="Group_90132" data-name="Group 90132" transform="translate(-300 -318)">
    <g id="Layer_2" data-name="Layer 2" transform="translate(-370 -27.7)">
      <g id="image" transform="translate(760 345.7)">
        <g id="Group_54013" data-name="Group 54013">
          <path id="Path_283826" data-name="Path 283826" d="M785.55,345.7h128.9A25.313,25.313,0,0,1,940,370.8V680.6a25.281,25.281,0,0,1-25.55,25.1H785.55A25.239,25.239,0,0,1,760,680.646V370.8A25.313,25.313,0,0,1,785.55,345.7Z" transform="translate(-760 -345.7)" fill="#dde5fa"/>
        </g>
        <g id="Group_54014" data-name="Group 54014" transform="translate(10 40)">
          <path id="Rectangle_9117" data-name="Rectangle 9117" d="M792.667,452.367h148a6.018,6.018,0,0,1,6,6v248a6.018,6.018,0,0,1-6,6h-148a6.018,6.018,0,0,1-6-6v-248A6.018,6.018,0,0,1,792.667,452.367Z" transform="translate(-786.667 -452.367)" fill="#fff"/>
        </g>
        <g id="Group_54020" data-name="Group 54020" transform="translate(75.022 315.043)">
          <g id="Group_54015" data-name="Group 54015">
            <path id="Path_283827" data-name="Path 283827" d="M975.059,1215.683a14.98,14.98,0,0,1-15-15h0a15,15,0,1,1,15,15Zm0-23a8.024,8.024,0,0,0-8,8h0a8,8,0,1,0,8-8Z" transform="translate(-960.059 -1185.683)" fill="#7fa2ea"/>
          </g>
        </g>
        <path id="Path_291622" data-name="Path 291622" d="M982.66,396.367h-32a4.012,4.012,0,0,1-4-4h0a4.012,4.012,0,0,1,4-4h32a4.012,4.012,0,0,1,4,4h0A4.012,4.012,0,0,1,982.66,396.367Z" transform="translate(-876.663 -372.367)" fill="#7fa2ea" opacity="0.4"/>
      </g>
    </g>
    <g id="Group_89811" data-name="Group 89811" transform="translate(31 -28)">
      <g id="Rectangle_11730" data-name="Rectangle 11730" transform="translate(269 363)" fill="#fff" stroke="#1d2c63" stroke-width="1">
        <rect width="180" height="248" rx="12" stroke="none"/>
        <rect x="0.5" y="0.5" width="179" height="247" rx="11.5" fill="none"/>
      </g>
      <g id="Group_54789" data-name="Group 54789" transform="translate(303 362.271)" clip-path="url(#clip-path)">
        <g id="Group_54788" data-name="Group 54788" transform="translate(-56 -1188.856)">
          <path id="Path_284540" data-name="Path 284540" d="M0,0H209.829V120H0Z" transform="translate(0 1188.585)" fill="#7fa2ea"/>
          <path id="Path_284541" data-name="Path 284541" d="M190.079,1242.211h0a5.637,5.637,0,0,1-5.636,5.637H50.064c-7.666,0-8.106-11.539-.45-11.924q.5-.026,1.012-.026a18.966,18.966,0,0,1,2.487.157,1.462,1.462,0,0,1-.008-.19,13.224,13.224,0,0,1,13.222-13.222,13.026,13.026,0,0,1,4.148.669c-.008-.223-.017-.446-.017-.669a13.227,13.227,0,0,1,17.784-12.412c-.008-.273-.017-.537-.017-.81a19.833,19.833,0,0,1,36.956-10.008,13.218,13.218,0,0,1,21.858,10.008,13.241,13.241,0,0,1,13.222,13.222c0,.223-.008.446-.017.669a13.026,13.026,0,0,1,4.148-.669,13.229,13.229,0,0,1,13.222,13.222,1.466,1.466,0,0,1-.008.19,18.965,18.965,0,0,1,2.487-.157,19.745,19.745,0,0,1,6.269,1.014A5.555,5.555,0,0,1,190.079,1242.211Z" transform="translate(-7.654 0)" fill="#587eb8"/>
          <path id="Path_284543" data-name="Path 284543" d="M93.175,1278.96a5.632,5.632,0,0,1-5.636,5.636H0v-54.823a19.828,19.828,0,0,1,28.279,6.388,13.224,13.224,0,0,1,21.858,10.008,13.2,13.2,0,0,1,11.4,6.545,11.752,11.752,0,0,1,.76,1.512,12.97,12.97,0,0,1,1.058,5.165c0,.223-.008.446-.017.669a13.026,13.026,0,0,1,4.148-.669,13.229,13.229,0,0,1,13.222,13.222,1.464,1.464,0,0,1-.008.19c.355-.05.719-.083,1.083-.107.463-.033.934-.05,1.4-.05a17.812,17.812,0,0,1,2,.107,19.266,19.266,0,0,1,4.272.909A5.552,5.552,0,0,1,93.175,1278.96Z" transform="translate(0 -6.38)" fill="#789fda"/>
          <g id="Group_54798" data-name="Group 54798">
            <path id="Path_284544" data-name="Path 284544" d="M10,1313.028a3.3,3.3,0,0,1-3.182,2.834,2.454,2.454,0,0,1-2.486-2.834,3.045,3.045,0,0,1,.353-1.088l.006-.014,2.573-5.487c.307-.659,1.274-.659,1.421,0L9.9,1311.9A2.653,2.653,0,0,1,10,1313.028Z" transform="translate(-0.748 -20.202)" fill="#fff"/>
            <path id="Path_284545" data-name="Path 284545" d="M66.593,1313.028a3.3,3.3,0,0,1-3.182,2.834,2.453,2.453,0,0,1-2.486-2.834,3.045,3.045,0,0,1,.353-1.088l0-.014,2.573-5.487c.308-.659,1.275-.659,1.421,0l1.218,5.458A2.653,2.653,0,0,1,66.593,1313.028Z" transform="translate(-10.574 -20.202)" fill="#fff"/>
            <path id="Path_284546" data-name="Path 284546" d="M23.834,1332.259H18.38a2.8,2.8,0,0,1,.149-.322l.008-.008,2.57-5.487c.306-.661,1.273-.661,1.421,0l1.215,5.454A1.8,1.8,0,0,1,23.834,1332.259Z" transform="translate(-3.191 -23.674)" fill="#fff"/>
            <path id="Path_284547" data-name="Path 284547" d="M42.021,1317.028a3.3,3.3,0,0,1-3.182,2.834,2.453,2.453,0,0,1-2.486-2.834,3.044,3.044,0,0,1,.353-1.088l0-.014,2.573-5.487c.307-.659,1.275-.659,1.421,0l1.218,5.458A2.68,2.68,0,0,1,42.021,1317.028Z" transform="translate(-6.308 -20.896)" fill="#fff"/>
            <path id="Path_284549" data-name="Path 284549" d="M97.368,1323.028a3.3,3.3,0,0,1-3.182,2.834,2.453,2.453,0,0,1-2.486-2.834,3.028,3.028,0,0,1,.353-1.088l0-.014,2.573-5.487c.307-.659,1.275-.659,1.421,0l1.218,5.458A2.68,2.68,0,0,1,97.368,1323.028Z" transform="translate(-15.917 -21.938)" fill="#fff"/>
            <path id="Path_284550" data-name="Path 284550" d="M79.4,1245.028a3.3,3.3,0,0,1-3.182,2.834,2.454,2.454,0,0,1-2.487-2.834,3.046,3.046,0,0,1,.354-1.088l0-.014,2.573-5.487c.307-.658,1.274-.658,1.421,0L79.3,1243.9A2.681,2.681,0,0,1,79.4,1245.028Z" transform="translate(-12.796 -8.396)" fill="#fff"/>
            <path id="Path_284551" data-name="Path 284551" d="M105.967,1245.028a3.3,3.3,0,0,1-3.182,2.834,2.454,2.454,0,0,1-2.486-2.834,3.046,3.046,0,0,1,.354-1.088l0-.014,2.573-5.487c.307-.658,1.274-.658,1.421,0l1.217,5.458A2.667,2.667,0,0,1,105.967,1245.028Z" transform="translate(-17.41 -8.396)" fill="#fff"/>
            <path id="Path_284552" data-name="Path 284552" d="M63.172,1265.028a3.3,3.3,0,0,1-3.182,2.834,2.453,2.453,0,0,1-2.486-2.834,3.028,3.028,0,0,1,.353-1.088l0-.014,2.573-5.487c.307-.659,1.275-.659,1.421,0l1.218,5.458A2.68,2.68,0,0,1,63.172,1265.028Z" transform="translate(-9.98 -11.868)" fill="#fff"/>
            <path id="Path_284553" data-name="Path 284553" d="M47.914,1285.028a3.3,3.3,0,0,1-3.182,2.834,2.454,2.454,0,0,1-2.486-2.834,3.045,3.045,0,0,1,.354-1.088l0-.014,2.573-5.487c.307-.659,1.274-.659,1.421,0l1.217,5.458A2.667,2.667,0,0,1,47.914,1285.028Z" transform="translate(-7.331 -15.34)" fill="#fff"/>
            <path id="Path_284554" data-name="Path 284554" d="M74.484,1285.028a3.3,3.3,0,0,1-3.182,2.834,2.454,2.454,0,0,1-2.486-2.834,3.044,3.044,0,0,1,.353-1.088l.006-.014,2.573-5.487c.307-.659,1.274-.659,1.42,0l1.218,5.458A2.654,2.654,0,0,1,74.484,1285.028Z" transform="translate(-11.944 -15.34)" fill="#fff"/>
            <path id="Path_284555" data-name="Path 284555" d="M213.393,1279.123a3.3,3.3,0,0,1-3.182,2.834,2.454,2.454,0,0,1-2.486-2.834,3.043,3.043,0,0,1,.354-1.088l0-.015,2.573-5.486c.307-.66,1.274-.66,1.421,0l1.217,5.458A2.666,2.666,0,0,1,213.393,1279.123Z" transform="translate(-36.06 -14.315)" fill="#fff"/>
            <path id="Path_284556" data-name="Path 284556" d="M223.74,1299.123a3.3,3.3,0,0,1-3.182,2.834,2.454,2.454,0,0,1-2.486-2.834,3.044,3.044,0,0,1,.354-1.088l0-.015,2.573-5.486c.307-.659,1.274-.659,1.421,0l1.217,5.458A2.666,2.666,0,0,1,223.74,1299.123Z" transform="translate(-37.856 -17.787)" fill="#fff"/>
            <path id="Path_284557" data-name="Path 284557" d="M202.3,1323.028a3.3,3.3,0,0,1-3.182,2.834,2.454,2.454,0,0,1-2.486-2.834,3.046,3.046,0,0,1,.354-1.088l0-.014,2.573-5.487c.307-.659,1.274-.659,1.421,0l1.217,5.458A2.666,2.666,0,0,1,202.3,1323.028Z" transform="translate(-34.134 -21.938)" fill="#fff"/>
            <path id="Path_284558" data-name="Path 284558" d="M228.871,1323.028a3.3,3.3,0,0,1-3.182,2.834,2.453,2.453,0,0,1-2.486-2.834,3.045,3.045,0,0,1,.353-1.088l.006-.014,2.573-5.487c.307-.659,1.274-.659,1.42,0l1.218,5.458A2.653,2.653,0,0,1,228.871,1323.028Z" transform="translate(-38.747 -21.938)" fill="#fff"/>
            <path id="Path_284561" data-name="Path 284561" d="M18.108,1265.028a3.3,3.3,0,0,1-3.182,2.834,2.454,2.454,0,0,1-2.486-2.834,3.044,3.044,0,0,1,.353-1.088l.006-.014,2.573-5.487c.307-.659,1.274-.659,1.42,0l1.218,5.458A2.653,2.653,0,0,1,18.108,1265.028Z" transform="translate(-2.156 -11.868)" fill="#fff"/>
            <path id="Path_284562" data-name="Path 284562" d="M2.545,1285.028A3.3,3.3,0,0,1,0,1287.788v-9.6a.722.722,0,0,1,1.231.256l1.215,5.454A2.707,2.707,0,0,1,2.545,1285.028Z" transform="translate(0 -15.341)" fill="#fff"/>
            <path id="Path_284563" data-name="Path 284563" d="M28.455,1285.028a3.3,3.3,0,0,1-3.182,2.834,2.453,2.453,0,0,1-2.486-2.834,3.044,3.044,0,0,1,.353-1.088l.006-.014,2.573-5.487c.307-.659,1.274-.659,1.42,0l1.218,5.458A2.654,2.654,0,0,1,28.455,1285.028Z" transform="translate(-3.953 -15.34)" fill="#fff"/>
            <path id="Path_284572" data-name="Path 284572" d="M124.426,1225.028a3.3,3.3,0,0,1-3.182,2.834,2.454,2.454,0,0,1-2.486-2.834,3.061,3.061,0,0,1,.353-1.088l.006-.014,2.573-5.487c.307-.659,1.274-.659,1.421,0l1.217,5.458A2.666,2.666,0,0,1,124.426,1225.028Z" transform="translate(-20.614 -4.924)" fill="#fff"/>
            <path id="Path_284573" data-name="Path 284573" d="M134.772,1245.028a3.3,3.3,0,0,1-3.182,2.834,2.454,2.454,0,0,1-2.486-2.834,3.045,3.045,0,0,1,.353-1.088l.006-.014,2.573-5.487c.307-.658,1.274-.658,1.421,0l1.217,5.458A2.654,2.654,0,0,1,134.772,1245.028Z" transform="translate(-22.411 -8.396)" fill="#fff"/>
            <path id="Path_284574" data-name="Path 284574" d="M122.707,1277.028a3.3,3.3,0,0,1-3.182,2.834,2.453,2.453,0,0,1-2.486-2.834,3.044,3.044,0,0,1,.353-1.088l0-.014,2.573-5.487c.307-.659,1.275-.659,1.421,0l1.218,5.458A2.653,2.653,0,0,1,122.707,1277.028Z" transform="translate(-20.316 -13.952)" fill="#fff"/>
            <path id="Path_284575" data-name="Path 284575" d="M149.278,1277.028a3.3,3.3,0,0,1-3.182,2.834,2.453,2.453,0,0,1-2.486-2.834,3.028,3.028,0,0,1,.353-1.088l0-.014,2.573-5.487c.307-.659,1.275-.659,1.421,0l1.218,5.458A2.679,2.679,0,0,1,149.278,1277.028Z" transform="translate(-24.929 -13.952)" fill="#fff"/>
            <path id="Path_284576" data-name="Path 284576" d="M171.277,1259.388a3.3,3.3,0,0,1-3.182,2.834,2.454,2.454,0,0,1-2.486-2.834,3.046,3.046,0,0,1,.354-1.088l0-.014,2.573-5.487c.307-.659,1.274-.659,1.421,0l1.217,5.458A2.665,2.665,0,0,1,171.277,1259.388Z" transform="translate(-28.748 -10.889)" fill="#fff"/>
            <path id="Path_284577" data-name="Path 284577" d="M197.847,1259.388a3.3,3.3,0,0,1-3.182,2.834,2.454,2.454,0,0,1-2.486-2.834,3.045,3.045,0,0,1,.353-1.088l.006-.014,2.573-5.487c.307-.659,1.274-.659,1.42,0l1.218,5.458A2.653,2.653,0,0,1,197.847,1259.388Z" transform="translate(-33.361 -10.889)" fill="#fff"/>
            <path id="Path_284578" data-name="Path 284578" d="M133.054,1297.028a3.3,3.3,0,0,1-3.182,2.834,2.453,2.453,0,0,1-2.486-2.834,3.044,3.044,0,0,1,.353-1.088l0-.014,2.573-5.487c.307-.659,1.275-.659,1.421,0l1.218,5.458A2.667,2.667,0,0,1,133.054,1297.028Z" transform="translate(-22.112 -17.424)" fill="#fff"/>
            <path id="Path_284579" data-name="Path 284579" d="M159.625,1297.028a3.3,3.3,0,0,1-3.182,2.834,2.454,2.454,0,0,1-2.487-2.834,3.045,3.045,0,0,1,.354-1.088l0-.014,2.573-5.487c.307-.659,1.274-.659,1.421,0l1.218,5.458A2.68,2.68,0,0,1,159.625,1297.028Z" transform="translate(-26.725 -17.424)" fill="#fff"/>
            <path id="Path_284580" data-name="Path 284580" d="M181.624,1279.388a3.3,3.3,0,0,1-3.182,2.834,2.454,2.454,0,0,1-2.486-2.834,3.045,3.045,0,0,1,.354-1.088l0-.014,2.573-5.487c.307-.659,1.274-.659,1.421,0l1.217,5.458A2.667,2.667,0,0,1,181.624,1279.388Z" transform="translate(-30.544 -14.361)" fill="#fff"/>
            <path id="Path_284581" data-name="Path 284581" d="M117.8,1317.028a3.3,3.3,0,0,1-3.182,2.834,2.454,2.454,0,0,1-2.486-2.834,3.045,3.045,0,0,1,.354-1.088l0-.014,2.573-5.487c.307-.659,1.274-.659,1.421,0l1.217,5.458A2.666,2.666,0,0,1,117.8,1317.028Z" transform="translate(-19.463 -20.896)" fill="#fff"/>
            <path id="Path_284582" data-name="Path 284582" d="M144.366,1317.028a3.3,3.3,0,0,1-3.182,2.834,2.454,2.454,0,0,1-2.486-2.834,3.044,3.044,0,0,1,.353-1.088l.006-.014,2.573-5.487c.307-.659,1.274-.659,1.421,0l1.217,5.458A2.654,2.654,0,0,1,144.366,1317.028Z" transform="translate(-24.076 -20.896)" fill="#fff"/>
            <path id="Path_284583" data-name="Path 284583" d="M170.937,1317.028a3.3,3.3,0,0,1-3.182,2.834,2.453,2.453,0,0,1-2.486-2.834,3.044,3.044,0,0,1,.353-1.088l.006-.014,2.572-5.487c.308-.659,1.275-.659,1.421,0l1.218,5.458A2.654,2.654,0,0,1,170.937,1317.028Z" transform="translate(-28.689 -20.896)" fill="#fff"/>
            <path id="Path_284584" data-name="Path 284584" d="M192.936,1299.388a3.3,3.3,0,0,1-3.182,2.834,2.453,2.453,0,0,1-2.486-2.834,3.042,3.042,0,0,1,.353-1.088l0-.014,2.573-5.487c.307-.659,1.275-.659,1.421,0l1.218,5.458A2.666,2.666,0,0,1,192.936,1299.388Z" transform="translate(-32.508 -17.833)" fill="#fff"/>
          </g>
        </g>
      </g>
      <text id="Living_with_depression" data-name="Living with depression" transform="translate(298 504)" fill="#1d2c63" font-size="12" font-family="Lato-Bold, Lato" font-weight="700" letter-spacing="0.016em"><tspan x="0" y="0">Living with depression</tspan></text>
      <g id="Group_54150" data-name="Group 54150" transform="translate(293 517)">
        <g id="Group_7318" data-name="Group 7318" transform="translate(0 0)" clip-path="url(#clip-path-2)">
          <path id="Path_15465" data-name="Path 15465" d="M35.992,712.263a12,12,0,1,1-12-12,12,12,0,0,1,12,12" transform="translate(-11.992 -700.263)" fill="#ffe0ba"/>
          <g id="Group_54317" data-name="Group 54317" transform="matrix(0.966, 0.259, -0.259, 0.966, 6.507, 1.128)">
            <path id="Path_284832" data-name="Path 284832" d="M7.885,9.191q-.266-.5-.548-.992-.121-.21-.245-.417c.023-.011-.558-.9-.663-1.065A30.135,30.135,0,0,0,.395,0l0,0L.4.011a.8.8,0,0,1-.33.263L.063.269,0,.3a29.846,29.846,0,0,1,4.118,4.1l.281.091a.1.1,0,0,1,.038.158.914.914,0,0,1,.5.792q.534.71,1.025,1.451.637.963,1.183,1.959.279.508.535,1.023a29.787,29.787,0,0,1,2.23,6.1q.2.81.362,1.633a.9.9,0,0,1,.582-.137q-.226-1.13-.542-2.243-.249-.878-.552-1.739A31.323,31.323,0,0,0,7.885,9.191Z" transform="translate(15.394 11.227)" fill="#436b5d"/>
            <path id="Path_284833" data-name="Path 284833" d="M.64,5.661a5.016,5.016,0,0,0,.7.84A9.64,9.64,0,0,0,3.717,8.084a30.032,30.032,0,0,0,2.77,1.225q.245.095.491.186l.057.021q.269.1.54.2.469.166.941.323a36.355,36.355,0,0,0,5.358,1.551,3.087,3.087,0,0,0,1.52-.062l.063-.027c-1.331-.878-2.576-1.924-3.91-2.8-.481-.315-.967-.622-1.457-.923a26.131,26.131,0,0,0-2.67.879,8.856,8.856,0,0,0-1.064.6c-.239-.094-.476-.192-.713-.291a8.068,8.068,0,0,1,3.872-1.54q-1.327-.8-2.692-1.531-.68-.363-1.37-.708c-1.119.384-2.305.536-3.41,1.02-.226.1-.443.211-.656.327q-.183-.175-.35-.367c.277-.134.553-.259.822-.372a9.636,9.636,0,0,1,3.1-.85C3.839,4.394,2.705,3.877,1.556,3.4,1.077,3.2.591,3.016.1,2.838a3.359,3.359,0,0,1,.148-.456c.489.2.975.4,1.455.6Q3.53,3.749,5.3,4.63A11.729,11.729,0,0,1,4.281,2.641c-.346-.724-.687-1.451-1-2.191L3.137.106a4.861,4.861,0,0,1,.5-.075c.07.18.134.362.211.541C4.417,1.882,5.42,3.29,5.661,4.7a.114.114,0,0,1-.03.1q.55.277,1.094.563c.9.477,1.788.985,2.665,1.506A12.686,12.686,0,0,1,7.885,3.821a9.669,9.669,0,0,1-.7-3.049q.252.119.5.252A13.039,13.039,0,0,0,8.37,3.777c.466,1.209,1.345,2.3,1.741,3.517.077.047.156.091.233.139h.009a.117.117,0,0,1,.083.055q.683.424,1.355.865a31.93,31.93,0,0,1,3.994,2.878l0,0a1,1,0,0,0,0-.947A19.722,19.722,0,0,0,10.443,3,14.665,14.665,0,0,0,7.686,1.022Q7.354.842,7.01.687A8.565,8.565,0,0,0,5.836.253Q5.6.185,5.359.134A5.259,5.259,0,0,0,2.589.243a4.261,4.261,0,0,0-.6.249A3.486,3.486,0,0,0,.64,5.661Z" transform="translate(0 0)" fill="#436b5d"/>
            <path id="Path_284834" data-name="Path 284834" d="M0,1.382c.069.04.137.082.206.121a18.45,18.45,0,0,1,3.272,1.88l.38-.121c1.151-.358,2.35-.691,3.57-.974A11.841,11.841,0,0,1,4.793.441C4.623.3,4.448.151,4.272,0A13.966,13.966,0,0,0,2.05.483q-.23.071-.456.153A8.847,8.847,0,0,0,0,1.382Z" transform="translate(5.583 14.659)" fill="#436b5d"/>
            <path id="Path_284835" data-name="Path 284835" d="M7.812.059C7.7.067,7.592.077,7.48.088c.141.129.283.255.432.375.821.664,1.836,1.164,2.623,1.865a27.175,27.175,0,0,1,6.488-.7.178.178,0,0,1,.013.352c-1.8.192-3.6.266-5.388.583-.248.044-.495.1-.742.145C10.235,3.857,9.5,4.967,8.848,6.133c-.344.619-.654,1.263-.969,1.9q-.423.169-.852.324C7.466,7.424,8,6.515,8.509,5.648c.432-.744.885-1.477,1.365-2.191.138-.206.266-.429.415-.63A38.619,38.619,0,0,0,6.436,3.862c-.759,1.2-1.721,2.268-2.452,3.5C3.666,7.892,3.359,8.436,3.089,9c-.038-.006-.075-.007-.113-.014a4.154,4.154,0,0,1-.44-.1c.24-.474.51-.926.747-1.335A15.966,15.966,0,0,1,5.792,4.08,40.616,40.616,0,0,0,1.26,5.947c-.377.183-.746.379-1.112.58A3.476,3.476,0,0,1,.03,5.962,38.79,38.79,0,0,1,5.616,3.684,17.313,17.313,0,0,1,2.3,1.983c-.068-.038-.146-.077-.22-.116A5.191,5.191,0,0,0,.4,3.839,3.521,3.521,0,0,0,2.972,8.989a5.674,5.674,0,0,0,2.067-.042c.157-.029.313-.064.468-.1.456-.111.9-.256,1.343-.41a34.683,34.683,0,0,0,4.724-2.125,36.347,36.347,0,0,0,4.821-2.805,1.973,1.973,0,0,0,.921-1.339.914.914,0,0,0-.5-.792.1.1,0,0,0-.038-.158l-.282-.091A23.42,23.42,0,0,0,7.812.059Z" transform="translate(3.018 14.495)" fill="#436b5d"/>
            <path id="Path_284836" data-name="Path 284836" d="M11.688,8.322q-.671-.442-1.356-.865A.117.117,0,0,0,10.25,7.4H10.24c-.077-.048-.156-.091-.233-.139-.4-1.214-1.275-2.307-1.741-3.517A13.042,13.042,0,0,1,7.58.993Q7.334.86,7.082.741a9.67,9.67,0,0,0,.7,3.049A12.684,12.684,0,0,0,9.287,6.833C8.41,6.312,7.524,5.8,6.622,5.327q-.544-.288-1.094-.563a.114.114,0,0,0,.03-.1C5.316,3.259,4.314,1.852,3.746.541,3.669.362,3.605.18,3.535,0a4.866,4.866,0,0,0-.5.075l.144.344c.313.74.654,1.467,1,2.191A11.734,11.734,0,0,0,5.2,4.6Q3.426,3.721,1.6,2.955c-.48-.2-.965-.4-1.455-.6A3.365,3.365,0,0,0,0,2.807c.488.177.973.36,1.452.559,1.15.479,2.283,1,3.4,1.545a9.635,9.635,0,0,0-3.1.85c-.268.113-.545.238-.822.372q.166.192.349.367c.213-.116.43-.228.656-.327,1.1-.483,2.29-.636,3.41-1.02q.689.346,1.37.708,1.366.73,2.692,1.531a8.068,8.068,0,0,0-3.872,1.54c.237.1.474.2.713.291a8.853,8.853,0,0,1,1.064-.6,26.129,26.129,0,0,1,2.67-.879c.489.3.976.608,1.457.923,1.334.875,2.579,1.921,3.91,2.8l.009.006a.8.8,0,0,0,.33-.263l-.009-.008A31.93,31.93,0,0,0,11.688,8.322Z" transform="translate(0.104 0.031)" fill="#335649"/>
            <path id="Path_284837" data-name="Path 284837" d="M9.964,2.368c-1.219.284-2.419.617-3.57.974l-.38.121a18.456,18.456,0,0,0-3.272-1.88c-.07-.039-.137-.081-.206-.121l0,0c-.166.1-.327.209-.482.322h0c.074.039.152.078.22.116A17.318,17.318,0,0,0,5.587,3.6,38.78,38.78,0,0,0,0,5.879a3.485,3.485,0,0,0,.118.565c.366-.2.735-.4,1.112-.58A40.594,40.594,0,0,1,5.762,4a15.962,15.962,0,0,0-2.51,3.461c-.237.409-.506.861-.747,1.335a4.153,4.153,0,0,0,.44.1c.038.007.075.008.113.014.271-.56.577-1.1.895-1.637.732-1.228,1.693-2.3,2.452-3.5A38.615,38.615,0,0,1,10.26,2.743c-.149.2-.277.425-.415.63-.481.714-.933,1.447-1.365,2.191C7.975,6.432,7.436,7.341,7,8.279q.429-.155.852-.324c.315-.641.625-1.285.969-1.9.648-1.167,1.387-2.277,2.058-3.429.247-.049.494-.1.742-.145,1.792-.317,3.584-.39,5.388-.583a.178.178,0,0,0-.013-.352,27.173,27.173,0,0,0-6.488.7c-.787-.7-1.8-1.2-2.623-1.865C7.734.261,7.591.134,7.45.005L7.444,0C7.233.021,7.018.045,6.8.075l.007.006c.176.151.352.3.521.441A11.838,11.838,0,0,0,9.964,2.368Z" transform="translate(3.048 14.578)" fill="#335649"/>
          </g>
        </g>
      </g>
      <g id="Group_7319" data-name="Group 7319" transform="translate(337 517)">
        <g id="Group_7318-2" data-name="Group 7318" transform="translate(0 0)" clip-path="url(#clip-path-2)">
          <path id="Path_15465-2" data-name="Path 15465" d="M35.992,712.263a12,12,0,1,1-12-12,12,12,0,0,1,12,12" transform="translate(-11.992 -700.263)" fill="#ffe0ba"/>
          <g id="Group_54314" data-name="Group 54314" transform="matrix(0.966, -0.259, 0.259, 0.966, -1.422, 8.069)">
            <g id="Group_54312" data-name="Group 54312" transform="translate(0 0)">
              <path id="Path_284686" data-name="Path 284686" d="M6.544,12.8a1.086,1.086,0,0,0,1.487.007,1.375,1.375,0,0,0,.311-1.168c.077-.3.164-.606.23-.912a12.065,12.065,0,0,0,.217-1.2,4.119,4.119,0,0,0-.048-.74l-.05-.225a2.013,2.013,0,0,0-.439-.906A6.876,6.876,0,0,0,6.635,5.9a2,2,0,0,0-1.054-.379.862.862,0,0,0-.854.4,4.912,4.912,0,0,0-.344.631A3.11,3.11,0,0,0,4.11,8.8l.251.68.151.3a8.478,8.478,0,0,0,.483.771A9.7,9.7,0,0,1,6.33,12.515,1.081,1.081,0,0,0,6.544,12.8Zm-2.075-.878A3.954,3.954,0,0,0,3.4,10.935a2.912,2.912,0,0,0-1.279-.623,3.307,3.307,0,0,0-.626-.065,1.428,1.428,0,0,0-1.338.987,2.973,2.973,0,0,0-.125,1.393c.006.064.01.129.016.193a5.966,5.966,0,0,0,.509,1.69,4.916,4.916,0,0,0,.463.882A3.517,3.517,0,0,0,2.353,16.5a5.822,5.822,0,0,1,1.491,1.093,1.6,1.6,0,0,0,.4.294,1.123,1.123,0,0,0,1.339-.257,2.023,2.023,0,0,0,.489-1.183c.015-.118.033-.235.044-.354a4.6,4.6,0,0,0-.863-3.132C5.006,12.6,4.74,12.261,4.469,11.925ZM18.32.148A1.445,1.445,0,0,0,16.5.635a6.13,6.13,0,0,0-.989,1.654l-.345.658a5.493,5.493,0,0,0-.73,1.667,2.284,2.284,0,0,0-.1,1.091,1.712,1.712,0,0,0,.273.928c.048.083.168.125.255.185a.93.93,0,0,0,.621.066,5.688,5.688,0,0,0,1.5-.479,3.355,3.355,0,0,0,.558-.307,5.164,5.164,0,0,0,1.643-2.121,3.715,3.715,0,0,0,.469-1.64,3.4,3.4,0,0,0,.024-.521A2,2,0,0,0,18.32.148ZM12.044,14.113a3.116,3.116,0,0,0-2.144.545A4.465,4.465,0,0,0,8.546,16.31a1.331,1.331,0,0,0-.126.364c-.044.236.063.346.3.335.035,0,.07-.006.108-.009.035.041.066.075.093.111a4.7,4.7,0,0,0,1.793,1.528,2.058,2.058,0,0,0,1.452.207,2.383,2.383,0,0,0,1.239-.8l.521-.574.192-.234.116-.136.11-.157c.139-.215.286-.425.416-.645a1.038,1.038,0,0,0-.4-1.475A4.507,4.507,0,0,0,12.044,14.113Zm-.259-5.592A2.916,2.916,0,0,1,12.262,7.5a.554.554,0,0,0,.052-.124l.347-.547A4.819,4.819,0,0,0,13.2,5.213a6.293,6.293,0,0,0,.042-.767,1.8,1.8,0,0,0,0-.245,3.493,3.493,0,0,0-1-2.022,2.3,2.3,0,0,0-1.484-.732,1.1,1.1,0,0,0-.463.041,2.337,2.337,0,0,0-1.435,2.9,2.951,2.951,0,0,0,.612,1.317,4.126,4.126,0,0,1,.654,1.659,5.265,5.265,0,0,0,.257.959.974.974,0,0,0,.6.614A.619.619,0,0,0,11.785,8.521Zm4.735.7a1.9,1.9,0,0,0-.469-.262,2.06,2.06,0,0,0-1.209.085,3.51,3.51,0,0,0-2.348,1.225,3.244,3.244,0,0,0-.77,1.373c.106.2.238.154.359.127a2.165,2.165,0,0,0,.743.666l.284.164a6.206,6.206,0,0,0,1.845.464,1.6,1.6,0,0,0,.493-.05,2.882,2.882,0,0,0,1.675-1.2,1.194,1.194,0,0,0,.275-.8l-.017-.177c0-.039-.01-.078-.015-.117l-.156-.419-.046-.1-.09-.145A2.39,2.39,0,0,0,16.52,9.22Z" transform="translate(0 0)" fill="#cacb4f"/>
              <g id="Group_54311" data-name="Group 54311" transform="translate(0)">
                <path id="Path_284687" data-name="Path 284687" d="M6.034,6.132a2.025,2.025,0,0,1-.488,1.183,1.123,1.123,0,0,1-1.339.257,1.6,1.6,0,0,1-.4-.294A5.824,5.824,0,0,0,2.317,6.186,3.516,3.516,0,0,1,.987,5.08,4.92,4.92,0,0,1,.525,4.2a5.965,5.965,0,0,1-.509-1.69C.01,2.444.005,2.379,0,2.315c.122-.036.227-.178.381-.068l-.038.306C.616,2.518.593,2.1.9,2.2a1.386,1.386,0,0,0,.14-.226.678.678,0,0,1,.558-.409c.225-.042.434-.053.573-.267.022-.033.1-.021.148-.048a.774.774,0,0,0,.213-.168A.483.483,0,0,0,2.572.886C2.255.743,2.258.742,2.2.41,2.183.339,2.136.275,2.117.2A1.506,1.506,0,0,1,2.088,0,2.911,2.911,0,0,1,3.367.623a.787.787,0,0,0-.009.746L3.2,1.453c-.068.177.039.3.1.437-.088.051-.213.068-.192.232l.139.041.071.275L3.1,2.728l-.066-.367a.183.183,0,0,0-.107.11c-.052.153.1.22.143.336-.067.1-.067.1.05.159l-.05-.159.192-.023.1.621-.192.484L3.4,3.881l.337.375.524-.215L4.3,4.09c-.2.114-.171.285-.128.446.081.082.182.169.187.262a.22.22,0,0,1-.253.246c.011.135.075.229.041.359a1.364,1.364,0,0,0,.042.4.433.433,0,0,0,.191.363l.271-.131.133-.253.339.069c.219-.092.3-.43.6-.355L5.6,5.929C5.75,6.008,5.955,5.934,6.034,6.132Z" transform="translate(0.036 10.312)" fill="#b5b647"/>
                <path id="Path_284688" data-name="Path 284688" d="M.117,2.951A2.337,2.337,0,0,1,1.553.048,1.1,1.1,0,0,1,2.015.007,2.3,2.3,0,0,1,3.5.739a3.494,3.494,0,0,1,1,2.023,1.783,1.783,0,0,1,0,.245c-.152.059-.306.112-.455.177a3.153,3.153,0,0,1-.388.182.246.246,0,0,0-.2.3l.38.049-.167.532-.326-.171c.025-.312-.09-.447-.436-.537l-.107.2-.276.1c.067.326.056.422-.078.564A.362.362,0,0,0,2.062,4a.451.451,0,0,0-.535.276,1.7,1.7,0,0,0-.244-.069,2.479,2.479,0,0,0-.286,0L.726,3.968.55,3.6l.2-.2c-.2-.066-.372-.13-.334-.342ZM1.75,2.6c.037.1.044.2.1.243.111.089.2-.007.282-.073C2.09,2.542,1.944,2.57,1.75,2.6Zm.835.735c.245.084.245.084.26-.125Z" transform="translate(8.742 1.44)" fill="#c3c44c"/>
                <path id="Path_284689" data-name="Path 284689" d="M5,3.391a2.384,2.384,0,0,1-1.239.8A2.058,2.058,0,0,1,2.3,3.982,4.7,4.7,0,0,1,.511,2.453c-.027-.036-.059-.07-.093-.111-.037,0-.072.007-.108.009-.238.012-.345-.1-.3-.335a1.339,1.339,0,0,1,.126-.364A4.465,4.465,0,0,1,1.49,0l.183.2L1.914.113l.212.282-.079.26.3-.029c.1.172.207.345.312.516a3.067,3.067,0,0,0,.31.483.822.822,0,0,0,.627.3l.346-.432c.075.256.379.243.38.5a1.193,1.193,0,0,1,.428.669c.061.162.117.326.176.489l-.342.268.024.048a1.46,1.46,0,0,1,.212-.076A.751.751,0,0,1,5,3.391Zm-2.411.187a4.293,4.293,0,0,0,.374-.225c.107-.08.249-.136.3-.311-.382.137-.694.412-1.1.351l-.282.219ZM.865.841,1.573.5c0-.066-.008-.132-.016-.255C1.34.5,1,.5.865.841Zm.766-.09.04.074L1.873.7,1.84.65Z" transform="translate(8.41 14.657)" fill="#c1c24c"/>
                <path id="Path_284690" data-name="Path 284690" d="M.251,1.822,0,1.142.122,1.1l.039.08a2.108,2.108,0,0,1,.4.028A.3.3,0,0,0,.91,1.092C.844.86,1.025.761,1.168.639c0,.176.109.083.2.088,0-.061-.006-.1-.009-.168l-.188.08L1.013.576,1.244.3,1.7.293l-.04.138.234.043-.064.06.184.191L1.84.776,1.718.589l-.66.76a.736.736,0,0,0,.532-.305c.085-.1.173-.187.321-.147l.139.229C2.133.994,2.191.9,2.256.8s.12-.15.181-.224l.187-.2L2.59.259,2.841.138,2.748.373,3.105.29l.34-.276c.4.218.475.214.7-.014A2.013,2.013,0,0,1,4.58.906L4.3.978,4.032.6c-.374-.088-.4-.087-.617.031l.062.313L3.5.992c-.3.242-.673.173-1.031.237l.039.121.847.006c-.361.227-.849.21-.955.641l.28.38-.077.5L2.9,2.8c0-.111.006-.2.008-.289l.063-.007.234.484.59-.324.055.1-.491.4a.464.464,0,0,0,.33.535.233.233,0,0,1,.118.106.33.33,0,0,0,.419.169A1.375,1.375,0,0,1,3.92,5.15a1.079,1.079,0,0,1-1.7-.294A9.7,9.7,0,0,0,.885,2.893,8.482,8.482,0,0,1,.4,2.122l.165-.4L.519,1.692ZM2.342,1.37c0-.019,0-.039,0-.058a.7.7,0,0,0-.868.549,1.686,1.686,0,0,0,.639-.469Z" transform="translate(4.11 7.659)" fill="#c7c84e"/>
                <path id="Path_284691" data-name="Path 284691" d="M5.32.522a3.717,3.717,0,0,1-.469,1.64l-.365-.2c-.075.082-.166.135-.166.189,0,.3-.12.437-.43.424-.1,0-.2.093-.307.112-.177.032-.359.037-.564.057l-.2-.093-.114.172L2.5,2.844l-.17-.153-.118.418a4.61,4.61,0,0,0-.442.159,2.916,2.916,0,0,0-.312.19l-.424.428c-.087.259-.334.5-.32.858l.252-.06.012.021L.53,5C.442,4.943.322,4.9.274,4.819A1.71,1.71,0,0,1,0,3.891l.116-.064c-.04-.267-.04-.267.13-.479.238-.074.513-.073.65-.322.5-.073.5-.073.525-.458l-.306-.539-.491.087.139-.308.4-.159L.829,1.132,1.175.475l.3-.232c.145.062.168.339.429.259L1.883.265,2.1.278c.038-.1-.061-.267.135-.278.245.343.242.384.612.125.324.18.345.253.152.634L3.168,1c.158-.076.282-.133.4-.2.081-.042.186-.075.23-.144C3.963.411,4.246.4,4.5.229c.067.371-.274.3-.4.443L4,1.034l.066.057c.132-.415.5-.228.766-.359L4.851.474c.063.005.145-.012.17.018C5.118.606,5.215.572,5.32.522ZM2.272.379c.053.181.149.22.333.126ZM.863,1.892l.008.016.05-.024L.913,1.867Z" transform="translate(14.332 1.814)" fill="#b6b747"/>
                <path id="Path_284692" data-name="Path 284692" d="M.11.746A.786.786,0,0,1,.119,0,3.954,3.954,0,0,1,1.185.989c.271.336.536.68.783,1.034a4.6,4.6,0,0,1,.863,3.132c-.011.118-.029.236-.044.354-.08-.2-.284-.124-.435-.2l.126-.434c-.3-.074-.38.263-.6.355L1.54,5.157l-.133.253-.271.131a.433.433,0,0,1-.191-.363A1.368,1.368,0,0,1,.9,4.78c.035-.131-.03-.225-.041-.359a.22.22,0,0,0,.253-.246c-.005-.093-.106-.18-.187-.262-.044-.16-.075-.332.128-.446l-.041-.049-.524.215L.152,3.258l.226-.211L.665,3c.019-.281-.014-.267-.13-.546a.821.821,0,0,0-.244-.376.627.627,0,0,1-.221-.259L0,1.54c.122-.071.077-.174.053-.273a.23.23,0,0,0,.1-.309A1.425,1.425,0,0,1,.11.746Zm.227,1.22L.693,1.6.657,1.555l-.372.02Z" transform="translate(3.284 10.935)" fill="#c6c74e"/>
                <path id="Path_284693" data-name="Path 284693" d="M2.7,2.4l.034.118-.186.2-.059-.218-.238.115-.039-.341c-.065-.053-.139-.119-.219-.175-.013-.009-.054.019-.1.037l.174.135.033.292L2,2.619l-.234-.043.04-.138-.454.012-.23.272.154.063c-.142.122-.324.221-.258.453a.3.3,0,0,1-.348.112,2.11,2.11,0,0,0-.4-.028L.233,3.24l-.122.046A3.11,3.11,0,0,1,.384,1.033,4.923,4.923,0,0,1,.728.4.862.862,0,0,1,1.582,0,2,2,0,0,1,2.636.383,6.875,6.875,0,0,1,4.252,2.145c-.22.228-.3.232-.7.014l-.34.276-.357.083.093-.235.175-.117-.033-.051-.212.061.077.014.112-.563-.159.1-.187-.1-.157.4Z" transform="translate(3.999 5.514)" fill="#b5b647"/>
                <path id="Path_284694" data-name="Path 284694" d="M4.289.851a1.194,1.194,0,0,1-.275.8,2.882,2.882,0,0,1-1.675,1.2,1.594,1.594,0,0,1-.493.05A6.207,6.207,0,0,1,0,2.431c.157-.116.321-.225.466-.354.045-.04.04-.137.058-.208l.05-.024.356-.34L.708,1.473l.1-.209c-.087-.04-.154-.068-.218-.1L.139.945C.116.862,0,.777.142.7L.3.7.489.925.555.566A2.823,2.823,0,0,1,.846.253,2.2,2.2,0,0,1,1.161.075L1.75.207,2.09,0l.077.247L2.659.159c.046.035.124.1.208.157A.356.356,0,0,0,3.3.339c0,.069,0,.137-.007.225.182.048.346.166.568.092.069-.023.18.083.272.129C4.187.809,4.239.829,4.289.851ZM1.135.833l-.352.2a.282.282,0,0,0,.4-.1L1.374.96A3.94,3.94,0,0,1,1.65.591,3.379,3.379,0,0,1,1.979.316a2.725,2.725,0,0,0-.644.178C1.2.552,1.075.647,1.135.833ZM2.784.669c.078.132.147.178.269.079C3.01.6,2.934.578,2.784.669Z" transform="translate(13.111 10.167)" fill="#c6c74e"/>
                <path id="Path_284695" data-name="Path 284695" d="M4.145,2.336c-.105.049-.2.084-.3-.031-.025-.03-.108-.013-.171-.018l-.021.259c-.262.13-.634-.057-.766.359l-.066-.057.1-.362c.124-.141.465-.072.4-.443-.251.166-.534.181-.7.432-.045.069-.149.1-.23.144-.121.063-.245.12-.4.2L1.82,2.574c.192-.381.172-.455-.152-.634-.37.259-.367.218-.612-.125-.2.011-.1.176-.135.278L.709,2.079l.022.237C.47,2.4.447,2.118.3,2.057L0,2.289A6.133,6.133,0,0,1,.989.635,1.445,1.445,0,0,1,2.813.148,2,2,0,0,1,4.168,1.815,3.442,3.442,0,0,1,4.145,2.336ZM.792,1.035l.274.16L1.4.827,1.358.618a1.079,1.079,0,0,1-.188.3A1.362,1.362,0,0,1,.792,1.035ZM2.828.921c-.151.265.2.309.19.5a1,1,0,0,0,.145.026C3.048,1.083,3.017,1.033,2.828.921Zm.018.446-.4.563C2.757,1.831,2.912,1.628,2.846,1.367ZM1.483,1.61a.251.251,0,0,0-.224.292C1.447,1.884,1.5,1.783,1.483,1.61Zm.24.171L1.814,1.5l-.051-.029-.175.085Zm1.85.108c.046.2.124.223.261.088ZM.946,1.442l-.04-.074-.248.149.031.049Zm1.444.542A.224.224,0,0,0,2.328,2c-.006,0,0,.03,0,.045a.323.323,0,0,0,.063-.006A.25.25,0,0,0,2.391,1.983Z" transform="translate(15.506 0)" fill="#bebf4b"/>
                <path id="Path_284696" data-name="Path 284696" d="M0,3.043l.449-.3L.437,2.724l-.252.06c-.014-.361.233-.6.32-.858L.929,1.5a2.91,2.91,0,0,1,.312-.19,4.636,4.636,0,0,1,.442-.159L1.8.73l.17.153L2.178.86,2.292.688l.2.093c.205-.019.387-.025.564-.057C3.16.706,3.26.609,3.36.613c.311.013.43-.127.431-.424,0-.054.091-.107.166-.189l.365.2A5.164,5.164,0,0,1,2.678,2.322a3.353,3.353,0,0,1-.558.307,5.687,5.687,0,0,1-1.5.479A.929.929,0,0,1,0,3.043Z" transform="translate(14.861 3.776)" fill="#c3c44c"/>
                <path id="Path_284697" data-name="Path 284697" d="M.185,0a4.507,4.507,0,0,1,2.32.715A1.038,1.038,0,0,1,2.9,2.19c-.13.22-.277.43-.416.645L2.355,2.7l.1-.151-.2-.569-.068,0-.12.3c-.151.12-.228-.092-.349-.114-.05.112.135.221-.028.306l-.074-.026-.413-.358-.021-.307L.6,1.826l-.07-.181-.21.047L.192,1.287c.019-.044.062-.121.053-.127A2.084,2.084,0,0,0,0,1.025C.154.747-.1.377.2.1.213.09.191.035.185,0Zm.4,1.3L.645,1.24.551,1.019l-.216.16ZM1.623.911c0-.022,0-.044,0-.067l-.2,0c0,.027,0,.054.005.081Z" transform="translate(11.859 14.113)" fill="#c6c74e"/>
                <path id="Path_284698" data-name="Path 284698" d="M0,1.2a2.48,2.48,0,0,1,.286,0,1.7,1.7,0,0,1,.244.069A.451.451,0,0,1,1.064,1a.362.362,0,0,1,.385.4c.134-.142.146-.239.078-.564L1.8.74l.107-.2c.346.09.461.225.436.537l.326.171L2.838.712,2.458.663a.246.246,0,0,1,.2-.3A3.152,3.152,0,0,0,3.051.177c.15-.064.3-.118.455-.177a6.312,6.312,0,0,1-.042.767,4.82,4.82,0,0,1-.542,1.613.832.832,0,0,0-.316.038,2.366,2.366,0,0,0-.358.315c-.17-.018-.167.058-.6-.615l-.306.019c0,.123,0,.212,0,.3a.4.4,0,0,1-.522-.012,2.794,2.794,0,0,0-.336-.442C.35,1.845.2,1.716.05,1.572L.121,1.35Zm1.937-.06L1.89,1.106a.288.288,0,0,0-.032.056s.031.028.035.025A.249.249,0,0,0,1.937,1.139Z" transform="translate(9.739 4.446)" fill="#c1c24c"/>
                <path id="Path_284699" data-name="Path 284699" d="M1.831,3.446a.33.33,0,0,1-.419-.169.233.233,0,0,0-.118-.106.464.464,0,0,1-.33-.536l.491-.4-.055-.1-.59.324L.575,1.971l-.063.007c0,.089,0,.177-.008.289l-.3.074.077-.5L0,1.462c.107-.431.595-.414.955-.641L.109.814.07.693C.427.629.805.7,1.1.456L1.208.383,1.189.351,1.077.406,1.015.093c.216-.118.243-.119.617-.031L1.9.441,1.816.667,1.867.7c.11-.082.219-.17.363-.106a4.119,4.119,0,0,1,.048.74,12.093,12.093,0,0,1-.217,1.2C2,2.84,1.909,3.142,1.831,3.446Z" transform="translate(6.51 8.196)" fill="#cacb4f"/>
                <path id="Path_284700" data-name="Path 284700" d="M.88,1.255,1,1.406.93,1.627c.152.145.3.273.432.414a2.791,2.791,0,0,1,.336.442.4.4,0,0,0,.522.012c0-.09,0-.179,0-.3l.306-.019c.429.672.426.6.6.615a2.372,2.372,0,0,1,.358-.315A.832.832,0,0,1,3.8,2.436l-.347.547-.189-.164c-.02.185.069.2.189.163a.565.565,0,0,1-.052.124A2.914,2.914,0,0,0,2.926,4.13a.62.62,0,0,1-.8.418.974.974,0,0,1-.6-.614,5.267,5.267,0,0,1-.257-.959A4.123,4.123,0,0,0,.612,1.317,2.951,2.951,0,0,1,0,0L.3.115C.263.327.435.391.635.457l-.2.2.176.365Z" transform="translate(8.859 4.39)" fill="#babb49"/>
                <path id="Path_284701" data-name="Path 284701" d="M2.124.068a1.5,1.5,0,0,0,.029.2c.019.071.067.135.08.205.061.332.059.333.376.476a.485.485,0,0,1-.045.194.775.775,0,0,1-.213.168c-.043.027-.126.015-.148.048-.138.214-.347.225-.573.267a.678.678,0,0,0-.558.409,1.393,1.393,0,0,1-.14.226c-.3-.1-.281.321-.554.355l.038-.306c-.154-.11-.259.032-.381.068A2.974,2.974,0,0,1,.16.99,1.428,1.428,0,0,1,1.5,0,3.305,3.305,0,0,1,2.124.068Z" transform="translate(0 10.244)" fill="#babb49"/>
                <path id="Path_284702" data-name="Path 284702" d="M1.528,1.821c-.141.081-.026.165,0,.249l-.269.13.046.034-.165.518.282-.136.2.027.117.3-.175.169-.226-.371a2.49,2.49,0,0,0-.067.4.24.24,0,0,1-.164.253,2.164,2.164,0,0,1-.743-.666C.239,2.752.106,2.8,0,2.6A3.246,3.246,0,0,1,.77,1.225,3.51,3.51,0,0,1,3.118,0L3.25.161,3.164.35,2.8.525,2.758.734l.125.183-.1.173c-.26-.024-.532-.148-.756.108-.031.035-.1.036-.15.054l-.3.112C1.554,1.531,1.541,1.676,1.528,1.821Z" transform="translate(11.725 9.043)" fill="#b6b747"/>
                <path id="Path_284703" data-name="Path 284703" d="M2.144.007c.005.035.028.09.013.1-.3.274-.045.643-.2.922a2.09,2.09,0,0,1,.245.134c.008.006-.034.083-.053.127L1.9,1.51c0,.026-.006.052-.009.079L1.6,1.433l-.222.148L1.04,1.1l-.182.074-.3.029L.636.946.425.665.183.747,0,.552A3.116,3.116,0,0,1,2.144.007Z" transform="translate(9.9 14.106)" fill="#b6b747"/>
                <path id="Path_284704" data-name="Path 284704" d="M.862,0,1.2.517.8.676.657.984,1.149.9l.306.539c-.022.385-.022.385-.525.458-.137.248-.412.248-.65.322-.17.211-.17.211-.13.479l-.116.064a2.284,2.284,0,0,1,.1-1.091A5.493,5.493,0,0,1,.862,0Z" transform="translate(14.299 2.947)" fill="#bebf4b"/>
                <path id="Path_284705" data-name="Path 284705" d="M1.262,1.286a.356.356,0,0,1-.437-.024C.74,1.208.663,1.141.617,1.106l-.492.088L.048.947,0,.847.545.416A2.562,2.562,0,0,0,.811.358c.084-.026.2-.052.235-.115C1.118.1,1.249.065,1.367,0a2.392,2.392,0,0,1,.555.84c-.054.066-.108.131-.161.2-.027.034-.05.069-.075.1l-.124,0L1.428,1.1Z" transform="translate(15.153 9.22)" fill="#cacb4f"/>
                <path id="Path_284706" data-name="Path 284706" d="M2.015.316c-.118.065-.249.1-.321.244-.032.062-.15.088-.235.115a2.555,2.555,0,0,1-.266.058l-.545.431C.549,1.012.46,1.15.37,1.175c-.122.033-.226.174-.37.054l.1-.173L.516.983C.6.77.428.646.383.488L.469.3.337.138A2.061,2.061,0,0,1,1.546.054,1.9,1.9,0,0,1,2.015.316Z" transform="translate(14.505 8.905)" fill="#c6c74e"/>
                <path id="Path_284707" data-name="Path 284707" d="M0,1.322A.24.24,0,0,0,.164,1.07a2.5,2.5,0,0,1,.067-.4l.226.371L.632.875.515.573C.676.422.507.354.4.251l-.088.3L.035.682.2.164.154.13.423,0,.879.221c.065.031.131.059.218.1l-.1.209.223.033L.859.9H.769l.04.024C.791,1,.8,1.092.751,1.133c-.146.129-.31.237-.466.354Z" transform="translate(12.826 11.112)" fill="#c1c24c"/>
                <path id="Path_284708" data-name="Path 284708" d="M0,.495C.162.409-.022.3.028.189.148.211.225.422.376.3L.5,0,.564,0l.2.569-.1.151L.793.855l-.11.157C.585.979.569.886.557.766L.241,1.12.005.827A.247.247,0,0,0,0,.495Z" transform="translate(13.552 16.093)" fill="#babb49"/>
                <path id="Path_284709" data-name="Path 284709" d="M.557.026A.247.247,0,0,1,.562.358L.8.651.871.8.932.913l-.521.574a.751.751,0,0,0-.176,0,1.46,1.46,0,0,0-.212.076L0,1.509l.342-.268A.248.248,0,0,0,.451.936C.4.706.355.474.311.261L.482,0Z" transform="translate(12.995 16.562)" fill="#b6b747"/>
                <path id="Path_284710" data-name="Path 284710" d="M.432.3C.457.267.48.231.507.2.559.131.614.066.667,0l.09.145L.718.224.8.246.959.664.795.8.974.781.991.958C.941.936.89.916.841.892.748.847.637.74.568.763.346.837.182.719,0,.671,0,.583.005.515.007.446L.173.258.308.3.356.4C.343.452.3.533.322.55.4.624.486.742.635.612L.406.376Z" transform="translate(16.408 10.061)" fill="#c7c84e"/>
                <path id="Path_284711" data-name="Path 284711" d="M.073.5,0,.353.315,0C.328.12.344.213.442.246L.327.382Z" transform="translate(13.793 16.859)" fill="#c6c74e"/>
                <path id="Path_284712" data-name="Path 284712" d="M0,.13.268,0,.317.029.151.43Z" transform="translate(4.36 9.352)" fill="#bebf4b"/>
                <path id="Path_284713" data-name="Path 284713" d="M.414.225C.27.161.161.249.05.331L0,.3.081.072.364,0Z" transform="translate(8.326 8.565)" fill="#c1c24c"/>
                <path id="Path_284714" data-name="Path 284714" d="M0,.121.254,0,.062.234Z" transform="translate(13.865 17.241)" fill="#c1c24c"/>
                <path id="Path_284715" data-name="Path 284715" d="M.179.117,0,.131.164,0C.169.039.175.078.179.117Z" transform="translate(17.203 10.725)" fill="#cacb4f"/>
                <path id="Path_284716" data-name="Path 284716" d="M.085.1,0,.079.039,0Z" transform="translate(17.126 10.206)" fill="#cacb4f"/>
                <path id="Path_284717" data-name="Path 284717" d="M.407.076A.627.627,0,0,0,.628.336.821.821,0,0,1,.872.712c.116.279.149.265.13.546l-.287.05L.488,1.52l-.233.009.192-.484L.346.423.154.446C.114.331-.041.264.011.11A.183.183,0,0,1,.118,0C.137.107.156.214.184.367Z" transform="translate(2.948 12.674)" fill="#babb49"/>
                <path id="Path_284718" data-name="Path 284718" d="M.176,0A1.426,1.426,0,0,0,.218.213a.23.23,0,0,1-.1.308C.061.385-.046.261.022.084Z" transform="translate(3.218 11.681)" fill="#babb49"/>
                <path id="Path_284719" data-name="Path 284719" d="M.194,0C.218.1.263.2.142.273L0,.231C-.019.068.107.051.194,0Z" transform="translate(3.142 12.203)" fill="#babb49"/>
                <path id="Path_284720" data-name="Path 284720" d="M.045,0,.1.159C-.022.1-.022.1.045,0Z" transform="translate(3.056 13.12)" fill="#babb49"/>
                <path id="Path_284721" data-name="Path 284721" d="M0,.018c.194-.026.34-.055.381.17C.3.254.21.349.1.261.044.217.037.114,0,.018Z" transform="translate(10.492 4.018)" fill="#babb49"/>
                <path id="Path_284722" data-name="Path 284722" d="M0,.125.26,0C.245.21.245.21,0,.125Z" transform="translate(11.327 4.645)" fill="#c1c24c"/>
                <path id="Path_284723" data-name="Path 284723" d="M2.719,1.352l-.172.261c.044.213.09.445.14.675a.248.248,0,0,1-.109.305C2.52,2.431,2.465,2.267,2.4,2.1a1.194,1.194,0,0,0-.428-.669c0-.253-.305-.24-.38-.5l-.346.432a.822.822,0,0,1-.627-.3A3.072,3.072,0,0,1,.312.589C.207.418.1.246,0,.074L.182,0,.524.477.747.329l.285.156c0-.026.006-.052.009-.079L1.292.19,1.416.6,1.626.549,1.7.73,2.285.688c.007.1.013.2.021.307Z" transform="translate(10.758 15.209)" fill="#babb49"/>
                <path id="Path_284724" data-name="Path 284724" d="M.716.537,0,.571.282.351C.691.412,1,.137,1.385,0c-.046.175-.188.231-.3.311A4.269,4.269,0,0,1,.716.537Z" transform="translate(10.279 17.699)" fill="#b5b647"/>
                <path id="Path_284725" data-name="Path 284725" d="M0,.6C.133.258.475.254.692,0,.7.123.7.188.708.255Z" transform="translate(9.275 14.901)" fill="#b6b747"/>
                <path id="Path_284726" data-name="Path 284726" d="M0,.1.209,0,.241.054.04.175Z" transform="translate(10.042 15.307)" fill="#b6b747"/>
                <path id="Path_284727" data-name="Path 284727" d="M.133.782,0,.4.157,0,.345.1.5.005.392.568.315.554.527.493.56.544.385.661Z" transform="translate(6.566 7.136)" fill="#c1c24c"/>
                <path id="Path_284728" data-name="Path 284728" d="M.853.308C.7.268.617.354.532.455A.736.736,0,0,1,0,.76L.66,0,.782.187.954.135Z" transform="translate(5.168 8.248)" fill="#b6b747"/>
                <path id="Path_284729" data-name="Path 284729" d="M.87.092.639.114A1.686,1.686,0,0,1,0,.582.7.7,0,0,1,.868.034Z" transform="translate(5.582 8.938)" fill="#bebf4b"/>
                <path id="Path_284730" data-name="Path 284730" d="M0,.535.1.362A.151.151,0,0,0,.179.14L.229.115.468,0,.526.218C.466.293.4.364.346.442S.223.632.139.764Z" transform="translate(6.02 8.021)" fill="#c1c24c"/>
                <path id="Path_284731" data-name="Path 284731" d="M.262.076A.151.151,0,0,1,.184.3L0,.108.064.048.163,0Z" transform="translate(5.938 8.085)" fill="#b6b747"/>
                <path id="Path_284732" data-name="Path 284732" d="M0,.08.188,0C.192.063.194.108.2.168.109.163,0,.256,0,.08Z" transform="translate(5.278 8.218)" fill="#b5b647"/>
                <path id="Path_284733" data-name="Path 284733" d="M0,.054.113,0,.131.031.024.1Z" transform="translate(7.586 8.547)" fill="#c1c24c"/>
                <path id="Path_284734" data-name="Path 284734" d="M0,0,.333.126C.149.22.053.181,0,0Z" transform="translate(16.604 2.194)" fill="#bebf4b"/>
                <path id="Path_284735" data-name="Path 284735" d="M0,.024.05,0,.058.016.008.04Z" transform="translate(15.194 3.681)" fill="#c1c24c"/>
                <path id="Path_284736" data-name="Path 284736" d="M.052.41,0,.02.372,0,.408.045Z" transform="translate(3.569 12.491)" fill="#babb49"/>
                <path id="Path_284737" data-name="Path 284737" d="M.306.542.207.466.174.174,0,.039C.044.021.085-.008.1,0c.08.057.154.122.219.175L.356.518Z" transform="translate(5.894 7.619)" fill="#c3c44c"/>
                <path id="Path_284738" data-name="Path 284738" d="M1.253.136c.144.12.248-.021.37-.054C1.713.057,1.8-.082,1.9.07l.048.1L1.608.377,1.02.245A2.195,2.195,0,0,0,.7.422,2.833,2.833,0,0,0,.413.735l-.066.359L.162.874,0,.866.042.41.347.3C.4.28.466.279.5.244.721-.012.993.112,1.253.136Z" transform="translate(13.252 9.998)" fill="#babb49"/>
                <path id="Path_284739" data-name="Path 284739" d="M.016.517C-.044.33.076.236.215.178A2.729,2.729,0,0,1,.859,0,3.375,3.375,0,0,0,.531.275,3.943,3.943,0,0,0,.255.644L.064.617Z" transform="translate(14.23 10.483)" fill="#bebf4b"/>
                <path id="Path_284740" data-name="Path 284740" d="M.352,0,.4.1A.282.282,0,0,1,0,.2Z" transform="translate(13.894 11.001)" fill="#c3c44c"/>
                <path id="Path_284741" data-name="Path 284741" d="M0,.054C.15-.037.226-.014.269.133.147.232.078.185,0,.054Z" transform="translate(15.895 10.783)" fill="#babb49"/>
                <path id="Path_284742" data-name="Path 284742" d="M.04.024,0,0H.09Z" transform="translate(13.595 12.013)" fill="#c7c84e"/>
                <path id="Path_284743" data-name="Path 284743" d="M0,.417A1.361,1.361,0,0,0,.379.3,1.079,1.079,0,0,0,.567,0L.608.209.274.577Z" transform="translate(16.298 0.618)" fill="#b6b747"/>
                <path id="Path_284744" data-name="Path 284744" d="M.038,0c.189.112.22.162.335.522A1,1,0,0,1,.228.5C.234.309-.113.265.038,0Z" transform="translate(18.296 0.921)" fill="#b6b747"/>
                <path id="Path_284745" data-name="Path 284745" d="M.4,0C.47.261.315.464,0,.563Z" transform="translate(17.949 1.367)" fill="#b6b747"/>
                <path id="Path_284746" data-name="Path 284746" d="M.225,0C.238.173.189.274,0,.292A.251.251,0,0,1,.225,0Z" transform="translate(16.765 1.61)" fill="#b6b747"/>
                <path id="Path_284747" data-name="Path 284747" d="M.135.315,0,.085.175,0,.226.029Z" transform="translate(17.094 1.466)" fill="#b6b747"/>
                <path id="Path_284748" data-name="Path 284748" d="M0,0,.261.087C.124.223.046.2,0,0Z" transform="translate(19.08 1.89)" fill="#b6b747"/>
                <path id="Path_284749" data-name="Path 284749" d="M.288.074.031.2,0,.149.248,0Z" transform="translate(16.164 1.368)" fill="#b6b747"/>
                <path id="Path_284750" data-name="Path 284750" d="M.065,0a.252.252,0,0,1,0,.055A.322.322,0,0,1,0,.06C0,.045,0,.018,0,.015A.224.224,0,0,1,.065,0Z" transform="translate(17.832 1.983)" fill="#b6b747"/>
                <path id="Path_284751" data-name="Path 284751" d="M.246.278,0,.16.216,0,.31.221Z" transform="translate(12.194 15.132)" fill="#b6b747"/>
                <path id="Path_284752" data-name="Path 284752" d="M.2.067l-.2.018C0,.058,0,.03,0,0L.2,0C.2.022.2.044.2.067Z" transform="translate(13.279 14.956)" fill="#b5b647"/>
                <path id="Path_284753" data-name="Path 284753" d="M.079.034A.252.252,0,0,1,.035.082S0,.061,0,.056A.281.281,0,0,1,.032,0Z" transform="translate(11.597 5.552)" fill="#c3c44c"/>
                <path id="Path_284754" data-name="Path 284754" d="M.192.163C.072.2-.017.185,0,0L.192.164Z" transform="translate(12.122 7.21)" fill="#c1c24c"/>
                <path id="Path_284755" data-name="Path 284755" d="M.407,0C.451.158.619.281.539.494L.125.568,0,.384.044.175Z" transform="translate(14.482 9.393)" fill="#babb49"/>
                <path id="Path_284756" data-name="Path 284756" d="M0,.3.088,0C.191.1.36.17.2.322Z" transform="translate(13.143 11.363)" fill="#c6c74e"/>
                <path id="Path_284757" data-name="Path 284757" d="M.048.1,0,0,.124,0,.1.076Z" transform="translate(16.716 10.361)" fill="#c6c74e"/>
                <path id="Path_284758" data-name="Path 284758" d="M.039.024.089,0,.319.235C.169.365.085.247,0,.174-.014.156.026.076.039.024Z" transform="translate(16.725 10.437)" fill="#cacb4f"/>
              </g>
            </g>
            <g id="Group_54313" data-name="Group 54313" transform="translate(2.757 2.754)">
              <path id="Path_284759" data-name="Path 284759" d="M2.846,15.965c-.214-.348-.408-.651-.591-.961-.335-.565-.663-1.134-.994-1.7-.037-.064-.073-.129-.106-.2C.8,12.366.434,11.624.08,10.879A.853.853,0,0,1,0,10.536a.261.261,0,0,1,.211-.262.28.28,0,0,1,.316.118,1.534,1.534,0,0,1,.123.217c.106.216.2.439.315.65q.664,1.219,1.34,2.43c.226.4.47.8.707,1.194.041.069.088.134.159.242a3.154,3.154,0,0,0,.19-.269c.493-.9.986-1.8,1.471-2.71a1.136,1.136,0,0,0,.128-.416,5.416,5.416,0,0,0-.292-2.076C4.3,8.406,3.915,7.159,3.54,5.91a1.761,1.761,0,0,1-.07-.325.292.292,0,0,1,.221-.34.284.284,0,0,1,.359.179,4.061,4.061,0,0,1,.141.42c.191.6.377,1.2.572,1.8a21.851,21.851,0,0,1,.856,2.926,1.542,1.542,0,0,0,.053.165,1.413,1.413,0,0,0,.16-.165,38.186,38.186,0,0,1,2.4-3.162A.767.767,0,0,0,8.4,6.865c-.018-.944-.011-1.89-.061-2.832a19.747,19.747,0,0,1,.089-2.468.735.735,0,0,1,.051-.215.328.328,0,0,1,.332-.2.269.269,0,0,1,.253.282,3.668,3.668,0,0,1-.016.527,13.992,13.992,0,0,0,.015,2.5c.044.544.041,1.091.061,1.637,0,.051.015.1.03.205.108-.108.189-.18.258-.261.669-.78,1.349-1.551,2-2.346.551-.673,1.078-1.367,1.594-2.068.3-.4.548-.836.821-1.255a1.818,1.818,0,0,1,.178-.247.3.3,0,0,1,.4-.072.314.314,0,0,1,.18.368.959.959,0,0,1-.118.278A30.485,30.485,0,0,1,11.682,4.5c-.485.584-.986,1.154-1.47,1.739-.625.756-1.24,1.519-1.858,2.281-.068.084-.125.177-.223.315.118-.014.176-.016.231-.029.621-.148,1.244-.287,1.861-.45.321-.085.629-.215.944-.324a1.428,1.428,0,0,1,.186-.056.327.327,0,0,1,.39.188A.343.343,0,0,1,11.6,8.6a3.415,3.415,0,0,1-.407.175,18.83,18.83,0,0,1-2.632.673c-.341.082-.681.177-1.014.287a.621.621,0,0,0-.276.215c-.2.274-.4.559-.584.845-.291.441-.586.879-.858,1.331-.3.491-.568,1-.849,1.5-.035.063-.058.133-.1.227a.5.5,0,0,0,.157.008,6.942,6.942,0,0,1,2.065-.389c.7-.042,1.4-.087,2.106-.123a.6.6,0,0,1,.293.057.305.305,0,0,1,.019.542,1.025,1.025,0,0,1-.418.128c-.711.05-1.424.078-2.135.126a6.346,6.346,0,0,0-1.743.313A1.764,1.764,0,0,0,4.1,15.522c-.461,1.132-.959,2.25-1.341,3.413a.6.6,0,0,1-.353.434.428.428,0,0,1-.6-.476,2.346,2.346,0,0,1,.12-.427c.3-.816.61-1.63.915-2.445A.14.14,0,0,0,2.846,15.965Z" transform="translate(0 0)" fill="#80821a"/>
            </g>
          </g>
        </g>
      </g>
      <g id="Group_7318-3" data-name="Group 7318" transform="translate(381 517)" clip-path="url(#clip-path-2)">
        <path id="Path_15465-3" data-name="Path 15465" d="M35.992,712.263a12,12,0,1,1-12-12,12,12,0,0,1,12,12" transform="translate(-11.992 -700.263)" fill="#c2e2f2"/>
        <g id="Group_54316" data-name="Group 54316" transform="translate(2.752 3.754)">
          <path id="Path_284760" data-name="Path 284760" d="M3543.166,836.45c-.25-.544-.506-1.088-.8-1.606-.643-1.112-1.318-2.2-1.969-3.312a2.48,2.48,0,0,1-.167-.517,1.244,1.244,0,0,0,.156-.382c.026-.591.027-1.183.037-1.775q-.041-.3-.082-.6l-.071-.348c-.012-.008-.168-.66-.168-.66a25.926,25.926,0,0,0-1.379-3.849l-.712-1.705-.291-.678c-.126-.284-.23-.58-.382-.85a4.844,4.844,0,0,0-1.662-1.956l-.517.019a1.612,1.612,0,0,0-.484.971c-.188.7-.391,1.4-.563,2.1-.189.77-.351,1.547-.524,2.321q-.024.255-.048.509l-.016.44v.085q.014.258.029.515c.015.113.031.227.047.34a4.058,4.058,0,0,0,.039.464,5.063,5.063,0,0,0,.55,1.789l.178.339c.249.375.5.75.747,1.124.054.08.159.151,0,.223l-.427-.035-.866-.031-.941.078-.346.047a7.073,7.073,0,0,0-2.309.566c-.881.321-1.769.625-2.64.971a1.383,1.383,0,0,0-.783.756.922.922,0,0,0,.552.938c.813.477,1.643.926,2.465,1.387l1.45.734.292.171.44.233a3.722,3.722,0,0,0,.363.214c.6.271,1.2.535,1.8.8a3.107,3.107,0,0,0,1.389.183l1.034-.214a7.349,7.349,0,0,0,1.041-.485c.686-.455,1.339-.957,2.006-1.439.59.141,1.182.274,1.767.433.1.028.2.161.255.267.307.56.6,1.126.9,1.692.192.366.291.4.664.237A1.563,1.563,0,0,0,3543.166,836.45Zm-3.483-2.926a4.559,4.559,0,0,0-.931-1.909l.788.055c.054.044.128.077.16.133.37.654.733,1.312,1.149,2.06Zm8.281-9.767c-.106-.589-.217-1.178-.317-1.768a3.538,3.538,0,0,0-.708-1.677,2.164,2.164,0,0,0-.468-.433.869.869,0,0,0-1.193.2c-.421.5-.8,1.041-1.171,1.583-.482.707-.937,1.432-1.4,2.15l-.427.749-.574,1.417-.3,1.389q-.021.3-.043.609a6.936,6.936,0,0,0,.51,2.764,3.762,3.762,0,0,0,2.184,2.345c.052.714.091,1.429.162,2.14.032.324.209.459.436.414s.261-.182.237-.517c-.052-.713-.087-1.427-.129-2.141a3.031,3.031,0,0,0,1.854-1.614,4.07,4.07,0,0,0,.624-1.484l.1-.4.13-.383.445-1.974q.016-.136.032-.273l.088-.174q-.033-.9-.067-1.8Q3547.966,824.316,3547.965,823.756Z" transform="translate(-3526.787 -818.209)" fill="#969130"/>
          <g id="Group_54315" data-name="Group 54315">
            <path id="Path_284761" data-name="Path 284761" d="M3599.969,883.5c-.373.167-.472.129-.664-.237-.3-.566-.592-1.132-.9-1.692-.058-.106-.152-.239-.255-.267-.584-.16-1.177-.292-1.767-.433-.274-.086-.544-.188-.822-.255-.477-.114-.959-.207-1.439-.308l-.429.008-.265-.161-1.564-.268c-.343-.059-.685-.121-1.028-.181l-.511.009c-.024-.047-.039-.127-.072-.135-.264-.07-.531-.127-.8-.188l-.093-.077a.783.783,0,0,1-.275-.681l.252-.1.779.159c.221.248.513.134.78.153a1.1,1.1,0,0,0,.273.157c.218.052.443.079.666.11.292.041.585.077.878.115l1.127.311c.315.063.632.124.947.189.549.114,1.1.23,1.645.346l1.166.339c-.416-.748-.779-1.406-1.149-2.06-.032-.057-.106-.09-.16-.133a.8.8,0,0,0-.04-.206q-.45-.921-.913-1.835c-.012-.025-.079-.022-.12-.032,0-.028,0-.056,0-.084,0-.057,0-.115-.006-.172l-.368-.937-.1-.342-.272-.77a21.993,21.993,0,0,0-.769-2.9l-.092-.256a2.532,2.532,0,0,1-.157-1.292c.259-.18.449-.053.639.076l.188.6c.065.258.122.519.2.775.312,1.08.628,2.159.943,3.238l.1.427.274.681c0,.029,0,.057,0,.086l.187.511c.063.14.115.286.192.419.263.457.534.909.8,1.362a2.484,2.484,0,0,0,.168.518c.651,1.107,1.326,2.2,1.969,3.311.3.518.555,1.062.805,1.606A1.569,1.569,0,0,1,3599.969,883.5Z" transform="translate(-3583.54 -864.759)" fill="#7f7d22"/>
            <path id="Path_284762" data-name="Path 284762" d="M3711.016,839.262q0,.56,0,1.12l-.177.162-.232-.579a1.509,1.509,0,0,1-1.533.039c-.01-.007-.028,0-.042,0,0-.141,0-.281-.009-.422-.015-.432-.082-.495-.529-.507-.519-.331-.947-.127-1.078.54l-.378.114c0-.037.01-.073.014-.11a3.192,3.192,0,0,0-.584-.253,4.477,4.477,0,0,0-.718-.049c.466-.717.921-1.443,1.4-2.15.37-.542.751-1.081,1.172-1.583a.869.869,0,0,1,1.193-.2,2.161,2.161,0,0,1,.468.433,3.543,3.543,0,0,1,.708,1.677C3710.8,838.084,3710.91,838.672,3711.016,839.262Z" transform="translate(-3689.838 -833.715)" fill="#9c9535"/>
            <path id="Path_284763" data-name="Path 284763" d="M3604.776,818.228l.517-.019a4.846,4.846,0,0,1,1.662,1.956c.152.269.256.566.382.85l-.394.134a1.631,1.631,0,0,1-.7,1.277.466.466,0,0,0-.656.172c.022.1.044.207.083.39l-.879-.338c-.317.084-.215.4-.219.676l-.17.088-.241-.318c-.47.167-.131.509-.255.831a.674.674,0,0,0-.7-.307c.173-.774.335-1.551.524-2.321.172-.7.376-1.4.563-2.1A1.614,1.614,0,0,1,3604.776,818.228Z" transform="translate(-3596.409 -818.209)" fill="#8b8829"/>
            <path id="Path_284764" data-name="Path 284764" d="M3693.305,925.42a3.762,3.762,0,0,1-2.183-2.345,6.935,6.935,0,0,1-.51-2.764,4.31,4.31,0,0,0,.482-.256c.223-.155.428-.335.629-.495a.508.508,0,0,1,.254.711l.375-.067.234.339c.178-.045.352-.09.528-.132.136-.033.273-.062.41-.092-.07.574-.182,1.147-.2,1.722-.034,1.025-.013,2.052-.015,3.078Q3693.307,925.27,3693.305,925.42Zm-.71-4.186c-.637-.04-.671-.019-.59.34Z" transform="translate(-3676.04 -910.546)" fill="#969130"/>
            <path id="Path_284765" data-name="Path 284765" d="M3733.786,888.529c.014,0,.032,0,.042,0a1.51,1.51,0,0,0,1.533-.039l.231.579.177-.162.067,1.8-.088.174-.33.08.3.193-.445,1.974c-.183.011-.148.149-.151.264l-.313.031c.061-.5.042-.53-.381-.693.083-.19.123-.383-.082-.531a.822.822,0,0,0-.824.093c-.259-.1-.276-.295-.134-.575l-.465-.244A11.731,11.731,0,0,1,3733.786,888.529Zm1.547.664a.391.391,0,0,0-.037.093c0,.008.053.037.059.032a.419.419,0,0,0,.057-.082Z" transform="translate(-3714.587 -882.241)" fill="#969130"/>
            <path id="Path_284766" data-name="Path 284766" d="M3722.826,879.386a11.732,11.732,0,0,0-.866,2.948c-.075.429-.166.855-.221,1.286-.062.489-.09.983-.133,1.474q0,1.387-.007,2.775c.042.714.077,1.428.129,2.141.025.335-.024.475-.237.517s-.4-.09-.436-.414c-.071-.712-.11-1.427-.162-2.14,0-.1,0-.2,0-.3,0-1.026-.02-2.053.015-3.078.019-.576.131-1.148.2-1.722l.3-1.641c.118-.373.242-.745.353-1.121.1-.347.189-.7.282-1.047q0-.129,0-.258l.247-.348c.447.012.514.075.529.507C3722.822,879.1,3722.823,879.245,3722.826,879.386Z" transform="translate(-3703.627 -873.099)" fill="#7f7d22"/>
            <path id="Path_284767" data-name="Path 284767" d="M3703.882,877.465c-.094.349-.181.7-.282,1.047-.11.376-.235.747-.353,1.121l-.373.066-.14-.251-.468.191-.813-.527c.011-.088.023-.18.041-.325l-.241-.1.157-.278-.326-.158-.132-.4.427-.749a4.484,4.484,0,0,1,.718.049,3.187,3.187,0,0,1,.584.253c0,.037-.009.073-.014.11l.378-.114c.132-.666.559-.871,1.078-.539l-.247.348C3703.755,877.3,3703.76,877.382,3703.882,877.465Z" transform="translate(-3685.463 -871.501)" fill="#969130"/>
            <path id="Path_284768" data-name="Path 284768" d="M3648.717,878.39c-.315-1.079-.631-2.158-.943-3.238-.074-.256-.131-.516-.2-.775l.286-.008.44-.334.462.224a25.954,25.954,0,0,1,1.379,3.849l-.885-.089-.3.364Z" transform="translate(-3636.835 -869.071)" fill="#a69f3d"/>
            <path id="Path_284769" data-name="Path 284769" d="M3691.554,889.6l.132.4.326.158-.157.278.24.1c-.018.145-.03.236-.041.325l.813.527.467-.192.14.251.373-.066q-.15.82-.3,1.641c-.137.031-.274.059-.41.092-.175.042-.35.087-.528.132l-.234-.339-.375.067a.508.508,0,0,0-.254-.711c-.2.16-.406.339-.629.495a4.323,4.323,0,0,1-.482.256q.022-.3.043-.609l.733-.019.148-.637-.267-.059c.022-.168.042-.323.062-.484l-.377-.19Z" transform="translate(-3676.064 -883.255)" fill="#9c9535"/>
            <path id="Path_284770" data-name="Path 284770" d="M3618.393,852.073c0-.273-.1-.592.219-.676l.88.338-.084-.39a.467.467,0,0,1,.656-.172,1.63,1.63,0,0,0,.7-1.277l.395-.134.291.678-.264.1-.009-.01c-.02-.017,0,0,.011.009l-.121.394.145.245-.115.34-.311.151c-.19-.129-.38-.256-.639-.076a2.529,2.529,0,0,0,.157,1.292,2.74,2.74,0,0,1-1.206-.054c0-.029,0-.057,0-.086l-.34-.556Z" transform="translate(-3610.234 -846.957)" fill="#8f8b2b"/>
            <path id="Path_284771" data-name="Path 284771" d="M3728.858,954.81q0-1.387.007-2.775c.132-.026.264-.056.4-.078.177-.03.361-.074.461.143l-.07.267.462-.1a1.633,1.633,0,0,0,.6.933A3.03,3.03,0,0,1,3728.858,954.81Z" transform="translate(-3710.886 -940.039)" fill="#969130"/>
            <path id="Path_284772" data-name="Path 284772" d="M3729.8,924.879c-.1-.217-.285-.173-.461-.143-.133.022-.264.052-.4.078.043-.492.072-.985.133-1.474.055-.431.146-.858.221-1.286l.465.244c-.142.281-.125.471.134.575a.822.822,0,0,1,.824-.093c.2.148.165.341.082.531.423.163.442.2.381.693l.313-.031.022.119-.1.4c-.2-.017-.287-.138-.347-.321a1.085,1.085,0,0,0-.227-.4,3.808,3.808,0,0,0-.468-.367l-.315.8.271.286Z" transform="translate(-3710.958 -912.818)" fill="#9c9535"/>
            <path id="Path_284773" data-name="Path 284773" d="M3737.865,938.751l.526-.387-.271-.286.315-.8a3.773,3.773,0,0,1,.468.367,1.079,1.079,0,0,1,.227.4c.059.183.147.3.347.321a4.063,4.063,0,0,1-.624,1.484,1.633,1.633,0,0,1-.6-.934l-.462.1Z" transform="translate(-3719.029 -926.689)" fill="#a69f3d"/>
            <path id="Path_284774" data-name="Path 284774" d="M3667.7,940.11c-.268-.454-.539-.906-.8-1.362-.076-.132-.129-.279-.192-.419.091-.024.184-.044.273-.073.3-.1.609-.2.914-.3-.01.592-.011,1.184-.037,1.774A1.238,1.238,0,0,1,3667.7,940.11Z" transform="translate(-3654.263 -927.304)" fill="#8f8b2b"/>
            <path id="Path_284775" data-name="Path 284775" d="M3645.865,857.483l.264-.1.711,1.705-.462-.224-.44.334-.286.008-.188-.6.311-.151.115-.34-.145-.245.121-.394Z" transform="translate(-3634.909 -853.903)" fill="#aea642"/>
            <path id="Path_284776" data-name="Path 284776" d="M3660.382,919.2l.241-.006.3-.364.885.089.156.652-.23.045.023.061.219-.1.071.348-.78.282.3-.471-.375-.285-.709.175Z" transform="translate(-3648.5 -909.882)" fill="#9c9535"/>
            <path id="Path_284777" data-name="Path 284777" d="M3691.427,905.542l.377.19c-.021.161-.04.317-.062.484l.267.059-.149.637-.733.019Z" transform="translate(-3676.512 -897.775)" fill="#969130"/>
            <path id="Path_284778" data-name="Path 284778" d="M3665.117,931.441l.78-.282q.041.3.082.6c-.3.1-.609.2-.914.3-.09.029-.182.049-.273.073l-.187-.511.4.151.11-.337Z" transform="translate(-3652.348 -921.114)" fill="#969130"/>
            <path id="Path_284779" data-name="Path 284779" d="M3761.3,915.682l-.3-.193.33-.08Q3761.32,915.546,3761.3,915.682Z" transform="translate(-3740.176 -906.764)" fill="#9c9535"/>
            <path id="Path_284780" data-name="Path 284780" d="M3757.662,941.057l-.022-.119c0-.115-.032-.252.151-.264Z" transform="translate(-3737.109 -929.782)" fill="#aea642"/>
            <path id="Path_284781" data-name="Path 284781" d="M3563.323,946.515a.784.784,0,0,0,.275.681l-.665.441.055.1c.205-.208.583-.091.7-.461.266.061.533.117.8.188.033.009.048.089.072.135l-.5.263.043.1.969-.376c.343.06.685.122,1.028.181l1.564.268a1.1,1.1,0,0,1-.2.747.84.84,0,0,0-.108.354c-.033.178-.05.36-.074.54a3.754,3.754,0,0,0-.448.11,4.633,4.633,0,0,1-.863.34.972.972,0,0,0-.819.58c-.6-.267-1.2-.531-1.8-.8a3.768,3.768,0,0,1-.363-.214l-.052-.321,1.091-.029c-.172-.343.105-.314.228-.4a3.375,3.375,0,0,1,.416-.209l-.042-.114a5.867,5.867,0,0,1-2.325.455c-.017.072-.033.141-.049.209l-1.451-.734c.005-.186.01-.372.015-.554.46-.1.46-.1.429-.45-.285-.027-.43-.174-.383-.463l.663-.355.29.248.632-.356-.924.024-.249-.173c.03-.209.059-.417.089-.624.264-.125.538-.234.788-.382.093-.055.131-.2.194-.306a.567.567,0,0,0,.509-.32c-.373.095-.373.095-.51.32-.335-.049-.716.168-.948-.2l-.189-.462a7.071,7.071,0,0,1,2.309-.566l.065.2.281-.249.941-.078-.2.306.262.23a4.742,4.742,0,0,0,.583-.236c.1-.052.15-.177.223-.27l.427.035c.032.26-.157.374-.341.446l-.588.125a1.43,1.43,0,0,0,.038.4c.036.082.154.123.209.2a1.675,1.675,0,0,1,.134.307l.127-.271c.528.081.653-.627,1.158-.617a.928.928,0,0,1-.76.969,2.077,2.077,0,0,1-.3.333.485.485,0,0,0-.216.516,2.482,2.482,0,0,1-.486.093,1.239,1.239,0,0,0-.712.2l-.779-.159c.008-.078.015-.157.031-.325l-1.107.352.029.111a4.528,4.528,0,0,1,.487-.089A1.258,1.258,0,0,1,3563.323,946.515Zm3.82,2.278c-.157-.027-.228-.062-.284-.045-.48.142-.961.285-1.435.447a3.129,3.129,0,0,0-.468.251l.048.107A5.686,5.686,0,0,0,3567.142,948.794Zm-2.967-4.121c-.006-.239-.012-.446-.018-.687-.307.161-.5.476-.9.3.019.212.033.372.046.525C3563.677,944.988,3563.888,944.621,3564.175,944.672Zm-.558,3.178-1.127.711c.51-.035.879-.393,1.335-.55.014,0,.016-.048.027-.089Zm1.881.6-.033-.1-.7.247A.544.544,0,0,0,3565.5,948.455Z" transform="translate(-3557.772 -932.641)" fill="#9c9535"/>
            <path id="Path_284782" data-name="Path 284782" d="M3609.981,923.7a.484.484,0,0,1,.216-.516,2.078,2.078,0,0,0,.3-.333.928.928,0,0,0,.76-.969c-.505-.01-.63.7-1.159.617l-.127.27a1.69,1.69,0,0,0-.134-.307c-.055-.078-.173-.119-.209-.2a1.429,1.429,0,0,1-.038-.4l.588-.125c.184-.072.373-.186.341-.446.163-.072.058-.143,0-.223-.251-.373-.5-.749-.747-1.124.085-.064.224-.113.245-.193.125-.485.543-.388.874-.466l.256-.092.427-.1.406-.074.2.23-.486.166c0,.147.007.269.01.391l.488-.128.527-.05.184.289.5-.013.1.342-.265-.055a4.741,4.741,0,0,0-.437.346,2.034,2.034,0,0,0-.228.336,1.187,1.187,0,0,0-.875.761l.38.026-.165.262c.015.109.031.219.042.3l-.659,1.243.253.147c-.2.214-.2.214-.124.546l.2.012-.249.353c-.293-.038-.586-.074-.878-.115-.223-.031-.447-.058-.665-.11a1.1,1.1,0,0,1-.274-.157c.269-.234.687-.242.877-.608Z" transform="translate(-3602.2 -910.057)" fill="#969130"/>
            <path id="Path_284783" data-name="Path 284783" d="M3530.536,953.808l-.664.355c-.047.289.1.436.383.463.031.353.031.353-.429.45,0,.182-.01.368-.015.554-.823-.461-1.652-.91-2.465-1.387a.922.922,0,0,1-.552-.938,1.382,1.382,0,0,1,.783-.756c.871-.347,1.759-.65,2.64-.971l.189.462c.231.367.612.15.948.2-.062.105-.1.252-.193.307-.25.148-.524.257-.788.382l-.089.624.249.173Q3530.535,953.767,3530.536,953.808Z" transform="translate(-3526.787 -939.717)" fill="#aea642"/>
            <path id="Path_284784" data-name="Path 284784" d="M3610.335,890.653l-.487.128c0-.123-.007-.245-.01-.391l.486-.166.444-.15c-.137-.52-.576-.284-.876-.46l-.175.453-.426.1-.256.092c-.331.078-.748-.019-.874.466-.021.08-.16.129-.245.193l-.178-.339.444-.444-.409-.43.647-.856-.489-.786-.413.085a.915.915,0,0,1,.672-.617,8.763,8.763,0,0,0,.849-.371c.031.026.062.073.094.074a4.935,4.935,0,0,0,1.37-.025,21.961,21.961,0,0,1,.769,2.9c-.279.137-.56.27-.836.413C3610.392,890.546,3610.369,890.609,3610.335,890.653Zm-1.977-.629.073.078c.213-.048.458-.028.593-.3l-.288-.151Z" transform="translate(-3600.338 -881.027)" fill="#a69f3d"/>
            <path id="Path_284785" data-name="Path 284785" d="M3603.729,897.406l.413-.085.489.786-.647.856.409.43-.444.444a5.074,5.074,0,0,1-.55-1.789,4.06,4.06,0,0,1-.039-.464l.236.078Z" transform="translate(-3596.549 -890.285)" fill="#aea642"/>
            <path id="Path_284786" data-name="Path 284786" d="M3602.94,884.594l-.133.256-.236-.078-.047-.34.144-.179.089-.007c0-.051,0-.1-.005-.154l-.094-.092-.082-.079-.083-.09c.005-.146.01-.293.016-.44l.918.156.166.142.24-.411.791-.021c0,.029,0,.057,0,.086l-.165.261a8.815,8.815,0,0,1-.849.371A.915.915,0,0,0,3602.94,884.594Z" transform="translate(-3595.76 -877.474)" fill="#969130"/>
            <path id="Path_284787" data-name="Path 284787" d="M3603.586,874.339l-.919-.156q.024-.255.048-.509a.675.675,0,0,1,.7.307c.124-.322-.215-.664.255-.831l.242.318Z" transform="translate(-3595.918 -868.264)" fill="#8f8b2b"/>
            <path id="Path_284788" data-name="Path 284788" d="M3604.582,943.843c-.073.092-.128.218-.223.27a4.777,4.777,0,0,1-.584.236l-.262-.23.2-.306Z" transform="translate(-3596.689 -932.641)" fill="#aea642"/>
            <path id="Path_284789" data-name="Path 284789" d="M3602.681,890.992l-.144.179q-.015-.258-.029-.515a.713.713,0,0,1,.082.005l.082.079.094.091.005.154Z" transform="translate(-3595.773 -884.213)" fill="#aea642"/>
            <path id="Path_284790" data-name="Path 284790" d="M3591.668,944.684l-.281.249-.065-.2Z" transform="translate(-3585.582 -933.436)" fill="#a69f3d"/>
            <path id="Path_284791" data-name="Path 284791" d="M3602.576,889.795a.719.719,0,0,0-.081-.005v-.085Z" transform="translate(-3595.76 -883.346)" fill="#8b8829"/>
            <path id="Path_284792" data-name="Path 284792" d="M3633.657,992.965c.024-.18.041-.361.074-.54a.84.84,0,0,1,.108-.354,1.1,1.1,0,0,0,.2-.747l.265.161-.147.3.081.072c.115-.207.435-.086.495-.383.48.1.962.194,1.439.308.278.067.548.169.822.255-.667.482-1.321.984-2.006,1.439a7.359,7.359,0,0,1-1.041.486c.024-.156.049-.312.072-.456l-.357-.2Q3633.661,993.136,3633.657,992.965Z" transform="translate(-3624.152 -975.927)" fill="#8f8b2b"/>
            <path id="Path_284793" data-name="Path 284793" d="M3611.83,1009.782c0,.115.005.229.007.344-.387.125-.854.031-1.2.438l.37-.01c.026.143.053.292.08.441a3.108,3.108,0,0,1-1.389-.183.97.97,0,0,1,.819-.58,4.644,4.644,0,0,0,.863-.34A3.765,3.765,0,0,1,3611.83,1009.782Z" transform="translate(-3602.326 -992.744)" fill="#aea642"/>
            <path id="Path_284794" data-name="Path 284794" d="M3620.712,1014.516l-.08-.441-.37.01c.344-.407.812-.313,1.2-.438l.357.2-.072.456Z" transform="translate(-3611.948 -996.265)" fill="#9c9535"/>
            <path id="Path_284795" data-name="Path 284795" d="M3577.106,998.588c.016-.068.032-.137.049-.209a5.87,5.87,0,0,0,2.326-.455l.042.114a3.378,3.378,0,0,0-.417.209c-.122.083-.4.054-.228.4l-1.091.029c.021.13.036.226.052.321l-.44-.233.122-.07-.059-.055-.063.125Z" transform="translate(-3572.631 -981.941)" fill="#a69f3d"/>
            <path id="Path_284796" data-name="Path 284796" d="M3629.382,946.02l-.2-.012c-.072-.332-.072-.332.124-.546l-.253-.147.659-1.243-.042-.3c.27-.069.4-.256.415-.612a4.879,4.879,0,0,1,1.544-.127c0,.057,0,.114.006.172l-.757.4-.4.065.214.329a2.235,2.235,0,0,0,.943-.708c.041.01.107.007.12.032q.463.914.914,1.835a.8.8,0,0,1,.04.206l-.788-.055a4.559,4.559,0,0,1,.931,1.909c-.548-.116-1.1-.232-1.645-.346-.315-.065-.631-.126-.947-.189q-.054-.428-.108-.856l.157-.076-.015-.064-.233-.03Zm.469-2.064.035.125c.164.048.31.053.392-.255Zm.615,1.536a.412.412,0,0,0-.038.093c0,.008.054.037.06.032a.4.4,0,0,0,.057-.083Z" transform="translate(-3619.954 -931.906)" fill="#8b8829"/>
            <path id="Path_284797" data-name="Path 284797" d="M3642.2,933.209a4.887,4.887,0,0,0-1.544.127c.029-.055.05-.151.088-.159.171-.035.165-.152.157-.278a2.037,2.037,0,0,1,.228-.336,4.708,4.708,0,0,1,.437-.346l.265.055Z" transform="translate(-3630.53 -922.078)" fill="#8f8b2b"/>
            <path id="Path_284798" data-name="Path 284798" d="M3630.238,973.21l.679-.361.091.171q.053.428.108.856l-1.127-.311Z" transform="translate(-3620.81 -959.096)" fill="#8f8b2b"/>
            <path id="Path_284799" data-name="Path 284799" d="M3661.489,926.009l.71-.175.375.285-.3.472-.515.1Z" transform="translate(-3649.509 -916.262)" fill="#969130"/>
            <path id="Path_284800" data-name="Path 284800" d="M3639.2,920.879c.033-.045.057-.108.1-.131.276-.143.557-.276.836-.413l.272.77-.5.013-.184-.289Z" transform="translate(-3629.2 -911.252)" fill="#9c9535"/>
            <path id="Path_284801" data-name="Path 284801" d="M3602,969.916l.459-.165c-.191.366-.609.374-.877.608-.266-.02-.559.1-.78-.153a1.239,1.239,0,0,1,.712-.2A2.477,2.477,0,0,0,3602,969.916Z" transform="translate(-3594.216 -956.273)" fill="#a69f3d"/>
            <path id="Path_284802" data-name="Path 284802" d="M3624.623,884.486l.165-.261a2.739,2.739,0,0,0,1.206.054l.092.256a4.94,4.94,0,0,1-1.37.025C3624.685,884.559,3624.654,884.512,3624.623,884.486Z" transform="translate(-3615.922 -878.354)" fill="#9c9535"/>
            <path id="Path_284803" data-name="Path 284803" d="M3646.275,945.381a2.239,2.239,0,0,1-.943.708l-.214-.329.4-.065.757-.4C3646.272,945.325,3646.273,945.353,3646.275,945.381Z" transform="translate(-3634.594 -933.994)" fill="#8f8b2b"/>
            <path id="Path_284804" data-name="Path 284804" d="M3580.767,969.849a1.253,1.253,0,0,0-.307-.05,4.528,4.528,0,0,0-.487.089l-.029-.111,1.107-.352c-.016.168-.024.246-.032.325Z" transform="translate(-3575.216 -955.976)" fill="#a69f3d"/>
            <path id="Path_284805" data-name="Path 284805" d="M3598.478,986.271l-.969.376-.043-.1.5-.263Z" transform="translate(-3591.18 -971.324)" fill="#a69f3d"/>
            <path id="Path_284806" data-name="Path 284806" d="M3585.571,981.943c-.119.37-.5.253-.7.461l-.055-.1.665-.441Z" transform="translate(-3579.653 -967.311)" fill="#a69f3d"/>
            <path id="Path_284807" data-name="Path 284807" d="M3639.885,993.041c-.059.3-.379.176-.494.383l-.081-.072.146-.3Z" transform="translate(-3629.302 -977.492)" fill="#969130"/>
            <path id="Path_284808" data-name="Path 284808" d="M3664.573,934.438l.515-.1-.11.337-.4-.151C3664.574,934.5,3664.573,934.467,3664.573,934.438Z" transform="translate(-3652.319 -924.01)" fill="#9c9535"/>
            <path id="Path_284809" data-name="Path 284809" d="M3613,876.7l.321-.87.17-.088.365.113.34.556-.791.021-.24.411Z" transform="translate(-3605.33 -870.621)" fill="#9c9535"/>
            <path id="Path_284810" data-name="Path 284810" d="M3706.559,938.235l-.59.34C3705.887,938.215,3705.922,938.2,3706.559,938.235Z" transform="translate(-3690.003 -927.547)" fill="#9c9535"/>
            <path id="Path_284811" data-name="Path 284811" d="M3759.674,896.37l.079.043a.416.416,0,0,1-.057.082c-.006.005-.061-.024-.059-.032A.4.4,0,0,1,3759.674,896.37Z" transform="translate(-3738.928 -889.419)" fill="#9c9535"/>
            <path id="Path_284812" data-name="Path 284812" d="M3732.929,882.628c-.121-.084-.126-.17,0-.258C3732.925,882.456,3732.927,882.542,3732.929,882.628Z" transform="translate(-3714.51 -876.664)" fill="#9c9535"/>
            <path id="Path_284813" data-name="Path 284813" d="M3649.788,858.27l-.01-.009c-.018-.019,0,0,.009.01Z" transform="translate(-3638.831 -854.691)" fill="#aea642"/>
            <path id="Path_284814" data-name="Path 284814" d="M3675.866,927.168l-.219.1-.022-.061.23-.045Z" transform="translate(-3662.387 -917.47)" fill="#8f8b2b"/>
            <path id="Path_284815" data-name="Path 284815" d="M3609.733,999.322a5.687,5.687,0,0,1-2.14.761l-.048-.107a3.128,3.128,0,0,1,.468-.251c.474-.162.955-.305,1.435-.447C3609.5,999.261,3609.576,999.3,3609.733,999.322Z" transform="translate(-3600.363 -983.17)" fill="#aea642"/>
            <path id="Path_284816" data-name="Path 284816" d="M3589.414,946.451c-.287-.051-.5.315-.868.137l-.046-.525c.4.177.59-.138.9-.3C3589.4,946,3589.408,946.212,3589.414,946.451Z" transform="translate(-3583.011 -934.42)" fill="#a69f3d"/>
            <path id="Path_284817" data-name="Path 284817" d="M3580.961,989.222l.235.072c-.011.041-.013.084-.027.089-.455.158-.825.515-1.335.55Z" transform="translate(-3575.116 -974.013)" fill="#a69f3d"/>
            <path id="Path_284818" data-name="Path 284818" d="M3568.913,975.552q0-.042,0-.083l.924-.024-.631.356Z" transform="translate(-3565.163 -961.46)" fill="#a69f3d"/>
            <path id="Path_284819" data-name="Path 284819" d="M3606.189,995.019a.544.544,0,0,1-.729.149l.7-.247Z" transform="translate(-3598.463 -979.205)" fill="#a69f3d"/>
            <path id="Path_284820" data-name="Path 284820" d="M3578.148,955.733c.137-.225.137-.225.51-.32a.567.567,0,0,1-.51.32Z" transform="translate(-3573.58 -943.211)" fill="#aea642"/>
            <path id="Path_284821" data-name="Path 284821" d="M3632.242,915.206l.175-.453c.3.176.74-.06.876.46l-.444.15-.2-.23Z" transform="translate(-3622.863 -906.167)" fill="#9c9535"/>
            <path id="Path_284822" data-name="Path 284822" d="M3634.453,939.885c.007.126.013.243-.158.278-.039.008-.059.1-.088.159l-.25.35-.38-.026A1.188,1.188,0,0,1,3634.453,939.885Z" transform="translate(-3624.08 -929.064)" fill="#9c9535"/>
            <path id="Path_284823" data-name="Path 284823" d="M3636.16,945.147l.249-.35c-.018.356-.144.544-.414.613Z" transform="translate(-3626.282 -933.539)" fill="#8f8b2b"/>
            <path id="Path_284824" data-name="Path 284824" d="M3624.569,921.054l.256-.092Z" transform="translate(-3615.873 -911.823)" fill="#8f8b2b"/>
            <path id="Path_284825" data-name="Path 284825" d="M3616.967,915.573l.377-.372.288.151c-.134.272-.38.251-.593.3Z" transform="translate(-3608.947 -906.575)" fill="#969130"/>
            <path id="Path_284826" data-name="Path 284826" d="M3604.455,894.368l.088-.007Z" transform="translate(-3597.548 -887.588)" fill="#8b8829"/>
            <path id="Path_284827" data-name="Path 284827" d="M3604.433,891.693l-.094-.092Z" transform="translate(-3597.442 -885.074)" fill="#8b8829"/>
            <path id="Path_284828" data-name="Path 284828" d="M3580.387,1006.037l.063-.125.058.055-.122.07Z" transform="translate(-3575.62 -989.218)" fill="#969130"/>
            <path id="Path_284829" data-name="Path 284829" d="M3638.069,952.376l.427-.13c-.082.308-.228.3-.393.255Z" transform="translate(-3628.172 -940.325)" fill="#8f8b2b"/>
            <path id="Path_284830" data-name="Path 284830" d="M3640.513,973.02l-.091-.171.233.03.014.064Z" transform="translate(-3630.316 -959.096)" fill="#969130"/>
            <path id="Path_284831" data-name="Path 284831" d="M3644.6,970.977l.079.043a.406.406,0,0,1-.057.083c-.006.005-.061-.024-.059-.032A.388.388,0,0,1,3644.6,970.977Z" transform="translate(-3634.085 -957.39)" fill="#969130"/>
          </g>
        </g>
      </g>
    </g>
    <g id="Group_89812" data-name="Group 89812" transform="translate(231 30.923)">
      <g id="Rectangle_11730-2" data-name="Rectangle 11730" transform="translate(269 363.077)" fill="#fff" stroke="#1d2c63" stroke-width="1">
        <rect width="180" height="256" rx="12" stroke="none"/>
        <rect x="0.5" y="0.5" width="179" height="255" rx="11.5" fill="none"/>
      </g>
      <text id="Addiction_Support" data-name="Addiction Support" transform="translate(309 531.077)" fill="#1d2c63" font-size="12" font-family="Lato-Bold, Lato" font-weight="700" letter-spacing="0.016em"><tspan x="0" y="0">Addiction Support</tspan></text>
      <g id="Group_89813" data-name="Group 89813" transform="translate(301 380.072)">
        <rect id="Rectangle_11741" data-name="Rectangle 11741" width="180" height="140" rx="12" transform="translate(-32 -16.995)" fill="#faabac"/>
        <path id="Path_291625" data-name="Path 291625" d="M202.707,315.243l22.5-22.5a37.65,37.65,0,0,1,53.092,0l22.5,22.5a37.649,37.649,0,0,1,0,53.092l-22.5,22.5a37.649,37.649,0,0,1-53.092,0l-22.5-22.5a37.649,37.649,0,0,1,0-53.092Zm24.015-20.99-22.5,22.5a35.51,35.51,0,0,0,0,50.067l22.5,22.5a35.511,35.511,0,0,0,50.068,0l22.5-22.5a35.51,35.51,0,0,0,0-50.067l-22.5-22.5a35.511,35.511,0,0,0-50.068,0Z" transform="translate(-191.755 -287.789)" fill="#d57e7f"/>
        <path id="Path_291626" data-name="Path 291626" d="M234.47,305.85A50.92,50.92,0,1,1,215.816,375.4,50.919,50.919,0,0,1,234.47,305.85Zm11.441,19.826a28.03,28.03,0,1,1-10.268,38.288,28.029,28.029,0,0,1,10.268-38.288Z" transform="translate(-199.92 -295.954)" fill="#e08c8d"/>
        <path id="Path_291627" data-name="Path 291627" d="M241.863,342.168a27.959,27.959,0,0,1,10.289-10.277l-11.466-19.87A50.794,50.794,0,0,0,222,330.692l19.867,11.476Z" transform="translate(-206.08 -302.109)" fill="#fff"/>
        <path id="Path_291628" data-name="Path 291628" d="M342.933,422.7a27.962,27.962,0,0,1-10.288,10.277l11.466,19.87A50.814,50.814,0,0,0,362.8,434.18L342.933,422.7Z" transform="translate(-258.717 -354.761)" fill="#fff"/>
        <path id="Path_291629" data-name="Path 291629" d="M252.134,432.967a27.963,27.963,0,0,1-10.278-10.288l-19.869,11.465a50.8,50.8,0,0,0,18.671,18.691l11.477-19.867Z" transform="translate(-206.075 -354.75)" fill="#fff"/>
        <path id="Path_291630" data-name="Path 291630" d="M332.67,331.9a27.957,27.957,0,0,1,10.277,10.288l19.869-11.465a50.793,50.793,0,0,0-18.669-18.691L332.67,331.9Z" transform="translate(-258.728 -302.113)" fill="#fff"/>
        <path id="Path_291631" data-name="Path 291631" d="M227.454,323.243l5.459-5.482a1.2,1.2,0,0,1,1.7,0l.567.565a1.2,1.2,0,0,1,0,1.7l-5.459,5.482a1.2,1.2,0,0,1-1.7,0l-.567-.565a1.2,1.2,0,0,1,0-1.7Z" transform="translate(-208.537 -304.699)" fill="#dee2e5"/>
        <path id="Path_291632" data-name="Path 291632" d="M233.587,467.3l-5.511-5.431a1.2,1.2,0,0,1-.012-1.7l.562-.571a1.2,1.2,0,0,1,1.7-.012l5.511,5.432a1.2,1.2,0,0,1,.012,1.7l-.562.57a1.2,1.2,0,0,1-1.7.012Z" transform="translate(-208.829 -372.035)" fill="#dee2e5"/>
        <path id="Path_291633" data-name="Path 291633" d="M376.134,461.979l-5.518,5.424a1.2,1.2,0,0,1-1.7-.015l-.561-.571a1.2,1.2,0,0,1,.015-1.7l5.518-5.424a1.2,1.2,0,0,1,1.7.015l.562.571a1.2,1.2,0,0,1-.015,1.7Z" transform="translate(-275.433 -372.085)" fill="#dee2e5"/>
        <path id="Path_291634" data-name="Path 291634" d="M372.412,318.621l5.389,5.551a1.206,1.206,0,0,1-.025,1.7l-.574.557a1.2,1.2,0,0,1-1.7-.025l-5.389-5.551a1.2,1.2,0,0,1,.025-1.7l.574-.558a1.2,1.2,0,0,1,1.7.025Z" transform="translate(-276.269 -305.102)" fill="#dee2e5"/>
      </g>
      <g id="Group_7311" data-name="Group 7311" transform="translate(347.652 550.077)">
        <g id="Group_7310" data-name="Group 7310" transform="translate(0 0)" clip-path="url(#clip-path-5)">
          <path id="Path_15390" data-name="Path 15390" d="M35.674,11.836A11.841,11.841,0,1,1,23.833,0,11.841,11.841,0,0,1,35.674,11.836" transform="translate(-11.992 0.005)" fill="#c2e2f2"/>
          <g id="Group_42492" data-name="Group 42492" transform="translate(4.267 4.345)">
            <g id="Group_42451-3" data-name="Group 42451-3" transform="translate(0.761 12.382)">
              <rect id="Rectangle_6797-3" data-name="Rectangle 6797-3" width="1.262" height="14.451" transform="translate(6.2 0)" fill="#9ad2b3"/>
              <path id="Path_18105-3" data-name="Path 18105-3" d="M3271.6,6987.531c2.623,0,4.75,1.169,4.75,3.792,0-2.623,2.127-3.792,4.75-3.792h1.73a.387.387,0,0,1,.386.384.213.213,0,0,1,0,.031,4.751,4.751,0,0,1-4.732,4.335h-4.266a4.751,4.751,0,0,1-4.732-4.335.389.389,0,0,1,.355-.415h1.761Z" transform="translate(-3269.479 -6977.83)" fill="#77b274"/>
            </g>
            <g id="Group_42478" data-name="Group 42478" transform="translate(0)">
              <g id="Group_42462" data-name="Group 42462">
                <path id="Path_18119" data-name="Path 18119" d="M3256.874,6696.04a2.081,2.081,0,0,1,2.082-2.082c.214,0,.289-.18.137-.332a2.081,2.081,0,0,1,2.943-2.943c.151.153.331.078.331-.136a2.081,2.081,0,0,1,4.163,0c0,.214.179.289.331.136a2.081,2.081,0,0,1,2.943,2.943c-.15.151-.077.332.137.332a2.082,2.082,0,0,1,0,4.163c-.215,0-.288.178-.137.33a2.081,2.081,0,1,1-2.943,2.944c-.15-.152-.331-.078-.331.136a2.081,2.081,0,1,1-4.163,0c0-.214-.179-.288-.331-.136a2.081,2.081,0,0,1-2.943-2.944c.15-.15.077-.33-.137-.33A2.082,2.082,0,0,1,3256.874,6696.04Z" transform="translate(-3256.874 -6688.466)" fill="#fff"/>
              </g>
              <g id="Group_42477" data-name="Group 42477" transform="translate(4.078 4.08)">
                <g id="Group_42469" data-name="Group 42469">
                  <g id="Group_42465" data-name="Group 42465" transform="translate(2.993)">
                    <g id="Group_42463" data-name="Group 42463">
                      <path id="Path_18120" data-name="Path 18120" d="M3374.529,6757.06a.5.5,0,0,0,.353-.146.5.5,0,0,0,.148-.356.5.5,0,0,0-.148-.356.329.329,0,0,0-.074-.063.752.752,0,0,0-.087-.047.449.449,0,0,0-.094-.027.522.522,0,0,0-.2,0,.651.651,0,0,0-.094.027.779.779,0,0,0-.088.047.487.487,0,0,0-.077.063.518.518,0,0,0-.144.356.51.51,0,0,0,.144.356A.52.52,0,0,0,3374.529,6757.06Z" transform="translate(-3374.025 -6756.053)" fill="#f37e87"/>
                    </g>
                    <g id="Group_42464" data-name="Group 42464" transform="translate(0 5.983)">
                      <path id="Path_18121" data-name="Path 18121" d="M3374.532,6856.171a.448.448,0,0,0,.192-.042.492.492,0,0,0,.313-.462.447.447,0,0,0-.01-.1.512.512,0,0,0-.03-.1.41.41,0,0,0-.047-.085.5.5,0,0,0-.06-.077.519.519,0,0,0-.457-.138.6.6,0,0,0-.094.03.4.4,0,0,0-.088.042.7.7,0,0,0-.077.065.515.515,0,0,0-.145.356.5.5,0,0,0,.145.355.485.485,0,0,0,.165.107A.475.475,0,0,0,3374.532,6856.171Z" transform="translate(-3374.029 -6855.164)" fill="#f37e87"/>
                    </g>
                  </g>
                  <g id="Group_42468" data-name="Group 42468" transform="translate(0 2.989)">
                    <g id="Group_42466" data-name="Group 42466" transform="translate(0 0.001)">
                      <path id="Path_18122" data-name="Path 18122" d="M3324.944,6806.592a.5.5,0,0,0,.191-.037.531.531,0,0,0,.165-.11.547.547,0,0,0,.111-.162.536.536,0,0,0,.037-.193.473.473,0,0,0-.01-.1.507.507,0,0,0-.03-.1.44.44,0,0,0-.044-.086.518.518,0,0,0-.064-.076.5.5,0,0,0-.454-.138.56.56,0,0,0-.1.03.267.267,0,0,0-.084.048.293.293,0,0,0-.077.06.509.509,0,0,0-.147.356.547.547,0,0,0,.037.193.553.553,0,0,0,.111.162.51.51,0,0,0,.165.11A.5.5,0,0,0,3324.944,6806.592Z" transform="translate(-3324.44 -6805.585)" fill="#f37e87"/>
                    </g>
                    <g id="Group_42467" data-name="Group 42467" transform="translate(5.981)">
                      <path id="Path_18123" data-name="Path 18123" d="M3424.03,6806.581a.524.524,0,0,0,.194-.037.539.539,0,0,0,.161-.111.508.508,0,0,0,.11-.161.53.53,0,0,0,.038-.2.45.45,0,0,0-.01-.1.391.391,0,0,0-.027-.094.681.681,0,0,0-.047-.087.463.463,0,0,0-.064-.078.384.384,0,0,0-.077-.06.3.3,0,0,0-.084-.047.485.485,0,0,0-.094-.029.454.454,0,0,0-.2,0,.49.49,0,0,0-.094.029.328.328,0,0,0-.087.047.519.519,0,0,0-.078.06.512.512,0,0,0-.147.356.5.5,0,0,0,.147.356A.5.5,0,0,0,3424.03,6806.581Z" transform="translate(-3423.525 -6805.573)" fill="#f37e87"/>
                    </g>
                  </g>
                </g>
                <g id="Group_42476" data-name="Group 42476" transform="translate(0.877 0.874)">
                  <g id="Group_42472" data-name="Group 42472" transform="translate(0 0.001)">
                    <g id="Group_42470" data-name="Group 42470">
                      <path id="Path_18124" data-name="Path 18124" d="M3339.477,6771.55a.5.5,0,0,0,.356-.147.511.511,0,0,0,.147-.356.5.5,0,0,0-.01-.1.541.541,0,0,0-.03-.095.338.338,0,0,0-.047-.087.443.443,0,0,0-.06-.077.511.511,0,0,0-.457-.138.527.527,0,0,0-.094.03.412.412,0,0,0-.083.047.334.334,0,0,0-.078.06.747.747,0,0,0-.064.077.8.8,0,0,0-.047.087.542.542,0,0,0-.027.094.53.53,0,0,0-.01.1.5.5,0,0,0,.148.356A.5.5,0,0,0,3339.477,6771.55Z" transform="translate(-3338.973 -6770.54)" fill="#f37e87"/>
                    </g>
                    <g id="Group_42471" data-name="Group 42471" transform="translate(4.229 4.231)">
                      <path id="Path_18125" data-name="Path 18125" d="M3409.534,6841.641a.507.507,0,0,0,.356-.148.518.518,0,0,0,.111-.165.461.461,0,0,0,.04-.191.515.515,0,0,0-.15-.357.767.767,0,0,0-.074-.063.5.5,0,0,0-.087-.044.488.488,0,0,0-.094-.029.5.5,0,0,0-.6.494.5.5,0,0,0,.148.355.543.543,0,0,0,.165.112A.56.56,0,0,0,3409.534,6841.641Z" transform="translate(-3409.031 -6840.633)" fill="#f37e87"/>
                    </g>
                  </g>
                  <g id="Group_42475" data-name="Group 42475">
                    <g id="Group_42473" data-name="Group 42473" transform="translate(0 4.231)">
                      <path id="Path_18126" data-name="Path 18126" d="M3339.476,6841.636a.5.5,0,0,0,.5-.5.513.513,0,0,0-.147-.357.96.96,0,0,0-.078-.065.5.5,0,0,0-.087-.042.573.573,0,0,0-.094-.03.5.5,0,0,0-.454.137.511.511,0,0,0-.148.356.494.494,0,0,0,.148.357A.5.5,0,0,0,3339.476,6841.636Z" transform="translate(-3338.972 -6840.63)" fill="#f37e87"/>
                    </g>
                    <g id="Group_42474" data-name="Group 42474" transform="translate(4.227)">
                      <path id="Path_18127" data-name="Path 18127" d="M3409.511,6771.539a.506.506,0,0,0,.356-.147.5.5,0,0,0,.147-.356c0-.034,0-.067-.006-.1a.488.488,0,0,0-.03-.094.423.423,0,0,0-.047-.088.454.454,0,0,0-.064-.077.355.355,0,0,0-.074-.061.429.429,0,0,0-.087-.046.448.448,0,0,0-.094-.031.482.482,0,0,0-.2,0,.446.446,0,0,0-.094.031.41.41,0,0,0-.087.046.543.543,0,0,0-.077.061.459.459,0,0,0-.061.077.432.432,0,0,0-.047.088.49.49,0,0,0-.041.194.5.5,0,0,0,.505.5Z" transform="translate(-3409.006 -6770.528)" fill="#f37e87"/>
                    </g>
                  </g>
                </g>
              </g>
              <g id="Group_42496" data-name="Group 42496" transform="translate(6.399 6.257)">
                <path id="Path_18141" data-name="Path 18141" d="M3364.147,6794.644a1.192,1.192,0,0,0,.891-.37,1.313,1.313,0,0,0,.278-.4,1.358,1.358,0,0,0,.093-.488,1.2,1.2,0,0,0-.025-.244,1.05,1.05,0,0,0-.068-.236,1.928,1.928,0,0,0-.117-.219,1.132,1.132,0,0,0-.16-.192.848.848,0,0,0-.193-.151.752.752,0,0,0-.21-.119,1.485,1.485,0,0,0-.236-.076,1.231,1.231,0,0,0-.5,0,1.2,1.2,0,0,0-.236.076.792.792,0,0,0-.219.119,1.175,1.175,0,0,0-.193.151,1.281,1.281,0,0,0-.37.891,1.265,1.265,0,0,0,.37.892A1.237,1.237,0,0,0,3364.147,6794.644Z" transform="translate(-3362.884 -6792.12)" fill="#f37e87"/>
              </g>
            </g>
          </g>
        </g>
      </g>
      <g id="Group_7318-4" data-name="Group 7318" transform="translate(303.381 550.077)" clip-path="url(#clip-path-6)">
        <path id="Path_15465-4" data-name="Path 15465" d="M35.674,712.1a11.841,11.841,0,1,1-11.841-11.841A11.841,11.841,0,0,1,35.674,712.1" transform="translate(-11.992 -700.263)" fill="#f4d0d0"/>
        <g id="Group_42497" data-name="Group 42497" transform="translate(4.859 4.884)">
          <g id="Group_42451" data-name="Group 42451" transform="translate(0.742 11.397)">
            <rect id="Rectangle_6797" data-name="Rectangle 6797" width="1.184" height="21.314" transform="translate(5.883)" fill="#9ad2b3"/>
            <path id="Path_18105" data-name="Path 18105" d="M157.818-3497.053c-2.461,0-4.456,1.1-4.456,3.558,0-2.46-1.995-3.558-4.455-3.558h-1.623a.361.361,0,0,0-.363.36c0,.009,0,.019,0,.029a4.456,4.456,0,0,0,4.439,4.067h4a4.456,4.456,0,0,0,4.439-4.067.361.361,0,0,0-.333-.387h-1.652Z" transform="translate(-146.921 3505.77)" fill="#77b274"/>
          </g>
          <g id="Group_42457" data-name="Group 42457">
            <path id="Path_18106" data-name="Path 18106" d="M157.535-3557.919a5.226,5.226,0,0,0-1.874-.439,5.213,5.213,0,0,0,1.737-.829,1.413,1.413,0,0,0,.306-1.975,1.409,1.409,0,0,0-1.055-.576,1.41,1.41,0,0,0-.23-1.18,1.413,1.413,0,0,0-1.975-.306,5.207,5.207,0,0,0-1.317,1.4,5.226,5.226,0,0,0,.15-1.919,1.413,1.413,0,0,0-1.557-1.253,1.412,1.412,0,0,0-1.026.625,1.407,1.407,0,0,0-1.136-.391h0a1.413,1.413,0,0,0-1.253,1.557,5.224,5.224,0,0,0,.558,1.842,5.22,5.22,0,0,0-1.587-1.089,1.413,1.413,0,0,0-1.864.722,1.411,1.411,0,0,0,.028,1.2,1.411,1.411,0,0,0-.907.789h0a1.413,1.413,0,0,0,.722,1.863,5.212,5.212,0,0,0,1.874.439,5.231,5.231,0,0,0-1.737.829,1.413,1.413,0,0,0-.457,1.715,1.4,1.4,0,0,0,.15.26c.017.023.035.046.053.067a1.409,1.409,0,0,0,1,.509,1.411,1.411,0,0,0,.23,1.18,1.413,1.413,0,0,0,1.975.306,5.224,5.224,0,0,0,1.317-1.4,5.226,5.226,0,0,0-.15,1.919,1.414,1.414,0,0,0,1.557,1.252,1.408,1.408,0,0,0,1.026-.626,1.407,1.407,0,0,0,1.136.391h0a1.413,1.413,0,0,0,1.253-1.557,5.225,5.225,0,0,0-.558-1.843,5.217,5.217,0,0,0,1.587,1.09,1.414,1.414,0,0,0,1.864-.722,1.411,1.411,0,0,0-.028-1.2,1.411,1.411,0,0,0,.907-.789A1.412,1.412,0,0,0,157.535-3557.919Z" transform="translate(-144.414 3565)" fill="#f37e87"/>
            <g id="Group_42455" data-name="Group 42455" transform="translate(2.525 2.296)">
              <path id="Path_18107" data-name="Path 18107" d="M161.265-3550.267l-3.364-1.485.4,3.657a.423.423,0,0,1-.374.465h0a.422.422,0,0,1-.466-.375l-.4-3.656-2.966,2.17a.423.423,0,0,1-.59-.092v0a.422.422,0,0,1,.091-.59l2.969-2.169-3.365-1.487a.422.422,0,0,1-.215-.556h0a.422.422,0,0,1,.557-.216l3.364,1.484-.4-3.656a.423.423,0,0,1,.374-.466h0a.422.422,0,0,1,.466.374l.4,3.656,2.966-2.169a.421.421,0,0,1,.59.092v0a.421.421,0,0,1-.091.59l-2.969,2.17,3.365,1.488a.422.422,0,0,1,.216.556h0A.423.423,0,0,1,161.265-3550.267Z" transform="translate(-152.943 3557.244)" fill="#936067"/>
            </g>
            <g id="Group_42456" data-name="Group 42456" transform="translate(5.206 5.329)">
              <circle id="Ellipse_1330" data-name="Ellipse 1330" cx="1.776" cy="1.776" r="1.776" fill="#fcc"/>
            </g>
          </g>
        </g>
      </g>
    </g>
  </g>
</svg>
