<svg id="Layer_1" data-name="Layer 1" xmlns="http://www.w3.org/2000/svg" width="47.25" height="49.86757" viewBox="0 0 47.25 49.86757"><defs><style>.cls-1,.cls-2{fill:none;stroke-miterlimit:10;stroke-width:1.25px;}.cls-1{stroke:#544192;}.cls-2{stroke:#3f3f49;}</style></defs><title>forums</title><circle class="cls-1" cx="9.28821" cy="38.65133" r="1.75979"/><line class="cls-2" x1="13.31591" y1="38.65133" x2="30.07245" y2="38.65133"/><path class="cls-2" d="M5.39706,33.15931A1.19826,1.19826,0,0,0,4.1988,34.35757v11.4882l3.08575-1.90212h25.484a1.19826,1.19826,0,0,0,1.19826-1.19826V34.35757a1.19826,1.19826,0,0,0-1.19826-1.19826Z"/><circle class="cls-1" cx="8.06499" cy="8.68235" r="1.75979"/><line class="cls-2" x1="12.09269" y1="8.68235" x2="35.41855" y2="8.68235"/><path class="cls-2" d="M4.57326,3.52734A1.19826,1.19826,0,0,0,3.375,4.7256V16.2138l3.08575-1.90212H37.5254a1.19826,1.19826,0,0,0,1.19826-1.19826V4.7256A1.19826,1.19826,0,0,0,37.5254,3.52734Z"/><circle class="cls-1" cx="13.21634" cy="24.10243" r="1.75979"/><line class="cls-2" x1="17.24403" y1="22.34263" x2="40.56989" y2="22.34263"/><line class="cls-2" x1="17.24403" y1="25.795" x2="30.07245" y2="25.795"/><path class="cls-2" d="M42.67674,17.18763A1.19826,1.19826,0,0,1,43.875,18.38589V32.23565l-3.08575-1.90212H9.7246a1.19826,1.19826,0,0,1-1.19826-1.19826V18.38589A1.19826,1.19826,0,0,1,9.7246,17.18763Z"/></svg>