<svg id="Layer_1" data-name="Layer 1" xmlns="http://www.w3.org/2000/svg" xmlns:xlink="http://www.w3.org/1999/xlink" width="41" height="49" viewBox="0 0 41 49"><defs><style>.cls-1,.cls-2,.cls-3,.cls-5{fill:none;stroke-width:1.25px;}.cls-1,.cls-2,.cls-3{stroke:#3f3f49;}.cls-1,.cls-3{stroke-linejoin:round;}.cls-2,.cls-5{stroke-miterlimit:10;}.cls-3{stroke-linecap:round;}.cls-4{clip-path:url(#clip-path);}.cls-5{stroke:#544192;}</style><clipPath id="clip-path"><path class="cls-1" d="M26.18778,37.00477a1.7473,1.7473,0,0,1-1.778-1.77018L24.39137,26.893l-8.52841.01882.01841,8.34162a1.7741,1.7741,0,0,1-3.54819.00783L12.292,16.61711a1.77438,1.77438,0,0,1,3.54819-.00783l.0149,6.75431,8.52841-.01882-.0149-6.75431a1.77438,1.77438,0,0,1,3.54819-.00783L27.958,35.22676A1.74751,1.74751,0,0,1,26.18778,37.00477Z"/></clipPath></defs><title>Pages</title><path class="cls-2" d="M32.75518,45.42791H7.49482a4.416,4.416,0,0,1-4.416-4.416V8.86306a4.416,4.416,0,0,1,4.416-4.416H29.3486l7.47229,7.47229.35026,29.09256A4.416,4.416,0,0,1,32.75518,45.42791Z"/><path class="cls-3" d="M36.81116,11.91938H31.64649a2.30762,2.30762,0,0,1-2.30762-2.30762V4.44709Z"/><g class="cls-4"><line class="cls-5" x1="-15.02691" y1="32.68014" x2="13.25736" y2="60.96441"/><line class="cls-5" x1="-13.6127" y1="31.26593" x2="14.67157" y2="59.5502"/><line class="cls-5" x1="-12.19848" y1="29.85171" x2="16.08579" y2="58.13598"/><line class="cls-5" x1="-10.78427" y1="28.4375" x2="17.5" y2="56.72177"/><line class="cls-5" x1="-9.37006" y1="27.02329" x2="18.91421" y2="55.30756"/><line class="cls-5" x1="-7.95584" y1="25.60907" x2="20.32843" y2="53.89334"/><line class="cls-5" x1="-6.54163" y1="24.19486" x2="21.74264" y2="52.47913"/><line class="cls-5" x1="-5.12742" y1="22.78065" x2="23.15685" y2="51.06492"/><line class="cls-5" x1="-3.7132" y1="21.36643" x2="24.57107" y2="49.6507"/><line class="cls-5" x1="-2.29899" y1="19.95222" x2="25.98528" y2="48.23649"/><line class="cls-5" x1="-0.88478" y1="18.53801" x2="27.39949" y2="46.82228"/><line class="cls-5" x1="0.52944" y1="17.12379" x2="28.81371" y2="45.40806"/><line class="cls-5" x1="1.94365" y1="15.70958" x2="30.22792" y2="43.99385"/><line class="cls-5" x1="3.35786" y1="14.29536" x2="31.64214" y2="42.57964"/><line class="cls-5" x1="4.77208" y1="12.88115" x2="33.05635" y2="41.16542"/><line class="cls-5" x1="6.18629" y1="11.46694" x2="34.47056" y2="39.75121"/><line class="cls-5" x1="7.60051" y1="10.05272" x2="35.88478" y2="38.33699"/><line class="cls-5" x1="9.01472" y1="8.63851" x2="37.29899" y2="36.92278"/><line class="cls-5" x1="10.42893" y1="7.2243" x2="38.7132" y2="35.50857"/><line class="cls-5" x1="11.84315" y1="5.81008" x2="40.12742" y2="34.09435"/><line class="cls-5" x1="13.25736" y1="4.39587" x2="41.54163" y2="32.68014"/><line class="cls-5" x1="14.67157" y1="2.98166" x2="42.95584" y2="31.26593"/><line class="cls-5" x1="16.08579" y1="1.56744" x2="44.37006" y2="29.85171"/><line class="cls-5" x1="17.5" y1="0.15323" x2="45.78427" y2="28.4375"/><line class="cls-5" x1="18.91421" y1="-1.26098" x2="47.19848" y2="27.02329"/><line class="cls-5" x1="20.32843" y1="-2.6752" x2="48.6127" y2="25.60907"/><line class="cls-5" x1="21.74264" y1="-4.08941" x2="50.02691" y2="24.19486"/></g><path class="cls-1" d="M26.18778,37.00477a1.7473,1.7473,0,0,1-1.778-1.77018L24.39137,26.893l-8.52841.01882.01841,8.34162a1.7741,1.7741,0,0,1-3.54819.00783L12.292,16.61711a1.77438,1.77438,0,0,1,3.54819-.00783l.0149,6.75431,8.52841-.01882-.0149-6.75431a1.77438,1.77438,0,0,1,3.54819-.00783L27.958,35.22676A1.74751,1.74751,0,0,1,26.18778,37.00477Z"/></svg>