<svg id="Layer_1" data-name="Layer 1" xmlns="http://www.w3.org/2000/svg" viewBox="0 0 28 22"><defs><style>.cls-1{fill:#232f5e;}.cls-2{fill:#006748;}.cls-3{fill:#fff;}</style></defs><title>Artboard 1</title><rect class="cls-1" x="0.5" y="5.8" width="27" height="10.4"/><path class="cls-2" d="M2.5,2h23a2,2,0,0,1,2,2V5.2H.5V4A2,2,0,0,1,2.5,2Z"/><path class="cls-2" d="M25.5,20H2.5a2,2,0,0,1-2-2V16.9h27V18A2,2,0,0,1,25.5,20Z"/><path d="M.5,5.2h27V6H.5Z"/><path d="M27.5,16.9H.5V16h27Z"/><path class="cls-3" d="M16.9,13.9c.2-.5,1.3-2.9.7-4.6a4.76,4.76,0,0,0-3.19-2.86L14,8.3l-.37-1.85A4.76,4.76,0,0,0,10.4,9.3c-.6,1.7.5,4.3.7,4.6L9.5,15.5l2.8-1.1V10.7a1.25,1.25,0,0,1,.5-.9A1.86,1.86,0,0,1,14,9.3h0a1.58,1.58,0,0,1,1.2.5,1.43,1.43,0,0,1,.5.9v3.7l2.8,1.1Z"/><polygon class="cls-3" points="14 9.8 14.4 10.9 15.5 10.9 14.6 11.7 14.9 12.8 14 12.1 13.1 12.8 13.4 11.7 12.5 10.9 13.6 10.9 14 9.8"/></svg>