<svg id="Layer_1" data-name="Layer 1" xmlns="http://www.w3.org/2000/svg" width="51.05691" height="37.24941" viewBox="0 0 51.05691 37.24941"><defs><style>.cls-1,.cls-2{fill:none;stroke-miterlimit:10;stroke-width:1.25px;}.cls-1{stroke:#3f3f49;}.cls-2{stroke:#544192;}</style></defs><title>Website</title><rect class="cls-1" x="3.75215" y="2.90646" width="43.55262" height="31.43649" rx="2.83774" ry="2.83774"/><path class="cls-1" d="M3.75215,12.22213H47.30477a0,0,0,0,1,0,0V31.462a2.881,2.881,0,0,1-2.881,2.881H6.6331a2.881,2.881,0,0,1-2.881-2.881V12.22213A0,0,0,0,1,3.75215,12.22213Z"/><path class="cls-1" d="M11.92329,12.22213H3.75215V31.11038a3.23256,3.23256,0,0,0,3.23256,3.23256h8.96054V12.22213Z"/><circle class="cls-2" cx="42.03647" cy="7.53078" r="1.46862"/><circle class="cls-2" cx="37.00985" cy="7.53078" r="1.46862"/><circle class="cls-2" cx="32.06876" cy="7.53078" r="1.46862"/><line class="cls-2" x1="20.40346" y1="16.49941" x2="37.40346" y2="16.49941"/><line class="cls-2" x1="20.40346" y1="20.49941" x2="37.40346" y2="20.49941"/><line class="cls-2" x1="20.40346" y1="24.49941" x2="28.90346" y2="24.49941"/></svg>