<svg width="300" height="200" viewBox="0 0 120 152" fill="none" xmlns="http://www.w3.org/2000/svg">
<g clip-path="url(#clip0_252:1803)">
<path d="M120 0H0V152H120V0Z" fill="#FAD1CD"/>
<path d="M47.2915 67.5518C50.3456 74.6822 94.5836 88.4959 90.171 67.3664C88.6956 60.303 95.463 59.5165 89.8023 48.1305C87.1021 42.6994 91.8114 33.5338 80.472 30.8609C75.1655 29.6113 71.3233 21.386 61.9024 30.2221C56.8911 34.9243 47.2915 67.5518 47.2915 67.5518Z" fill="#012869"/>
<path d="M113.663 99.1816L115.014 99.6238L114.163 100.808L113.663 99.1816Z" fill="#ED715D"/>
<path d="M109.95 107.591C110.002 107.584 110.052 107.562 110.093 107.528C111.494 106.377 114.692 103.38 114.157 100.435C113.829 98.6351 112.19 97.2195 109.28 96.2279C109.207 96.205 109.129 96.2114 109.061 96.2457C108.993 96.2799 108.941 96.3394 108.917 96.4113C108.892 96.4832 108.897 96.5618 108.929 96.6304C108.962 96.699 109.02 96.7521 109.091 96.7784C111.785 97.6964 113.296 98.9614 113.583 100.539C114.064 103.181 111.044 105.991 109.723 107.078C109.674 107.118 109.64 107.173 109.625 107.235C109.61 107.297 109.616 107.361 109.642 107.419C109.667 107.477 109.711 107.525 109.766 107.556C109.822 107.587 109.886 107.599 109.948 107.59L109.95 107.591Z" fill="#ED715D"/>
<path d="M20.4092 138.273C19.7846 138.693 19.5491 150.95 19.5079 151.096C19.1923 152.198 10.2409 157.923 9.4824 158.382C8.14816 159.189 6.94182 160.191 5.9032 161.354C5.9032 161.354 6.00055 166.048 14.3024 163.929C16.4578 163.379 23.7697 161.257 27.1095 159.492C29.46 158.253 28.3479 155.37 28.124 153.058C28.0261 152.031 29.5393 142.78 29.6918 142.147C29.6977 142.146 26.8372 133.944 20.4092 138.273Z" fill="#FDB98D"/>
<path d="M38.214 153.213C38.3138 150.216 38.4681 146.902 38.5552 146.545C38.5552 146.545 36.9738 138.232 30.5449 142.561C30.0089 142.923 28.745 150.772 28.745 150.772C29.3523 152.478 29.7542 154.576 29.384 154.981C27.8082 156.702 17.4104 163.991 17.3056 164.064L17.5912 164.472C15.6236 166.768 13.4391 170.811 23.1609 168.327C25.3153 167.777 32.6282 165.655 35.968 163.89C37.9289 162.854 38.2787 161.104 38.2122 159.207L38.5344 159.186L38.214 153.213Z" fill="#FDB98D"/>
<path d="M29.063 86.2033C24.2951 115.415 52.565 142.3 73.5761 139.381C94.5873 136.461 98.9173 123.297 99.1581 123.373C104.216 124.992 101.484 107.838 99.9614 100.67C95.0186 77.3922 84.0065 59.1706 57.9912 64.3718C46.0257 66.7644 32.3354 66.1456 29.063 86.2033Z" fill="white"/>
<path d="M55.6417 55.8317L55.9092 67.0032C56.3172 70.2086 72.2636 68.9309 71.9464 65.431L71.0798 59.8684L55.6417 55.8317Z" fill="#FDB88E"/>
<path d="M57.9978 50.0868C56.9019 60.1654 64.0694 63.5983 69.7603 63.365C73.7102 63.2027 76.0791 58.5386 77.0242 56.2458L77.0364 56.2178C77.6934 54.7608 77.9867 53.166 77.891 51.5706C77.8764 51.2152 77.854 50.8548 77.8389 50.4813C77.8168 49.8785 77.8613 49.2472 77.8997 48.5217C78.0858 47.1281 77.8348 45.7111 77.1814 44.4663C75.0855 40.6549 71.501 42.8491 68.5962 36.7015C66.7299 32.7417 58.7134 43.5021 57.9978 50.0868Z" fill="#FDB88E"/>
<path d="M69.9897 63.9831C63.6527 64.3971 58.9929 59.6231 58.7966 59.4185C58.7431 59.3628 58.7139 59.2882 58.7155 59.211C58.717 59.1338 58.7492 59.0603 58.8049 59.0068C58.8606 58.9533 58.9352 58.9241 59.0124 58.9257C59.0896 58.9273 59.1631 58.9594 59.2165 59.0151C59.2628 59.0641 63.9522 63.8551 70.0675 63.3936C70.1445 63.3881 70.2206 63.4135 70.279 63.4641C70.3373 63.5147 70.3731 63.5863 70.3786 63.6634C70.3841 63.7404 70.3587 63.8165 70.3081 63.8748C70.2575 63.9332 70.1857 63.969 70.1087 63.9745L69.9897 63.9831Z" fill="#ED715D"/>
<path d="M65.9172 52.7769C65.9789 53.1962 65.9276 53.6244 65.7685 54.0172C65.6093 54.41 65.348 54.7531 65.0119 55.0112C64.6757 55.2693 64.2767 55.4329 63.8561 55.4852C63.4355 55.5374 63.0087 55.4764 62.6196 55.3085C62.3443 55.1988 62.0942 55.0342 61.8846 54.8248C61.6749 54.6154 61.5102 54.3655 61.4002 54.0903C61.2279 53.6953 61.166 53.261 61.2212 52.8336C61.2765 52.4062 61.4468 52.0018 61.7139 51.6636C61.9811 51.3254 62.3349 51.0661 62.7379 50.9133C63.1409 50.7606 63.5778 50.7201 64.002 50.7962C64.4901 50.8804 64.9387 51.1177 65.283 51.4737C65.6274 51.8298 65.8495 52.2862 65.9172 52.7769Z" fill="#ED715D"/>
<path d="M75.2407 53.9225C75.2408 54.4508 75.4177 54.9639 75.7432 55.38C76.0687 55.7962 76.524 56.0915 77.0367 56.2189C77.6937 54.7619 77.987 53.1671 77.8913 51.5717C77.7962 51.5601 77.7006 51.554 77.6049 51.5534C76.9773 51.5541 76.3756 51.8041 75.9323 52.2484C75.4889 52.6927 75.2401 53.2949 75.2407 53.9225Z" fill="#ED715D"/>
<path d="M74.5164 50.1434C75.017 50.2422 75.5341 50.2189 76.0238 50.0751C76.5134 49.9314 76.9611 49.6717 77.3289 49.318C77.3742 49.2647 77.3964 49.1957 77.3908 49.126C77.3852 49.0564 77.3521 48.9918 77.2989 48.9465C77.2457 48.9012 77.1766 48.8789 77.107 48.8846C77.0373 48.8902 76.9727 48.9232 76.9274 48.9765C76.8797 49.0317 75.8189 50.1997 73.3678 49.3283C73.3352 49.3167 73.3006 49.3116 73.2661 49.3134C73.2315 49.3152 73.1976 49.3237 73.1664 49.3386C73.1351 49.3534 73.1071 49.3743 73.0839 49.4C73.0607 49.4256 73.0428 49.4556 73.0312 49.4882C73.0196 49.5208 73.0146 49.5554 73.0164 49.5899C73.0181 49.6245 73.0266 49.6583 73.0415 49.6896C73.0563 49.7208 73.0772 49.7489 73.1029 49.772C73.1286 49.7952 73.1585 49.8131 73.1911 49.8247C73.6196 49.9803 74.0641 50.0872 74.5164 50.1434Z" fill="#002869"/>
<path d="M66.1141 50.0318C66.8363 50.0818 67.5591 49.9454 68.2134 49.6357C68.2751 49.6031 68.3213 49.5473 68.3418 49.4806C68.3624 49.4139 68.3556 49.3417 68.323 49.28C68.2904 49.2183 68.2345 49.1721 68.1678 49.1516C68.101 49.131 68.029 49.1378 67.9673 49.1705C67.3098 49.4737 66.579 49.5818 65.8619 49.4817C65.1448 49.3816 64.4716 49.0776 63.9223 48.6059C63.8954 48.5842 63.8645 48.5681 63.8313 48.5583C63.7982 48.5486 63.7634 48.5455 63.7291 48.5492C63.6947 48.5529 63.6614 48.5633 63.6311 48.5799C63.6007 48.5965 63.574 48.6189 63.5523 48.6458C63.5306 48.6727 63.5144 48.7037 63.5047 48.7368C63.495 48.77 63.4918 48.8047 63.4955 48.8391C63.4992 48.8734 63.5097 48.9067 63.5263 48.9371C63.5429 48.9674 63.5652 48.9941 63.5921 49.0158C64.3051 49.6111 65.1876 49.9667 66.1141 50.0318Z" fill="#002869"/>
<path d="M70.8638 55.3868C71.1705 55.4243 71.4815 55.3902 71.7728 55.2873C71.9994 55.2142 72.2034 55.0838 72.3649 54.9088C72.5264 54.7338 72.64 54.5201 72.6947 54.2883C72.7166 54.0023 72.6767 53.7149 72.5777 53.4457C72.4787 53.1764 72.323 52.9317 72.121 52.7279C71.9441 52.5006 71.7905 52.2559 71.6629 51.9976C71.4105 51.2558 71.2833 50.4771 71.2866 49.6936C71.2869 49.6238 71.2595 49.5566 71.2104 49.507C71.1613 49.4574 71.0946 49.4293 71.0248 49.4289C70.9549 49.4285 70.8879 49.4559 70.8382 49.5051C70.7886 49.5542 70.7604 49.621 70.76 49.6908C70.7543 50.5487 70.8967 51.4012 71.1809 52.2107C71.3225 52.5031 71.4945 52.7799 71.6939 53.0364C71.9971 53.4553 72.2581 53.8175 72.1807 54.1797C72.1434 54.3239 72.0698 54.4561 71.9671 54.5639C71.8644 54.6716 71.7358 54.7513 71.5936 54.7955C71.376 54.873 71.143 54.8973 70.9141 54.8662C70.6852 54.8351 70.467 54.7496 70.278 54.6168C70.2507 54.5956 70.2196 54.5799 70.1863 54.5707C70.153 54.5616 70.1182 54.559 70.0839 54.5632C70.0496 54.5675 70.0164 54.5785 69.9864 54.5956C69.9564 54.6126 69.93 54.6354 69.9088 54.6627C69.8876 54.6899 69.8718 54.7211 69.8627 54.7544C69.8535 54.7877 69.851 54.8225 69.8552 54.8568C69.8595 54.8911 69.8705 54.9241 69.8875 54.9542C69.9046 54.9842 69.9274 55.0106 69.9546 55.0318C70.2203 55.2298 70.5344 55.3524 70.8638 55.3868Z" fill="#ED715D"/>
<path d="M73.2738 32.9369C73.2738 32.9369 60.1919 15.9755 45.7089 32.3071C40.0664 38.6693 36.5331 38.9781 35.464 43.4786C34.8946 45.8934 35.9611 51.3268 34.4844 55.2909C29.7147 68.1216 38.4656 64.7721 37.9765 74.3908C37.4402 85.0239 48.0061 77.8537 50.4361 90.8116C61.1478 82.8533 50.4458 72.5151 55.0917 69.0418C63.4511 62.7915 59.4064 57.715 58.9127 52.399C58.8767 52.0133 58.8256 51.6216 58.7796 51.2221C58.7029 49.9915 58.9419 48.7618 59.4741 47.6497C62.1629 41.2017 71.9324 44.8758 71.3036 36.414L73.2738 32.9369Z" fill="#012869"/>
<path d="M55.0089 80.5867C55.3191 80.3148 55.9011 80.3532 56.6127 81.3711C56.5554 81.2546 56.5248 81.1268 56.5233 80.997C56.5217 80.8672 56.5492 80.7387 56.6037 80.6209C56.6582 80.5031 56.7383 80.3989 56.8382 80.3161C56.9381 80.2332 57.0553 80.1738 57.1812 80.142C58.1726 80.0108 60.4674 83.464 61.6598 84.6263C62.6546 85.5973 63.9609 86.8508 64.5996 86.7468C65.7507 85.9196 63.0793 80.8228 64.7135 80.4436C65.2083 80.3287 65.9769 81.5728 66.9804 83.8342C67.741 85.3412 68.5872 86.8036 69.5146 88.2141C70.1824 89.5441 70.4896 91.026 70.4055 92.5119C70.2708 93.6214 69.7814 94.6577 69.0103 95.4666C68.2391 96.2755 67.2273 96.8138 66.1256 97.0013C64.0554 97.166 58.8144 92.9847 56.5042 90.1627C55.9809 89.5223 52.3131 84.5919 53.3158 83.6431C53.5384 83.431 53.8924 83.4348 54.3476 83.8353C53.7119 82.6826 53.6439 82.1478 54.0595 81.7855C54.2662 81.6039 54.6024 81.6748 54.9297 81.8914C54.7905 81.6981 54.7223 81.4626 54.7367 81.2249C54.7511 80.9871 54.8473 80.7617 55.0089 80.5867Z" fill="#FDB88E"/>
<path d="M58.7215 84.5C59.2742 85.15 59.8681 85.7637 60.4995 86.3375C60.5276 86.3616 60.5602 86.38 60.5955 86.3915C60.6307 86.4031 60.6679 86.4076 60.7048 86.4048C60.7418 86.402 60.7779 86.3919 60.811 86.3752C60.8441 86.3584 60.8736 86.3353 60.8977 86.3072C60.9219 86.2791 60.9402 86.2465 60.9518 86.2113C60.9633 86.1761 60.9678 86.1389 60.965 86.1019C60.9622 86.0649 60.9522 86.0289 60.9354 85.9958C60.9187 85.9627 60.8957 85.9332 60.8675 85.909C59.5127 84.6306 58.2826 83.2261 57.1939 81.7145C57.1716 81.6849 57.1437 81.6599 57.1117 81.6411C57.0798 81.6223 57.0444 81.61 57.0077 81.6048C56.9709 81.5997 56.9335 81.6018 56.8976 81.6111C56.8617 81.6204 56.8279 81.6367 56.7983 81.659C56.7687 81.6814 56.7439 81.7093 56.7251 81.7413C56.7063 81.7732 56.6938 81.8086 56.6887 81.8453C56.6835 81.882 56.6857 81.9194 56.695 81.9554C56.7043 81.9913 56.7205 82.025 56.7428 82.0546C57.4989 83.0581 58.167 83.867 58.7215 84.5Z" fill="#EE715D"/>
<path d="M57.9019 86.1905C58.6945 87.095 59.227 87.6008 59.2375 87.6105C59.292 87.6619 59.3646 87.6895 59.4395 87.6873C59.5144 87.6851 59.5853 87.6533 59.6367 87.5988C59.6881 87.5443 59.7158 87.4716 59.7136 87.3967C59.7114 87.3219 59.6796 87.2509 59.6251 87.1995C58.0487 85.6201 56.6439 83.8783 55.4341 82.0032C55.3932 81.9405 55.3289 81.8967 55.2556 81.8813C55.1824 81.866 55.106 81.8803 55.0433 81.9213C54.9806 81.9622 54.9368 82.0264 54.9215 82.0997C54.9061 82.173 54.9205 82.2493 54.9614 82.312C55.8496 83.672 56.8322 84.968 57.9019 86.1905Z" fill="#EE715D"/>
<path d="M78.2779 120.616C78.2779 120.616 56.3204 118.303 39.5 83.0469C32.7191 68.8354 21.4578 95.9475 27.206 122.031C29.7463 133.561 36.9072 142.322 43.4992 149.484C54.8415 161.813 82.9752 162.51 78.2779 120.616Z" fill="#012869"/>
<path d="M29.3963 150.793C29.3963 150.793 57.2073 73.0868 28.8935 77.8415C8.18882 81.3179 18.6029 148.9 18.6029 148.9C18.6351 151.041 28.882 151.905 29.3963 150.793Z" fill="#012869"/>
<path d="M50.0705 129.841C50.3187 130.123 50.4459 130.491 50.4245 130.866C53.1578 138.595 57.2674 146.74 63.3484 151.991C76.5466 163.385 106.24 156.552 99.1549 123.372C82.6511 126.77 63.4179 83.4492 47.6045 80.4993C47.3093 80.4398 40.9225 77.6617 45.4692 110.185C46.3975 116.865 47.9377 123.444 50.0705 129.841Z" fill="#016099"/>
<path d="M39.6962 155.017C39.6962 155.017 44.9971 143.522 50.1982 129.507C58.127 108.143 63.4781 80.7667 44.6501 80.0783C22.4264 79.2633 27.9601 152.955 27.9601 152.955C27.8779 155.949 38.462 156.359 39.6962 155.017Z" fill="#016099"/>
<path d="M66.0756 95.6551C72.8704 104.691 70.7445 109.964 78.0712 112.424C84.4866 114.579 86.1807 122.452 97.2015 119.733C102.739 118.364 110.975 114.858 110.099 101.932C109.552 93.878 105.863 88.2345 100.091 79.2403C94.5484 70.6047 91.2993 62.2667 71.5494 62.8793L71.9464 65.4309C72.062 66.7133 69.9947 67.6966 67.3095 68.2709L73.4399 92.857C71.3004 92.6871 68.4699 92.6153 66.0756 95.6551Z" fill="white"/>
<path d="M50.0712 129.843C50.1858 130.185 50.3044 130.525 50.4253 130.868C54.6118 119.744 56.8137 107.971 56.9308 96.086C56.9311 96.0405 56.9225 95.9955 56.9053 95.9534C56.8881 95.9113 56.8628 95.8731 56.8308 95.8407C56.7988 95.8084 56.7609 95.7827 56.719 95.7651C56.6771 95.7474 56.632 95.7383 56.5866 95.738C56.5411 95.7378 56.4961 95.7465 56.454 95.7637C56.4119 95.7808 56.3736 95.8061 56.3413 95.8381C56.309 95.8701 56.2833 95.9081 56.2657 95.95C56.2481 95.9919 56.2389 96.0368 56.2387 96.0823C55.9991 107.593 53.9168 118.991 50.0712 129.843Z" fill="#002869"/>
<path d="M96.939 100.722C96.9854 100.715 97.0295 100.698 97.0675 100.671C97.1056 100.643 97.1366 100.607 97.1577 100.566C97.1789 100.524 97.1898 100.478 97.1893 100.431C97.1888 100.384 97.177 100.338 97.155 100.297C95.2711 96.7647 90.9767 96.2645 86.4309 95.736C83.2227 95.5221 80.0644 94.8309 77.0602 93.6851C77.0249 93.6699 76.987 93.6617 76.9486 93.6611C76.9101 93.6606 76.8719 93.6675 76.8361 93.6817C76.8004 93.6959 76.7678 93.7169 76.7402 93.7437C76.7126 93.7705 76.6905 93.8024 76.6753 93.8377C76.66 93.873 76.6518 93.911 76.6512 93.9494C76.6506 93.9879 76.6576 94.0261 76.6718 94.0618C76.686 94.0976 76.707 94.1302 76.7338 94.1578C76.7606 94.1854 76.7925 94.2075 76.8278 94.2227C79.8842 95.3927 83.0985 96.0982 86.3639 96.3159C90.9446 96.8486 94.9013 97.3094 96.6414 100.573C96.6698 100.625 96.7136 100.668 96.7668 100.694C96.82 100.721 96.8801 100.731 96.939 100.722Z" fill="#016099"/>
<path d="M94.6474 120.988C97.2301 120.547 99.7438 119.769 102.124 118.673C102.159 118.658 102.191 118.636 102.218 118.609C102.244 118.581 102.265 118.549 102.28 118.513C102.294 118.478 102.301 118.44 102.3 118.402C102.3 118.364 102.292 118.326 102.277 118.291C102.262 118.255 102.24 118.224 102.212 118.197C102.185 118.17 102.153 118.149 102.117 118.135C102.082 118.121 102.044 118.114 102.005 118.114C101.967 118.115 101.929 118.123 101.894 118.138C91.3483 122.67 88.4829 120.237 83.2825 115.82L82.8927 115.49C82.8636 115.465 82.8299 115.446 82.7935 115.434C82.7571 115.423 82.7188 115.418 82.6807 115.421C82.6426 115.424 82.6055 115.435 82.5715 115.452C82.5374 115.47 82.5072 115.494 82.4824 115.523C82.4577 115.552 82.4389 115.586 82.4272 115.622C82.4155 115.659 82.411 115.697 82.4141 115.735C82.4172 115.773 82.4278 115.81 82.4453 115.844C82.4627 115.878 82.4867 115.909 82.5158 115.933L82.9046 116.263C86.6654 119.455 89.3475 121.733 94.6474 120.988Z" fill="#016099"/>
<path d="M103.387 79.7142L104.669 80.4741L103.614 81.3293L103.387 79.7142Z" fill="#ED715D"/>
<path d="M89.8438 87.2343L90.8649 86.2435L91.5169 87.5485L89.8438 87.2343Z" fill="#ED715D"/>
<path d="M77.683 119.577L76.3958 120.183L76.2028 118.737L77.683 119.577Z" fill="#ED715D"/>
<path d="M61.246 104.943L62.5278 104.327L62.7307 105.771L61.246 104.943Z" fill="#ED715D"/>
<path d="M38.1622 97.1808L36.7398 97.1979L37.2203 95.7166L38.1622 97.1808Z" fill="#ED715D"/>
<path d="M13.3576 99.8306L13.2092 98.4155L14.7314 98.756L13.3576 99.8306Z" fill="#ED715D"/>
<path d="M18.8902 119.429L20.0461 118.6L20.5032 120.091L18.8902 119.429Z" fill="#ED715D"/>
<path d="M38.7476 151.068L39.8018 150.112L40.4244 151.539L38.7476 151.068Z" fill="#ED715D"/>
<path d="M24.8297 141.989L23.8111 142.983L23.1348 141.576L24.8297 141.989Z" fill="#ED715D"/>
<path d="M13.2298 130.48L13.2238 129.058L14.7066 129.549L13.2298 130.48Z" fill="#ED715D"/>
<path d="M63.5514 126.87L64.8246 126.237L65.0418 127.782L63.5514 126.87Z" fill="#ED715D"/>
<path d="M81.1126 145.59L79.7409 145.969L79.825 144.411L81.1126 145.59Z" fill="#ED715D"/>
<path d="M102.264 146.558L101.445 145.395L102.941 144.95L102.264 146.558Z" fill="#ED715D"/>
<path d="M44.2671 122.855L43.4658 124.03L42.5244 122.786L44.2671 122.855Z" fill="#ED715D"/>
<path d="M22.4796 77.3342L23.1921 76.103L24.2218 77.2711L22.4796 77.3342Z" fill="#ED715D"/>
<path d="M76.0856 80.0472L74.7357 80.5014L74.7104 79.0427L76.0856 80.0472Z" fill="#ED715D"/>
<path d="M55.4972 75.5042L56.1262 74.2313L57.1774 75.2448L55.4972 75.5042Z" fill="#ED715D"/>
<path d="M36.794 74.9518L35.3827 74.7745L35.9932 73.4496L36.794 74.9518Z" fill="#ED715D"/>
<path d="M10.5007 136.727C10.8188 139.285 12.8905 142.156 17.6813 141.834L17.7041 141.83C22.6867 141.486 25.4304 141.968 27.484 143.035C28.8087 143.787 30.0179 144.726 31.074 145.824L31.4342 146.167C31.8845 146.597 32.3509 147.042 32.8642 147.511C35.815 150.199 38.5355 151.786 40.9509 152.231C40.9936 152.241 41.036 152.248 41.0774 152.255C41.7551 152.376 42.4474 152.392 43.1299 152.302C44.3107 152.147 45.398 151.577 46.1981 150.695C47.3227 149.39 47.8933 147.697 47.788 145.977C47.7028 144.178 46.9314 142.479 45.6325 141.231L45.4076 141.786C46.5012 142.915 47.1424 144.406 47.2095 145.976C47.2766 147.547 46.765 149.087 45.7717 150.305C45.1976 150.917 44.4721 151.368 43.6683 151.611C42.8646 151.854 42.011 151.88 41.1936 151.688C38.9018 151.296 36.1738 149.741 33.2591 147.087C32.7494 146.622 32.2864 146.18 31.8395 145.752C31.6492 145.57 31.4615 145.391 31.2765 145.217C30.1687 144.073 28.8819 143.118 27.4669 142.389C25.3679 141.387 22.5363 140.919 17.666 141.257L17.6174 141.264C13.2553 141.547 11.3793 139.077 11.0797 136.665C10.8958 135.003 11.3616 133.334 12.3797 132.008C13.3977 130.681 14.8893 129.8 16.5424 129.548C16.5284 129.355 16.5151 129.16 16.5018 128.965L16.4929 128.966C15.5429 129.116 14.6325 129.455 13.8154 129.963C12.9983 130.47 12.2909 131.136 11.7348 131.921C10.7484 133.318 10.3093 135.028 10.5007 136.727Z" fill="#ED715D"/>
<path d="M16.0229 118.337C16.1555 118.425 16.29 118.512 16.4275 118.6C20.7864 121.355 27.1059 122.728 35.2129 122.678C36.0335 122.673 36.8382 122.674 37.6268 122.681C57.1537 122.845 66.6819 126.643 73.526 136.763C81.5194 148.581 89.7559 152.671 95.664 151.842C96.9968 151.663 98.275 151.198 99.4105 150.477C104.306 147.346 106.232 139.158 100.44 129.562C100.421 129.528 100.395 129.498 100.364 129.474C100.334 129.45 100.298 129.432 100.26 129.422C100.223 129.412 100.183 129.409 100.144 129.415C100.105 129.42 100.068 129.433 100.035 129.454C100.001 129.474 99.972 129.501 99.949 129.532C99.9261 129.564 99.9098 129.6 99.9011 129.638C99.8924 129.677 99.8916 129.716 99.8985 129.755C99.9055 129.793 99.9202 129.83 99.9417 129.863C105.542 139.14 103.756 147.008 99.0972 149.987C98.0271 150.665 96.823 151.103 95.5676 151.271C89.8716 152.071 81.8586 148.04 74.0093 136.437C70.7972 131.378 66.0275 127.5 60.4192 125.388C54.8825 123.254 47.639 122.198 37.7635 122.102C36.9315 122.093 36.0806 122.091 35.2109 122.097C27.2168 122.145 21.0027 120.804 16.7391 118.109C16.4849 117.948 16.242 117.786 16.0102 117.622C13.5102 116.02 11.7312 113.509 11.0496 110.619C10.3679 107.73 10.8371 104.688 12.3578 102.138C13.3366 100.294 14.9854 98.8946 16.9646 98.229C16.9936 98.023 17.0231 97.8168 17.0534 97.6106C17.0391 97.6114 17.0248 97.6134 17.0108 97.6166C12.7744 98.621 9.61731 104.158 10.2533 109.466C10.4933 111.281 11.1359 113.02 12.1342 114.555C13.1324 116.089 14.4611 117.382 16.0229 118.337Z" fill="#ED715D"/>
<path d="M35.949 73.7447C36.4079 74.6701 37.1142 75.4503 37.9896 75.9987C39.2265 76.7474 40.6137 77.2132 42.0519 77.3626C44.3458 77.6166 46.6636 77.5578 48.9417 77.188C50.4925 76.9701 52.2171 76.6388 54.138 76.1729C54.2834 76.1373 54.431 76.1025 54.571 76.0707C60.1615 74.7639 64.2651 74.8334 67.5753 75.681C71.6141 76.712 74.4773 78.8988 77.4326 81.1514C80.2764 83.3227 83.2175 85.5683 87.348 86.8782C90.4099 87.9559 93.671 88.3486 96.9012 88.0288C97.3082 87.9716 97.7025 87.896 98.0814 87.8044C99.2156 87.66 100.292 87.2214 101.205 86.5322C102.117 85.843 102.833 84.9271 103.282 83.8755C103.731 82.8239 103.897 81.6732 103.763 80.5376C103.63 79.402 103.201 78.3211 102.521 77.4023C100.789 74.7863 98.3361 72.7278 95.4593 71.4754C95.3898 71.442 95.31 71.4376 95.2372 71.4632C95.1645 71.4888 95.1049 71.5422 95.0715 71.6117C95.0382 71.6812 95.0338 71.7611 95.0594 71.8338C95.0849 71.9066 95.1383 71.9661 95.2078 71.9995C97.9814 73.2055 100.347 75.1875 102.02 77.7069C102.655 78.547 103.056 79.5396 103.183 80.5844C103.31 81.6292 103.159 82.6891 102.746 83.6568C102.332 84.6246 101.67 85.4659 100.826 86.0957C99.9831 86.7254 98.9884 87.1213 97.943 87.2432C95.1535 87.923 91.5472 87.6059 87.5194 86.33C83.4917 85.0541 80.587 82.8378 77.7813 80.6944C74.917 78.5067 72.1327 76.3786 68.3187 75.2726C64.8358 74.2595 60.4917 74.0954 54.4382 75.5067L54.0004 75.6106C48.9119 76.8468 44.7991 77.2219 41.7643 76.7244C41.6197 76.7013 41.4788 76.6757 41.3395 76.6478C40.1238 76.4468 38.9689 75.9747 37.9604 75.2666C37.3298 74.8011 36.8204 74.1907 36.4753 73.487C36.1152 72.7294 35.9379 71.8979 35.9574 71.0594C35.972 70.1501 36.1627 69.2523 36.5189 68.4155C36.3927 68.2313 36.263 68.0533 36.1298 67.8815C35.6772 68.8192 35.422 69.8397 35.3798 70.88C35.3295 71.8673 35.525 72.8517 35.949 73.7447Z" fill="#ED715D"/>
<path d="M20.0168 86.2295C20.1438 85.9363 20.2737 85.6487 20.4065 85.3669C19.7816 82.5373 19.9868 80.1747 20.9773 78.8591C21.2508 78.4963 21.6041 78.2013 22.0098 77.9969C22.4155 77.7924 22.8627 77.684 23.317 77.6799C24.4465 77.6296 25.5619 77.9461 26.4965 78.5822C29.2409 80.3616 31.3017 84.5203 33.4504 88.8585C35.2475 92.4847 37.1069 96.2374 39.5254 99.032C40.0845 99.6841 40.6954 100.29 41.3522 100.843C42.393 101.763 43.6116 102.459 44.9326 102.888C46.2535 103.317 47.6485 103.47 49.0311 103.338C60.286 102.349 65.5132 108.135 70.1257 113.241C72.3667 115.721 74.4833 118.064 77.0784 119.399C79.0374 120.418 81.2717 120.782 83.4528 120.437C84.6478 120.257 85.8195 119.948 86.9475 119.514C87.0178 119.486 87.0743 119.431 87.1049 119.362C87.1354 119.292 87.1378 119.214 87.1112 119.143C87.0846 119.072 87.0313 119.014 86.9626 118.981C86.894 118.949 86.8154 118.945 86.7437 118.97C78.7744 121.947 74.9677 117.731 70.5574 112.85C65.8551 107.643 60.524 101.743 48.9794 102.754C47.6025 102.881 46.2144 102.711 44.9085 102.257C43.6026 101.802 42.409 101.074 41.4081 100.12C40.8957 99.6609 40.4137 99.1694 39.9652 98.6481C37.5919 95.9087 35.7505 92.1908 33.9698 88.5956C31.8661 84.3471 29.8451 80.2707 27.1374 78.3064C26.0356 77.4624 24.6718 77.0334 23.2852 77.0947C22.7457 77.1013 22.2149 77.2317 21.7337 77.476C21.2526 77.7203 20.8341 78.0719 20.5104 78.5036C19.3893 80.0042 19.2871 83.1218 20.0168 86.2295Z" fill="#ED715D"/>
</g>
<defs>
<clipPath id="clip0_252:1803">
<rect width="120" height="152" rx="8" fill="white"/>
</clipPath>
</defs>
</svg>
