<svg width="220" height="200" viewBox="0 0 120 152" fill="none" xmlns="http://www.w3.org/2000/svg">
<g clip-path="url(#clip0_252:1921)">
<path d="M120 0H0V152H120V0Z" fill="#CCCCFF"/>
<path d="M0 94.0417L1.04102 198.257H119.708C119.662 194.381 119.581 187.49 119.473 178.543C119.354 169.158 119.208 157.512 119.041 144.721C118.869 131.787 120.183 118.421 119.979 104.289C112.637 98.5097 105.341 92.6887 95.0728 76.4147C80.8648 53.8997 74.698 52.0487 59.854 55.5817C42.254 48.4817 26.1462 56.0177 16.3262 70.8027C9.14917 81.6197 4.939 88.2157 0 94.0417Z" fill="#2F2B40"/>
<path d="M17.3532 198.257L99.1158 198.249C102.26 186.391 106.996 150.938 99.2062 135.995C91.8772 121.937 79.2679 104.602 53.1979 107.318C50.0926 107.636 47.0103 108.148 43.9689 108.851C43.7599 108.897 43.5538 108.951 43.3478 108.997C-1.47822 119.854 14.1632 184.371 17.3532 198.257Z" fill="#D9C2B8"/>
<path d="M66.592 82.4909C66.7199 82.4295 66.8594 82.395 67.0011 82.3897C67.1429 82.3843 67.284 82.4083 67.4162 82.4599C67.6793 82.5681 67.9173 82.7291 68.1159 82.9329C67.8828 82.2935 67.8532 81.5977 68.0309 80.9408C68.0806 80.8205 68.1569 80.713 68.2541 80.6264C68.3512 80.5398 68.4667 80.4763 68.592 80.4408C69.092 80.2988 69.6502 80.6038 70.3322 81.4408C70.3237 81.2116 70.3577 80.9827 70.4323 80.7658C70.4827 80.619 70.5651 80.4853 70.6735 80.3743C70.7819 80.2633 70.9137 80.1777 71.0592 80.1238C71.6522 79.9048 72.4762 80.1608 74.0592 82.6968C73.9723 82.259 74.0227 81.8051 74.2033 81.3969C74.2778 81.2563 74.3857 81.1363 74.5177 81.0475C74.6498 80.9587 74.8018 80.9038 74.9601 80.8878C76.2231 80.7328 77.5712 83.1878 79.6222 87.7808C79.9352 88.4808 80.2071 89.0918 80.3341 89.3048C81.7901 91.7398 82.4414 94.4819 83.4294 98.6319C83.7404 99.9319 84.0899 101.414 84.5099 103.06C85.064 104.222 85.826 105.272 86.758 106.16C86.8014 106.204 86.8349 106.257 86.8556 106.315C86.8764 106.374 86.884 106.436 86.8781 106.497C86.8722 106.559 86.8529 106.618 86.8215 106.672C86.79 106.725 86.747 106.771 86.696 106.806L79.0651 112.035C78.9841 112.09 78.8865 112.116 78.7887 112.107C78.6909 112.098 78.5989 112.056 78.529 111.987C78.517 111.975 77.316 110.787 75.134 108.494C70.264 103.377 70.113 101.256 69.862 97.7418C69.7765 96.1979 69.5897 94.6613 69.3029 93.1419C68.8373 91.2087 68.1918 89.3234 67.3742 87.5108C66.2652 84.7968 65.527 83.0129 66.592 82.4909Z" fill="#A85948"/>
<path d="M76.8148 89.9488C76.7298 89.9488 76.6468 89.9233 76.5765 89.8755C76.5063 89.8277 76.4519 89.7599 76.4208 89.6808C75.4909 87.3315 74.3407 85.0754 72.9857 82.9428C72.9522 82.8964 72.9284 82.8438 72.9159 82.788C72.9033 82.7322 72.9026 82.6744 72.913 82.6182C72.9233 82.562 72.9448 82.5085 72.9764 82.4608C73.0081 82.4132 73.0492 82.3725 73.097 82.3412C73.1449 82.3099 73.1985 82.2886 73.2548 82.2786C73.3111 82.2686 73.369 82.2702 73.4247 82.2831C73.4804 82.2961 73.5329 82.3202 73.579 82.354C73.6251 82.3878 73.6636 82.4305 73.6927 82.4798C75.0792 84.66 76.2562 86.9667 77.2079 89.3688C77.2283 89.4203 77.2385 89.4753 77.2377 89.5308C77.2368 89.5862 77.225 89.641 77.203 89.6919C77.181 89.7428 77.1491 89.7888 77.1092 89.8274C77.0694 89.866 77.0226 89.8964 76.9711 89.9168C76.9215 89.9371 76.8684 89.948 76.8148 89.9488V89.9488Z" fill="#2F2B40"/>
<path d="M47.8781 86.6307L44.2561 109.997C43.5931 116.024 66.8982 117.408 66.8982 111.186V101.349L47.8781 86.6307Z" fill="#A85948"/>
<path d="M43.5689 88.0697C43.8459 100.378 53.3397 108.133 62.3067 107.608C68.5317 107.243 72.3187 100.898 73.7447 97.2557C73.7447 97.2417 73.7588 97.2247 73.7638 97.2117C74.7586 94.8957 75.1771 92.3729 74.983 89.8597C74.95 89.2997 74.9052 88.7317 74.8722 88.1427C74.8212 87.1977 74.8722 86.1957 74.9132 85.0517C75.0352 81.4827 74.3841 79.9207 73.6681 78.6757C70.2571 72.7237 64.6582 76.2837 59.9132 66.6697C56.8502 60.4737 43.3339 77.6207 43.5689 88.0697Z" fill="#A85948"/>
<path d="M56.1345 92.0907C56.2439 92.7503 56.1747 93.4272 55.9348 94.0513C55.6949 94.6755 55.2928 95.2242 54.7697 95.6407C54.2467 96.0572 53.6217 96.3264 52.9597 96.4205C52.2977 96.5145 51.6225 96.4301 51.0041 96.1757C50.5668 96.0107 50.1677 95.7581 49.8313 95.4337C49.4948 95.1092 49.228 94.7196 49.0471 94.2886C48.7658 93.6707 48.6575 92.9881 48.7336 92.3134C48.8097 91.6387 49.0674 90.9973 49.4792 90.4575C49.891 89.9177 50.4419 89.4997 51.0725 89.2481C51.7031 88.9965 52.39 88.9206 53.0603 89.0286C53.8309 89.1476 54.5439 89.5084 55.0964 90.0587C55.6489 90.609 56.0125 91.3205 56.1345 92.0907V92.0907Z" fill="#87361E"/>
<path d="M70.8654 93.6388C70.8807 94.4724 71.1743 95.2767 71.6998 95.9239C72.2254 96.571 72.9526 97.0237 73.7653 97.2098C74.4447 95.5818 74.8596 93.8556 74.9943 92.0967C75.0416 91.3513 75.0374 90.6037 74.9821 89.8588C74.8319 89.843 74.6813 89.836 74.5304 89.8378C73.5404 89.8559 72.5981 90.2665 71.9108 90.9793C71.2235 91.6921 70.8474 92.6488 70.8654 93.6388Z" fill="#87361E"/>
<path d="M69.6204 87.6998C70.4136 87.8427 71.2295 87.7918 71.9988 87.5513C72.768 87.3109 73.4678 86.888 74.0383 86.3188C74.0729 86.2766 74.0992 86.228 74.115 86.1758C74.1308 86.1236 74.136 86.0688 74.1306 86.0146C74.1253 85.9603 74.1095 85.9076 74.0837 85.8595C74.058 85.8114 74.0234 85.7689 73.9812 85.7343C73.9391 85.6997 73.8903 85.6737 73.8381 85.6579C73.786 85.642 73.7313 85.6367 73.677 85.642C73.6227 85.6474 73.5698 85.6633 73.5217 85.689C73.4736 85.7147 73.4313 85.7496 73.3967 85.7918C73.3217 85.8808 71.6816 87.7507 67.7966 86.4457C67.6923 86.4106 67.5779 86.4184 67.4793 86.4673C67.3806 86.5163 67.3059 86.6023 67.2708 86.7067C67.2356 86.8111 67.2433 86.9252 67.2922 87.0239C67.3412 87.1225 67.4271 87.1976 67.5315 87.2327C68.2083 87.4658 68.9088 87.6224 69.6204 87.6998V87.6998Z" fill="#2F2B40"/>
<path d="M57.0972 88.0697C58.2354 88.157 59.3768 87.9504 60.4122 87.4698C60.51 87.4191 60.5838 87.3316 60.6172 87.2266C60.6506 87.1216 60.6405 87.0076 60.5899 86.9097C60.5392 86.8118 60.4522 86.7381 60.3472 86.7048C60.2422 86.6714 60.1282 86.6811 60.0303 86.7317C58.9888 87.1999 57.8344 87.3589 56.7051 87.19C55.5758 87.021 54.5191 86.5312 53.6602 85.7787C53.5751 85.7088 53.4656 85.6757 53.356 85.6864C53.2464 85.6972 53.1456 85.7511 53.0757 85.8362C53.0058 85.9214 52.9727 86.0308 52.9834 86.1404C52.9942 86.25 53.0482 86.3508 53.1333 86.4207C54.2481 87.374 55.6352 87.9511 57.0972 88.0697V88.0697Z" fill="#2F2B40"/>
<path d="M64.006 96.0697C64.4907 96.1202 64.9802 96.0576 65.4366 95.8867C65.792 95.7653 66.11 95.5542 66.36 95.274C66.61 94.9937 66.7838 94.6537 66.8639 94.2868C66.8908 93.8348 66.8196 93.3823 66.6559 92.9602C66.4921 92.5381 66.2393 92.1563 65.9147 91.8407C65.6298 91.4872 65.3815 91.106 65.173 90.7028C64.7547 89.5395 64.5325 88.3148 64.5157 87.0788C64.5094 86.972 64.4622 86.8718 64.3839 86.799C64.3057 86.7261 64.2022 86.6862 64.0953 86.6875C63.9884 86.6888 63.8862 86.7312 63.8097 86.8059C63.7332 86.8806 63.6885 86.9819 63.6847 87.0888C63.7005 88.4418 63.949 89.782 64.4196 91.0507C64.6506 91.508 64.9292 91.9398 65.2506 92.3388C65.7396 92.9908 66.1619 93.5547 66.0509 94.1237C65.9963 94.3523 65.8838 94.5631 65.7247 94.736C65.5656 94.9089 65.365 95.0383 65.1417 95.1117C64.8006 95.24 64.4338 95.2847 64.0719 95.2419C63.71 95.199 63.3634 95.0701 63.0616 94.8658C63.018 94.8329 62.9685 94.809 62.9156 94.7953C62.8628 94.7817 62.8076 94.7785 62.7535 94.7862C62.6995 94.7938 62.6477 94.812 62.6007 94.8398C62.5537 94.8675 62.5124 94.9042 62.4796 94.9478C62.4468 94.9914 62.4229 95.0409 62.4093 95.0938C62.3957 95.1466 62.3924 95.2017 62.4 95.2558C62.4076 95.3098 62.426 95.3618 62.4537 95.4088C62.4814 95.4559 62.518 95.4969 62.5616 95.5297C62.9854 95.8367 63.4847 96.0233 64.006 96.0697V96.0697Z" fill="#87361E"/>
<path d="M62.6089 107.876C64.0632 107.743 65.5001 107.461 66.897 107.035V106.125C64.8091 106.818 62.6148 107.136 60.416 107.063C55.942 106.816 51.9159 104.706 48.4619 100.79C48.3864 100.711 48.2833 100.664 48.1743 100.66C48.0653 100.655 47.9588 100.693 47.877 100.765C47.7951 100.837 47.7445 100.938 47.7354 101.047C47.7262 101.156 47.7595 101.264 47.8281 101.349C52.3441 106.462 57.1641 107.738 60.4131 107.909C61.145 107.947 61.8785 107.936 62.6089 107.876V107.876Z" fill="#87361E"/>
<path d="M60.6948 54.6857C58.9738 52.7807 30.7066 46.0168 17.6606 74.1737C11.1186 88.2928 43.3066 109.016 47.7206 87.6637C50.7126 73.1857 66.3919 75.3997 63.2739 67.0837C58.7609 55.0477 60.6948 54.6857 60.6948 54.6857Z" fill="#2F2B40"/>
<path d="M48.2451 82.5398C46.8741 84.6962 45.7105 86.9777 44.77 89.3538Z" fill="#FDB88E"/>
<path d="M46.7642 80.3837C45.0522 82.7654 43.5648 85.301 42.3218 87.9578Z" fill="#FDB88E"/>
<path d="M44.1777 79.5258C42.4402 81.9297 40.9017 84.4715 39.5776 87.1257Z" fill="#FDB88E"/>
<path d="M35.7378 105.901L45.3608 108.075C46.5913 105.317 47.5904 102.462 48.3472 99.5388C48.9412 96.7738 48.756 93.5598 49.582 91.3618C50.428 89.1108 54.115 83.0148 52.582 82.1238C52.3537 82.0111 52.0902 81.9914 51.8477 82.069C51.6051 82.1466 51.4022 82.3155 51.2817 82.5399C51.8867 81.3219 52.2 80.0168 51.292 79.6728C50.739 79.4628 50.2607 79.7858 49.8027 80.3838C50.2087 79.4178 50.1969 78.6178 49.4419 78.3008C48.7759 78.0208 47.7332 78.5218 47.1592 79.6248C47.5352 79.0588 46.9758 78.6158 46.4688 78.5248C44.0057 78.0658 40.0308 86.2149 39.4238 87.2639C37.2458 91.0319 36.5568 93.3918 35.7378 105.901Z" fill="#A85948"/>
<path d="M45.267 108.487L35.644 106.314C35.5459 106.291 35.459 106.235 35.3988 106.154C35.3387 106.073 35.3093 105.974 35.3158 105.874C36.1158 93.5877 36.797 90.9638 39.058 87.0488C39.125 86.9318 39.2449 86.7078 39.3959 86.4248C41.5709 82.3358 44.3553 77.6957 46.5473 78.1047C46.8767 78.1651 47.1795 78.3246 47.4159 78.5617C47.6765 78.2496 48.0233 78.0213 48.413 77.9053C48.8027 77.7894 49.218 77.7909 49.6069 77.9097C49.8773 78.0178 50.1079 78.2072 50.266 78.4517C50.4242 78.6962 50.5025 78.9838 50.4902 79.2747C50.7967 79.1538 51.1378 79.1538 51.4443 79.2747C51.6108 79.3346 51.7624 79.4297 51.8891 79.5534C52.0157 79.6771 52.1143 79.8266 52.1781 79.9918C52.3373 80.5124 52.3194 81.0711 52.1279 81.5808C52.3639 81.5742 52.5973 81.6348 52.8002 81.7557C54.1592 82.5477 52.945 85.3067 51.081 89.1177C50.606 90.0907 50.1959 90.9298 49.9809 91.5068C49.5503 92.9364 49.3028 94.4148 49.2441 95.9067C49.1596 97.155 48.9991 98.397 48.7631 99.6257C48.0035 102.579 46.9951 105.463 45.7489 108.246C45.7089 108.335 45.6395 108.407 45.5522 108.451C45.4649 108.494 45.3651 108.506 45.2699 108.485L45.267 108.487ZM51.623 82.7867C51.5595 82.87 51.4676 82.9268 51.3647 82.9461C51.2618 82.9654 51.1552 82.9459 51.0658 82.8913C50.9765 82.8367 50.9105 82.7509 50.8808 82.6505C50.8511 82.5501 50.86 82.4422 50.9052 82.3477C51.2984 81.7411 51.4696 81.0173 51.3901 80.2988C51.3695 80.2436 51.3365 80.1937 51.2939 80.153C51.2513 80.1123 51.2001 80.0818 51.144 80.0638C51.012 80.0138 50.706 79.8978 50.144 80.6368C50.0819 80.7192 49.9921 80.7758 49.891 80.7963C49.79 80.8168 49.6849 80.7997 49.5956 80.748C49.5064 80.6963 49.4392 80.6137 49.4067 80.5158C49.3742 80.4179 49.3783 80.3116 49.4189 80.2167C49.9439 78.9637 49.4471 78.7547 49.2841 78.6857C48.8561 78.5067 48.0843 78.8757 47.6103 79.6857C47.583 79.7436 47.5513 79.7994 47.516 79.8527C47.4568 79.9441 47.3647 80.0091 47.2587 80.034C47.1527 80.0589 47.0409 80.0419 46.9472 79.9865C46.8534 79.9311 46.7846 79.8416 46.7553 79.7368C46.726 79.6319 46.7385 79.5197 46.79 79.4238C46.811 79.3838 46.8319 79.3438 46.8539 79.3048C46.8604 79.2899 46.8637 79.2739 46.8637 79.2578C46.8637 79.2416 46.8604 79.2256 46.8539 79.2108C46.8012 79.1349 46.7336 79.0709 46.6547 79.0229C46.5758 78.9749 46.4875 78.9438 46.3959 78.9317C45.5429 78.7727 43.7669 80.0117 40.1459 86.8177C39.9849 87.1177 39.8689 87.3377 39.7939 87.4667C37.6379 91.2017 36.9869 93.4987 36.1869 105.567L45.1181 107.584C46.2817 104.955 47.2251 102.234 47.9389 99.4487C48.1669 98.2538 48.3228 97.0463 48.4052 95.8327C48.4672 94.2649 48.7314 92.7117 49.1918 91.2117C49.4218 90.5977 49.8421 89.7407 50.3271 88.7487C51.0147 87.4097 51.6282 86.034 52.165 84.6278C52.789 82.8358 52.4528 82.5277 52.3788 82.4877C52.316 82.4498 52.2442 82.4294 52.1708 82.4288C52.0585 82.445 51.9511 82.4858 51.8564 82.5484C51.7616 82.611 51.682 82.6938 51.623 82.7907V82.7867Z" fill="#2F2B40"/>
<path d="M47.8091 89.7769C47.8941 89.777 47.9771 89.7515 48.0474 89.7037C48.1177 89.6559 48.172 89.5879 48.2032 89.5088C49.1345 87.1602 50.2847 84.9043 51.6382 82.7709C51.6996 82.6773 51.7216 82.563 51.6988 82.4534C51.676 82.3438 51.6103 82.2477 51.5167 82.1863C51.423 82.1249 51.3089 82.1032 51.1993 82.126C51.0897 82.1488 50.9936 82.2143 50.9322 82.3079C49.5465 84.4893 48.37 86.7965 47.4175 89.1989C47.3972 89.2506 47.3868 89.3057 47.3878 89.3613C47.3887 89.4168 47.4007 89.4716 47.4229 89.5225C47.4451 89.5734 47.4771 89.6194 47.5172 89.6579C47.5572 89.6964 47.6046 89.7267 47.6563 89.7469C47.7049 89.7665 47.7567 89.7767 47.8091 89.7769V89.7769Z" fill="#2F2B40"/>
<path d="M45.3605 88.3808C45.4415 88.381 45.5207 88.3578 45.589 88.3142C45.6572 88.2706 45.7113 88.2083 45.7452 88.1347C46.9771 85.5023 48.45 82.9896 50.1451 80.6288C50.1772 80.5835 50.2002 80.5325 50.2125 80.4784C50.2249 80.4243 50.2267 80.3683 50.2174 80.3136C50.2081 80.2589 50.1878 80.2065 50.1583 80.1595C50.1288 80.1125 50.0908 80.0719 50.0455 80.0398C50.0003 80.0077 49.9487 79.9847 49.8946 79.9724C49.8406 79.96 49.7848 79.9585 49.7301 79.9678C49.6754 79.977 49.6233 79.9971 49.5763 80.0266C49.5293 80.0561 49.4883 80.0945 49.4562 80.1398C47.7297 82.5434 46.2294 85.1018 44.9742 87.7818C44.9277 87.8837 44.9235 87.9999 44.9625 88.1048C45.0015 88.2098 45.0805 88.295 45.1822 88.3418C45.238 88.3677 45.299 88.3811 45.3605 88.3808V88.3808Z" fill="#2F2B40"/>
<path d="M42.62 87.5518C42.6998 87.5518 42.778 87.5293 42.8456 87.4868C42.9132 87.4444 42.9672 87.3837 43.0019 87.3118C44.3127 84.6781 45.8379 82.1565 47.5619 79.7727C47.6201 79.6812 47.6409 79.5709 47.62 79.4645C47.5991 79.3581 47.538 79.2637 47.4496 79.201C47.3612 79.1382 47.2523 79.1118 47.1449 79.1272C47.0376 79.1426 46.9402 79.1986 46.873 79.2837C45.121 81.7072 43.5714 84.2705 42.2392 86.9478C42.1912 87.049 42.1851 87.1651 42.2226 87.2707C42.2601 87.3762 42.3378 87.4625 42.4389 87.5108C42.4954 87.5379 42.5574 87.5519 42.62 87.5518V87.5518Z" fill="#2F2B40"/>
<path d="M74.6968 109.925C78.8118 124.437 74.551 178.196 90.29 185.215C90.29 185.215 103.005 192.432 114.109 184.976C116.429 183.339 118.279 181.121 119.472 178.545C119.355 169.16 119.208 157.514 119.04 144.723C112.786 128.441 100.112 114.864 86.2549 102.911C83.5479 100.574 75.1778 107.002 74.6968 109.925Z" fill="#D9C2B8"/>
<path d="M34.1806 105.652C36.1156 103.452 46.3269 105.895 46.7539 108.42C47.8749 115.052 56.0968 173.598 32.0898 187.191C25.2178 191.082 0.182054 193.68 5.47505 158.366C8.79005 136.254 25.8656 115.108 34.1806 105.652Z" fill="#D9C2B8"/>
<path d="M22.6372 190.459C27.8391 190.582 32.8963 188.739 36.7983 185.297C44.6863 178.318 49.0089 164.582 49.6479 144.472C49.9065 135.076 49.4386 125.675 48.248 116.352C48.2421 116.296 48.2254 116.242 48.1982 116.194C48.1711 116.145 48.1344 116.102 48.0903 116.068C48.0463 116.034 47.9958 116.009 47.9419 115.994C47.888 115.98 47.8316 115.977 47.7764 115.985C47.7211 115.993 47.6683 116.012 47.6206 116.041C47.5729 116.07 47.5311 116.108 47.4985 116.153C47.4659 116.198 47.443 116.25 47.4307 116.304C47.4184 116.358 47.4173 116.415 47.4272 116.47C48.6121 125.749 49.0775 135.106 48.8193 144.457C48.3843 158.115 45.85 176.18 36.248 184.675C31.214 189.128 24.657 190.584 16.728 189.016C16.6699 188.997 16.6085 188.99 16.5478 188.998C16.4871 189.005 16.4285 189.025 16.3765 189.057C16.3244 189.089 16.2799 189.132 16.2461 189.183C16.2123 189.234 16.1899 189.291 16.1807 189.352C16.1714 189.412 16.1754 189.474 16.1924 189.533C16.2094 189.591 16.2392 189.646 16.2793 189.692C16.3194 189.738 16.369 189.775 16.4248 189.8C16.4806 189.825 16.5409 189.837 16.602 189.837C18.5888 190.239 20.6101 190.447 22.6372 190.459V190.459Z" fill="#F8EADD"/>
<path d="M100.078 188.047C98.7249 187.705 97.4385 187.142 96.2702 186.379C89.8522 182.22 85.9028 172.071 84.5348 156.215C82.1028 128.067 75.4151 112.775 75.3351 112.63C75.2807 112.536 75.1915 112.467 75.0871 112.438C74.9826 112.409 74.871 112.422 74.776 112.475C74.6811 112.527 74.6102 112.614 74.5788 112.718C74.5474 112.822 74.558 112.934 74.6081 113.03C74.6881 113.173 81.2942 128.33 83.7082 156.284C85.1012 172.408 89.175 182.766 95.819 187.072C97.0571 187.881 98.4202 188.48 99.8532 188.846C99.9083 188.871 99.9679 188.884 100.028 188.884C100.089 188.883 100.149 188.87 100.204 188.845C100.259 188.819 100.308 188.782 100.347 188.736C100.387 188.69 100.415 188.636 100.432 188.578C100.448 188.519 100.452 188.458 100.443 188.398C100.433 188.338 100.411 188.281 100.377 188.231C100.343 188.18 100.299 188.138 100.248 188.106C100.196 188.074 100.138 188.054 100.078 188.047V188.047Z" fill="#F8EADD"/>
<path d="M99.1607 3.36869C91.5607 -0.431309 90.0518 -8.79429 83.1948 -10.8313C74.7368 -13.3413 70.7167 -9.78631 59.0347 -13.8683C44.8147 -18.8373 35.9189 -9.50929 31.6079 -1.26229C27.8899 5.85171 18.4188 6.9377 17.2788 14.0807C16.3078 20.1807 21.8359 25.3557 31.3599 26.0807C40.8839 26.8057 44.8149 22.8807 56.0039 28.9307C58.7878 30.6089 61.8687 31.7351 65.0786 32.2477C69.8122 32.7159 74.5597 31.5023 78.4878 28.8197C82.0778 26.4147 89.3956 25.4437 95.7456 25.4197C107.235 25.3657 114.171 10.8737 99.1607 3.36869Z" fill="#FFEDD5"/>
<path d="M83.1642 66.2707C82.7962 69.3517 81.0051 70.4297 78.9801 70.1877C78.8801 70.1747 78.7803 70.1597 78.6803 70.1407C76.8153 69.7917 75.4934 68.3177 75.8434 65.3937C76.1434 62.8567 79.0273 59.8147 80.0353 58.8177C80.2553 58.6027 80.3854 58.4827 80.3854 58.4827C80.3854 58.4827 83.5352 63.1877 83.1642 66.2707Z" fill="#FFEDD5"/>
<path d="M91.2587 40.4467C90.8897 43.5277 89.0987 44.6057 87.0737 44.3637C86.9737 44.3517 86.8739 44.3347 86.7739 44.3167C84.9099 43.9677 83.5869 42.4937 83.9379 39.5697C84.2379 37.0327 87.1228 33.9917 88.1298 32.9937C88.3498 32.7797 88.4789 32.6587 88.4789 32.6587C88.4789 32.6587 91.6277 37.3677 91.2587 40.4467Z" fill="#FFEDD5"/>
<path d="M66.414 49.0297C66.045 52.1107 64.2549 53.1887 62.2299 52.9467C62.1299 52.9347 62.0301 52.9177 61.9301 52.8997C60.0651 52.5507 58.7427 51.0767 59.0937 48.1527C59.3937 45.6157 62.2781 42.5747 63.2861 41.5767C63.5051 41.3627 63.6347 41.2417 63.6347 41.2417C63.6347 41.2417 66.784 45.9467 66.414 49.0297Z" fill="#FFEDD5"/>
<path d="M42.4322 40.4467C42.0632 43.5277 40.2732 44.6057 38.2482 44.3637C38.1482 44.3517 38.0434 44.3347 37.9484 44.3167C36.0844 43.9677 34.761 42.4937 35.111 39.5697C35.411 37.0327 38.2963 33.9917 39.3033 32.9937C39.5233 32.7797 39.653 32.6587 39.653 32.6587C39.653 32.6587 42.8012 37.3677 42.4322 40.4467Z" fill="#FFEDD5"/>
<path d="M48.4887 67.0107C48.1197 70.0917 46.3291 71.1697 44.3061 70.9277C44.2061 70.9157 44.1058 70.8987 44.0058 70.8807C42.1418 70.5317 40.8189 69.0577 41.1699 66.1337C41.4699 63.5967 44.3537 60.5557 45.3627 59.5587C45.5807 59.3437 45.7119 59.2236 45.7119 59.2236C45.7119 59.2236 48.8577 63.9277 48.4887 67.0107Z" fill="#FFEDD5"/>
</g>
<defs>
<clipPath id="clip0_252:1921">
<rect width="120" height="152" rx="8" fill="white"/>
</clipPath>
</defs>
</svg>
