<svg width="300" height="200" viewBox="0 0 120 152" fill="none" xmlns="http://www.w3.org/2000/svg">
<g clip-path="url(#clip0_252:1656)">
<path d="M0 0H120V152H0V0Z" fill="#A1C0BA"/>
<path d="M48.4199 154.793C56.7489 157.973 63.2029 165.581 63.2029 165.581C63.2029 165.581 53.2589 169.605 45.2529 169.149C36.9629 168.677 32.9649 163.069 33.8399 159.104C34.7149 155.139 40.6659 151.827 48.4199 154.793Z" fill="#016099"/>
<path d="M131.709 208.051L127.978 207.992C128.388 181.92 103.678 177.238 80.4939 174.892C69.5439 173.786 62.3679 169.622 58.5549 162.162C55.2839 155.762 55.0049 148.085 54.7339 140.662C54.5189 134.762 54.3159 129.192 52.5729 125.122C50.7439 120.849 47.432 118.766 41.835 118.367L42.1 114.645C49.073 115.145 53.6209 118.088 55.9999 123.653C58.0159 128.361 58.2309 134.27 58.4589 140.525C58.7149 147.544 58.9789 154.802 61.8739 160.465C65.1089 166.794 71.143 170.199 80.866 171.181C89.533 172.056 102.631 173.381 113.166 178.421C118.473 180.803 123.065 184.531 126.485 189.237C130.068 194.39 131.824 200.719 131.709 208.051Z" fill="#016099"/>
<path d="M48.0208 127.904C51.3941 129.042 54.4776 130.904 57.0549 133.36C57.0549 133.36 51.5438 136.171 46.9218 136.311C42.1358 136.456 39.5579 133.434 39.8609 131.111C40.1639 128.788 43.4158 126.592 48.0208 127.904Z" fill="#016099"/>
<path d="M64.7061 137.112C61.1901 136.552 57.8395 135.229 54.8892 133.236C54.8892 133.236 59.8552 129.547 64.3892 128.636C69.0892 127.696 72.13 130.246 72.217 132.586C72.304 134.926 69.4651 137.639 64.7061 137.112Z" fill="#016099"/>
<path d="M92.99 157.606C96.226 165.914 94.9199 175.806 94.9199 175.806C94.9199 175.806 85.261 171.138 80.22 164.899C75.004 158.439 76.477 151.71 80.002 149.699C83.527 147.688 89.977 149.865 92.99 157.606Z" fill="#016099"/>
<path d="M4.65894 100.427C25.4309 116.222 54.4319 132.65 58.8309 129.339C63.2299 126.028 53.074 83.981 34.603 66.501C26.603 58.927 20.046 56.315 14.856 56.345C4.33196 56.407 5.67494 66.374 -1.20806 70.385C-8.06506 74.381 -21.8891 80.239 4.65894 100.427Z" fill="#016099"/>
<path d="M73.0731 64.217C76.7541 83.77 64.0161 112.343 59.0731 113.23C54.1301 114.117 34.18 91.33 28.915 72.13C23.65 52.93 28.409 46.2739 50.652 46.4949C60.651 46.5989 66.8191 31 73.0731 64.217Z" fill="#016099"/>
<path d="M98.2201 79.8509C87.3291 96.5019 58.3481 108.284 54.1671 105.497C49.9861 102.71 51.3861 72.4589 60.8881 54.9679C70.3901 37.4769 78.4351 35.9679 94.3231 51.5399C101.468 58.5399 116.722 51.5629 98.2201 79.8509Z" fill="#016099"/>
<path d="M124.541 93.2959C112.784 116.596 59.766 132.578 55.282 129.385C50.798 126.192 73.561 112.432 83.788 89.1489C96.136 61.0399 119.206 61.0339 121.23 72.0189C123.349 83.5209 133.001 76.5359 124.541 93.2959Z" fill="#016099"/>
<path d="M53.5356 46.6419C55.6106 52.0589 87.0536 63.8579 84.3696 47.9419C83.4696 42.6209 90.8437 45.4049 85.7277 33.8999C83.8847 29.7549 89.4847 22.3579 78.7057 19.5729C74.7587 18.5529 69.5156 10.8349 65.2906 23.0049C63.6056 27.8609 53.5356 46.6419 53.5356 46.6419Z" fill="#012869"/>
<path d="M73.2351 77.2139C68.0111 99.9199 62.5031 106.714 46.6941 101.338C30.8851 95.9619 27.2071 76.7839 27.0411 76.6739C23.9631 74.6219 34.5041 61.0019 36.2761 58.4829C47.0561 43.1629 61.6511 40.2169 69.4861 45.8889C79.6321 53.2349 76.7121 62.1049 73.2351 77.2139Z" fill="#ED715D"/>
<path d="M117.248 74.6009C116.971 75.8139 115.477 79.2429 113.356 79.0009C108.822 78.4919 108.711 77.8088 106.825 76.9568L107.175 72.3299C108.19 72.1431 109.216 72.0259 110.247 71.9789C111.482 72.0099 117.544 73.3029 117.248 74.6009Z" fill="#FDB88E"/>
<path d="M68.2748 78.1669C77.4418 71.3199 72.5559 93.7809 106.989 78.9129C108.379 78.1189 108.152 72.2989 107.082 71.7299C97.5818 70.1239 91.0258 68.0459 87.3988 61.6549C81.5218 51.2999 72.5659 43.5549 64.4229 41.9889L68.2748 78.1669Z" fill="#ED715D"/>
<path d="M62.1831 116.606C62.1831 116.606 70.005 63.2849 90.349 75.4639C104.97 84.2169 71.0181 119.151 71.0181 119.151C69.8211 121.108 62.4161 117.983 62.1831 116.606Z" fill="#012869"/>
<path d="M27.0418 76.6749C31.8928 79.0069 38.8889 81.1529 44.4869 77.7009C57.2699 69.8179 77.6969 63.4279 84.9729 71.2639C89.1929 75.8089 90.1038 85.0699 70.2458 100.815C68.4458 102.244 59.9459 105.308 46.0049 106.582C21.0709 108.858 15.4738 85.9099 27.0418 76.6749Z" fill="#012869"/>
<path d="M55.6528 112.034C55.6528 112.034 63.4747 58.7139 83.8187 70.8919C98.4397 79.6449 64.4878 114.579 64.4878 114.579C63.2908 116.536 55.8858 113.411 55.6528 112.034Z" fill="#012869"/>
<path d="M79.5159 92.7188C79.4703 92.719 79.4257 92.7057 79.3876 92.6808C79.3494 92.6558 79.3195 92.6202 79.3014 92.5783C79.2833 92.5365 79.2779 92.4903 79.2858 92.4454C79.2937 92.4005 79.3146 92.359 79.3459 92.3258C84.5869 86.7508 86.3239 82.3168 86.8579 79.5788C87.2393 78.053 87.2069 76.453 86.7639 74.9438C86.7402 74.8867 86.74 74.8224 86.7637 74.7652C86.7873 74.708 86.8327 74.6626 86.8899 74.6388C86.947 74.6151 87.0113 74.615 87.0685 74.6386C87.1257 74.6623 87.1712 74.7077 87.1949 74.7649C87.6801 76.3414 87.7249 78.0206 87.3248 79.6208C86.7868 82.4278 85.0249 86.9669 79.6859 92.6449C79.6641 92.6682 79.6378 92.6868 79.6085 92.6995C79.5793 92.7122 79.5478 92.7188 79.5159 92.7188Z" fill="#016099"/>
<path d="M74.9921 92.9059C76.1111 92.9059 77.8841 92.5329 77.6971 91.7869C77.5221 91.0869 75.3651 91.9739 73.1261 91.5069C72.1011 91.2929 70.581 90.8449 70.54 90.5119C70.691 89.5009 74.432 89.5479 74.54 88.7929C74.615 88.2619 73.9871 87.9979 72.1011 87.9619C70.6151 87.9339 69.6741 87.7229 68.1831 87.7749C67.6241 87.7939 66.6941 87.9749 65.5831 88.0159C64.7404 87.9726 63.9055 87.832 63.0951 87.5969L62.269 91.7769C62.944 92.3309 69.2071 96.3769 71.9691 96.5209C75.0691 96.6779 77.6131 95.7989 77.5211 95.1439C77.4791 94.8499 76.2441 95.0959 75.7491 95.1439C76.4951 95.1439 78.4541 94.6779 78.4541 94.0249C78.4541 93.5589 76.868 93.6519 75.41 94.1079C76.774 93.7779 78.6411 93.6519 78.7571 92.9949C78.8871 92.1989 76.3811 92.7049 74.9921 92.9059Z" fill="#FDB98D"/>
<path d="M61.179 92.9219C53.336 87.9019 43.5429 88.4439 36.9789 81.6769C34.0478 78.5124 32.284 74.4426 31.9789 70.14C31.9489 69.875 31.931 69.6039 31.913 69.3329C31.19 57.4829 38.9219 41.9879 55.7389 41.2739L58.6049 55.4479C61.3569 60.8429 53.18 66.7199 55.775 69.8479C60.941 76.0739 59.0809 79.3479 60.1399 82.8299C60.2222 83.1052 60.3225 83.3748 60.44 83.6369C60.868 84.5999 63.112 85.9249 64.34 86.9669C65.603 88.0439 62.417 93.7159 61.179 92.9219Z" fill="#ED715D"/>
<path d="M61.368 34.8159L57.058 41.9719C56.03 44.1589 67.023 49.4129 68.228 47.0719L69.4971 43.5479L61.368 34.8159Z" fill="#FDB88E"/>
<path d="M62.045 33.9039C60.933 41.4039 66.191 44.1769 70.445 44.1679C73.401 44.1619 75.307 40.7449 76.08 39.0589C76.08 39.0529 76.087 39.0449 76.09 39.0379C76.6231 37.9681 76.8883 36.7848 76.8629 35.5899C76.8629 35.3239 76.856 35.0539 76.856 34.7739C76.856 34.3249 76.908 33.8529 76.956 33.3119C77.1358 32.2757 76.9893 31.2093 76.5369 30.2599C75.0809 27.3509 72.337 28.8869 70.347 24.2089C69.07 21.1959 62.772 29.0039 62.045 33.9039Z" fill="#FDB88E"/>
<path d="M67.8848 36.1439C67.9195 36.4593 67.8693 36.7783 67.7392 37.0678C67.6092 37.3573 67.4041 37.6067 67.1452 37.7903C66.8864 37.9739 66.5831 38.0849 66.2669 38.1119C65.9507 38.1389 65.6331 38.0809 65.3469 37.9439C65.1444 37.854 64.9623 37.7238 64.8117 37.5614C64.6611 37.3989 64.5451 37.2075 64.4708 36.9989C64.3542 36.6987 64.3213 36.3726 64.3754 36.0552C64.4296 35.7379 64.5687 35.4411 64.7782 35.1966C64.9876 34.952 65.2595 34.7689 65.5648 34.6666C65.8701 34.5644 66.1973 34.5468 66.5118 34.6159C66.8728 34.6928 67.2002 34.8821 67.4469 35.1566C67.6935 35.4311 67.8469 35.7768 67.8848 36.1439Z" fill="#ED715D"/>
<path d="M74.8187 37.2699C74.8035 37.6646 74.9208 38.0531 75.1518 38.3734C75.3829 38.6938 75.7144 38.9277 76.0937 39.0379C76.6266 37.968 76.8919 36.7848 76.8668 35.5899C76.7963 35.5784 76.7252 35.571 76.6538 35.5679C76.1848 35.5503 75.728 35.7198 75.3839 36.0389C75.0398 36.3581 74.8364 36.8009 74.8187 37.2699Z" fill="#ED715D"/>
<path d="M69.6389 44.5109C69.6616 44.5142 69.6848 44.5129 69.707 44.5072C69.7292 44.5014 69.7501 44.4914 69.7684 44.4776C69.7868 44.4638 69.8022 44.4465 69.8138 44.4268C69.8255 44.407 69.8332 44.3852 69.8364 44.3625C69.8396 44.3397 69.8383 44.3166 69.8326 44.2944C69.8269 44.2721 69.8169 44.2513 69.8031 44.2329C69.7893 44.2146 69.7719 44.1992 69.7522 44.1875C69.7324 44.1758 69.7106 44.1682 69.6878 44.1649C69.6408 44.1579 64.9189 43.459 63.0939 40.305C63.0692 40.2682 63.0315 40.2422 62.9884 40.2323C62.9453 40.2224 62.9 40.2293 62.8618 40.2516C62.8236 40.2739 62.7952 40.3099 62.7826 40.3523C62.77 40.3948 62.7741 40.4404 62.7939 40.4799C64.6999 43.7819 69.4389 44.4829 69.6389 44.5109Z" fill="#ED715D"/>
<path d="M74.3879 34.4248C74.7597 34.5138 75.1474 34.5114 75.5181 34.4181C75.8888 34.3248 76.2314 34.1432 76.5168 33.8888C76.5424 33.8492 76.5533 33.8019 76.5473 33.7551C76.5414 33.7083 76.519 33.6651 76.4843 33.6332C76.4496 33.6012 76.4047 33.5826 76.3576 33.5805C76.3105 33.5784 76.2642 33.5931 76.2269 33.6218C76.1889 33.6618 75.3628 34.5038 73.5568 33.7818C73.532 33.7665 73.5041 33.7568 73.4752 33.7535C73.4462 33.7501 73.4168 33.7531 73.3891 33.7622C73.3614 33.7714 73.336 33.7865 73.3148 33.8065C73.2935 33.8265 73.277 33.8509 73.2662 33.878C73.2554 33.9051 73.2506 33.9342 73.2523 33.9634C73.2539 33.9925 73.2619 34.0209 73.2757 34.0466C73.2895 34.0723 73.3088 34.0947 73.3321 34.1122C73.3555 34.1297 73.3823 34.1418 73.4108 34.1478C73.7251 34.2763 74.0529 34.3693 74.3879 34.4248Z" fill="#002869"/>
<path d="M68.1867 34.0909C68.7251 34.1479 69.2693 34.0656 69.7668 33.8519C69.805 33.8245 69.8324 33.7844 69.844 33.7388C69.8557 33.6932 69.8508 33.645 69.8304 33.6025C69.8099 33.5601 69.7753 33.5263 69.7323 33.507C69.6894 33.4876 69.641 33.4841 69.5957 33.4969C69.0957 33.7044 68.5465 33.764 68.0136 33.6684C67.4807 33.5729 66.9865 33.3262 66.5898 32.9579C66.5709 32.9365 66.5476 32.9194 66.5215 32.9077C66.4955 32.896 66.4672 32.8901 66.4386 32.8903C66.4101 32.8904 66.3819 32.8967 66.356 32.9086C66.3301 32.9206 66.307 32.9379 66.2884 32.9595C66.2697 32.9811 66.2559 33.0065 66.2478 33.0339C66.2398 33.0613 66.2377 33.0901 66.2417 33.1184C66.2457 33.1466 66.2558 33.1737 66.2712 33.1978C66.2865 33.2218 66.3068 33.2423 66.3307 33.2579C66.8462 33.7241 67.4957 34.0156 68.1867 34.0909Z" fill="#002869"/>
<path d="M71.5048 38.2369C71.7328 38.2738 71.9662 38.2574 72.1868 38.1889C72.3583 38.1408 72.5145 38.0493 72.6403 37.9232C72.7661 37.797 72.8572 37.6406 72.9048 37.4689C72.9293 37.2558 72.9078 37.0399 72.8417 36.8358C72.7756 36.6318 72.6665 36.4443 72.5217 36.2859C72.3961 36.1109 72.2887 35.9236 72.2008 35.7269C72.034 35.1651 71.9617 34.5794 71.9868 33.9939C71.9803 33.9476 71.9578 33.905 71.9232 33.8736C71.8886 33.8422 71.8441 33.8239 71.7974 33.8218C71.7507 33.8198 71.7047 33.8342 71.6675 33.8626C71.6303 33.8909 71.6042 33.9313 71.5938 33.9769C71.5644 34.6194 71.6463 35.2622 71.8358 35.8769C71.933 36.0996 72.0533 36.3114 72.1948 36.5089C72.4088 36.8309 72.5948 37.1089 72.5248 37.3749C72.4927 37.4816 72.4339 37.5783 72.3539 37.6559C72.2739 37.7334 72.1754 37.7892 72.0678 37.8179C71.9029 37.8695 71.728 37.8808 71.5579 37.8509C71.3877 37.8209 71.2271 37.7506 71.0897 37.6459C71.0492 37.6229 71.002 37.6148 70.9561 37.6229C70.9102 37.6311 70.8685 37.655 70.8384 37.6906C70.8083 37.7262 70.7915 37.7712 70.791 37.8178C70.7905 37.8644 70.8064 37.9097 70.8358 37.9459C71.0286 38.1013 71.2597 38.2018 71.5048 38.2369Z" fill="#ED715D"/>
<path d="M73.959 21.5349C73.959 21.5349 64.7929 8.5949 53.3779 20.2649C49.7379 23.9869 43.0099 21.7589 42.8989 31.5879C42.8609 34.9159 41.9989 35.9809 40.3729 38.3109C37.4799 42.4529 38.6009 46.7609 43.5399 48.3279C47.4139 49.5569 45.3689 54.2839 50.6339 54.6279C54.9189 54.9109 56.001 50.1979 59.672 49.9359C67.781 49.3569 62.881 39.6459 62.672 35.6589C62.656 35.3689 62.6299 35.0749 62.6059 34.7759C62.5845 33.8542 62.799 32.9424 63.229 32.1269C65.429 27.3859 72.619 30.4159 72.395 24.0739L73.959 21.5349Z" fill="#012869"/>
<path d="M35.2979 80.3129C35.2598 80.3133 35.2222 80.3044 35.1884 80.287C35.1545 80.2696 35.1256 80.2441 35.1039 80.2129C31.6529 75.0829 31.6128 66.6408 31.6128 66.5558C31.6128 66.4941 31.6373 66.4348 31.681 66.3911C31.7247 66.3474 31.784 66.3229 31.8458 66.3229C31.9076 66.3229 31.9669 66.3474 32.0106 66.3911C32.0543 66.4348 32.0789 66.4941 32.0789 66.5558C32.0789 66.6388 32.1198 74.9409 35.4908 79.9559C35.5144 79.9909 35.528 80.0317 35.5302 80.0739C35.5323 80.116 35.523 80.158 35.5032 80.1953C35.4834 80.2325 35.4538 80.2637 35.4176 80.2855C35.3814 80.3073 35.3401 80.3188 35.2979 80.3188V80.3129Z" fill="#012869"/>
<path d="M58.0599 72.8489C58.0165 72.849 57.974 72.837 57.9371 72.8142C57.9002 72.7914 57.8703 72.7587 57.8509 72.7199C57.5737 72.2331 57.2437 71.7784 56.8669 71.3638C56.1036 70.5056 55.4607 69.5475 54.9559 68.5159C54.3129 67.1379 54.8679 65.9969 55.4559 64.7899C56.3028 63.3667 56.6459 61.6998 56.4299 60.0579C56.4252 60.0276 56.4265 59.9967 56.4337 59.9669C56.4409 59.9371 56.454 59.9091 56.472 59.8843C56.4901 59.8596 56.5129 59.8386 56.539 59.8227C56.5652 59.8067 56.5942 59.7961 56.6245 59.7914C56.6548 59.7866 56.6857 59.7879 56.7154 59.7951C56.7452 59.8024 56.7732 59.8154 56.7979 59.8334C56.8227 59.8515 56.8436 59.8742 56.8596 59.9004C56.8755 59.9266 56.8862 59.9556 56.891 59.9859C57.1275 61.7219 56.7697 63.4869 55.8759 64.9938C55.2919 66.1938 54.8299 67.1429 55.3759 68.3189C55.8627 69.3149 56.4842 70.2393 57.223 71.0659C57.6235 71.5072 57.973 71.9923 58.265 72.5119C58.2826 72.5474 58.2908 72.5869 58.289 72.6265C58.2872 72.6662 58.2754 72.7047 58.2546 72.7385C58.2338 72.7723 58.2047 72.8003 58.1701 72.8198C58.1356 72.8393 58.0967 72.8496 58.057 72.8499L58.0599 72.8489Z" fill="#012869"/>
<path d="M78.4301 104.837C74.2741 125.774 60.9211 131.614 55.5301 131.684C50.1391 131.754 34.14 110.565 31.33 89.3949C28.808 70.4119 44.305 76.7859 54.398 85.4349C61.53 91.5449 84.1171 76.1819 78.4301 104.837Z" fill="#A9D3E1"/>
<path d="M116.153 108.427C102.387 122.627 77.591 130.162 62.337 131.585C62.052 131.612 61.7689 131.637 61.4919 131.659C58.6683 131.948 55.8203 131.9 53.008 131.515C48.459 130.724 69.016 119.633 78.963 101.072C79.1763 100.672 79.3856 100.268 79.5909 99.8609C80.1729 98.6979 80.7129 97.5089 81.1999 96.2909C90.2399 73.7549 98.925 78.2149 107.713 84.8219C115.557 90.7199 151.448 72.0099 116.153 108.427Z" fill="#A9D3E1"/>
<path d="M60.9189 131.701C57.6614 131.877 54.3952 131.798 51.1499 131.466C50.882 131.441 50.614 131.413 50.35 131.382C32.878 129.464 13.4849 120.935 -1.80507 108.642C-20.2531 93.8129 -19.059 72.8769 -5.04103 76.6829C19.45 83.3299 20.328 69.1309 31.389 94.9189C31.7056 95.6562 32.039 96.3859 32.389 97.1079C32.7303 97.8025 33.0866 98.4902 33.4579 99.1709C43.8109 118.15 65.5669 131.433 60.9189 131.701Z" fill="#A9D3E1"/>
<path d="M79.1481 101.426C79.126 101.744 79.0881 102.061 79.0342 102.376C78.4532 105.947 75.8341 113.864 71.7821 121.355C69.2611 126.016 65.7951 131.239 61.7771 134.104C61.4921 134.131 61.2091 134.155 60.9321 134.178C65.4431 131.257 69.2461 125.237 71.4441 121.172C74.4734 115.618 76.8109 109.714 78.4042 103.591C78.5784 102.873 78.6983 102.143 78.7631 101.407C78.7667 101.357 78.7895 101.31 78.8268 101.277C78.8641 101.243 78.913 101.225 78.9631 101.227C78.9884 101.228 79.0132 101.234 79.0361 101.244C79.0591 101.255 79.0797 101.27 79.0969 101.288C79.1141 101.307 79.1274 101.328 79.1362 101.352C79.145 101.376 79.149 101.401 79.1481 101.426Z" fill="#016099"/>
<path d="M51.151 131.467C50.883 131.442 50.616 131.414 50.351 131.383C46.551 128.393 42.676 122.583 38.784 114.01C36.484 108.935 34.63 103.851 33.401 100.201C33.3818 100.177 33.3682 100.149 33.3616 100.119C33.355 100.089 33.3554 100.058 33.3628 100.028C33.3702 99.9977 33.3844 99.9699 33.4043 99.9464C33.4242 99.9229 33.4493 99.9044 33.4776 99.8922C33.5058 99.88 33.5365 99.8744 33.5673 99.876C33.598 99.8776 33.628 99.8863 33.6548 99.9014C33.6817 99.9165 33.7047 99.9375 33.7221 99.963C33.7394 99.9884 33.7508 100.018 33.755 100.048C34.98 103.69 36.832 108.778 39.135 113.854C43.141 122.681 47.219 128.635 51.151 131.467Z" fill="#016099"/>
<path d="M109.684 99.414C112.131 100.314 117.121 101.853 119.622 102.592C124.691 104.092 136.722 91.641 141.507 87.216C141.928 86.816 141.579 83.54 141.314 83.659L131.269 89.605C131.675 87.286 132.21 83.627 131.047 80.223C130.991 80.0593 130.896 79.912 130.77 79.7941C130.644 79.6761 130.491 79.5912 130.324 79.547C129.245 79.2498 128.273 78.6524 127.521 77.8245C126.768 76.9965 126.267 75.972 126.074 74.87C126.033 74.6465 125.94 74.4358 125.802 74.2549C125.664 74.0741 125.486 73.9282 125.282 73.829C121.975 72.4159 118.272 72.2315 114.841 73.309C111.102 74.42 109.699 75.996 108.094 80.022C104.632 88.714 106.639 98.289 109.684 99.414ZM109.242 81.986C113.165 72.45 120.042 73.816 122.778 74.947C125.17 75.935 107.999 85.005 109.242 81.987V81.986Z" fill="#ED715D"/>
<path d="M117.759 73.065C117.711 72.286 116.325 72.655 114.584 72.45C113.243 72.1536 111.878 71.9756 110.506 71.918C109.731 71.9403 108.964 72.0854 108.234 72.348L110.379 75.79C111.311 73.924 117.853 74.614 117.759 73.065Z" fill="#FDB88E"/>
<path d="M112.586 74.2489C113.086 73.3189 117.623 73.2229 117.25 74.6219L113.457 78.8009C113.327 78.8406 113.191 78.8529 113.056 78.8373C112.922 78.8216 112.792 78.7783 112.675 78.71C112.558 78.6417 112.456 78.5499 112.377 78.4404C112.297 78.3309 112.241 78.2062 112.212 78.0739C111.842 76.798 111.976 75.4291 112.586 74.2489Z" fill="#FDB88E"/>
</g>
<defs>
<clipPath id="clip0_252:1656">
<rect width="120" height="152" rx="8" fill="white"/>
</clipPath>
</defs>
</svg>
