<svg width="300" height="200" viewBox="0 0 120 152" fill="none" xmlns="http://www.w3.org/2000/svg">
<g clip-path="url(#clip0_252:2001)">
<path d="M120 0H0V152H120V0Z" fill="#E6E6FF"/>
<path d="M21.4549 44.575C23.1979 58.007 14.5659 79.797 20.0979 86.689C24.4239 92.079 41.4459 86.752 58.1399 86.932C75.9299 87.124 100.256 93.573 105.419 89.286C107.298 87.726 107.036 81.041 106.744 77.043C106.584 72.3567 106.811 67.6652 107.421 63.016C108.321 54.109 109.041 42.561 104.885 38.971C103.529 37.9455 101.945 37.265 100.268 36.988C85.2129 32.451 37.8929 33.073 24.6089 38.907C23.5421 39.3852 22.6586 40.1955 22.0902 41.217C21.5218 42.2385 21.2989 43.4164 21.4549 44.575ZM104.93 88.727L104.924 88.732C104.856 88.7925 104.775 88.8355 104.686 88.8572C104.598 88.8788 104.506 88.8784 104.418 88.8561C104.33 88.8338 104.248 88.7902 104.181 88.7292C104.114 88.6681 104.063 88.5915 104.032 88.506C100.288 78.289 106.351 54.259 105.365 43.554C105.065 40.272 106.326 42.685 106.514 43.361C107.914 48.361 107.348 56.404 106.687 62.944C106.072 67.6353 105.846 72.3694 106.01 77.098C106.271 80.691 106.511 87.299 104.928 88.727H104.93Z" fill="white"/>
<path d="M76.1093 77.9421C58.6633 100.077 28.6093 85.8351 35.3333 77.7961C39.2533 73.1131 27.1192 68.3591 36.2942 57.3491C40.3132 52.5271 35.5083 45.9021 47.0423 43.7181C51.1863 42.9331 58.6632 35.8541 62.7722 49.0591C64.6122 54.9741 76.1093 77.9421 76.1093 77.9421Z" fill="#002869"/>
<path d="M88.0583 115.184C88.0549 115.401 88.0505 115.617 88.0452 115.832C86.9872 115.432 85.9595 115.057 84.9622 114.707C78.7142 112.507 75.4803 111.626 72.1623 111.414C71.4103 111.365 70.8233 111.071 70.0263 111.084C66.2877 110.008 62.4273 109.412 58.5382 109.311C54.7133 109.411 50.9198 110.032 47.2622 111.155C46.7382 111.321 44.1862 112.112 43.5032 112.29C41.8562 112.838 40.1828 113.302 38.4893 113.682L38.4173 113.694C36.5659 113.995 34.6999 114.199 32.8272 114.306C31.5532 114.38 30.1972 114.419 28.7472 114.406H28.3243L27.8672 114.4C27.7832 114.206 27.7052 114 27.6342 113.784C24.5442 104.31 34.7063 75.7521 56.5533 74.9011C56.5533 74.9011 63.8872 74.3481 65.3532 74.5011C85.3422 76.6181 88.3183 99.8121 88.0583 115.184Z" fill="#01609A"/>
<path d="M133.856 174.579C133.817 174.65 133.751 174.702 133.673 174.725C133.595 174.747 133.511 174.737 133.44 174.698C122.454 168.608 112.429 168.826 103.583 169.019C102.516 169.042 101.493 169.065 100.476 169.079L99.716 169.085H99.502C99.2473 169.085 98.9947 169.085 98.744 169.085C97.921 169.085 97.163 169.074 96.438 169.051C96.274 169.051 96.111 169.041 95.951 169.035C91.9032 169.002 87.8991 168.193 84.156 166.652L84.009 166.588L83.696 166.453C83.4007 166.325 83.1077 166.199 82.817 166.076C82.3597 165.882 81.9073 165.692 81.46 165.505C80.416 165.071 79.4013 164.662 78.416 164.279C75.294 163.063 72.457 162.094 69.85 161.359C66.2782 160.279 62.5797 159.674 58.85 159.559C58.517 159.559 58.19 159.559 57.865 159.565C54.2253 159.748 50.6277 160.427 47.172 161.584C46.644 161.737 46.11 161.89 45.563 162.044C44.919 162.226 44.263 162.407 43.576 162.584C42.02 162.984 40.349 163.366 38.486 163.673L38.414 163.685C36.5626 163.986 34.6967 164.19 32.824 164.297C31.55 164.371 30.194 164.41 28.744 164.397H28.321L27.864 164.391C27.657 164.391 27.464 164.383 27.277 164.378H27.184C26.6707 164.365 26.1667 164.356 25.672 164.351C23.611 164.329 21.709 164.369 19.95 164.474C18.35 164.568 16.861 164.717 15.485 164.917C15.321 164.941 15.158 164.965 14.998 164.991C14.484 165.072 13.984 165.161 13.498 165.258C12.3174 165.491 11.1517 165.795 10.007 166.166C9.73001 166.255 9.47002 166.346 9.25402 166.423C7.58598 167.046 5.96021 167.777 4.38702 168.611C0.357018 170.651 -3.47098 172.589 -13.457 172.621C-14.649 172.621 -15.931 172.601 -17.308 172.548C-17.3484 172.547 -17.3883 172.538 -17.4252 172.522C-17.4622 172.505 -17.4953 172.481 -17.5228 172.452C-17.5503 172.422 -17.5715 172.387 -17.5851 172.349C-17.5987 172.311 -17.6044 172.27 -17.602 172.23C-17.596 172.062 -17.454 121.93 -17.285 121.936C-4.51998 122.436 -0.326984 120.311 4.11502 118.065C5.71102 117.219 7.36052 116.478 9.053 115.847C9.275 115.768 9.54002 115.675 9.82302 115.582L10.053 115.51C10.309 115.429 10.5667 115.351 10.826 115.277C11.649 115.04 12.494 114.836 13.383 114.657C13.757 114.583 14.14 114.511 14.533 114.447L14.722 114.416L15.007 114.37C16.445 114.147 18.002 113.982 19.688 113.877C21.947 113.734 24.442 113.698 27.201 113.766H27.295L27.634 113.774L28.165 113.783H28.33H28.748C34.9443 113.833 41.1085 112.889 47.006 110.988C50.5123 109.816 54.1624 109.128 57.855 108.945C59.2682 108.917 60.6817 108.984 62.086 109.145C65.5098 109.568 68.8843 110.323 72.162 111.399C74.122 112.016 76.206 112.753 78.434 113.616C79.4273 114.001 80.4497 114.411 81.501 114.846C82.0144 115.058 82.5347 115.276 83.062 115.501L83.619 115.739L84.257 116.015L84.408 116.08C88.0806 117.591 92.009 118.382 95.98 118.412C96.113 118.418 96.247 118.422 96.38 118.426C97.122 118.449 97.901 118.461 98.749 118.461C98.997 118.461 99.249 118.461 99.501 118.461H99.753L100.515 118.454C101.515 118.441 102.522 118.42 103.573 118.397C108.345 118.172 113.128 118.336 117.873 118.886C123.444 119.629 128.826 121.416 133.735 124.153C133.885 124.248 133.938 174.432 133.856 174.579Z" fill="white"/>
<path d="M17.6812 113.97C21.3612 121.27 35.0603 126.401 46.6193 124.699C44.7643 120.041 47.7193 122.368 47.1193 118.742C47.0323 118.218 41.7092 112.269 40.3112 110.87C40.8532 110.698 60.7843 108.425 64.7813 108.202C70.2273 107.902 76.2142 111.625 84.9642 114.702C85.9642 115.053 86.9922 115.428 88.0482 115.827C88.0536 115.612 88.0579 115.396 88.0612 115.179C88.3212 99.8071 85.3453 76.6141 65.3563 74.4991C63.8863 74.3431 56.6953 74.3991 56.6953 74.3991C35.4953 73.4381 29.4322 90.2391 26.4232 94.9991C24.3222 98.3291 12.6102 103.921 17.6812 113.97Z" fill="#01609A"/>
<path d="M66.7879 105.145C68.9719 113.184 74.6309 120.445 83.9139 118.426C89.3789 117.238 96.2339 109.863 90.9919 93.7851C87.7189 83.7491 83.1279 72.9851 65.4239 73.0091C62.9519 73.0091 69.1239 87.26 66.3509 87.409C65.7975 87.4377 65.2642 87.4918 64.7509 87.5711C64.5869 87.5951 64.4253 87.6217 64.2659 87.651C64.2159 88.544 64.1799 89.5191 64.1659 90.5561C64.0979 95.1231 65.0699 98.8211 66.7879 105.145Z" fill="#01609A"/>
<path d="M64.214 63.3121L66.847 76.6711C66.847 80.0991 52.864 80.3582 52.853 76.9822L53.126 69.8732L64.214 63.3121Z" fill="#FDB88E"/>
<path d="M68.4128 62.6711C68.0548 70.3711 61.9289 75.6022 56.3909 74.6182C54.7296 74.3619 53.1783 73.6293 51.925 72.5092C50.6718 71.389 49.7702 69.9293 49.3298 68.3071C48.9692 67.1419 48.7522 65.937 48.6838 64.7192C48.6758 64.5932 48.6719 64.4682 48.6709 64.3442C48.6709 63.9992 48.6959 63.6602 48.7249 63.3192C48.7539 62.9782 48.7908 62.6192 48.8248 62.2462C48.8708 61.6552 48.8528 61.0282 48.8458 60.3112C48.7189 58.9285 49.0246 57.5405 49.7208 56.3392C51.9458 52.6652 55.3959 54.9771 58.5099 49.0311C60.5149 45.2001 68.7168 56.1371 68.4128 62.6711Z" fill="#FDB88E"/>
<path d="M52.4871 62.6911C52.0014 62.8281 51.4898 62.8458 50.9959 62.7425C50.5019 62.6393 50.0402 62.4182 49.6501 62.0981C49.604 62.0488 49.5789 61.9835 49.5801 61.916C49.5813 61.8486 49.6086 61.7842 49.6564 61.7365C49.7042 61.6889 49.7687 61.6617 49.8362 61.6607C49.9037 61.6597 49.9689 61.6849 50.0181 61.7311C50.0701 61.7821 51.2051 62.8481 53.5491 61.7991C53.5805 61.783 53.6148 61.7734 53.6501 61.771C53.6853 61.7686 53.7207 61.7734 53.7541 61.7851C53.7874 61.7968 53.8179 61.8152 53.8439 61.8391C53.8699 61.8631 53.8908 61.892 53.9052 61.9243C53.9196 61.9565 53.9273 61.9914 53.9278 62.0267C53.9283 62.062 53.9216 62.097 53.9081 62.1297C53.8946 62.1623 53.8747 62.1919 53.8494 62.2165C53.8241 62.2412 53.794 62.2604 53.761 62.2731C53.3533 62.4596 52.9261 62.5998 52.4871 62.6911Z" fill="#002869"/>
<path d="M61.4752 62.857C61.0015 63.0311 60.4928 63.0881 59.9924 63.0231C59.492 62.9582 59.0147 62.7732 58.6012 62.4841C58.5513 62.4384 58.5211 62.3752 58.5171 62.3077C58.513 62.2402 58.5355 62.1738 58.5796 62.1225C58.6237 62.0713 58.6859 62.0393 58.7533 62.0332C58.8206 62.0271 58.8876 62.0475 58.9402 62.0901C58.9962 62.1371 60.2092 63.1131 62.4662 61.8901C62.4962 61.8732 62.5294 61.8626 62.5636 61.8586C62.5978 61.8547 62.6324 61.8576 62.6655 61.8672C62.6986 61.8767 62.7294 61.8928 62.7562 61.9144C62.783 61.9359 62.8053 61.9626 62.8218 61.9929C62.8382 62.0232 62.8484 62.0564 62.8519 62.0906C62.8554 62.1249 62.852 62.1595 62.842 62.1924C62.832 62.2254 62.8156 62.256 62.7937 62.2826C62.7717 62.3091 62.7447 62.331 62.7142 62.347C62.3215 62.5627 61.9059 62.7338 61.4752 62.857Z" fill="#002869"/>
<path d="M56.0309 67.205C55.7267 67.2293 55.421 67.1828 55.1378 67.069C54.917 66.9876 54.7211 66.8506 54.5689 66.6712C54.4166 66.4918 54.3132 66.2761 54.2688 66.045C54.2588 65.7619 54.31 65.48 54.4187 65.2184C54.5274 64.9568 54.6911 64.7217 54.8988 64.529C55.0827 64.3126 55.2442 64.078 55.3809 63.829C55.6286 63.3067 55.7391 62.7299 55.7019 62.1531C55.7044 62.0841 55.7343 62.019 55.7848 61.972C55.8353 61.925 55.9024 61.9 55.9713 61.9025C56.0403 61.905 56.1055 61.9349 56.1525 61.9854C56.1994 62.0359 56.2243 62.1031 56.2218 62.172C56.2565 62.8221 56.128 63.4704 55.8479 64.058C55.6962 64.3409 55.5152 64.607 55.3079 64.852C54.9919 65.252 54.7189 65.599 54.7809 65.957C54.8117 66.1008 54.8788 66.2344 54.9757 66.345C55.0727 66.4556 55.1963 66.5396 55.3348 66.589C55.5464 66.6746 55.7754 66.7082 56.0027 66.687C56.2299 66.6658 56.4488 66.5903 56.6409 66.467C56.6684 66.4442 56.7004 66.4274 56.7347 66.4175C56.7691 66.4077 56.8051 66.405 56.8406 66.4097C56.876 66.4144 56.9102 66.4263 56.9408 66.4448C56.9714 66.4633 56.9979 66.4879 57.0186 66.517C57.0392 66.5462 57.0537 66.5793 57.061 66.6143C57.0683 66.6493 57.0683 66.6854 57.061 66.7204C57.0537 66.7555 57.0394 66.7886 57.0187 66.8178C56.998 66.847 56.9715 66.8716 56.9409 66.8901C56.6714 67.0749 56.357 67.1837 56.0309 67.205Z" fill="#ED715D"/>
<path d="M57.547 75.1921C57.2504 75.1923 56.9539 75.1769 56.6589 75.1461C55.5953 75.058 54.5648 74.7331 53.643 74.1951C53.5918 74.1592 53.5568 74.1047 53.5452 74.0433C53.5336 73.9819 53.5464 73.9183 53.5809 73.8662C53.6155 73.8141 53.6689 73.7776 53.73 73.7643C53.7911 73.751 53.8549 73.762 53.908 73.7951C54.7749 74.2905 55.7399 74.5899 56.735 74.6721C59.3036 74.8457 61.8439 74.0495 63.854 72.4411C63.9056 72.4037 63.9699 72.3884 64.0328 72.3984C64.0958 72.4084 64.1521 72.4431 64.1895 72.4946C64.2269 72.5462 64.2422 72.6106 64.2322 72.6735C64.2222 72.7364 64.1876 72.7928 64.136 72.8301C62.2489 74.3021 59.9395 75.13 57.547 75.1921Z" fill="#EE715D"/>
<path d="M53.4839 46.1501C53.4839 46.1501 64.1239 32.8761 77.1139 45.8421C81.5539 50.2741 89.0198 48.8051 88.5758 60.6421C88.2808 63.8875 88.9568 67.1475 90.5178 70.0081C93.5728 75.8841 89.9508 80.5741 85.7668 82.2761C81.8958 83.8501 83.0009 86.6021 79.6139 87.3581C74.5629 88.4861 73.4138 81.7101 69.0138 81.1781C59.2868 80.0041 65.7558 68.6031 66.2468 63.8171C66.2828 63.4691 66.3318 63.1171 66.3778 62.7581C66.458 61.65 66.2535 60.5399 65.7838 59.5331C63.4188 53.6981 54.5839 56.9211 55.2249 49.3011L53.4839 46.1501Z" fill="#002869"/>
<path d="M72.4368 63.2831C72.1058 62.6141 69.9829 57.4431 68.4499 57.6281C68.1339 57.6661 67.7729 57.9161 67.9819 58.2791C67.6719 57.5791 67.0508 57.2281 66.6298 57.3741C66.1528 57.5391 66.1139 58.0311 66.3299 58.6411C66.0719 58.2551 65.7898 58.0411 65.4418 58.1411C64.8698 58.3171 65.0109 59.1321 65.3349 59.9051C65.2697 59.7619 65.1511 59.6497 65.0046 59.5924C64.858 59.5351 64.6949 59.5371 64.5498 59.5981C63.5738 60.0851 65.5998 63.9811 66.0308 65.3981C66.4518 66.7821 66.2108 68.7521 66.4668 70.4771C66.8169 72.3053 67.3187 74.1012 67.9668 75.8461L73.9718 74.8911C73.9588 67.1691 73.6278 65.6901 72.4368 63.2831Z" fill="#FDB88E"/>
<path d="M67.7301 75.9351C67.0744 74.175 66.569 72.3625 66.2191 70.5171C66.1233 69.7541 66.0739 68.986 66.071 68.2171C66.0943 67.296 66.0006 66.3756 65.7921 65.4781C65.6811 65.1141 65.4621 64.5781 65.2081 63.9631C64.2161 61.5531 63.581 59.8141 64.436 59.3871C64.5693 59.3184 64.7202 59.2916 64.869 59.3101C64.7671 58.9861 64.7762 58.6373 64.895 58.3191C64.9403 58.2227 65.0057 58.1372 65.0868 58.0682C65.1678 57.9992 65.2628 57.9484 65.3651 57.9191C65.5629 57.8539 65.7783 57.869 65.9651 57.9611C65.9653 57.7813 66.0222 57.6061 66.1278 57.4605C66.2334 57.3149 66.3822 57.2063 66.5531 57.1501C66.7973 57.0937 67.0528 57.1111 67.2871 57.2001C67.5214 57.2891 67.7239 57.4458 67.869 57.6501C68.0228 57.5094 68.217 57.4205 68.4241 57.3961C69.7831 57.2321 71.303 60.1961 72.477 62.7881C72.558 62.9681 72.623 63.1111 72.66 63.1881C73.894 65.6881 74.2061 67.3231 74.2141 74.9091C74.2141 74.9674 74.1934 75.0237 74.1556 75.068C74.1179 75.1124 74.0655 75.1418 74.008 75.1511L68.003 76.1061C67.9851 76.1082 67.967 76.1082 67.9491 76.1061C67.8996 76.1032 67.8521 76.0852 67.813 76.0547C67.7739 76.0241 67.745 75.9824 67.7301 75.9351ZM72.217 63.3911C72.176 63.3091 72.1171 63.1701 72.0271 62.9791C70.0661 58.6401 69.0151 57.8061 68.4791 57.8711C68.4198 57.8752 68.3619 57.8918 68.3093 57.9197C68.2568 57.9476 68.2107 57.9862 68.1741 58.0331C68.1692 58.0442 68.1666 58.056 68.1666 58.0681C68.1666 58.0802 68.1692 58.0921 68.1741 58.1031C68.1861 58.1281 68.1981 58.1541 68.2091 58.1801C68.2332 58.2373 68.2347 58.3014 68.2134 58.3597C68.192 58.4179 68.1494 58.4659 68.0941 58.494C68.0388 58.522 67.9749 58.528 67.9153 58.5107C67.8557 58.4935 67.8049 58.4544 67.7731 58.4011C67.754 58.369 67.7372 58.3356 67.723 58.3011C67.458 57.7751 66.9901 57.5141 66.7141 57.6101C66.6071 57.6471 66.282 57.7601 66.561 58.5661C66.5801 58.6223 66.5783 58.6835 66.5556 58.7384C66.533 58.7933 66.4913 58.838 66.4381 58.8644C66.3849 58.8908 66.324 58.897 66.2666 58.8819C66.2092 58.8667 66.1593 58.8313 66.1261 58.7821C65.8011 58.2961 65.6 58.3571 65.514 58.3821C65.4766 58.3915 65.4418 58.4093 65.4122 58.434C65.3826 58.4588 65.3589 58.49 65.343 58.5251C65.2637 58.9679 65.3404 59.4245 65.56 59.8171C65.5835 59.8736 65.585 59.9368 65.5642 59.9943C65.5434 60.0518 65.5019 60.0995 65.4477 60.128C65.3936 60.1564 65.3308 60.1636 65.2716 60.1481C65.2124 60.1325 65.1612 60.0955 65.128 60.0441C65.045 59.9151 64.874 59.7161 64.659 59.8231C64.59 59.8571 64.3901 60.0561 64.6981 61.1661C64.9724 62.0528 65.2952 62.9238 65.665 63.7751C65.924 64.4041 66.147 64.9471 66.265 65.3341C66.4883 66.2735 66.5891 67.2379 66.565 68.2031C66.5675 68.9536 66.6153 69.7033 66.7081 70.4481C67.0378 72.1947 67.5117 73.9109 68.1251 75.5791L73.7251 74.6881C73.7061 67.2191 73.397 65.7781 72.217 63.3911Z" fill="#EE715D"/>
<path d="M65.3301 59.9091C66.0878 61.2898 66.7128 62.7394 67.197 64.2381L65.3301 59.9091Z" fill="#FDB88E"/>
<path d="M67.1809 64.4831C67.2207 64.4856 67.2605 64.4784 67.2969 64.4621C67.3332 64.4457 67.3651 64.4207 67.3896 64.3893C67.4142 64.3579 67.4306 64.321 67.4376 64.2817C67.4446 64.2424 67.442 64.2021 67.4299 64.1641C66.94 62.6496 66.3081 61.1848 65.5428 59.7891C65.5279 59.7595 65.5072 59.7332 65.4818 59.7119C65.4564 59.6905 65.427 59.6746 65.3953 59.6649C65.3635 59.6553 65.3302 59.6523 65.2972 59.6559C65.2643 59.6596 65.2323 59.6699 65.2035 59.6862C65.1746 59.7025 65.1494 59.7245 65.1293 59.7509C65.1092 59.7772 65.0946 59.8074 65.0865 59.8396C65.0784 59.8717 65.0769 59.9052 65.0821 59.938C65.0874 59.9707 65.0993 60.002 65.1169 60.0301C65.8659 61.3965 66.4842 62.8305 66.9639 64.3131C66.9788 64.3599 67.0076 64.4012 67.0463 64.4315C67.085 64.4618 67.1318 64.4798 67.1809 64.4831Z" fill="#EE715D"/>
<path d="M66.3252 58.6421C67.284 60.1749 68.0982 61.7935 68.7572 63.4771L66.3252 58.6421Z" fill="#FDB88E"/>
<path d="M68.7427 63.7201C68.7768 63.7219 68.8109 63.7164 68.8427 63.7041C68.9033 63.6808 68.9521 63.6345 68.9786 63.5752C69.005 63.516 69.0068 63.4487 68.9837 63.3881C68.3183 61.6906 67.4971 60.0582 66.5307 58.5121C66.4958 58.4586 66.4414 58.4209 66.3791 58.4069C66.3168 58.393 66.2515 58.4039 66.1971 58.4374C66.1427 58.4709 66.1035 58.5244 66.088 58.5864C66.0724 58.6483 66.0816 58.7139 66.1137 58.7691C67.0639 60.2893 67.8713 61.8941 68.5257 63.5631C68.5427 63.6075 68.5724 63.646 68.6109 63.6739C68.6494 63.7018 68.6952 63.7178 68.7427 63.7201Z" fill="#EE715D"/>
<path d="M67.9502 58.2181C68.9228 59.7661 69.7676 61.3909 70.4762 63.0762L67.9502 58.2181Z" fill="#FDB88E"/>
<path d="M70.461 63.3201C70.5023 63.3227 70.5436 63.3149 70.5811 63.2972C70.6186 63.2796 70.6509 63.2527 70.6752 63.2192C70.6995 63.1856 70.7149 63.1464 70.7199 63.1053C70.7249 63.0642 70.7195 63.0225 70.704 62.9841C69.9914 61.2838 69.1401 59.6449 68.159 58.084C68.1425 58.0558 68.1206 58.0311 68.0945 58.0114C68.0684 57.9917 68.0386 57.9775 68.0069 57.9695C67.9751 57.9616 67.9421 57.96 67.9098 57.965C67.8775 57.97 67.8465 57.9814 67.8186 57.9986C67.7908 58.0158 67.7666 58.0383 67.7476 58.0649C67.7286 58.0916 67.7152 58.1218 67.708 58.1537C67.7009 58.1856 67.7003 58.2186 67.7061 58.2508C67.7119 58.283 67.7241 58.3137 67.742 58.3411C68.708 59.8765 69.5465 61.4886 70.2489 63.1611C70.2653 63.2051 70.294 63.2435 70.3316 63.2717C70.3692 63.2999 70.4141 63.3167 70.461 63.3201Z" fill="#EE715D"/>
<path d="M75.6863 73.3391C74.9163 71.8801 66.0862 73.2081 66.0742 74.6501C66.0412 79.2201 61.1962 90.3781 69.9342 111.436L82.2543 86.9701C80.3323 83.3001 79.6033 80.7581 75.6863 73.3391Z" fill="#01609A"/>
<path d="M40.7529 111.346C37.5235 108.374 33.9612 105.786 30.137 103.632C30.1093 103.617 30.0848 103.597 30.065 103.572C30.0451 103.547 30.0304 103.519 30.0215 103.489C30.0126 103.459 30.0097 103.427 30.0131 103.396C30.0164 103.364 30.0259 103.334 30.041 103.306C30.0561 103.278 30.0765 103.254 30.1011 103.234C30.1256 103.214 30.1538 103.199 30.1841 103.191C30.2144 103.182 30.2461 103.179 30.2775 103.182C30.3089 103.185 30.3392 103.195 30.367 103.21C34.231 105.388 37.8299 108.005 41.0919 111.01C41.3619 111.269 41.0199 111.608 40.7529 111.346Z" fill="#002869"/>
<path d="M85.9611 99.504C85.9082 99.4951 85.8598 99.4688 85.8236 99.4293C85.7874 99.3898 85.7653 99.3394 85.761 99.286C85.3593 95.5746 84.4348 91.9386 83.015 88.4861C82.9902 88.4273 82.9898 88.3611 83.0138 88.302C83.0378 88.2429 83.0842 88.1958 83.1429 88.171C83.2017 88.1462 83.2679 88.1458 83.327 88.1698C83.3861 88.1938 83.4332 88.2403 83.458 88.2991C84.8978 91.8005 85.8347 95.4881 86.241 99.2521C86.2436 99.2835 86.24 99.3152 86.2303 99.3452C86.2207 99.3753 86.2051 99.4032 86.1847 99.4272C86.1643 99.4513 86.1393 99.4711 86.1112 99.4855C86.0831 99.4999 86.0525 99.5086 86.021 99.5111C86.0008 99.5114 85.9807 99.5089 85.9611 99.504Z" fill="#002869"/>
<path d="M67.8601 108.865C67.8688 108.898 67.8845 108.929 67.906 108.956C67.9276 108.983 67.9545 109.005 67.9851 109.02C68.0157 109.036 68.0493 109.044 68.0836 109.046C68.1179 109.047 68.1522 109.042 68.1841 109.029C68.216 109.016 68.2447 108.997 68.2686 108.972C68.2924 108.947 68.3107 108.918 68.3223 108.886C68.3338 108.853 68.3383 108.819 68.3356 108.785C68.3328 108.75 68.3228 108.717 68.3062 108.687C66.2683 103.174 65.1533 97.3628 65.0061 91.4871C64.9641 90.4131 64.9511 89.4051 64.9541 88.4871C64.9671 85.2011 65.2042 83.041 65.2072 83.014C65.2098 82.953 65.1892 82.8932 65.1494 82.8468C65.1096 82.8004 65.0537 82.7708 64.9929 82.764C64.9322 82.7573 64.8711 82.7738 64.8221 82.8104C64.7732 82.847 64.7399 82.9009 64.7291 82.9611C64.7291 82.9891 64.4821 85.2181 64.4741 88.5941C64.4741 89.4881 64.4861 90.4641 64.5261 91.5001C64.6748 97.4324 65.8013 103.3 67.8601 108.865Z" fill="#002869"/>
<path d="M61.4272 122.695C61.4272 122.344 61.0762 121.995 60.0272 122.11C60.1339 122.082 60.2329 122.029 60.3168 121.958C60.4008 121.886 60.4676 121.796 60.5125 121.695C60.5574 121.594 60.5791 121.485 60.5761 121.374C60.5731 121.264 60.5455 121.156 60.4952 121.057C60.0252 120.357 56.5261 120.817 55.1131 120.706C53.9341 120.613 52.3991 120.482 52.1071 120.014C51.9901 118.814 56.7512 117.664 56.0772 116.406C55.8772 116.025 54.6462 116.23 52.6362 116.857C51.2456 117.217 49.8356 117.497 48.4131 117.695C47.1874 118.014 46.0668 118.649 45.1631 119.536C44.5804 120.171 44.2446 120.993 44.2167 121.855C44.1888 122.716 44.4707 123.558 45.0112 124.229C46.0662 125.646 51.3622 127.219 54.4642 127.114C55.1642 127.09 60.3772 126.673 60.4232 125.499C60.4332 125.238 60.2332 125.015 59.7232 124.947C60.8172 124.707 61.1972 124.447 61.1972 123.983C61.1972 123.749 60.9632 123.573 60.6412 123.483C61.0532 123.376 61.4272 123.142 61.4272 122.695Z" fill="#FDB88E"/>
<path d="M56.8448 122.513C56.1189 122.524 55.3931 122.488 54.6718 122.406C54.6087 122.397 54.5518 122.363 54.5135 122.312C54.4753 122.261 54.4587 122.197 54.4677 122.134C54.4768 122.071 54.5105 122.014 54.5615 121.976C54.6125 121.937 54.6767 121.921 54.7398 121.93C56.3179 122.081 57.9067 122.081 59.4848 121.93C59.5163 121.928 59.5478 121.932 59.5777 121.942C59.6077 121.952 59.6354 121.967 59.6593 121.988C59.6831 122.008 59.7027 122.034 59.7169 122.062C59.731 122.09 59.7395 122.121 59.7418 122.152C59.7441 122.184 59.7402 122.215 59.7303 122.245C59.7204 122.275 59.7047 122.303 59.684 122.327C59.6634 122.35 59.6383 122.37 59.6101 122.384C59.5819 122.398 59.5512 122.407 59.5197 122.409C58.4447 122.487 57.5568 122.513 56.8448 122.513Z" fill="#EE715D"/>
<path d="M56.2179 123.987C55.1949 123.987 54.5719 123.93 54.5599 123.929C54.5286 123.926 54.4981 123.917 54.4702 123.902C54.4424 123.887 54.4178 123.867 54.3977 123.843C54.3777 123.819 54.3625 123.79 54.3533 123.76C54.3441 123.73 54.3409 123.698 54.3439 123.667C54.3469 123.636 54.3562 123.605 54.371 123.577C54.3858 123.55 54.4059 123.525 54.4302 123.505C54.4545 123.485 54.4825 123.47 54.5127 123.461C54.5429 123.451 54.5746 123.448 54.606 123.451C56.5009 123.574 58.4035 123.496 60.282 123.218C60.3132 123.214 60.345 123.215 60.3756 123.223C60.4062 123.231 60.435 123.245 60.4602 123.264C60.4855 123.283 60.5067 123.306 60.5228 123.334C60.5389 123.361 60.5495 123.391 60.554 123.422C60.5584 123.453 60.5567 123.485 60.5488 123.516C60.541 123.546 60.5272 123.575 60.5083 123.6C60.4894 123.626 60.4656 123.647 60.4385 123.663C60.4113 123.679 60.3812 123.69 60.35 123.694C58.9812 123.888 57.6004 123.986 56.2179 123.987Z" fill="#EE715D"/>
<path d="M54.5063 125.572H54.4853C54.4237 125.567 54.3664 125.538 54.3255 125.492C54.2845 125.445 54.263 125.385 54.2653 125.323C54.2743 125.094 54.5002 125.092 54.5852 125.091C56.2522 125.107 57.9178 124.991 59.5662 124.742C59.5971 124.736 59.629 124.736 59.66 124.742C59.6909 124.748 59.7203 124.76 59.7465 124.778C59.7727 124.795 59.7952 124.818 59.8128 124.844C59.8303 124.87 59.8426 124.9 59.8488 124.931C59.855 124.962 59.8549 124.993 59.8488 125.024C59.8427 125.055 59.8305 125.085 59.813 125.111C59.7955 125.137 59.773 125.16 59.7467 125.177C59.7205 125.195 59.6911 125.207 59.6602 125.213C57.9817 125.461 56.2869 125.581 54.5903 125.571H54.5053L54.5063 125.572Z" fill="#EE715D"/>
</g>
<defs>
<clipPath id="clip0_252:2001">
<rect width="120" height="152" rx="8" fill="white"/>
</clipPath>
</defs>
</svg>
