<svg width="300" height="200" viewBox="0 0 120 152" fill="none" xmlns="http://www.w3.org/2000/svg">
<g clip-path="url(#clip0_252:1480)">
<path d="M120 0H0V152H120V0Z" fill="#FFEDD5"/>
<path d="M31.7237 195.928C39.1987 226.657 -3.16429 190.928 10.3777 210.603C23.0547 229.021 32.6697 224.377 62.2337 228.492C117.549 236.192 147.903 221.573 128.099 191.71C110.136 164.623 135.324 151.147 112.986 130.789C99.0127 118.055 110.705 106.553 95.5927 91.4411C84.9467 80.7951 83.9028 54.0891 58.9018 60.5151C47.1208 55.8001 35.9867 61.6151 29.4427 73.1931C22.0297 86.3091 12.3347 104.842 27.4427 125.657C42.0077 145.719 25.0488 153.904 9.04275 171.914C-11.7392 195.294 25.7197 171.247 31.7237 195.928Z" fill="#002869"/>
<path d="M-1.35185 150.464C-5.45185 190.011 25.1482 209.629 53.6482 209.674C82.1481 209.719 90.3652 193.014 90.6712 193.162C97.0962 196.262 96.6712 172.932 95.9842 163.113C93.7612 131.224 83.5901 100.847 48.1121 104.213C26.8331 106.23 1.37915 124.148 -1.35185 150.464Z" fill="#A9D3E1"/>
<path d="M63.4088 185.589C63.4088 185.589 25.3278 172.297 9.54475 122.26C3.18175 102.087 -7.56222 142.16 -4.79522 177.929C-3.57222 193.74 3.94776 203.512 11.3778 214.273C24.1638 232.789 61.8248 242.197 63.4088 185.589Z" fill="#012869"/>
<path d="M-7.25514 216.595C-7.25514 216.595 44.7699 115.277 6.21789 116.308C-21.9741 117.062 -21.2581 212.059 -21.2581 212.059C-21.6161 214.913 -8.14714 217.977 -7.25514 216.595Z" fill="#012869"/>
<path d="M90.6677 193.162C68.0787 194.595 54.7377 134.562 31.3907 122.22C31.0347 122.032 21.7508 121.471 21.7188 165.579C21.7188 169.611 21.8988 208.479 38.0618 226.948C53.4858 244.572 93.8887 238.623 90.6677 193.162Z" fill="#016099"/>
<path d="M3.78095 227.734C3.78095 227.734 65.7679 127.034 24.8489 119.75C-4.56006 114.514 -11.4471 222.799 -11.4471 222.799C-12.1151 226.765 1.88795 229.289 3.78095 227.734Z" fill="#016099"/>
<path d="M34.2881 202.275C52.5471 195.163 69.3711 191.567 82.5781 177.948C88.4752 171.579 92.0232 163.388 92.6361 154.729C92.6971 154.196 92.7361 153.65 92.7691 153.105C94.2231 129.256 80.0691 101.416 48.1111 102.996L58.4391 127.924C52.9011 138.782 57.8121 151.484 52.5891 157.774C42.1891 170.305 37.4741 181.981 27.7751 187.928C25.7481 189.173 31.5241 203.351 34.2881 202.275Z" fill="#A9D3E1"/>
<path d="M25.5288 187.156C25.6127 187.153 25.6943 187.127 25.7647 187.082C25.8352 187.036 25.8918 186.972 25.9287 186.896C33.0102 172.249 37.4155 156.455 38.9367 140.257C38.9445 140.195 38.9397 140.132 38.9224 140.072C38.9052 140.011 38.8759 139.955 38.8364 139.906C38.7969 139.858 38.748 139.818 38.6926 139.788C38.6372 139.759 38.5763 139.741 38.5139 139.736C38.4514 139.731 38.3885 139.738 38.329 139.758C38.2695 139.778 38.2146 139.809 38.1676 139.851C38.1206 139.892 38.0825 139.943 38.0556 139.999C38.0286 140.056 38.0134 140.117 38.0108 140.18C36.4996 156.263 32.1252 171.945 25.0938 186.488C25.0585 186.56 25.0425 186.64 25.0472 186.72C25.0519 186.8 25.0773 186.877 25.1207 186.944C25.1642 187.012 25.2244 187.066 25.2954 187.104C25.3663 187.141 25.4457 187.159 25.5258 187.156H25.5288Z" fill="#002869"/>
<path d="M66.5098 92.2012L68.5098 108.835C68.9968 113.262 48.4038 113.913 47.6958 109.12L48.5637 102.847L66.5098 92.2012Z" fill="#ED715D"/>
<path d="M65.4779 89.2702C65.3689 101.421 56.2679 106.459 48.4559 105.696C43.0339 105.167 39.9418 99.4962 38.8188 96.2702C38.8188 96.2582 38.8078 96.2432 38.8038 96.2312C38.0129 94.1753 37.7333 91.9581 37.9888 89.7702C38.0358 89.2822 38.0949 88.7872 38.1439 88.2702C38.2199 87.4472 38.2089 86.5702 38.2119 85.5702C38.2269 82.4502 38.8478 81.1082 39.5118 80.0442C42.6918 74.9622 47.4598 78.2601 51.9288 70.0251C54.8138 64.7261 65.5599 80.1422 65.4779 89.2702Z" fill="#FDB88E"/>
<path d="M54.3709 92.3581C54.2533 92.9304 54.2906 93.5237 54.4791 94.0768C54.6676 94.6298 55.0004 95.1225 55.4431 95.5038C55.8858 95.8851 56.4223 96.1412 56.9971 96.2457C57.572 96.3502 58.1643 96.2993 58.7128 96.0981C59.1003 95.9685 59.4573 95.7615 59.7622 95.4895C60.067 95.2175 60.3132 94.8863 60.4859 94.5161C60.7521 93.986 60.8695 93.3937 60.8257 92.8022C60.782 92.2107 60.5786 91.6422 60.2374 91.1571C59.8961 90.672 59.4297 90.2885 58.8878 90.0474C58.3458 89.8063 57.7487 89.7167 57.1599 89.7881C56.4827 89.8659 55.8477 90.1567 55.3465 90.6186C54.8453 91.0805 54.5037 91.6895 54.3709 92.3581Z" fill="#ED715D"/>
<path d="M41.4538 93.2122C41.4122 93.9388 41.1289 94.6307 40.649 95.1779C40.169 95.7251 39.5199 96.0962 38.8049 96.2322C38.014 94.1763 37.7342 91.9591 37.9898 89.7712C38.123 89.7633 38.2566 89.7633 38.3898 89.7712C39.252 89.8225 40.0585 90.2135 40.6329 90.8585C41.2072 91.5035 41.5024 92.3499 41.4538 93.2122Z" fill="#ED715D"/>
<path d="M42.8268 87.9871C42.1401 88.1443 41.4256 88.1331 40.7442 87.9546C40.0627 87.7762 39.4344 87.4357 38.9129 86.9621C38.8514 86.8902 38.8203 86.7971 38.8264 86.7027C38.8326 86.6082 38.8753 86.5199 38.9456 86.4566C39.0159 86.3932 39.1081 86.3598 39.2027 86.3634C39.2972 86.3671 39.3866 86.4075 39.4518 86.4761C39.5208 86.5501 41.0289 88.1161 44.3699 86.8181C44.4147 86.7985 44.463 86.7881 44.512 86.7876C44.5609 86.7871 44.6095 86.7966 44.6547 86.8153C44.6999 86.8341 44.7408 86.8618 44.7751 86.8968C44.8093 86.9318 44.8362 86.9733 44.8539 87.0189C44.8717 87.0646 44.88 87.1133 44.8784 87.1623C44.8769 87.2112 44.8654 87.2593 44.8448 87.3037C44.8241 87.3481 44.7946 87.3878 44.7582 87.4206C44.7218 87.4533 44.6792 87.4783 44.6328 87.4941C44.0511 87.7253 43.4453 87.8907 42.8268 87.9871Z" fill="#002869"/>
<path d="M53.8341 88.4831C52.8407 88.3924 51.8872 88.0481 51.0651 87.4831C50.9881 87.4251 50.9374 87.339 50.9239 87.2436C50.9105 87.1483 50.9356 87.0515 50.9935 86.9746C51.0515 86.8977 51.1377 86.8469 51.233 86.8335C51.3284 86.8201 51.4252 86.8451 51.5021 86.9031C52.3309 87.4585 53.3019 87.7641 54.2994 87.7836C55.297 87.8031 56.2791 87.5357 57.129 87.0131C57.2123 86.9691 57.3094 86.9592 57.3999 86.9855C57.4904 87.0118 57.567 87.0721 57.6138 87.1539C57.6605 87.2357 57.6737 87.3325 57.6504 87.4238C57.6271 87.515 57.5692 87.5937 57.489 87.6431C56.3894 88.3006 55.1105 88.5946 53.8341 88.4831Z" fill="#002869"/>
<path d="M47.3637 95.5651C46.9388 95.5929 46.5133 95.5217 46.1206 95.3571C45.8143 95.2389 45.5437 95.0437 45.335 94.7901C45.1263 94.5366 44.9868 94.2335 44.9297 93.9101C44.9221 93.5153 44.9995 93.1233 45.1566 92.761C45.3138 92.3986 45.5472 92.0743 45.8407 91.8101C46.1018 91.5111 46.3319 91.1865 46.5276 90.8411C46.9336 89.8398 47.1702 88.7781 47.2277 87.6991C47.2337 87.6038 47.2771 87.5148 47.3484 87.4512C47.4197 87.3877 47.5131 87.3547 47.6084 87.3596C47.7038 87.3645 47.7934 87.4067 47.8578 87.4772C47.9222 87.5477 47.9563 87.6407 47.9527 87.7361C47.8939 88.9172 47.6317 90.0792 47.1776 91.1711C46.9602 91.5638 46.7021 91.9324 46.4076 92.2711C45.9586 92.8241 45.5707 93.3021 45.6497 93.8031C45.6894 94.0046 45.78 94.1925 45.9131 94.3488C46.0462 94.5051 46.2172 94.6247 46.4097 94.6962C46.7031 94.8197 47.0218 94.8711 47.3391 94.8461C47.6565 94.821 47.9633 94.7202 48.2337 94.5521C48.2731 94.525 48.3174 94.5059 48.3642 94.496C48.4109 94.486 48.4592 94.4853 48.5062 94.494C48.5533 94.5027 48.5982 94.5205 48.6383 94.5466C48.6785 94.5726 48.713 94.6062 48.7401 94.6456C48.7673 94.685 48.7864 94.7294 48.7964 94.7762C48.8064 94.8229 48.807 94.8712 48.7984 94.9183C48.7897 94.9653 48.7718 95.0101 48.7458 95.0503C48.7197 95.0904 48.686 95.125 48.6466 95.1521C48.264 95.403 47.8208 95.5456 47.3637 95.5651Z" fill="#ED715D"/>
<path d="M54.826 65.0811C56.626 63.7391 79.474 61.9611 85.899 88.3051C89.12 101.515 99.335 156.13 107.285 169.755L95.762 159.573C94.428 145.898 92.762 134.892 78.085 126.554C64.727 118.964 57.022 111.154 61.378 95.1482C65.67 79.3752 43.13 78.8961 48.832 69.4861C54.653 59.8821 54.826 65.0811 54.826 65.0811Z" fill="#002869"/>
<path d="M99.5168 20.1332C99.8248 35.5402 88.0989 49.6271 61.4529 49.6271C34.8069 49.6271 18.6719 40.3501 18.4329 19.2601C18.1699 -3.90186 41.6159 -14.9549 61.0039 -13.1859C85.0599 -10.9909 99.1198 0.274157 99.5168 20.1332Z" fill="white"/>
<path d="M81.144 67.0862C84.5825 67.0862 87.37 65.0867 87.37 62.6202C87.37 60.1537 84.5825 58.1542 81.144 58.1542C77.7054 58.1542 74.918 60.1537 74.918 62.6202C74.918 65.0867 77.7054 67.0862 81.144 67.0862Z" fill="white"/>
<path d="M36.4 25.9952H32.994C32.3045 25.9952 31.6431 25.7212 31.1555 25.2336C30.6679 24.746 30.394 24.0847 30.394 23.3952V16.5822C30.394 15.8926 30.6679 15.2313 31.1555 14.7437C31.6431 14.2561 32.3045 13.9822 32.994 13.9822H36.4V25.9952Z" fill="#A9D3E1"/>
<path d="M80.8612 31.3132C70.1992 31.8072 48.8241 31.3952 38.1451 31.3132C37.2647 31.3129 36.4204 30.963 35.7979 30.3405C35.1753 29.7179 34.8255 28.8736 34.8252 27.9932V11.9812C34.8247 11.545 34.9103 11.113 35.0773 10.7101C35.2443 10.3071 35.4892 9.94113 35.7981 9.63317C36.4317 9.0269 37.2694 8.6798 38.1461 8.66017C48.8151 8.14117 70.1832 8.57417 80.8622 8.66017C81.7021 8.66244 82.5103 8.9809 83.1261 9.55217C83.7825 10.192 84.1616 11.0638 84.1821 11.9802C84.3821 16.2212 84.3821 23.9192 84.1821 27.9922C84.1634 28.8051 83.865 29.5867 83.3372 30.2052C83.0194 30.546 82.6366 30.8196 82.2113 31.0099C81.786 31.2002 81.327 31.3033 80.8612 31.3132Z" fill="#A9D3E1"/>
<path d="M79.2681 28.5422H74.425C73.9307 28.5422 73.4565 28.3458 73.1069 27.9962C72.7574 27.6466 72.561 27.1725 72.561 26.6782V13.2942C72.5613 12.7999 72.7579 12.3259 73.1074 11.9764C73.4569 11.6269 73.9308 11.4304 74.425 11.4302H79.2642C79.509 11.43 79.7513 11.4781 79.9775 11.5718C80.2037 11.6654 80.4094 11.8027 80.5825 11.9758C80.7556 12.1489 80.8929 12.3545 80.9866 12.5807C81.0802 12.8069 81.1283 13.0493 81.1282 13.2942V26.6782C81.1282 27.1725 80.9316 27.6466 80.582 27.9962C80.2325 28.3458 79.7585 28.5422 79.2642 28.5422H79.2681Z" fill="#ED715D"/>
</g>
<defs>
<clipPath id="clip0_252:1480">
<rect width="120" height="152" rx="8" fill="white"/>
</clipPath>
</defs>
</svg>
