<svg xmlns="http://www.w3.org/2000/svg" width="24" height="24" viewBox="0 0 24 24"><defs><style>.a{fill:#4285f4;}.a,.b,.c,.d,.e{fill-rule:evenodd;}.b{fill:#34a853;}.c{fill:#fbbc05;}.d{fill:#ea4335;}.e{fill:none;}</style></defs><g transform="translate(0)"><path class="a" d="M20.513,9.817a13.78,13.78,0,0,0-.218-2.453H9V12h6.454a5.517,5.517,0,0,1-2.393,3.62v3.009h3.876a11.7,11.7,0,0,0,3.576-8.815Z" transform="translate(3.007 2.463)"/><path class="b" d="M11.674,20.424a11.449,11.449,0,0,0,7.937-2.905l-3.876-3.009a7.235,7.235,0,0,1-10.771-3.8H.957v3.107a11.988,11.988,0,0,0,10.717,6.607Z" transform="translate(0.318 3.576)"/><path class="c" d="M5.282,12.623a7.09,7.09,0,0,1,0-4.557V4.958H1.276a12.008,12.008,0,0,0,0,10.771l4.007-3.107Z" transform="translate(0 1.656)"/><path class="d" d="M11.674,4.77a6.479,6.479,0,0,1,4.584,1.793l3.44-3.44A11.525,11.525,0,0,0,11.674,0,11.988,11.988,0,0,0,.957,6.607L4.964,9.714a7.147,7.147,0,0,1,6.71-4.944Z" transform="translate(0.318)"/><path class="e" d="M0,0H24V24H0Z"/></g></svg>