<svg version="1.1" id="Layer_1" xmlns="http://www.w3.org/2000/svg" xmlns:xlink="http://www.w3.org/1999/xlink" x="0px" y="0px" width="300.786px" height="94.958px" viewBox="0 0 300.786 94.958" enable-background="new 0 0 300.786 94.958" xml:space="preserve">
<g>
    <path fill="#FFCB0B" d="M244.357,92.177c0-7.639,6.192-13.832,13.831-13.832s13.832,6.193,13.832,13.832"></path>
    <rect x="245.996" y="24.965" fill="#FFCB0B" width="23.77" height="21.258"></rect>
    <path fill="#4A4680" d="M0,14.586h7.26V51.58H0V14.586z"></path>
    <path fill="#4A4680" d="M278.267,87.698v7.26h-40.968v-7.26H278.267z"></path>
    <path fill="#4A4680" d="M47.464,51.58h-7.259V33.084c0-3.77-0.628-6.492-1.884-8.168c-1.537-2.093-4.236-3.139-8.1-3.139
		c-3.861,0-6.584,1.046-8.165,3.139c-1.257,1.676-1.885,4.398-1.885,8.168V51.58h-7.257V33.119c0-12.354,5.769-18.533,17.307-18.533
		c11.494,0,17.242,6.18,17.242,18.533V51.58z"></path>
    <path fill="#4A4680" d="M87.665,51.58h-7.258V33.084c0-3.77-0.629-6.492-1.885-8.168c-1.535-2.093-4.235-3.139-8.098-3.139
		s-6.583,1.046-8.165,3.139c-1.257,1.676-1.885,4.398-1.885,8.168V51.58h-7.259V33.119c0-12.354,5.77-18.533,17.309-18.533
		c11.494,0,17.24,6.18,17.24,18.533V51.58z"></path>
    <path fill="#4A4680" d="M127.449,51.58h-17.238c-11.543,0-17.31-6.154-17.31-18.461c0-12.354,5.767-18.533,17.31-18.533
		c11.491,0,17.238,6.171,17.238,18.51v3.617h-27.081c0.744,5.119,4.025,7.68,9.843,7.68h17.238V51.58z M119.981,29.523
		c-0.744-5.164-4.002-7.746-9.771-7.746c-5.817,0-9.099,2.582-9.843,7.746H119.981z"></path>
    <path fill="#4A4680" d="M151.808,21.777c-4.514,0-7.631,0.627-9.35,1.884c-1.259,0.933-1.887,2.374-1.887,4.328V51.58h-7.259
		V28.033c0-8.963,6.165-13.447,18.495-13.447V21.777z"></path>
    <path fill="#4A4680" d="M196.447,51.58h-7.329V33.084c0-3.77-0.623-6.492-1.871-8.168c-1.523-2.093-4.204-3.139-8.038-3.139
		c-3.836,0-6.541,1.046-8.111,3.139c-1.248,1.676-1.871,4.398-1.871,8.168V51.58h-7.329V0h7.329v16.96
		c2.727-1.58,6.053-2.374,9.982-2.374c11.492,0,17.238,6.18,17.238,18.533V51.58z"></path>
    <path fill="#4A4680" d="M235.114,33.119c0,12.307-5.746,18.461-17.239,18.461c-11.542,0-17.31-6.154-17.31-18.461
		c0-12.354,5.768-18.533,17.31-18.533C229.368,14.586,235.114,20.766,235.114,33.119z M227.855,33.119
		c0-3.781-0.627-6.512-1.885-8.191c-1.534-2.102-4.232-3.15-8.096-3.15c-3.864,0-6.561,1.049-8.097,3.15
		c-1.256,1.68-1.885,4.41-1.885,8.191c0,3.779,0.629,6.512,1.885,8.19c1.536,2.056,4.232,3.083,8.097,3.083
		c3.863,0,6.562-1.027,8.096-3.083C227.229,39.631,227.855,36.898,227.855,33.119z"></path>
    <path fill="#4A4680" d="M275.317,33.119c0,12.307-5.771,18.461-17.31,18.461c-11.493,0-17.241-6.154-17.241-18.461V14.586h7.26
		v18.568c0,3.768,0.628,6.491,1.886,8.166c1.534,2.048,4.233,3.072,8.096,3.072s6.561-1.024,8.098-3.072
		c1.255-1.675,1.885-4.398,1.885-8.166V14.586h7.327V33.119z"></path>
    <path fill="#4A4680" d="M240.767,69.144c0-12.309,5.771-18.463,17.311-18.463c11.494,0,17.24,6.154,17.24,18.463v18.531h-7.26
		V69.108c0-3.77-0.628-6.493-1.883-8.166c-1.537-2.048-4.235-3.072-8.098-3.072s-6.561,1.024-8.095,3.072
		c-1.257,1.673-1.884,4.396-1.884,8.166v18.566h-7.332V69.144z"></path>
    <path fill="#4A4680" d="M300.786,21.777c-4.515,0-7.633,0.627-9.353,1.884c-1.258,0.933-1.884,2.374-1.884,4.328V51.58h-7.26
		V28.033c0-8.963,6.166-13.447,18.496-13.447V21.777z"></path>
    <path fill="#FFCB0B" d="M260.907,73.118c0,1.559-1.262,2.82-2.82,2.82c-1.56,0-2.822-1.262-2.822-2.82
		c0-1.561,1.263-2.822,2.822-2.822C259.646,70.296,260.907,71.558,260.907,73.118z"></path>
    <circle fill="#FFCB0B" cx="258.086" cy="63.796" r="3.35"></circle>
</g>
</svg>