<svg xmlns="http://www.w3.org/2000/svg" width="80" height="80" viewBox="0 0 80 80"><defs><style>.a{fill:#fafafa;}.b{fill:#7363aa;}</style></defs><circle class="a" cx="40" cy="40" r="40"/><path class="b" d="M114,114.343a2.324,2.324,0,0,1-.695,1.655L97.8,131.314a2.391,2.391,0,0,1-3.353,0c-.036-.035-.07-.072-.1-.108s-.073-.064-.107-.1l-7.543-7.451a2.322,2.322,0,0,1,0-3.312,2.389,2.389,0,0,1,3.352,0l6.078,6,13.83-13.661a2.39,2.39,0,0,1,3.352,0A2.323,2.323,0,0,1,114,114.343Z" transform="translate(-60 -82.455)"/></svg>