<svg width="300" height="200" viewBox="0 0 120 152" fill="none" xmlns="http://www.w3.org/2000/svg">
<g clip-path="url(#clip0_252:1965)">
<path d="M126 -6H-4V158H126V-6Z" fill="#F6A4AA"/>
<path d="M29.174 169.627C-8.04905 169.627 -37.207 161.643 -37.207 151.45C-37.207 141.257 -8.04805 133.273 29.174 133.273C66.396 133.273 95.555 141.258 95.555 151.45C95.555 161.642 66.3969 169.627 29.174 169.627ZM29.174 134.836C-9.59805 134.836 -35.644 143.427 -35.644 151.45C-35.644 159.473 -9.59905 168.064 29.174 168.064C67.9469 168.064 93.9919 159.474 93.9919 151.45C93.9919 143.426 67.9469 134.836 29.174 134.836Z" fill="#ED715D"/>
<path d="M-36.4272 152.231C-36.6246 152.231 -36.8146 152.156 -36.959 152.021C-37.1035 151.887 -37.1918 151.703 -37.2062 151.506C-38.0138 136.483 -37.6165 121.419 -36.0182 106.46C-33.5772 83.8059 -27.0482 52.8679 -9.80721 34.1279C0.528793 22.8939 13.6408 17.1169 29.1648 16.9559C44.1998 16.8109 56.9758 22.1669 67.1528 32.9059C84.5998 51.3149 91.3888 82.6059 94.0128 105.606C95.732 120.839 96.247 136.183 95.5528 151.497C95.5367 151.703 95.4409 151.894 95.286 152.03C95.131 152.167 94.9289 152.237 94.7228 152.227C94.516 152.214 94.3229 152.119 94.1861 151.963C94.0492 151.807 93.9797 151.604 93.9928 151.397C94.6819 136.167 94.1684 120.906 92.4568 105.757C89.8568 82.9969 83.1628 52.0689 66.0168 33.9789C56.1508 23.5689 43.7508 18.3509 29.1808 18.5179C14.1058 18.6739 1.3808 24.2809 -8.6552 35.1829C-25.6042 53.6039 -32.0442 84.1829 -34.4612 106.598C-36.0525 121.474 -36.4491 136.454 -35.6472 151.393C-35.6323 151.599 -35.7 151.803 -35.8353 151.96C-35.9707 152.117 -36.1627 152.214 -36.3692 152.229L-36.4272 152.231Z" fill="#ED715D"/>
<path d="M116.639 66.8259C120.023 52.7209 106.839 52.3968 103.439 44.2858C100.848 38.0988 94.8588 33.9738 89.3868 37.0098C77.5138 33.1098 71.9188 46.3258 59.8678 47.5378C35.9358 49.9438 42.9947 70.8509 27.4757 75.7979C0.345747 84.4459 11.3587 101.012 6.90275 111.944C-1.21025 131.844 14.1847 140.501 31.3777 138.626C45.6527 137.069 56.4678 154.982 74.2608 137.152C83.2268 128.167 86.5547 128.908 96.3897 126.146C116.64 120.458 105.921 100.505 113.672 94.4238C123.853 84.2828 114.507 75.7139 116.639 66.8259Z" fill="#012869"/>
<path d="M70.9159 124.996C64.4439 120.954 53.4028 146.374 53.3758 146.435C53.2168 146.797 53.0289 147.035 52.8899 147.076C51.6209 147.449 50.4349 147.95 50.2759 149.453C50.1805 152.029 50.3035 154.608 50.6438 157.163C51.5888 164.32 54.0699 158.3 54.3439 157.409C54.8439 155.766 55.1438 153.517 56.2318 150.452C56.4049 149.936 56.6684 149.455 57.0099 149.032C57.0099 149.032 78.4219 129.684 70.9159 124.996Z" fill="#FDB88E"/>
<path d="M54.3406 157.399C54.2406 160.399 53.5176 163.076 51.6686 162.941C49.5896 162.788 48.4045 158.72 48.8055 156.358C49.0613 155.195 49.242 154.016 49.3465 152.83C49.4045 151.358 49.6826 150.087 49.7666 149.074C49.8836 147.667 51.2105 146.806 52.8885 147.068C52.3669 147.5 52.0321 148.117 51.9536 148.79C51.3796 151.555 50.8716 154.896 51.1726 156.351C51.4736 157.806 51.9555 158.543 52.7375 158.599C53.9385 158.683 54.1056 158.083 54.3406 157.399Z" fill="#002869"/>
<path d="M103.053 160.009C101.571 158.817 100.173 157.525 98.8667 156.143C97.7367 154.132 102.84 120.69 92.0258 127.692C87.2758 130.767 94.5567 151.658 93.8807 156.438C93.8617 156.569 93.8197 156.683 93.8047 156.794C93.6172 157.301 93.5964 157.854 93.7449 158.374C93.8934 158.894 94.2037 159.353 94.6307 159.684C96.7061 160.95 98.8848 162.038 101.144 162.937C107.47 165.462 103.719 160.583 103.053 160.009Z" fill="#FDB88E"/>
<path d="M59.8139 129.463C59.7139 130.58 67.7609 135.38 82.0139 135.624C91.5199 135.787 99.3519 133.801 99.7139 132.103C101.898 121.85 94.3289 92.0639 94.3289 92.0639C94.8989 90.0129 76.1589 84.8099 75.3959 87.6959C75.3989 87.6969 62.2729 102.72 59.8139 129.463Z" fill="#F37E87"/>
<path d="M56.0699 85.8198C55.5949 86.7048 54.6768 87.4198 54.4388 87.9388C53.9058 89.0908 53.8269 89.7028 53.3789 89.6838C52.4569 89.6448 53.6178 87.5498 53.5278 86.7128C53.5226 86.6717 53.5084 86.6323 53.486 86.5975C53.4637 86.5626 53.4339 86.5331 53.3987 86.5113C53.3636 86.4894 53.3239 86.4757 53.2828 86.4711C53.2416 86.4665 53.2 86.4712 53.1608 86.4848C52.6356 86.7342 52.1554 87.0691 51.7398 87.4758C51.1128 88.0548 49.8219 90.1358 49.4089 89.8358C48.9449 89.4998 50.0379 87.9468 50.4359 87.4798C50.0189 87.9638 48.6048 90.1438 48.0678 89.6688C47.6808 89.3268 49.8189 86.7528 50.0959 86.4318C49.9549 86.5808 48.2379 89.1388 47.8519 88.5448C47.5169 88.0278 49.4079 85.9448 49.6859 85.6228C49.5049 85.8088 48.1218 87.9228 47.6938 87.3458C47.4488 87.0138 49.0209 84.9098 49.2939 84.5888C50.5169 83.1728 54.7409 80.8058 55.3159 80.6058L57.6038 82.4138C57.6038 82.4138 57.1559 83.6018 56.8729 84.1328C56.5239 84.7958 56.2479 85.4878 56.0699 85.8198Z" fill="#FDB88E"/>
<path d="M122.583 78.9089C115.742 76.1499 109.349 74.3388 106.689 70.4878C102.183 63.9628 97.7818 55.7938 89.3508 55.6008C77.8508 55.3378 73.7508 62.3438 67.2098 68.9448C64.3978 71.7838 57.5828 75.2688 53.8998 80.8058C53.2158 81.4358 56.4598 84.6278 57.7858 84.0768C60.8858 82.5578 69.0078 82.4939 74.4298 80.2189C73.5938 83.6459 71.9698 88.6858 72.4658 89.2568C73.8258 90.8238 85.7188 94.9568 95.8658 93.3168C97.0118 93.1318 97.7997 85.7658 97.9747 82.2078C109.196 88.2328 119.305 84.2908 121.787 83.8398C123.116 83.5958 123.477 79.1679 122.583 78.9089Z" fill="#FAD1CD"/>
<path d="M86.6429 48.0059L84.5219 56.4568C84.0739 58.6458 92.122 59.7428 92.296 57.4088L92.6119 53.9908L86.6429 48.0059Z" fill="#ED715D"/>
<path d="M85.233 49.8559C85.927 54.1309 89.6119 56.3719 92.7109 55.7559C94.8619 55.3269 95.873 52.9319 96.194 51.5929V51.5769C96.4282 50.7216 96.4512 49.8221 96.261 48.9559C96.222 48.7619 96.179 48.5669 96.139 48.3629C96.076 48.0359 96.0449 47.6849 96.0029 47.2839C95.9846 46.5039 95.7247 45.7488 95.259 45.1229C93.781 43.2139 92.0029 44.7229 89.8829 41.6069C88.5209 39.5949 84.64 46.2279 85.233 49.8559Z" fill="#FDB88E"/>
<path d="M89.807 50.6479C89.8771 50.8724 89.886 51.1116 89.8327 51.3407C89.7795 51.5697 89.6659 51.7805 89.5039 51.9509C89.3419 52.1214 89.1372 52.2455 88.9111 52.3104C88.685 52.3753 88.4458 52.3785 88.218 52.3199C88.0578 52.2836 87.9066 52.215 87.7737 52.1184C87.6408 52.0218 87.5289 51.8992 87.4449 51.758C87.3167 51.5563 87.2456 51.3236 87.2392 51.0847C87.2329 50.8458 87.2916 50.6097 87.4089 50.4015C87.5262 50.1933 87.6978 50.0209 87.9055 49.9026C88.1131 49.7843 88.3491 49.7247 88.588 49.7299C88.862 49.7349 89.1274 49.8264 89.3463 49.9912C89.5652 50.1561 89.7265 50.3859 89.807 50.6479Z" fill="#ED715D"/>
<path d="M95.0151 50.4709C95.0617 50.7597 95.2031 51.0246 95.4172 51.2239C95.6313 51.4231 95.9058 51.5453 96.1972 51.5709C96.4318 50.7156 96.4546 49.8161 96.264 48.95C96.2111 48.9519 96.1584 48.9568 96.1061 48.9649C95.9355 48.992 95.7719 49.0525 95.6248 49.1429C95.4776 49.2333 95.3498 49.3519 95.2484 49.4918C95.1471 49.6316 95.0743 49.7901 95.0343 49.9581C94.9943 50.1261 94.9878 50.3004 95.0151 50.4709Z" fill="#ED715D"/>
<path d="M94.3008 48.4679C94.5842 48.4743 94.865 48.412 95.1193 48.2865C95.3735 48.161 95.5936 47.9758 95.7609 47.7469C95.7805 47.7135 95.786 47.6736 95.7762 47.6361C95.7665 47.5986 95.7423 47.5665 95.7089 47.5469C95.6754 47.5272 95.6355 47.5217 95.598 47.5314C95.5605 47.5412 95.5284 47.5655 95.5088 47.5989C95.4878 47.6339 95.0198 48.3728 93.5968 48.1318C93.5779 48.1286 93.5585 48.1292 93.5398 48.1334C93.5211 48.1377 93.5034 48.1456 93.4878 48.1567C93.4721 48.1678 93.4588 48.1819 93.4486 48.1981C93.4384 48.2144 93.4316 48.2324 93.4283 48.2513C93.4251 48.2703 93.4257 48.2896 93.4299 48.3083C93.4342 48.327 93.442 48.3447 93.4531 48.3603C93.4642 48.376 93.4784 48.3893 93.4946 48.3995C93.5109 48.4097 93.5289 48.4166 93.5478 48.4199C93.7963 48.4639 94.0488 48.48 94.3008 48.4679Z" fill="#002869"/>
<path d="M89.9631 49.192C90.3626 49.1498 90.7445 49.0055 91.0721 48.773C91.1027 48.7492 91.1226 48.7143 91.1275 48.6758C91.1324 48.6374 91.1218 48.5986 91.0981 48.5679C91.0743 48.5373 91.0393 48.5174 91.0009 48.5125C90.9625 48.5076 90.9236 48.5182 90.893 48.5419C90.5623 48.7699 90.1731 48.8982 89.7717 48.9117C89.3702 48.9252 88.9732 48.8232 88.628 48.6179C88.594 48.5991 88.5541 48.5945 88.5168 48.6052C88.4795 48.6159 88.4478 48.641 88.429 48.6749C88.4102 48.7089 88.4056 48.7489 88.4163 48.7863C88.427 48.8236 88.4521 48.8551 88.486 48.874C88.9326 49.1329 89.4495 49.2441 89.9631 49.192Z" fill="#002869"/>
<path d="M92.5978 51.5739C92.7692 51.5681 92.937 51.5225 93.0878 51.4409C93.2057 51.3812 93.3062 51.2922 93.3796 51.1824C93.453 51.0726 93.4969 50.9456 93.5069 50.8139C93.4943 50.6552 93.4476 50.501 93.3702 50.362C93.2927 50.2229 93.1862 50.1021 93.0579 50.0079C92.9413 49.8985 92.836 49.7775 92.7438 49.6469C92.5415 49.2618 92.4047 48.8459 92.3389 48.4159C92.336 48.3969 92.3293 48.3787 92.3194 48.3623C92.3094 48.3458 92.2964 48.3315 92.2809 48.3202C92.2655 48.3088 92.2479 48.3006 92.2293 48.296C92.2107 48.2914 92.1914 48.2905 92.1724 48.2934C92.1534 48.2963 92.1351 48.3029 92.1187 48.3128C92.1023 48.3228 92.088 48.3358 92.0766 48.3513C92.0652 48.3667 92.057 48.3843 92.0524 48.4029C92.0478 48.4216 92.047 48.4409 92.0498 48.4599C92.1207 48.9307 92.2723 49.3857 92.4978 49.8049C92.6006 49.9528 92.7186 50.0896 92.8499 50.2129C93.0499 50.4129 93.2269 50.5919 93.2149 50.7959C93.2068 50.8782 93.1779 50.957 93.1308 51.0249C93.0837 51.0928 93.02 51.1475 92.9458 51.1839C92.8332 51.2453 92.7074 51.2787 92.5791 51.2813C92.4509 51.2839 92.324 51.2557 92.2089 51.1989C92.175 51.1802 92.1349 51.1758 92.0977 51.1865C92.0605 51.1973 92.029 51.2224 92.0103 51.2564C91.9916 51.2903 91.9872 51.3304 91.998 51.3676C92.0088 51.4048 92.034 51.4362 92.0679 51.4549C92.2306 51.5416 92.4137 51.5826 92.5978 51.5739Z" fill="#ED715D"/>
<path d="M92.2427 39.1718C92.2427 39.1718 86.4477 33.7168 79.1357 41.2628C76.7357 43.7418 66.1357 68.9358 66.1357 68.9358C72.0787 63.4628 79.0357 64.6638 84.4147 58.9188C86.5307 56.6578 87.0778 52.4848 87.4568 48.1378C87.7788 44.4508 91.9397 46.1378 92.0227 42.6538C92.1197 38.7898 92.2427 39.1718 92.2427 39.1718Z" fill="#012869"/>
<path d="M98.1137 83.4057C98.1311 83.4078 98.1488 83.4063 98.1656 83.4013C98.1824 83.3964 98.1981 83.388 98.2116 83.3767C98.2251 83.3655 98.2361 83.3517 98.2441 83.336C98.252 83.3204 98.2566 83.3033 98.2577 83.2857C98.3225 79.6204 98.0608 75.9566 97.4758 72.3377C97.4724 72.3193 97.4654 72.3017 97.4551 72.2859C97.4449 72.2702 97.4316 72.2567 97.4161 72.2461C97.4005 72.2356 97.383 72.2283 97.3646 72.2247C97.3461 72.221 97.3272 72.221 97.3088 72.2248C97.2708 72.2321 97.2373 72.254 97.2154 72.2858C97.1935 72.3176 97.185 72.3567 97.1917 72.3948C97.7734 75.9915 98.0338 79.6329 97.9698 83.2758C97.9694 83.2938 97.9729 83.3117 97.9799 83.3283C97.987 83.345 97.9973 83.3598 98.0106 83.3721C98.0238 83.3844 98.0395 83.3938 98.0566 83.3996C98.0737 83.4054 98.0917 83.4074 98.1097 83.4057H98.1137Z" fill="#002869"/>
<path d="M74.2368 80.6599C75.8154 80.1226 77.1783 79.0901 78.1228 77.7158C78.134 77.7005 78.1421 77.6832 78.1466 77.6648C78.1511 77.6463 78.1519 77.6272 78.149 77.6084C78.1462 77.5897 78.1397 77.5717 78.1299 77.5554C78.12 77.5392 78.1071 77.5251 78.0918 77.5139C78.0765 77.5026 78.0591 77.4945 78.0406 77.49C78.0222 77.4855 78.0031 77.4846 77.9844 77.4875C77.9656 77.4904 77.9476 77.497 77.9314 77.5068C77.9152 77.5166 77.901 77.5296 77.8898 77.5449C77.017 78.7501 75.816 79.6787 74.4298 80.2199C74.4298 80.2199 74.2398 80.6199 74.2368 80.6599Z" fill="#002869"/>
<path d="M-14.592 165.188C-14.7993 165.188 -14.9979 165.105 -15.1443 164.958C-15.2908 164.812 -15.373 164.613 -15.373 164.406C-15.373 128.965 -13.221 99.1948 -8.97302 75.9228C-1.83702 36.7958 10.999 16.9568 29.178 16.9568C29.3804 16.964 29.5721 17.0495 29.7128 17.1953C29.8534 17.3411 29.932 17.5358 29.932 17.7383C29.932 17.9409 29.8534 18.1355 29.7128 18.2813C29.5721 18.427 29.3804 18.5126 29.178 18.5198C11.864 18.5198 -0.455035 37.9278 -7.43604 76.2028C-11.664 99.3828 -13.8071 129.058 -13.8071 164.403C-13.8067 164.506 -13.8267 164.608 -13.866 164.704C-13.9053 164.799 -13.9631 164.886 -14.0361 164.959C-14.109 165.032 -14.1957 165.09 -14.2911 165.129C-14.3866 165.168 -14.4888 165.188 -14.592 165.188Z" fill="#ED715D"/>
<path d="M13.6417 169.135C13.4343 169.135 13.2355 169.052 13.0888 168.906C12.9421 168.759 12.8597 168.56 12.8597 168.353C12.8597 165.47 12.8518 162.22 12.8428 158.672C12.7278 114.248 12.5137 31.5568 25.2757 18.7628C25.7699 18.2137 26.3704 17.7706 27.0407 17.4602C27.711 17.1498 28.4373 16.9785 29.1757 16.9568C29.3781 16.964 29.5699 17.0495 29.7106 17.1953C29.8512 17.3411 29.9298 17.5358 29.9298 17.7383C29.9298 17.9409 29.8512 18.1355 29.7106 18.2813C29.5699 18.427 29.3781 18.5126 29.1757 18.5198C28.6434 18.5426 28.1214 18.6737 27.6415 18.9051C27.1616 19.1365 26.734 19.4634 26.3848 19.8658C14.0848 32.2008 14.3017 117.619 14.4087 158.666C14.4177 162.216 14.4267 165.466 14.4267 168.351C14.427 168.454 14.4069 168.556 14.3675 168.651C14.3281 168.747 14.2703 168.833 14.1973 168.906C14.1244 168.979 14.0377 169.037 13.9424 169.076C13.847 169.115 13.7448 169.135 13.6417 169.135Z" fill="#ED715D"/>
<path d="M42.7849 169.135C42.5775 169.135 42.3786 169.052 42.2319 168.906C42.0853 168.759 42.0029 168.56 42.0029 168.353C42.0029 165.469 42.0119 162.219 42.0209 158.67C42.1269 117.62 42.3469 32.2019 30.0439 19.8699C29.6947 19.4675 29.267 19.1406 28.7871 18.9091C28.3072 18.6777 27.7852 18.5466 27.2529 18.5238C27.1479 18.5276 27.0433 18.5102 26.9452 18.4726C26.8471 18.435 26.7576 18.378 26.682 18.3051C26.6064 18.2322 26.5462 18.1447 26.5051 18.048C26.4641 17.9514 26.4429 17.8474 26.4429 17.7424C26.4429 17.6373 26.4641 17.5333 26.5051 17.4366C26.5462 17.3399 26.6064 17.2525 26.682 17.1796C26.7576 17.1066 26.8471 17.0497 26.9452 17.0121C27.0433 16.9745 27.1479 16.9571 27.2529 16.9608C27.9912 16.9825 28.7175 17.1537 29.3878 17.4639C30.0581 17.7741 30.6585 18.217 31.1528 18.7659C43.9138 31.5598 43.7009 114.252 43.5859 158.677C43.5769 162.224 43.5679 165.477 43.5679 168.356C43.5671 168.563 43.4842 168.761 43.3374 168.907C43.1906 169.053 42.992 169.135 42.7849 169.135Z" fill="#ED715D"/>
<path d="M70.6941 165.188C70.4867 165.188 70.2878 165.105 70.1411 164.959C69.9945 164.812 69.9121 164.613 69.9121 164.406C69.9121 129.058 67.7681 99.3829 63.5411 76.2059C56.5601 37.9299 44.2411 18.5228 26.9281 18.5228C26.8231 18.5266 26.7185 18.5092 26.6204 18.4716C26.5223 18.434 26.4328 18.377 26.3572 18.3041C26.2816 18.2311 26.2215 18.1437 26.1804 18.047C26.1394 17.9504 26.1182 17.8464 26.1182 17.7413C26.1182 17.6363 26.1394 17.5323 26.1804 17.4357C26.2215 17.339 26.2816 17.2515 26.3572 17.1786C26.4328 17.1056 26.5223 17.0487 26.6204 17.0111C26.7185 16.9735 26.8231 16.9561 26.9281 16.9599C45.1071 16.9599 57.9431 36.7989 65.0791 75.9259C69.3241 99.1969 71.4791 128.967 71.4791 164.409C71.4787 164.512 71.4581 164.613 71.4185 164.708C71.3788 164.803 71.3208 164.889 71.2479 164.961C71.175 165.033 71.0887 165.091 70.9937 165.129C70.8986 165.168 70.7968 165.188 70.6941 165.188Z" fill="#ED715D"/>
<path d="M28.2132 18.6428C28.0635 18.6428 27.9171 18.5998 27.7912 18.5188C27.4852 18.3188 20.3052 13.6388 20.3052 7.66285C20.3052 3.23185 24.5192 0.91384 28.6802 0.91384C30.6152 0.8718 32.5161 1.42813 34.1232 2.50684C34.9363 3.06719 35.5977 3.82064 36.0478 4.69961C36.4979 5.57857 36.7228 6.55553 36.7022 7.54284C36.7022 13.5778 28.9472 18.3318 28.6172 18.5308C28.4953 18.6044 28.3556 18.6431 28.2132 18.6428ZM28.6802 2.47684C25.2952 2.47684 21.8682 4.25785 21.8682 7.66285C21.8682 12.0488 26.7622 15.8748 28.2272 16.9218C29.7822 15.8798 35.1392 11.9688 35.1392 7.54185C35.1603 6.80311 34.9951 6.07095 34.6586 5.41294C34.3222 4.75492 33.8254 4.19225 33.2142 3.77685C31.872 2.88789 30.2885 2.43397 28.6792 2.47684H28.6802Z" fill="#ED715D"/>
</g>
<defs>
<clipPath id="clip0_252:1965">
<rect width="120" height="152" rx="8" fill="white"/>
</clipPath>
</defs>
</svg>
